<?xml version="1.0" encoding="utf-8" standalone="no"?>
<!DOCTYPE svg PUBLIC "-//W3C//DTD SVG 1.1//EN"
  "http://www.w3.org/Graphics/SVG/1.1/DTD/svg11.dtd">
<!-- Created with matplotlib (https://matplotlib.org/) -->
<svg height="262.19625pt" version="1.1" viewBox="0 0 376.240625 262.19625" width="376.240625pt" xmlns="http://www.w3.org/2000/svg" xmlns:xlink="http://www.w3.org/1999/xlink">
 <defs>
  <style type="text/css">
*{stroke-linecap:butt;stroke-linejoin:round;}
  </style>
 </defs>
 <g id="figure_1">
  <g id="patch_1">
   <path d="M 0 262.19625 
L 376.240625 262.19625 
L 376.240625 0 
L 0 0 
z
" style="fill:none;"/>
  </g>
  <g id="axes_1">
   <g id="patch_2">
    <path d="M 34.240625 224.64 
L 369.040625 224.64 
L 369.040625 7.2 
L 34.240625 7.2 
z
" style="fill:#ffffff;"/>
   </g>
   <g id="matplotlib.axis_1">
    <g id="xtick_1">
     <g id="line2d_1">
      <defs>
       <path d="M 0 0 
L 0 3.5 
" id="m72ab3d7946" style="stroke:#000000;stroke-width:0.8;"/>
      </defs>
      <g>
       <use style="stroke:#000000;stroke-width:0.8;" x="49.458807" xlink:href="#m72ab3d7946" y="224.64"/>
      </g>
     </g>
     <g id="text_1">
      <!-- 0 -->
      <defs>
       <path d="M 31.78125 66.40625 
Q 24.171875 66.40625 20.328125 58.90625 
Q 16.5 51.421875 16.5 36.375 
Q 16.5 21.390625 20.328125 13.890625 
Q 24.171875 6.390625 31.78125 6.390625 
Q 39.453125 6.390625 43.28125 13.890625 
Q 47.125 21.390625 47.125 36.375 
Q 47.125 51.421875 43.28125 58.90625 
Q 39.453125 66.40625 31.78125 66.40625 
z
M 31.78125 74.21875 
Q 44.046875 74.21875 50.515625 64.515625 
Q 56.984375 54.828125 56.984375 36.375 
Q 56.984375 17.96875 50.515625 8.265625 
Q 44.046875 -1.421875 31.78125 -1.421875 
Q 19.53125 -1.421875 13.0625 8.265625 
Q 6.59375 17.96875 6.59375 36.375 
Q 6.59375 54.828125 13.0625 64.515625 
Q 19.53125 74.21875 31.78125 74.21875 
z
" id="DejaVuSans-48"/>
      </defs>
      <g transform="translate(46.277557 239.238437)scale(0.1 -0.1)">
       <use xlink:href="#DejaVuSans-48"/>
      </g>
     </g>
    </g>
    <g id="xtick_2">
     <g id="line2d_2">
      <g>
       <use style="stroke:#000000;stroke-width:0.8;" x="88.479786" xlink:href="#m72ab3d7946" y="224.64"/>
      </g>
     </g>
     <g id="text_2">
      <!-- 10 -->
      <defs>
       <path d="M 12.40625 8.296875 
L 28.515625 8.296875 
L 28.515625 63.921875 
L 10.984375 60.40625 
L 10.984375 69.390625 
L 28.421875 72.90625 
L 38.28125 72.90625 
L 38.28125 8.296875 
L 54.390625 8.296875 
L 54.390625 0 
L 12.40625 0 
z
" id="DejaVuSans-49"/>
      </defs>
      <g transform="translate(82.117286 239.238437)scale(0.1 -0.1)">
       <use xlink:href="#DejaVuSans-49"/>
       <use x="63.623047" xlink:href="#DejaVuSans-48"/>
      </g>
     </g>
    </g>
    <g id="xtick_3">
     <g id="line2d_3">
      <g>
       <use style="stroke:#000000;stroke-width:0.8;" x="127.500765" xlink:href="#m72ab3d7946" y="224.64"/>
      </g>
     </g>
     <g id="text_3">
      <!-- 20 -->
      <defs>
       <path d="M 19.1875 8.296875 
L 53.609375 8.296875 
L 53.609375 0 
L 7.328125 0 
L 7.328125 8.296875 
Q 12.9375 14.109375 22.625 23.890625 
Q 32.328125 33.6875 34.8125 36.53125 
Q 39.546875 41.84375 41.421875 45.53125 
Q 43.3125 49.21875 43.3125 52.78125 
Q 43.3125 58.59375 39.234375 62.25 
Q 35.15625 65.921875 28.609375 65.921875 
Q 23.96875 65.921875 18.8125 64.3125 
Q 13.671875 62.703125 7.8125 59.421875 
L 7.8125 69.390625 
Q 13.765625 71.78125 18.9375 73 
Q 24.125 74.21875 28.421875 74.21875 
Q 39.75 74.21875 46.484375 68.546875 
Q 53.21875 62.890625 53.21875 53.421875 
Q 53.21875 48.921875 51.53125 44.890625 
Q 49.859375 40.875 45.40625 35.40625 
Q 44.1875 33.984375 37.640625 27.21875 
Q 31.109375 20.453125 19.1875 8.296875 
z
" id="DejaVuSans-50"/>
      </defs>
      <g transform="translate(121.138265 239.238437)scale(0.1 -0.1)">
       <use xlink:href="#DejaVuSans-50"/>
       <use x="63.623047" xlink:href="#DejaVuSans-48"/>
      </g>
     </g>
    </g>
    <g id="xtick_4">
     <g id="line2d_4">
      <g>
       <use style="stroke:#000000;stroke-width:0.8;" x="166.521744" xlink:href="#m72ab3d7946" y="224.64"/>
      </g>
     </g>
     <g id="text_4">
      <!-- 30 -->
      <defs>
       <path d="M 40.578125 39.3125 
Q 47.65625 37.796875 51.625 33 
Q 55.609375 28.21875 55.609375 21.1875 
Q 55.609375 10.40625 48.1875 4.484375 
Q 40.765625 -1.421875 27.09375 -1.421875 
Q 22.515625 -1.421875 17.65625 -0.515625 
Q 12.796875 0.390625 7.625 2.203125 
L 7.625 11.71875 
Q 11.71875 9.328125 16.59375 8.109375 
Q 21.484375 6.890625 26.8125 6.890625 
Q 36.078125 6.890625 40.9375 10.546875 
Q 45.796875 14.203125 45.796875 21.1875 
Q 45.796875 27.640625 41.28125 31.265625 
Q 36.765625 34.90625 28.71875 34.90625 
L 20.21875 34.90625 
L 20.21875 43.015625 
L 29.109375 43.015625 
Q 36.375 43.015625 40.234375 45.921875 
Q 44.09375 48.828125 44.09375 54.296875 
Q 44.09375 59.90625 40.109375 62.90625 
Q 36.140625 65.921875 28.71875 65.921875 
Q 24.65625 65.921875 20.015625 65.03125 
Q 15.375 64.15625 9.8125 62.3125 
L 9.8125 71.09375 
Q 15.4375 72.65625 20.34375 73.4375 
Q 25.25 74.21875 29.59375 74.21875 
Q 40.828125 74.21875 47.359375 69.109375 
Q 53.90625 64.015625 53.90625 55.328125 
Q 53.90625 49.265625 50.4375 45.09375 
Q 46.96875 40.921875 40.578125 39.3125 
z
" id="DejaVuSans-51"/>
      </defs>
      <g transform="translate(160.159244 239.238437)scale(0.1 -0.1)">
       <use xlink:href="#DejaVuSans-51"/>
       <use x="63.623047" xlink:href="#DejaVuSans-48"/>
      </g>
     </g>
    </g>
    <g id="xtick_5">
     <g id="line2d_5">
      <g>
       <use style="stroke:#000000;stroke-width:0.8;" x="205.542723" xlink:href="#m72ab3d7946" y="224.64"/>
      </g>
     </g>
     <g id="text_5">
      <!-- 40 -->
      <defs>
       <path d="M 37.796875 64.3125 
L 12.890625 25.390625 
L 37.796875 25.390625 
z
M 35.203125 72.90625 
L 47.609375 72.90625 
L 47.609375 25.390625 
L 58.015625 25.390625 
L 58.015625 17.1875 
L 47.609375 17.1875 
L 47.609375 0 
L 37.796875 0 
L 37.796875 17.1875 
L 4.890625 17.1875 
L 4.890625 26.703125 
z
" id="DejaVuSans-52"/>
      </defs>
      <g transform="translate(199.180223 239.238437)scale(0.1 -0.1)">
       <use xlink:href="#DejaVuSans-52"/>
       <use x="63.623047" xlink:href="#DejaVuSans-48"/>
      </g>
     </g>
    </g>
    <g id="xtick_6">
     <g id="line2d_6">
      <g>
       <use style="stroke:#000000;stroke-width:0.8;" x="244.563702" xlink:href="#m72ab3d7946" y="224.64"/>
      </g>
     </g>
     <g id="text_6">
      <!-- 50 -->
      <defs>
       <path d="M 10.796875 72.90625 
L 49.515625 72.90625 
L 49.515625 64.59375 
L 19.828125 64.59375 
L 19.828125 46.734375 
Q 21.96875 47.46875 24.109375 47.828125 
Q 26.265625 48.1875 28.421875 48.1875 
Q 40.625 48.1875 47.75 41.5 
Q 54.890625 34.8125 54.890625 23.390625 
Q 54.890625 11.625 47.5625 5.09375 
Q 40.234375 -1.421875 26.90625 -1.421875 
Q 22.3125 -1.421875 17.546875 -0.640625 
Q 12.796875 0.140625 7.71875 1.703125 
L 7.71875 11.625 
Q 12.109375 9.234375 16.796875 8.0625 
Q 21.484375 6.890625 26.703125 6.890625 
Q 35.15625 6.890625 40.078125 11.328125 
Q 45.015625 15.765625 45.015625 23.390625 
Q 45.015625 31 40.078125 35.4375 
Q 35.15625 39.890625 26.703125 39.890625 
Q 22.75 39.890625 18.8125 39.015625 
Q 14.890625 38.140625 10.796875 36.28125 
z
" id="DejaVuSans-53"/>
      </defs>
      <g transform="translate(238.201202 239.238437)scale(0.1 -0.1)">
       <use xlink:href="#DejaVuSans-53"/>
       <use x="63.623047" xlink:href="#DejaVuSans-48"/>
      </g>
     </g>
    </g>
    <g id="xtick_7">
     <g id="line2d_7">
      <g>
       <use style="stroke:#000000;stroke-width:0.8;" x="283.584681" xlink:href="#m72ab3d7946" y="224.64"/>
      </g>
     </g>
     <g id="text_7">
      <!-- 60 -->
      <defs>
       <path d="M 33.015625 40.375 
Q 26.375 40.375 22.484375 35.828125 
Q 18.609375 31.296875 18.609375 23.390625 
Q 18.609375 15.53125 22.484375 10.953125 
Q 26.375 6.390625 33.015625 6.390625 
Q 39.65625 6.390625 43.53125 10.953125 
Q 47.40625 15.53125 47.40625 23.390625 
Q 47.40625 31.296875 43.53125 35.828125 
Q 39.65625 40.375 33.015625 40.375 
z
M 52.59375 71.296875 
L 52.59375 62.3125 
Q 48.875 64.0625 45.09375 64.984375 
Q 41.3125 65.921875 37.59375 65.921875 
Q 27.828125 65.921875 22.671875 59.328125 
Q 17.53125 52.734375 16.796875 39.40625 
Q 19.671875 43.65625 24.015625 45.921875 
Q 28.375 48.1875 33.59375 48.1875 
Q 44.578125 48.1875 50.953125 41.515625 
Q 57.328125 34.859375 57.328125 23.390625 
Q 57.328125 12.15625 50.6875 5.359375 
Q 44.046875 -1.421875 33.015625 -1.421875 
Q 20.359375 -1.421875 13.671875 8.265625 
Q 6.984375 17.96875 6.984375 36.375 
Q 6.984375 53.65625 15.1875 63.9375 
Q 23.390625 74.21875 37.203125 74.21875 
Q 40.921875 74.21875 44.703125 73.484375 
Q 48.484375 72.75 52.59375 71.296875 
z
" id="DejaVuSans-54"/>
      </defs>
      <g transform="translate(277.222181 239.238437)scale(0.1 -0.1)">
       <use xlink:href="#DejaVuSans-54"/>
       <use x="63.623047" xlink:href="#DejaVuSans-48"/>
      </g>
     </g>
    </g>
    <g id="xtick_8">
     <g id="line2d_8">
      <g>
       <use style="stroke:#000000;stroke-width:0.8;" x="322.60566" xlink:href="#m72ab3d7946" y="224.64"/>
      </g>
     </g>
     <g id="text_8">
      <!-- 70 -->
      <defs>
       <path d="M 8.203125 72.90625 
L 55.078125 72.90625 
L 55.078125 68.703125 
L 28.609375 0 
L 18.3125 0 
L 43.21875 64.59375 
L 8.203125 64.59375 
z
" id="DejaVuSans-55"/>
      </defs>
      <g transform="translate(316.24316 239.238437)scale(0.1 -0.1)">
       <use xlink:href="#DejaVuSans-55"/>
       <use x="63.623047" xlink:href="#DejaVuSans-48"/>
      </g>
     </g>
    </g>
    <g id="xtick_9">
     <g id="line2d_9">
      <g>
       <use style="stroke:#000000;stroke-width:0.8;" x="361.626639" xlink:href="#m72ab3d7946" y="224.64"/>
      </g>
     </g>
     <g id="text_9">
      <!-- 80 -->
      <defs>
       <path d="M 31.78125 34.625 
Q 24.75 34.625 20.71875 30.859375 
Q 16.703125 27.09375 16.703125 20.515625 
Q 16.703125 13.921875 20.71875 10.15625 
Q 24.75 6.390625 31.78125 6.390625 
Q 38.8125 6.390625 42.859375 10.171875 
Q 46.921875 13.96875 46.921875 20.515625 
Q 46.921875 27.09375 42.890625 30.859375 
Q 38.875 34.625 31.78125 34.625 
z
M 21.921875 38.8125 
Q 15.578125 40.375 12.03125 44.71875 
Q 8.5 49.078125 8.5 55.328125 
Q 8.5 64.0625 14.71875 69.140625 
Q 20.953125 74.21875 31.78125 74.21875 
Q 42.671875 74.21875 48.875 69.140625 
Q 55.078125 64.0625 55.078125 55.328125 
Q 55.078125 49.078125 51.53125 44.71875 
Q 48 40.375 41.703125 38.8125 
Q 48.828125 37.15625 52.796875 32.3125 
Q 56.78125 27.484375 56.78125 20.515625 
Q 56.78125 9.90625 50.3125 4.234375 
Q 43.84375 -1.421875 31.78125 -1.421875 
Q 19.734375 -1.421875 13.25 4.234375 
Q 6.78125 9.90625 6.78125 20.515625 
Q 6.78125 27.484375 10.78125 32.3125 
Q 14.796875 37.15625 21.921875 38.8125 
z
M 18.3125 54.390625 
Q 18.3125 48.734375 21.84375 45.5625 
Q 25.390625 42.390625 31.78125 42.390625 
Q 38.140625 42.390625 41.71875 45.5625 
Q 45.3125 48.734375 45.3125 54.390625 
Q 45.3125 60.0625 41.71875 63.234375 
Q 38.140625 66.40625 31.78125 66.40625 
Q 25.390625 66.40625 21.84375 63.234375 
Q 18.3125 60.0625 18.3125 54.390625 
z
" id="DejaVuSans-56"/>
      </defs>
      <g transform="translate(355.264139 239.238437)scale(0.1 -0.1)">
       <use xlink:href="#DejaVuSans-56"/>
       <use x="63.623047" xlink:href="#DejaVuSans-48"/>
      </g>
     </g>
    </g>
    <g id="text_10">
     <!-- trainsize -->
     <defs>
      <path d="M 18.3125 70.21875 
L 18.3125 54.6875 
L 36.8125 54.6875 
L 36.8125 47.703125 
L 18.3125 47.703125 
L 18.3125 18.015625 
Q 18.3125 11.328125 20.140625 9.421875 
Q 21.96875 7.515625 27.59375 7.515625 
L 36.8125 7.515625 
L 36.8125 0 
L 27.59375 0 
Q 17.1875 0 13.234375 3.875 
Q 9.28125 7.765625 9.28125 18.015625 
L 9.28125 47.703125 
L 2.6875 47.703125 
L 2.6875 54.6875 
L 9.28125 54.6875 
L 9.28125 70.21875 
z
" id="DejaVuSans-116"/>
      <path d="M 41.109375 46.296875 
Q 39.59375 47.171875 37.8125 47.578125 
Q 36.03125 48 33.890625 48 
Q 26.265625 48 22.1875 43.046875 
Q 18.109375 38.09375 18.109375 28.8125 
L 18.109375 0 
L 9.078125 0 
L 9.078125 54.6875 
L 18.109375 54.6875 
L 18.109375 46.1875 
Q 20.953125 51.171875 25.484375 53.578125 
Q 30.03125 56 36.53125 56 
Q 37.453125 56 38.578125 55.875 
Q 39.703125 55.765625 41.0625 55.515625 
z
" id="DejaVuSans-114"/>
      <path d="M 34.28125 27.484375 
Q 23.390625 27.484375 19.1875 25 
Q 14.984375 22.515625 14.984375 16.5 
Q 14.984375 11.71875 18.140625 8.90625 
Q 21.296875 6.109375 26.703125 6.109375 
Q 34.1875 6.109375 38.703125 11.40625 
Q 43.21875 16.703125 43.21875 25.484375 
L 43.21875 27.484375 
z
M 52.203125 31.203125 
L 52.203125 0 
L 43.21875 0 
L 43.21875 8.296875 
Q 40.140625 3.328125 35.546875 0.953125 
Q 30.953125 -1.421875 24.3125 -1.421875 
Q 15.921875 -1.421875 10.953125 3.296875 
Q 6 8.015625 6 15.921875 
Q 6 25.140625 12.171875 29.828125 
Q 18.359375 34.515625 30.609375 34.515625 
L 43.21875 34.515625 
L 43.21875 35.40625 
Q 43.21875 41.609375 39.140625 45 
Q 35.0625 48.390625 27.6875 48.390625 
Q 23 48.390625 18.546875 47.265625 
Q 14.109375 46.140625 10.015625 43.890625 
L 10.015625 52.203125 
Q 14.9375 54.109375 19.578125 55.046875 
Q 24.21875 56 28.609375 56 
Q 40.484375 56 46.34375 49.84375 
Q 52.203125 43.703125 52.203125 31.203125 
z
" id="DejaVuSans-97"/>
      <path d="M 9.421875 54.6875 
L 18.40625 54.6875 
L 18.40625 0 
L 9.421875 0 
z
M 9.421875 75.984375 
L 18.40625 75.984375 
L 18.40625 64.59375 
L 9.421875 64.59375 
z
" id="DejaVuSans-105"/>
      <path d="M 54.890625 33.015625 
L 54.890625 0 
L 45.90625 0 
L 45.90625 32.71875 
Q 45.90625 40.484375 42.875 44.328125 
Q 39.84375 48.1875 33.796875 48.1875 
Q 26.515625 48.1875 22.3125 43.546875 
Q 18.109375 38.921875 18.109375 30.90625 
L 18.109375 0 
L 9.078125 0 
L 9.078125 54.6875 
L 18.109375 54.6875 
L 18.109375 46.1875 
Q 21.34375 51.125 25.703125 53.5625 
Q 30.078125 56 35.796875 56 
Q 45.21875 56 50.046875 50.171875 
Q 54.890625 44.34375 54.890625 33.015625 
z
" id="DejaVuSans-110"/>
      <path d="M 44.28125 53.078125 
L 44.28125 44.578125 
Q 40.484375 46.53125 36.375 47.5 
Q 32.28125 48.484375 27.875 48.484375 
Q 21.1875 48.484375 17.84375 46.4375 
Q 14.5 44.390625 14.5 40.28125 
Q 14.5 37.15625 16.890625 35.375 
Q 19.28125 33.59375 26.515625 31.984375 
L 29.59375 31.296875 
Q 39.15625 29.25 43.1875 25.515625 
Q 47.21875 21.78125 47.21875 15.09375 
Q 47.21875 7.46875 41.1875 3.015625 
Q 35.15625 -1.421875 24.609375 -1.421875 
Q 20.21875 -1.421875 15.453125 -0.5625 
Q 10.6875 0.296875 5.421875 2 
L 5.421875 11.28125 
Q 10.40625 8.6875 15.234375 7.390625 
Q 20.0625 6.109375 24.8125 6.109375 
Q 31.15625 6.109375 34.5625 8.28125 
Q 37.984375 10.453125 37.984375 14.40625 
Q 37.984375 18.0625 35.515625 20.015625 
Q 33.0625 21.96875 24.703125 23.78125 
L 21.578125 24.515625 
Q 13.234375 26.265625 9.515625 29.90625 
Q 5.8125 33.546875 5.8125 39.890625 
Q 5.8125 47.609375 11.28125 51.796875 
Q 16.75 56 26.8125 56 
Q 31.78125 56 36.171875 55.265625 
Q 40.578125 54.546875 44.28125 53.078125 
z
" id="DejaVuSans-115"/>
      <path d="M 5.515625 54.6875 
L 48.1875 54.6875 
L 48.1875 46.484375 
L 14.40625 7.171875 
L 48.1875 7.171875 
L 48.1875 0 
L 4.296875 0 
L 4.296875 8.203125 
L 38.09375 47.515625 
L 5.515625 47.515625 
z
" id="DejaVuSans-122"/>
      <path d="M 56.203125 29.59375 
L 56.203125 25.203125 
L 14.890625 25.203125 
Q 15.484375 15.921875 20.484375 11.0625 
Q 25.484375 6.203125 34.421875 6.203125 
Q 39.59375 6.203125 44.453125 7.46875 
Q 49.3125 8.734375 54.109375 11.28125 
L 54.109375 2.78125 
Q 49.265625 0.734375 44.1875 -0.34375 
Q 39.109375 -1.421875 33.890625 -1.421875 
Q 20.796875 -1.421875 13.15625 6.1875 
Q 5.515625 13.8125 5.515625 26.8125 
Q 5.515625 40.234375 12.765625 48.109375 
Q 20.015625 56 32.328125 56 
Q 43.359375 56 49.78125 48.890625 
Q 56.203125 41.796875 56.203125 29.59375 
z
M 47.21875 32.234375 
Q 47.125 39.59375 43.09375 43.984375 
Q 39.0625 48.390625 32.421875 48.390625 
Q 24.90625 48.390625 20.390625 44.140625 
Q 15.875 39.890625 15.1875 32.171875 
z
" id="DejaVuSans-101"/>
     </defs>
     <g transform="translate(180.308594 252.916562)scale(0.1 -0.1)">
      <use xlink:href="#DejaVuSans-116"/>
      <use x="39.208984" xlink:href="#DejaVuSans-114"/>
      <use x="80.322266" xlink:href="#DejaVuSans-97"/>
      <use x="141.601562" xlink:href="#DejaVuSans-105"/>
      <use x="169.384766" xlink:href="#DejaVuSans-110"/>
      <use x="232.763672" xlink:href="#DejaVuSans-115"/>
      <use x="284.863281" xlink:href="#DejaVuSans-105"/>
      <use x="312.646484" xlink:href="#DejaVuSans-122"/>
      <use x="365.136719" xlink:href="#DejaVuSans-101"/>
     </g>
    </g>
   </g>
   <g id="matplotlib.axis_2">
    <g id="ytick_1">
     <g id="line2d_10">
      <defs>
       <path d="M 0 0 
L -3.5 0 
" id="m0f16c8be85" style="stroke:#000000;stroke-width:0.8;"/>
      </defs>
      <g>
       <use style="stroke:#000000;stroke-width:0.8;" x="34.240625" xlink:href="#m0f16c8be85" y="214.756364"/>
      </g>
     </g>
     <g id="text_11">
      <!-- 0 -->
      <g transform="translate(20.878125 218.555582)scale(0.1 -0.1)">
       <use xlink:href="#DejaVuSans-48"/>
      </g>
     </g>
    </g>
    <g id="ytick_2">
     <g id="line2d_11">
      <g>
       <use style="stroke:#000000;stroke-width:0.8;" x="34.240625" xlink:href="#m0f16c8be85" y="169.686345"/>
      </g>
     </g>
     <g id="text_12">
      <!-- 1 -->
      <g transform="translate(20.878125 173.485564)scale(0.1 -0.1)">
       <use xlink:href="#DejaVuSans-49"/>
      </g>
     </g>
    </g>
    <g id="ytick_3">
     <g id="line2d_12">
      <g>
       <use style="stroke:#000000;stroke-width:0.8;" x="34.240625" xlink:href="#m0f16c8be85" y="124.616327"/>
      </g>
     </g>
     <g id="text_13">
      <!-- 2 -->
      <g transform="translate(20.878125 128.415546)scale(0.1 -0.1)">
       <use xlink:href="#DejaVuSans-50"/>
      </g>
     </g>
    </g>
    <g id="ytick_4">
     <g id="line2d_13">
      <g>
       <use style="stroke:#000000;stroke-width:0.8;" x="34.240625" xlink:href="#m0f16c8be85" y="79.546309"/>
      </g>
     </g>
     <g id="text_14">
      <!-- 3 -->
      <g transform="translate(20.878125 83.345528)scale(0.1 -0.1)">
       <use xlink:href="#DejaVuSans-51"/>
      </g>
     </g>
    </g>
    <g id="ytick_5">
     <g id="line2d_14">
      <g>
       <use style="stroke:#000000;stroke-width:0.8;" x="34.240625" xlink:href="#m0f16c8be85" y="34.476291"/>
      </g>
     </g>
     <g id="text_15">
      <!-- 4 -->
      <g transform="translate(20.878125 38.27551)scale(0.1 -0.1)">
       <use xlink:href="#DejaVuSans-52"/>
      </g>
     </g>
    </g>
    <g id="text_16">
     <!-- RMSE -->
     <defs>
      <path d="M 44.390625 34.1875 
Q 47.5625 33.109375 50.5625 29.59375 
Q 53.5625 26.078125 56.59375 19.921875 
L 66.609375 0 
L 56 0 
L 46.6875 18.703125 
Q 43.0625 26.03125 39.671875 28.421875 
Q 36.28125 30.8125 30.421875 30.8125 
L 19.671875 30.8125 
L 19.671875 0 
L 9.8125 0 
L 9.8125 72.90625 
L 32.078125 72.90625 
Q 44.578125 72.90625 50.734375 67.671875 
Q 56.890625 62.453125 56.890625 51.90625 
Q 56.890625 45.015625 53.6875 40.46875 
Q 50.484375 35.9375 44.390625 34.1875 
z
M 19.671875 64.796875 
L 19.671875 38.921875 
L 32.078125 38.921875 
Q 39.203125 38.921875 42.84375 42.21875 
Q 46.484375 45.515625 46.484375 51.90625 
Q 46.484375 58.296875 42.84375 61.546875 
Q 39.203125 64.796875 32.078125 64.796875 
z
" id="DejaVuSans-82"/>
      <path d="M 9.8125 72.90625 
L 24.515625 72.90625 
L 43.109375 23.296875 
L 61.8125 72.90625 
L 76.515625 72.90625 
L 76.515625 0 
L 66.890625 0 
L 66.890625 64.015625 
L 48.09375 14.015625 
L 38.1875 14.015625 
L 19.390625 64.015625 
L 19.390625 0 
L 9.8125 0 
z
" id="DejaVuSans-77"/>
      <path d="M 53.515625 70.515625 
L 53.515625 60.890625 
Q 47.90625 63.578125 42.921875 64.890625 
Q 37.9375 66.21875 33.296875 66.21875 
Q 25.25 66.21875 20.875 63.09375 
Q 16.5 59.96875 16.5 54.203125 
Q 16.5 49.359375 19.40625 46.890625 
Q 22.3125 44.4375 30.421875 42.921875 
L 36.375 41.703125 
Q 47.40625 39.59375 52.65625 34.296875 
Q 57.90625 29 57.90625 20.125 
Q 57.90625 9.515625 50.796875 4.046875 
Q 43.703125 -1.421875 29.984375 -1.421875 
Q 24.8125 -1.421875 18.96875 -0.25 
Q 13.140625 0.921875 6.890625 3.21875 
L 6.890625 13.375 
Q 12.890625 10.015625 18.65625 8.296875 
Q 24.421875 6.59375 29.984375 6.59375 
Q 38.421875 6.59375 43.015625 9.90625 
Q 47.609375 13.234375 47.609375 19.390625 
Q 47.609375 24.75 44.3125 27.78125 
Q 41.015625 30.8125 33.5 32.328125 
L 27.484375 33.5 
Q 16.453125 35.6875 11.515625 40.375 
Q 6.59375 45.0625 6.59375 53.421875 
Q 6.59375 63.09375 13.40625 68.65625 
Q 20.21875 74.21875 32.171875 74.21875 
Q 37.3125 74.21875 42.625 73.28125 
Q 47.953125 72.359375 53.515625 70.515625 
z
" id="DejaVuSans-83"/>
      <path d="M 9.8125 72.90625 
L 55.90625 72.90625 
L 55.90625 64.59375 
L 19.671875 64.59375 
L 19.671875 43.015625 
L 54.390625 43.015625 
L 54.390625 34.71875 
L 19.671875 34.71875 
L 19.671875 8.296875 
L 56.78125 8.296875 
L 56.78125 0 
L 9.8125 0 
z
" id="DejaVuSans-69"/>
     </defs>
     <g transform="translate(14.798437 130.041875)rotate(-90)scale(0.1 -0.1)">
      <use xlink:href="#DejaVuSans-82"/>
      <use x="69.482422" xlink:href="#DejaVuSans-77"/>
      <use x="155.761719" xlink:href="#DejaVuSans-83"/>
      <use x="219.238281" xlink:href="#DejaVuSans-69"/>
     </g>
    </g>
   </g>
   <g id="line2d_15">
    <path clip-path="url(#p6c8d4ed314)" d="M 49.458807 214.756364 
L 53.360905 214.756364 
L 57.263003 181.731205 
L 61.165101 143.362974 
L 65.067198 149.8794 
L 68.969296 155.254915 
L 72.871394 159.667897 
L 76.773492 163.200641 
L 80.67559 166.135243 
L 84.577688 152.105606 
L 88.479786 149.786323 
L 92.381884 145.746416 
L 96.283982 147.628148 
L 100.18608 142.589386 
L 104.088177 145.035868 
L 107.990275 147.10438 
L 111.892373 146.935179 
L 115.794471 147.540838 
L 119.696569 149.330201 
L 123.598667 150.503688 
L 127.500765 144.369622 
L 131.402863 142.389097 
L 135.304961 143.675198 
L 139.207059 141.542742 
L 143.109156 142.532886 
L 147.011254 141.707119 
L 150.913352 143.00478 
L 154.81545 142.90855 
L 158.717548 144.155728 
L 162.619646 145.051129 
L 166.521744 145.873435 
L 170.423842 144.523689 
L 174.32594 145.553159 
L 178.228038 146.372191 
L 182.130135 147.267982 
L 186.032233 148.190613 
L 189.934331 148.190648 
L 193.836429 147.797694 
L 197.738527 148.625367 
L 201.640625 143.028773 
L 205.542723 143.359415 
L 209.444821 144.083253 
L 213.346919 144.470225 
L 217.249017 144.403382 
L 221.151115 145.181899 
L 225.053212 144.937425 
L 228.95531 144.998262 
L 232.857408 145.72871 
L 236.759506 145.272211 
L 240.661604 145.053517 
L 244.563702 145.546274 
L 248.4658 145.957909 
L 252.367898 146.575669 
L 256.269996 146.442731 
L 260.172094 147.045358 
L 264.074191 144.333493 
L 267.976289 144.871379 
L 271.878387 145.169771 
L 275.780485 144.061895 
L 279.682583 144.174694 
L 283.584681 144.667252 
L 287.486779 144.636064 
L 291.388877 145.072594 
L 295.290975 145.523419 
L 299.193073 144.529036 
L 303.09517 143.305102 
L 306.997268 143.583808 
L 310.899366 140.151496 
L 314.801464 140.558189 
L 318.703562 140.976589 
L 322.60566 141.34698 
L 326.507758 141.125578 
L 330.409856 141.401141 
L 334.311954 141.586176 
L 338.214052 142.028137 
L 342.116149 141.67824 
L 346.018247 142.154322 
L 349.920345 142.578866 
L 353.822443 142.508003 
" style="fill:none;stroke:#ff0000;stroke-linecap:square;stroke-width:2;"/>
    <defs>
     <path d="M -3 0 
L 3 0 
M 0 3 
L 0 -3 
" id="m65fab405ba" style="stroke:#ff0000;"/>
    </defs>
    <g clip-path="url(#p6c8d4ed314)">
     <use style="fill:#ff0000;stroke:#ff0000;" x="49.458807" xlink:href="#m65fab405ba" y="214.756364"/>
     <use style="fill:#ff0000;stroke:#ff0000;" x="53.360905" xlink:href="#m65fab405ba" y="214.756364"/>
     <use style="fill:#ff0000;stroke:#ff0000;" x="57.263003" xlink:href="#m65fab405ba" y="181.731205"/>
     <use style="fill:#ff0000;stroke:#ff0000;" x="61.165101" xlink:href="#m65fab405ba" y="143.362974"/>
     <use style="fill:#ff0000;stroke:#ff0000;" x="65.067198" xlink:href="#m65fab405ba" y="149.8794"/>
     <use style="fill:#ff0000;stroke:#ff0000;" x="68.969296" xlink:href="#m65fab405ba" y="155.254915"/>
     <use style="fill:#ff0000;stroke:#ff0000;" x="72.871394" xlink:href="#m65fab405ba" y="159.667897"/>
     <use style="fill:#ff0000;stroke:#ff0000;" x="76.773492" xlink:href="#m65fab405ba" y="163.200641"/>
     <use style="fill:#ff0000;stroke:#ff0000;" x="80.67559" xlink:href="#m65fab405ba" y="166.135243"/>
     <use style="fill:#ff0000;stroke:#ff0000;" x="84.577688" xlink:href="#m65fab405ba" y="152.105606"/>
     <use style="fill:#ff0000;stroke:#ff0000;" x="88.479786" xlink:href="#m65fab405ba" y="149.786323"/>
     <use style="fill:#ff0000;stroke:#ff0000;" x="92.381884" xlink:href="#m65fab405ba" y="145.746416"/>
     <use style="fill:#ff0000;stroke:#ff0000;" x="96.283982" xlink:href="#m65fab405ba" y="147.628148"/>
     <use style="fill:#ff0000;stroke:#ff0000;" x="100.18608" xlink:href="#m65fab405ba" y="142.589386"/>
     <use style="fill:#ff0000;stroke:#ff0000;" x="104.088177" xlink:href="#m65fab405ba" y="145.035868"/>
     <use style="fill:#ff0000;stroke:#ff0000;" x="107.990275" xlink:href="#m65fab405ba" y="147.10438"/>
     <use style="fill:#ff0000;stroke:#ff0000;" x="111.892373" xlink:href="#m65fab405ba" y="146.935179"/>
     <use style="fill:#ff0000;stroke:#ff0000;" x="115.794471" xlink:href="#m65fab405ba" y="147.540838"/>
     <use style="fill:#ff0000;stroke:#ff0000;" x="119.696569" xlink:href="#m65fab405ba" y="149.330201"/>
     <use style="fill:#ff0000;stroke:#ff0000;" x="123.598667" xlink:href="#m65fab405ba" y="150.503688"/>
     <use style="fill:#ff0000;stroke:#ff0000;" x="127.500765" xlink:href="#m65fab405ba" y="144.369622"/>
     <use style="fill:#ff0000;stroke:#ff0000;" x="131.402863" xlink:href="#m65fab405ba" y="142.389097"/>
     <use style="fill:#ff0000;stroke:#ff0000;" x="135.304961" xlink:href="#m65fab405ba" y="143.675198"/>
     <use style="fill:#ff0000;stroke:#ff0000;" x="139.207059" xlink:href="#m65fab405ba" y="141.542742"/>
     <use style="fill:#ff0000;stroke:#ff0000;" x="143.109156" xlink:href="#m65fab405ba" y="142.532886"/>
     <use style="fill:#ff0000;stroke:#ff0000;" x="147.011254" xlink:href="#m65fab405ba" y="141.707119"/>
     <use style="fill:#ff0000;stroke:#ff0000;" x="150.913352" xlink:href="#m65fab405ba" y="143.00478"/>
     <use style="fill:#ff0000;stroke:#ff0000;" x="154.81545" xlink:href="#m65fab405ba" y="142.90855"/>
     <use style="fill:#ff0000;stroke:#ff0000;" x="158.717548" xlink:href="#m65fab405ba" y="144.155728"/>
     <use style="fill:#ff0000;stroke:#ff0000;" x="162.619646" xlink:href="#m65fab405ba" y="145.051129"/>
     <use style="fill:#ff0000;stroke:#ff0000;" x="166.521744" xlink:href="#m65fab405ba" y="145.873435"/>
     <use style="fill:#ff0000;stroke:#ff0000;" x="170.423842" xlink:href="#m65fab405ba" y="144.523689"/>
     <use style="fill:#ff0000;stroke:#ff0000;" x="174.32594" xlink:href="#m65fab405ba" y="145.553159"/>
     <use style="fill:#ff0000;stroke:#ff0000;" x="178.228038" xlink:href="#m65fab405ba" y="146.372191"/>
     <use style="fill:#ff0000;stroke:#ff0000;" x="182.130135" xlink:href="#m65fab405ba" y="147.267982"/>
     <use style="fill:#ff0000;stroke:#ff0000;" x="186.032233" xlink:href="#m65fab405ba" y="148.190613"/>
     <use style="fill:#ff0000;stroke:#ff0000;" x="189.934331" xlink:href="#m65fab405ba" y="148.190648"/>
     <use style="fill:#ff0000;stroke:#ff0000;" x="193.836429" xlink:href="#m65fab405ba" y="147.797694"/>
     <use style="fill:#ff0000;stroke:#ff0000;" x="197.738527" xlink:href="#m65fab405ba" y="148.625367"/>
     <use style="fill:#ff0000;stroke:#ff0000;" x="201.640625" xlink:href="#m65fab405ba" y="143.028773"/>
     <use style="fill:#ff0000;stroke:#ff0000;" x="205.542723" xlink:href="#m65fab405ba" y="143.359415"/>
     <use style="fill:#ff0000;stroke:#ff0000;" x="209.444821" xlink:href="#m65fab405ba" y="144.083253"/>
     <use style="fill:#ff0000;stroke:#ff0000;" x="213.346919" xlink:href="#m65fab405ba" y="144.470225"/>
     <use style="fill:#ff0000;stroke:#ff0000;" x="217.249017" xlink:href="#m65fab405ba" y="144.403382"/>
     <use style="fill:#ff0000;stroke:#ff0000;" x="221.151115" xlink:href="#m65fab405ba" y="145.181899"/>
     <use style="fill:#ff0000;stroke:#ff0000;" x="225.053212" xlink:href="#m65fab405ba" y="144.937425"/>
     <use style="fill:#ff0000;stroke:#ff0000;" x="228.95531" xlink:href="#m65fab405ba" y="144.998262"/>
     <use style="fill:#ff0000;stroke:#ff0000;" x="232.857408" xlink:href="#m65fab405ba" y="145.72871"/>
     <use style="fill:#ff0000;stroke:#ff0000;" x="236.759506" xlink:href="#m65fab405ba" y="145.272211"/>
     <use style="fill:#ff0000;stroke:#ff0000;" x="240.661604" xlink:href="#m65fab405ba" y="145.053517"/>
     <use style="fill:#ff0000;stroke:#ff0000;" x="244.563702" xlink:href="#m65fab405ba" y="145.546274"/>
     <use style="fill:#ff0000;stroke:#ff0000;" x="248.4658" xlink:href="#m65fab405ba" y="145.957909"/>
     <use style="fill:#ff0000;stroke:#ff0000;" x="252.367898" xlink:href="#m65fab405ba" y="146.575669"/>
     <use style="fill:#ff0000;stroke:#ff0000;" x="256.269996" xlink:href="#m65fab405ba" y="146.442731"/>
     <use style="fill:#ff0000;stroke:#ff0000;" x="260.172094" xlink:href="#m65fab405ba" y="147.045358"/>
     <use style="fill:#ff0000;stroke:#ff0000;" x="264.074191" xlink:href="#m65fab405ba" y="144.333493"/>
     <use style="fill:#ff0000;stroke:#ff0000;" x="267.976289" xlink:href="#m65fab405ba" y="144.871379"/>
     <use style="fill:#ff0000;stroke:#ff0000;" x="271.878387" xlink:href="#m65fab405ba" y="145.169771"/>
     <use style="fill:#ff0000;stroke:#ff0000;" x="275.780485" xlink:href="#m65fab405ba" y="144.061895"/>
     <use style="fill:#ff0000;stroke:#ff0000;" x="279.682583" xlink:href="#m65fab405ba" y="144.174694"/>
     <use style="fill:#ff0000;stroke:#ff0000;" x="283.584681" xlink:href="#m65fab405ba" y="144.667252"/>
     <use style="fill:#ff0000;stroke:#ff0000;" x="287.486779" xlink:href="#m65fab405ba" y="144.636064"/>
     <use style="fill:#ff0000;stroke:#ff0000;" x="291.388877" xlink:href="#m65fab405ba" y="145.072594"/>
     <use style="fill:#ff0000;stroke:#ff0000;" x="295.290975" xlink:href="#m65fab405ba" y="145.523419"/>
     <use style="fill:#ff0000;stroke:#ff0000;" x="299.193073" xlink:href="#m65fab405ba" y="144.529036"/>
     <use style="fill:#ff0000;stroke:#ff0000;" x="303.09517" xlink:href="#m65fab405ba" y="143.305102"/>
     <use style="fill:#ff0000;stroke:#ff0000;" x="306.997268" xlink:href="#m65fab405ba" y="143.583808"/>
     <use style="fill:#ff0000;stroke:#ff0000;" x="310.899366" xlink:href="#m65fab405ba" y="140.151496"/>
     <use style="fill:#ff0000;stroke:#ff0000;" x="314.801464" xlink:href="#m65fab405ba" y="140.558189"/>
     <use style="fill:#ff0000;stroke:#ff0000;" x="318.703562" xlink:href="#m65fab405ba" y="140.976589"/>
     <use style="fill:#ff0000;stroke:#ff0000;" x="322.60566" xlink:href="#m65fab405ba" y="141.34698"/>
     <use style="fill:#ff0000;stroke:#ff0000;" x="326.507758" xlink:href="#m65fab405ba" y="141.125578"/>
     <use style="fill:#ff0000;stroke:#ff0000;" x="330.409856" xlink:href="#m65fab405ba" y="141.401141"/>
     <use style="fill:#ff0000;stroke:#ff0000;" x="334.311954" xlink:href="#m65fab405ba" y="141.586176"/>
     <use style="fill:#ff0000;stroke:#ff0000;" x="338.214052" xlink:href="#m65fab405ba" y="142.028137"/>
     <use style="fill:#ff0000;stroke:#ff0000;" x="342.116149" xlink:href="#m65fab405ba" y="141.67824"/>
     <use style="fill:#ff0000;stroke:#ff0000;" x="346.018247" xlink:href="#m65fab405ba" y="142.154322"/>
     <use style="fill:#ff0000;stroke:#ff0000;" x="349.920345" xlink:href="#m65fab405ba" y="142.578866"/>
     <use style="fill:#ff0000;stroke:#ff0000;" x="353.822443" xlink:href="#m65fab405ba" y="142.508003"/>
    </g>
   </g>
   <g id="line2d_16">
    <path clip-path="url(#p6c8d4ed314)" d="M 49.458807 17.083636 
L 53.360905 71.501618 
L 57.263003 95.9185 
L 61.165101 132.269744 
L 65.067198 132.930914 
L 68.969296 132.39697 
L 72.871394 132.437054 
L 76.773492 132.358934 
L 80.67559 132.476727 
L 84.577688 137.870558 
L 88.479786 136.922275 
L 92.381884 137.323684 
L 96.283982 137.182827 
L 100.18608 134.822346 
L 104.088177 134.8431 
L 107.990275 134.699996 
L 111.892373 136.013993 
L 115.794471 136.057964 
L 119.696569 136.110036 
L 123.598667 136.017446 
L 127.500765 134.539056 
L 131.402863 136.509304 
L 135.304961 136.18474 
L 139.207059 135.027276 
L 143.109156 134.468032 
L 147.011254 133.73358 
L 150.913352 133.77239 
L 154.81545 135.207184 
L 158.717548 135.204275 
L 162.619646 134.880957 
L 166.521744 135.033061 
L 170.423842 133.826706 
L 174.32594 134.001218 
L 178.228038 134.389489 
L 182.130135 134.245795 
L 186.032233 134.311338 
L 189.934331 134.527749 
L 193.836429 134.620239 
L 197.738527 134.715363 
L 201.640625 136.882737 
L 205.542723 136.760527 
L 209.444821 136.71149 
L 213.346919 136.927669 
L 217.249017 136.607798 
L 221.151115 136.598398 
L 225.053212 137.116029 
L 228.95531 137.362832 
L 232.857408 137.362435 
L 236.759506 136.95529 
L 240.661604 137.236195 
L 244.563702 137.164091 
L 248.4658 137.291462 
L 252.367898 137.328163 
L 256.269996 137.202672 
L 260.172094 137.209126 
L 264.074191 136.295133 
L 267.976289 136.303884 
L 271.878387 136.357587 
L 275.780485 136.904849 
L 279.682583 136.861976 
L 283.584681 136.910863 
L 287.486779 136.628739 
L 291.388877 136.659699 
L 295.290975 136.726881 
L 299.193073 136.849811 
L 303.09517 136.828787 
L 306.997268 136.977465 
L 310.899366 137.557382 
L 314.801464 137.589272 
L 318.703562 137.660181 
L 322.60566 137.559474 
L 326.507758 137.696178 
L 330.409856 137.567654 
L 334.311954 137.611001 
L 338.214052 137.617771 
L 342.116149 137.319567 
L 346.018247 137.31912 
L 349.920345 137.322346 
L 353.822443 137.051215 
" style="fill:none;stroke:#0000ff;stroke-linecap:square;stroke-width:3;"/>
   </g>
   <g id="patch_3">
    <path d="M 34.240625 224.64 
L 34.240625 7.2 
" style="fill:none;stroke:#000000;stroke-linecap:square;stroke-linejoin:miter;stroke-width:0.8;"/>
   </g>
   <g id="patch_4">
    <path d="M 369.040625 224.64 
L 369.040625 7.2 
" style="fill:none;stroke:#000000;stroke-linecap:square;stroke-linejoin:miter;stroke-width:0.8;"/>
   </g>
   <g id="patch_5">
    <path d="M 34.240625 224.64 
L 369.040625 224.64 
" style="fill:none;stroke:#000000;stroke-linecap:square;stroke-linejoin:miter;stroke-width:0.8;"/>
   </g>
   <g id="patch_6">
    <path d="M 34.240625 7.2 
L 369.040625 7.2 
" style="fill:none;stroke:#000000;stroke-linecap:square;stroke-linejoin:miter;stroke-width:0.8;"/>
   </g>
   <g id="legend_1">
    <g id="patch_7">
     <path d="M 306.765625 44.55625 
L 362.040625 44.55625 
Q 364.040625 44.55625 364.040625 42.55625 
L 364.040625 14.2 
Q 364.040625 12.2 362.040625 12.2 
L 306.765625 12.2 
Q 304.765625 12.2 304.765625 14.2 
L 304.765625 42.55625 
Q 304.765625 44.55625 306.765625 44.55625 
z
" style="fill:#ffffff;opacity:0.8;stroke:#cccccc;stroke-linejoin:miter;"/>
    </g>
    <g id="line2d_17">
     <path d="M 308.765625 20.298437 
L 328.765625 20.298437 
" style="fill:none;stroke:#ff0000;stroke-linecap:square;stroke-width:2;"/>
    </g>
    <g id="line2d_18">
     <g>
      <use style="fill:#ff0000;stroke:#ff0000;" x="318.765625" xlink:href="#m65fab405ba" y="20.298437"/>
     </g>
    </g>
    <g id="text_17">
     <!-- train -->
     <g transform="translate(336.765625 23.798437)scale(0.1 -0.1)">
      <use xlink:href="#DejaVuSans-116"/>
      <use x="39.208984" xlink:href="#DejaVuSans-114"/>
      <use x="80.322266" xlink:href="#DejaVuSans-97"/>
      <use x="141.601562" xlink:href="#DejaVuSans-105"/>
      <use x="169.384766" xlink:href="#DejaVuSans-110"/>
     </g>
    </g>
    <g id="line2d_19">
     <path d="M 308.765625 34.976562 
L 328.765625 34.976562 
" style="fill:none;stroke:#0000ff;stroke-linecap:square;stroke-width:3;"/>
    </g>
    <g id="line2d_20"/>
    <g id="text_18">
     <!-- val -->
     <defs>
      <path d="M 2.984375 54.6875 
L 12.5 54.6875 
L 29.59375 8.796875 
L 46.6875 54.6875 
L 56.203125 54.6875 
L 35.6875 0 
L 23.484375 0 
z
" id="DejaVuSans-118"/>
      <path d="M 9.421875 75.984375 
L 18.40625 75.984375 
L 18.40625 0 
L 9.421875 0 
z
" id="DejaVuSans-108"/>
     </defs>
     <g transform="translate(336.765625 38.476562)scale(0.1 -0.1)">
      <use xlink:href="#DejaVuSans-118"/>
      <use x="59.179688" xlink:href="#DejaVuSans-97"/>
      <use x="120.458984" xlink:href="#DejaVuSans-108"/>
     </g>
    </g>
   </g>
  </g>
 </g>
 <defs>
  <clipPath id="p6c8d4ed314">
   <rect height="217.44" width="334.8" x="34.240625" y="7.2"/>
  </clipPath>
 </defs>
</svg>
