<?xml version="1.0" encoding="utf-8" standalone="no"?>
<!DOCTYPE svg PUBLIC "-//W3C//DTD SVG 1.1//EN"
  "http://www.w3.org/Graphics/SVG/1.1/DTD/svg11.dtd">
<!-- Created with matplotlib (https://matplotlib.org/) -->
<svg height="265.995469pt" version="1.1" viewBox="0 0 392.14375 265.995469" width="392.14375pt" xmlns="http://www.w3.org/2000/svg" xmlns:xlink="http://www.w3.org/1999/xlink">
 <defs>
  <style type="text/css">
*{stroke-linecap:butt;stroke-linejoin:round;}
  </style>
 </defs>
 <g id="figure_1">
  <g id="patch_1">
   <path d="M 0 265.995469 
L 392.14375 265.995469 
L 392.14375 0 
L 0 0 
z
" style="fill:none;"/>
  </g>
  <g id="axes_1">
   <g id="patch_2">
    <path d="M 43.78125 228.439219 
L 378.58125 228.439219 
L 378.58125 10.999219 
L 43.78125 10.999219 
z
" style="fill:#ffffff;"/>
   </g>
   <g id="matplotlib.axis_1">
    <g id="xtick_1">
     <g id="line2d_1">
      <defs>
       <path d="M 0 0 
L 0 3.5 
" id="m1b94f8ce86" style="stroke:#000000;stroke-width:0.8;"/>
      </defs>
      <g>
       <use style="stroke:#000000;stroke-width:0.8;" x="43.78125" xlink:href="#m1b94f8ce86" y="228.439219"/>
      </g>
     </g>
     <g id="text_1">
      <!-- 0 -->
      <defs>
       <path d="M 31.78125 66.40625 
Q 24.171875 66.40625 20.328125 58.90625 
Q 16.5 51.421875 16.5 36.375 
Q 16.5 21.390625 20.328125 13.890625 
Q 24.171875 6.390625 31.78125 6.390625 
Q 39.453125 6.390625 43.28125 13.890625 
Q 47.125 21.390625 47.125 36.375 
Q 47.125 51.421875 43.28125 58.90625 
Q 39.453125 66.40625 31.78125 66.40625 
z
M 31.78125 74.21875 
Q 44.046875 74.21875 50.515625 64.515625 
Q 56.984375 54.828125 56.984375 36.375 
Q 56.984375 17.96875 50.515625 8.265625 
Q 44.046875 -1.421875 31.78125 -1.421875 
Q 19.53125 -1.421875 13.0625 8.265625 
Q 6.59375 17.96875 6.59375 36.375 
Q 6.59375 54.828125 13.0625 64.515625 
Q 19.53125 74.21875 31.78125 74.21875 
z
" id="DejaVuSans-48"/>
      </defs>
      <g transform="translate(40.6 243.037656)scale(0.1 -0.1)">
       <use xlink:href="#DejaVuSans-48"/>
      </g>
     </g>
    </g>
    <g id="xtick_2">
     <g id="line2d_2">
      <g>
       <use style="stroke:#000000;stroke-width:0.8;" x="85.63125" xlink:href="#m1b94f8ce86" y="228.439219"/>
      </g>
     </g>
     <g id="text_2">
      <!-- 10 -->
      <defs>
       <path d="M 12.40625 8.296875 
L 28.515625 8.296875 
L 28.515625 63.921875 
L 10.984375 60.40625 
L 10.984375 69.390625 
L 28.421875 72.90625 
L 38.28125 72.90625 
L 38.28125 8.296875 
L 54.390625 8.296875 
L 54.390625 0 
L 12.40625 0 
z
" id="DejaVuSans-49"/>
      </defs>
      <g transform="translate(79.26875 243.037656)scale(0.1 -0.1)">
       <use xlink:href="#DejaVuSans-49"/>
       <use x="63.623047" xlink:href="#DejaVuSans-48"/>
      </g>
     </g>
    </g>
    <g id="xtick_3">
     <g id="line2d_3">
      <g>
       <use style="stroke:#000000;stroke-width:0.8;" x="127.48125" xlink:href="#m1b94f8ce86" y="228.439219"/>
      </g>
     </g>
     <g id="text_3">
      <!-- 20 -->
      <defs>
       <path d="M 19.1875 8.296875 
L 53.609375 8.296875 
L 53.609375 0 
L 7.328125 0 
L 7.328125 8.296875 
Q 12.9375 14.109375 22.625 23.890625 
Q 32.328125 33.6875 34.8125 36.53125 
Q 39.546875 41.84375 41.421875 45.53125 
Q 43.3125 49.21875 43.3125 52.78125 
Q 43.3125 58.59375 39.234375 62.25 
Q 35.15625 65.921875 28.609375 65.921875 
Q 23.96875 65.921875 18.8125 64.3125 
Q 13.671875 62.703125 7.8125 59.421875 
L 7.8125 69.390625 
Q 13.765625 71.78125 18.9375 73 
Q 24.125 74.21875 28.421875 74.21875 
Q 39.75 74.21875 46.484375 68.546875 
Q 53.21875 62.890625 53.21875 53.421875 
Q 53.21875 48.921875 51.53125 44.890625 
Q 49.859375 40.875 45.40625 35.40625 
Q 44.1875 33.984375 37.640625 27.21875 
Q 31.109375 20.453125 19.1875 8.296875 
z
" id="DejaVuSans-50"/>
      </defs>
      <g transform="translate(121.11875 243.037656)scale(0.1 -0.1)">
       <use xlink:href="#DejaVuSans-50"/>
       <use x="63.623047" xlink:href="#DejaVuSans-48"/>
      </g>
     </g>
    </g>
    <g id="xtick_4">
     <g id="line2d_4">
      <g>
       <use style="stroke:#000000;stroke-width:0.8;" x="169.33125" xlink:href="#m1b94f8ce86" y="228.439219"/>
      </g>
     </g>
     <g id="text_4">
      <!-- 30 -->
      <defs>
       <path d="M 40.578125 39.3125 
Q 47.65625 37.796875 51.625 33 
Q 55.609375 28.21875 55.609375 21.1875 
Q 55.609375 10.40625 48.1875 4.484375 
Q 40.765625 -1.421875 27.09375 -1.421875 
Q 22.515625 -1.421875 17.65625 -0.515625 
Q 12.796875 0.390625 7.625 2.203125 
L 7.625 11.71875 
Q 11.71875 9.328125 16.59375 8.109375 
Q 21.484375 6.890625 26.8125 6.890625 
Q 36.078125 6.890625 40.9375 10.546875 
Q 45.796875 14.203125 45.796875 21.1875 
Q 45.796875 27.640625 41.28125 31.265625 
Q 36.765625 34.90625 28.71875 34.90625 
L 20.21875 34.90625 
L 20.21875 43.015625 
L 29.109375 43.015625 
Q 36.375 43.015625 40.234375 45.921875 
Q 44.09375 48.828125 44.09375 54.296875 
Q 44.09375 59.90625 40.109375 62.90625 
Q 36.140625 65.921875 28.71875 65.921875 
Q 24.65625 65.921875 20.015625 65.03125 
Q 15.375 64.15625 9.8125 62.3125 
L 9.8125 71.09375 
Q 15.4375 72.65625 20.34375 73.4375 
Q 25.25 74.21875 29.59375 74.21875 
Q 40.828125 74.21875 47.359375 69.109375 
Q 53.90625 64.015625 53.90625 55.328125 
Q 53.90625 49.265625 50.4375 45.09375 
Q 46.96875 40.921875 40.578125 39.3125 
z
" id="DejaVuSans-51"/>
      </defs>
      <g transform="translate(162.96875 243.037656)scale(0.1 -0.1)">
       <use xlink:href="#DejaVuSans-51"/>
       <use x="63.623047" xlink:href="#DejaVuSans-48"/>
      </g>
     </g>
    </g>
    <g id="xtick_5">
     <g id="line2d_5">
      <g>
       <use style="stroke:#000000;stroke-width:0.8;" x="211.18125" xlink:href="#m1b94f8ce86" y="228.439219"/>
      </g>
     </g>
     <g id="text_5">
      <!-- 40 -->
      <defs>
       <path d="M 37.796875 64.3125 
L 12.890625 25.390625 
L 37.796875 25.390625 
z
M 35.203125 72.90625 
L 47.609375 72.90625 
L 47.609375 25.390625 
L 58.015625 25.390625 
L 58.015625 17.1875 
L 47.609375 17.1875 
L 47.609375 0 
L 37.796875 0 
L 37.796875 17.1875 
L 4.890625 17.1875 
L 4.890625 26.703125 
z
" id="DejaVuSans-52"/>
      </defs>
      <g transform="translate(204.81875 243.037656)scale(0.1 -0.1)">
       <use xlink:href="#DejaVuSans-52"/>
       <use x="63.623047" xlink:href="#DejaVuSans-48"/>
      </g>
     </g>
    </g>
    <g id="xtick_6">
     <g id="line2d_6">
      <g>
       <use style="stroke:#000000;stroke-width:0.8;" x="253.03125" xlink:href="#m1b94f8ce86" y="228.439219"/>
      </g>
     </g>
     <g id="text_6">
      <!-- 50 -->
      <defs>
       <path d="M 10.796875 72.90625 
L 49.515625 72.90625 
L 49.515625 64.59375 
L 19.828125 64.59375 
L 19.828125 46.734375 
Q 21.96875 47.46875 24.109375 47.828125 
Q 26.265625 48.1875 28.421875 48.1875 
Q 40.625 48.1875 47.75 41.5 
Q 54.890625 34.8125 54.890625 23.390625 
Q 54.890625 11.625 47.5625 5.09375 
Q 40.234375 -1.421875 26.90625 -1.421875 
Q 22.3125 -1.421875 17.546875 -0.640625 
Q 12.796875 0.140625 7.71875 1.703125 
L 7.71875 11.625 
Q 12.109375 9.234375 16.796875 8.0625 
Q 21.484375 6.890625 26.703125 6.890625 
Q 35.15625 6.890625 40.078125 11.328125 
Q 45.015625 15.765625 45.015625 23.390625 
Q 45.015625 31 40.078125 35.4375 
Q 35.15625 39.890625 26.703125 39.890625 
Q 22.75 39.890625 18.8125 39.015625 
Q 14.890625 38.140625 10.796875 36.28125 
z
" id="DejaVuSans-53"/>
      </defs>
      <g transform="translate(246.66875 243.037656)scale(0.1 -0.1)">
       <use xlink:href="#DejaVuSans-53"/>
       <use x="63.623047" xlink:href="#DejaVuSans-48"/>
      </g>
     </g>
    </g>
    <g id="xtick_7">
     <g id="line2d_7">
      <g>
       <use style="stroke:#000000;stroke-width:0.8;" x="294.88125" xlink:href="#m1b94f8ce86" y="228.439219"/>
      </g>
     </g>
     <g id="text_7">
      <!-- 60 -->
      <defs>
       <path d="M 33.015625 40.375 
Q 26.375 40.375 22.484375 35.828125 
Q 18.609375 31.296875 18.609375 23.390625 
Q 18.609375 15.53125 22.484375 10.953125 
Q 26.375 6.390625 33.015625 6.390625 
Q 39.65625 6.390625 43.53125 10.953125 
Q 47.40625 15.53125 47.40625 23.390625 
Q 47.40625 31.296875 43.53125 35.828125 
Q 39.65625 40.375 33.015625 40.375 
z
M 52.59375 71.296875 
L 52.59375 62.3125 
Q 48.875 64.0625 45.09375 64.984375 
Q 41.3125 65.921875 37.59375 65.921875 
Q 27.828125 65.921875 22.671875 59.328125 
Q 17.53125 52.734375 16.796875 39.40625 
Q 19.671875 43.65625 24.015625 45.921875 
Q 28.375 48.1875 33.59375 48.1875 
Q 44.578125 48.1875 50.953125 41.515625 
Q 57.328125 34.859375 57.328125 23.390625 
Q 57.328125 12.15625 50.6875 5.359375 
Q 44.046875 -1.421875 33.015625 -1.421875 
Q 20.359375 -1.421875 13.671875 8.265625 
Q 6.984375 17.96875 6.984375 36.375 
Q 6.984375 53.65625 15.1875 63.9375 
Q 23.390625 74.21875 37.203125 74.21875 
Q 40.921875 74.21875 44.703125 73.484375 
Q 48.484375 72.75 52.59375 71.296875 
z
" id="DejaVuSans-54"/>
      </defs>
      <g transform="translate(288.51875 243.037656)scale(0.1 -0.1)">
       <use xlink:href="#DejaVuSans-54"/>
       <use x="63.623047" xlink:href="#DejaVuSans-48"/>
      </g>
     </g>
    </g>
    <g id="xtick_8">
     <g id="line2d_8">
      <g>
       <use style="stroke:#000000;stroke-width:0.8;" x="336.73125" xlink:href="#m1b94f8ce86" y="228.439219"/>
      </g>
     </g>
     <g id="text_8">
      <!-- 70 -->
      <defs>
       <path d="M 8.203125 72.90625 
L 55.078125 72.90625 
L 55.078125 68.703125 
L 28.609375 0 
L 18.3125 0 
L 43.21875 64.59375 
L 8.203125 64.59375 
z
" id="DejaVuSans-55"/>
      </defs>
      <g transform="translate(330.36875 243.037656)scale(0.1 -0.1)">
       <use xlink:href="#DejaVuSans-55"/>
       <use x="63.623047" xlink:href="#DejaVuSans-48"/>
      </g>
     </g>
    </g>
    <g id="xtick_9">
     <g id="line2d_9">
      <g>
       <use style="stroke:#000000;stroke-width:0.8;" x="378.58125" xlink:href="#m1b94f8ce86" y="228.439219"/>
      </g>
     </g>
     <g id="text_9">
      <!-- 80 -->
      <defs>
       <path d="M 31.78125 34.625 
Q 24.75 34.625 20.71875 30.859375 
Q 16.703125 27.09375 16.703125 20.515625 
Q 16.703125 13.921875 20.71875 10.15625 
Q 24.75 6.390625 31.78125 6.390625 
Q 38.8125 6.390625 42.859375 10.171875 
Q 46.921875 13.96875 46.921875 20.515625 
Q 46.921875 27.09375 42.890625 30.859375 
Q 38.875 34.625 31.78125 34.625 
z
M 21.921875 38.8125 
Q 15.578125 40.375 12.03125 44.71875 
Q 8.5 49.078125 8.5 55.328125 
Q 8.5 64.0625 14.71875 69.140625 
Q 20.953125 74.21875 31.78125 74.21875 
Q 42.671875 74.21875 48.875 69.140625 
Q 55.078125 64.0625 55.078125 55.328125 
Q 55.078125 49.078125 51.53125 44.71875 
Q 48 40.375 41.703125 38.8125 
Q 48.828125 37.15625 52.796875 32.3125 
Q 56.78125 27.484375 56.78125 20.515625 
Q 56.78125 9.90625 50.3125 4.234375 
Q 43.84375 -1.421875 31.78125 -1.421875 
Q 19.734375 -1.421875 13.25 4.234375 
Q 6.78125 9.90625 6.78125 20.515625 
Q 6.78125 27.484375 10.78125 32.3125 
Q 14.796875 37.15625 21.921875 38.8125 
z
M 18.3125 54.390625 
Q 18.3125 48.734375 21.84375 45.5625 
Q 25.390625 42.390625 31.78125 42.390625 
Q 38.140625 42.390625 41.71875 45.5625 
Q 45.3125 48.734375 45.3125 54.390625 
Q 45.3125 60.0625 41.71875 63.234375 
Q 38.140625 66.40625 31.78125 66.40625 
Q 25.390625 66.40625 21.84375 63.234375 
Q 18.3125 60.0625 18.3125 54.390625 
z
" id="DejaVuSans-56"/>
      </defs>
      <g transform="translate(372.21875 243.037656)scale(0.1 -0.1)">
       <use xlink:href="#DejaVuSans-56"/>
       <use x="63.623047" xlink:href="#DejaVuSans-48"/>
      </g>
     </g>
    </g>
    <g id="text_10">
     <!-- trainsize -->
     <defs>
      <path d="M 18.3125 70.21875 
L 18.3125 54.6875 
L 36.8125 54.6875 
L 36.8125 47.703125 
L 18.3125 47.703125 
L 18.3125 18.015625 
Q 18.3125 11.328125 20.140625 9.421875 
Q 21.96875 7.515625 27.59375 7.515625 
L 36.8125 7.515625 
L 36.8125 0 
L 27.59375 0 
Q 17.1875 0 13.234375 3.875 
Q 9.28125 7.765625 9.28125 18.015625 
L 9.28125 47.703125 
L 2.6875 47.703125 
L 2.6875 54.6875 
L 9.28125 54.6875 
L 9.28125 70.21875 
z
" id="DejaVuSans-116"/>
      <path d="M 41.109375 46.296875 
Q 39.59375 47.171875 37.8125 47.578125 
Q 36.03125 48 33.890625 48 
Q 26.265625 48 22.1875 43.046875 
Q 18.109375 38.09375 18.109375 28.8125 
L 18.109375 0 
L 9.078125 0 
L 9.078125 54.6875 
L 18.109375 54.6875 
L 18.109375 46.1875 
Q 20.953125 51.171875 25.484375 53.578125 
Q 30.03125 56 36.53125 56 
Q 37.453125 56 38.578125 55.875 
Q 39.703125 55.765625 41.0625 55.515625 
z
" id="DejaVuSans-114"/>
      <path d="M 34.28125 27.484375 
Q 23.390625 27.484375 19.1875 25 
Q 14.984375 22.515625 14.984375 16.5 
Q 14.984375 11.71875 18.140625 8.90625 
Q 21.296875 6.109375 26.703125 6.109375 
Q 34.1875 6.109375 38.703125 11.40625 
Q 43.21875 16.703125 43.21875 25.484375 
L 43.21875 27.484375 
z
M 52.203125 31.203125 
L 52.203125 0 
L 43.21875 0 
L 43.21875 8.296875 
Q 40.140625 3.328125 35.546875 0.953125 
Q 30.953125 -1.421875 24.3125 -1.421875 
Q 15.921875 -1.421875 10.953125 3.296875 
Q 6 8.015625 6 15.921875 
Q 6 25.140625 12.171875 29.828125 
Q 18.359375 34.515625 30.609375 34.515625 
L 43.21875 34.515625 
L 43.21875 35.40625 
Q 43.21875 41.609375 39.140625 45 
Q 35.0625 48.390625 27.6875 48.390625 
Q 23 48.390625 18.546875 47.265625 
Q 14.109375 46.140625 10.015625 43.890625 
L 10.015625 52.203125 
Q 14.9375 54.109375 19.578125 55.046875 
Q 24.21875 56 28.609375 56 
Q 40.484375 56 46.34375 49.84375 
Q 52.203125 43.703125 52.203125 31.203125 
z
" id="DejaVuSans-97"/>
      <path d="M 9.421875 54.6875 
L 18.40625 54.6875 
L 18.40625 0 
L 9.421875 0 
z
M 9.421875 75.984375 
L 18.40625 75.984375 
L 18.40625 64.59375 
L 9.421875 64.59375 
z
" id="DejaVuSans-105"/>
      <path d="M 54.890625 33.015625 
L 54.890625 0 
L 45.90625 0 
L 45.90625 32.71875 
Q 45.90625 40.484375 42.875 44.328125 
Q 39.84375 48.1875 33.796875 48.1875 
Q 26.515625 48.1875 22.3125 43.546875 
Q 18.109375 38.921875 18.109375 30.90625 
L 18.109375 0 
L 9.078125 0 
L 9.078125 54.6875 
L 18.109375 54.6875 
L 18.109375 46.1875 
Q 21.34375 51.125 25.703125 53.5625 
Q 30.078125 56 35.796875 56 
Q 45.21875 56 50.046875 50.171875 
Q 54.890625 44.34375 54.890625 33.015625 
z
" id="DejaVuSans-110"/>
      <path d="M 44.28125 53.078125 
L 44.28125 44.578125 
Q 40.484375 46.53125 36.375 47.5 
Q 32.28125 48.484375 27.875 48.484375 
Q 21.1875 48.484375 17.84375 46.4375 
Q 14.5 44.390625 14.5 40.28125 
Q 14.5 37.15625 16.890625 35.375 
Q 19.28125 33.59375 26.515625 31.984375 
L 29.59375 31.296875 
Q 39.15625 29.25 43.1875 25.515625 
Q 47.21875 21.78125 47.21875 15.09375 
Q 47.21875 7.46875 41.1875 3.015625 
Q 35.15625 -1.421875 24.609375 -1.421875 
Q 20.21875 -1.421875 15.453125 -0.5625 
Q 10.6875 0.296875 5.421875 2 
L 5.421875 11.28125 
Q 10.40625 8.6875 15.234375 7.390625 
Q 20.0625 6.109375 24.8125 6.109375 
Q 31.15625 6.109375 34.5625 8.28125 
Q 37.984375 10.453125 37.984375 14.40625 
Q 37.984375 18.0625 35.515625 20.015625 
Q 33.0625 21.96875 24.703125 23.78125 
L 21.578125 24.515625 
Q 13.234375 26.265625 9.515625 29.90625 
Q 5.8125 33.546875 5.8125 39.890625 
Q 5.8125 47.609375 11.28125 51.796875 
Q 16.75 56 26.8125 56 
Q 31.78125 56 36.171875 55.265625 
Q 40.578125 54.546875 44.28125 53.078125 
z
" id="DejaVuSans-115"/>
      <path d="M 5.515625 54.6875 
L 48.1875 54.6875 
L 48.1875 46.484375 
L 14.40625 7.171875 
L 48.1875 7.171875 
L 48.1875 0 
L 4.296875 0 
L 4.296875 8.203125 
L 38.09375 47.515625 
L 5.515625 47.515625 
z
" id="DejaVuSans-122"/>
      <path d="M 56.203125 29.59375 
L 56.203125 25.203125 
L 14.890625 25.203125 
Q 15.484375 15.921875 20.484375 11.0625 
Q 25.484375 6.203125 34.421875 6.203125 
Q 39.59375 6.203125 44.453125 7.46875 
Q 49.3125 8.734375 54.109375 11.28125 
L 54.109375 2.78125 
Q 49.265625 0.734375 44.1875 -0.34375 
Q 39.109375 -1.421875 33.890625 -1.421875 
Q 20.796875 -1.421875 13.15625 6.1875 
Q 5.515625 13.8125 5.515625 26.8125 
Q 5.515625 40.234375 12.765625 48.109375 
Q 20.015625 56 32.328125 56 
Q 43.359375 56 49.78125 48.890625 
Q 56.203125 41.796875 56.203125 29.59375 
z
M 47.21875 32.234375 
Q 47.125 39.59375 43.09375 43.984375 
Q 39.0625 48.390625 32.421875 48.390625 
Q 24.90625 48.390625 20.390625 44.140625 
Q 15.875 39.890625 15.1875 32.171875 
z
" id="DejaVuSans-101"/>
     </defs>
     <g transform="translate(189.849219 256.715781)scale(0.1 -0.1)">
      <use xlink:href="#DejaVuSans-116"/>
      <use x="39.208984" xlink:href="#DejaVuSans-114"/>
      <use x="80.322266" xlink:href="#DejaVuSans-97"/>
      <use x="141.601562" xlink:href="#DejaVuSans-105"/>
      <use x="169.384766" xlink:href="#DejaVuSans-110"/>
      <use x="232.763672" xlink:href="#DejaVuSans-115"/>
      <use x="284.863281" xlink:href="#DejaVuSans-105"/>
      <use x="312.646484" xlink:href="#DejaVuSans-122"/>
      <use x="365.136719" xlink:href="#DejaVuSans-101"/>
     </g>
    </g>
   </g>
   <g id="matplotlib.axis_2">
    <g id="ytick_1">
     <g id="line2d_10">
      <defs>
       <path d="M 0 0 
L -3.5 0 
" id="me78b407ad9" style="stroke:#000000;stroke-width:0.8;"/>
      </defs>
      <g>
       <use style="stroke:#000000;stroke-width:0.8;" x="43.78125" xlink:href="#me78b407ad9" y="228.439219"/>
      </g>
     </g>
     <g id="text_11">
      <!-- 0.0 -->
      <defs>
       <path d="M 10.6875 12.40625 
L 21 12.40625 
L 21 0 
L 10.6875 0 
z
" id="DejaVuSans-46"/>
      </defs>
      <g transform="translate(20.878125 232.238437)scale(0.1 -0.1)">
       <use xlink:href="#DejaVuSans-48"/>
       <use x="63.623047" xlink:href="#DejaVuSans-46"/>
       <use x="95.410156" xlink:href="#DejaVuSans-48"/>
      </g>
     </g>
    </g>
    <g id="ytick_2">
     <g id="line2d_11">
      <g>
       <use style="stroke:#000000;stroke-width:0.8;" x="43.78125" xlink:href="#me78b407ad9" y="192.199219"/>
      </g>
     </g>
     <g id="text_12">
      <!-- 0.5 -->
      <g transform="translate(20.878125 195.998437)scale(0.1 -0.1)">
       <use xlink:href="#DejaVuSans-48"/>
       <use x="63.623047" xlink:href="#DejaVuSans-46"/>
       <use x="95.410156" xlink:href="#DejaVuSans-53"/>
      </g>
     </g>
    </g>
    <g id="ytick_3">
     <g id="line2d_12">
      <g>
       <use style="stroke:#000000;stroke-width:0.8;" x="43.78125" xlink:href="#me78b407ad9" y="155.959219"/>
      </g>
     </g>
     <g id="text_13">
      <!-- 1.0 -->
      <g transform="translate(20.878125 159.758437)scale(0.1 -0.1)">
       <use xlink:href="#DejaVuSans-49"/>
       <use x="63.623047" xlink:href="#DejaVuSans-46"/>
       <use x="95.410156" xlink:href="#DejaVuSans-48"/>
      </g>
     </g>
    </g>
    <g id="ytick_4">
     <g id="line2d_13">
      <g>
       <use style="stroke:#000000;stroke-width:0.8;" x="43.78125" xlink:href="#me78b407ad9" y="119.719219"/>
      </g>
     </g>
     <g id="text_14">
      <!-- 1.5 -->
      <g transform="translate(20.878125 123.518437)scale(0.1 -0.1)">
       <use xlink:href="#DejaVuSans-49"/>
       <use x="63.623047" xlink:href="#DejaVuSans-46"/>
       <use x="95.410156" xlink:href="#DejaVuSans-53"/>
      </g>
     </g>
    </g>
    <g id="ytick_5">
     <g id="line2d_14">
      <g>
       <use style="stroke:#000000;stroke-width:0.8;" x="43.78125" xlink:href="#me78b407ad9" y="83.479219"/>
      </g>
     </g>
     <g id="text_15">
      <!-- 2.0 -->
      <g transform="translate(20.878125 87.278437)scale(0.1 -0.1)">
       <use xlink:href="#DejaVuSans-50"/>
       <use x="63.623047" xlink:href="#DejaVuSans-46"/>
       <use x="95.410156" xlink:href="#DejaVuSans-48"/>
      </g>
     </g>
    </g>
    <g id="ytick_6">
     <g id="line2d_15">
      <g>
       <use style="stroke:#000000;stroke-width:0.8;" x="43.78125" xlink:href="#me78b407ad9" y="47.239219"/>
      </g>
     </g>
     <g id="text_16">
      <!-- 2.5 -->
      <g transform="translate(20.878125 51.038437)scale(0.1 -0.1)">
       <use xlink:href="#DejaVuSans-50"/>
       <use x="63.623047" xlink:href="#DejaVuSans-46"/>
       <use x="95.410156" xlink:href="#DejaVuSans-53"/>
      </g>
     </g>
    </g>
    <g id="ytick_7">
     <g id="line2d_16">
      <g>
       <use style="stroke:#000000;stroke-width:0.8;" x="43.78125" xlink:href="#me78b407ad9" y="10.999219"/>
      </g>
     </g>
     <g id="text_17">
      <!-- 3.0 -->
      <g transform="translate(20.878125 14.798437)scale(0.1 -0.1)">
       <use xlink:href="#DejaVuSans-51"/>
       <use x="63.623047" xlink:href="#DejaVuSans-46"/>
       <use x="95.410156" xlink:href="#DejaVuSans-48"/>
      </g>
     </g>
    </g>
    <g id="text_18">
     <!-- RMSE -->
     <defs>
      <path d="M 44.390625 34.1875 
Q 47.5625 33.109375 50.5625 29.59375 
Q 53.5625 26.078125 56.59375 19.921875 
L 66.609375 0 
L 56 0 
L 46.6875 18.703125 
Q 43.0625 26.03125 39.671875 28.421875 
Q 36.28125 30.8125 30.421875 30.8125 
L 19.671875 30.8125 
L 19.671875 0 
L 9.8125 0 
L 9.8125 72.90625 
L 32.078125 72.90625 
Q 44.578125 72.90625 50.734375 67.671875 
Q 56.890625 62.453125 56.890625 51.90625 
Q 56.890625 45.015625 53.6875 40.46875 
Q 50.484375 35.9375 44.390625 34.1875 
z
M 19.671875 64.796875 
L 19.671875 38.921875 
L 32.078125 38.921875 
Q 39.203125 38.921875 42.84375 42.21875 
Q 46.484375 45.515625 46.484375 51.90625 
Q 46.484375 58.296875 42.84375 61.546875 
Q 39.203125 64.796875 32.078125 64.796875 
z
" id="DejaVuSans-82"/>
      <path d="M 9.8125 72.90625 
L 24.515625 72.90625 
L 43.109375 23.296875 
L 61.8125 72.90625 
L 76.515625 72.90625 
L 76.515625 0 
L 66.890625 0 
L 66.890625 64.015625 
L 48.09375 14.015625 
L 38.1875 14.015625 
L 19.390625 64.015625 
L 19.390625 0 
L 9.8125 0 
z
" id="DejaVuSans-77"/>
      <path d="M 53.515625 70.515625 
L 53.515625 60.890625 
Q 47.90625 63.578125 42.921875 64.890625 
Q 37.9375 66.21875 33.296875 66.21875 
Q 25.25 66.21875 20.875 63.09375 
Q 16.5 59.96875 16.5 54.203125 
Q 16.5 49.359375 19.40625 46.890625 
Q 22.3125 44.4375 30.421875 42.921875 
L 36.375 41.703125 
Q 47.40625 39.59375 52.65625 34.296875 
Q 57.90625 29 57.90625 20.125 
Q 57.90625 9.515625 50.796875 4.046875 
Q 43.703125 -1.421875 29.984375 -1.421875 
Q 24.8125 -1.421875 18.96875 -0.25 
Q 13.140625 0.921875 6.890625 3.21875 
L 6.890625 13.375 
Q 12.890625 10.015625 18.65625 8.296875 
Q 24.421875 6.59375 29.984375 6.59375 
Q 38.421875 6.59375 43.015625 9.90625 
Q 47.609375 13.234375 47.609375 19.390625 
Q 47.609375 24.75 44.3125 27.78125 
Q 41.015625 30.8125 33.5 32.328125 
L 27.484375 33.5 
Q 16.453125 35.6875 11.515625 40.375 
Q 6.59375 45.0625 6.59375 53.421875 
Q 6.59375 63.09375 13.40625 68.65625 
Q 20.21875 74.21875 32.171875 74.21875 
Q 37.3125 74.21875 42.625 73.28125 
Q 47.953125 72.359375 53.515625 70.515625 
z
" id="DejaVuSans-83"/>
      <path d="M 9.8125 72.90625 
L 55.90625 72.90625 
L 55.90625 64.59375 
L 19.671875 64.59375 
L 19.671875 43.015625 
L 54.390625 43.015625 
L 54.390625 34.71875 
L 19.671875 34.71875 
L 19.671875 8.296875 
L 56.78125 8.296875 
L 56.78125 0 
L 9.8125 0 
z
" id="DejaVuSans-69"/>
     </defs>
     <g transform="translate(14.798438 133.841094)rotate(-90)scale(0.1 -0.1)">
      <use xlink:href="#DejaVuSans-82"/>
      <use x="69.482422" xlink:href="#DejaVuSans-77"/>
      <use x="155.761719" xlink:href="#DejaVuSans-83"/>
      <use x="219.238281" xlink:href="#DejaVuSans-69"/>
     </g>
    </g>
   </g>
   <g id="line2d_17">
    <path clip-path="url(#pfa68afd168)" d="M 43.78125 228.439219 
L 47.96625 228.439219 
L 52.15125 228.439219 
L 56.33625 228.439219 
L 60.52125 228.439219 
L 64.70625 228.439219 
L 68.89125 228.439219 
L 73.07625 228.439219 
L 77.26125 228.439219 
L 81.44625 228.439219 
L 85.63125 228.439216 
L 89.81625 202.787283 
L 94.00125 203.337318 
L 98.18625 199.866744 
L 102.37125 185.250957 
L 106.55625 178.076624 
L 110.74125 166.430164 
L 114.92625 164.452905 
L 119.11125 161.310027 
L 123.29625 153.859631 
L 127.48125 152.031565 
L 131.66625 148.245903 
L 135.85125 148.061252 
L 140.03625 147.300808 
L 144.22125 148.673599 
L 148.40625 148.671754 
L 152.59125 150.135858 
L 156.77625 150.42208 
L 160.96125 150.623973 
L 165.14625 151.233815 
L 169.33125 152.166547 
L 173.51625 153.266264 
L 177.70125 154.241762 
L 181.88625 155.072333 
L 186.07125 156.113339 
L 190.25625 156.694224 
L 194.44125 157.547656 
L 198.62625 157.111323 
L 202.81125 157.209225 
L 206.99625 158.090564 
L 211.18125 158.916919 
L 215.36625 159.459189 
L 219.55125 159.59089 
L 223.73625 159.258441 
L 227.92125 157.984091 
L 232.10625 158.013685 
L 236.29125 158.210902 
L 240.47625 154.787784 
L 244.66125 153.538641 
L 248.84625 154.227964 
L 253.03125 154.833578 
L 257.21625 154.861722 
L 261.40125 154.19189 
L 265.58625 154.844767 
L 269.77125 155.419983 
L 273.95625 156.003335 
L 278.14125 156.616315 
L 282.32625 157.23667 
L 286.51125 157.217298 
L 290.69625 157.810849 
L 294.88125 156.018839 
L 299.06625 156.601977 
L 303.25125 157.10635 
L 307.43625 157.275089 
L 311.62125 157.824518 
L 315.80625 158.300062 
L 319.99125 158.544329 
L 324.17625 158.306665 
L 328.36125 158.577295 
L 332.54625 159.062763 
L 336.73125 159.485202 
L 340.91625 159.876267 
L 345.10125 159.753109 
L 349.28625 159.792256 
L 353.47125 160.204771 
L 357.65625 159.983284 
L 361.84125 160.428345 
L 366.02625 160.799293 
L 370.21125 161.220644 
" style="fill:none;stroke:#ff0000;stroke-linecap:square;stroke-width:2;"/>
    <defs>
     <path d="M -3 0 
L 3 0 
M 0 3 
L 0 -3 
" id="m0dc085d01c" style="stroke:#ff0000;"/>
    </defs>
    <g clip-path="url(#pfa68afd168)">
     <use style="fill:#ff0000;stroke:#ff0000;" x="43.78125" xlink:href="#m0dc085d01c" y="228.439219"/>
     <use style="fill:#ff0000;stroke:#ff0000;" x="47.96625" xlink:href="#m0dc085d01c" y="228.439219"/>
     <use style="fill:#ff0000;stroke:#ff0000;" x="52.15125" xlink:href="#m0dc085d01c" y="228.439219"/>
     <use style="fill:#ff0000;stroke:#ff0000;" x="56.33625" xlink:href="#m0dc085d01c" y="228.439219"/>
     <use style="fill:#ff0000;stroke:#ff0000;" x="60.52125" xlink:href="#m0dc085d01c" y="228.439219"/>
     <use style="fill:#ff0000;stroke:#ff0000;" x="64.70625" xlink:href="#m0dc085d01c" y="228.439219"/>
     <use style="fill:#ff0000;stroke:#ff0000;" x="68.89125" xlink:href="#m0dc085d01c" y="228.439219"/>
     <use style="fill:#ff0000;stroke:#ff0000;" x="73.07625" xlink:href="#m0dc085d01c" y="228.439219"/>
     <use style="fill:#ff0000;stroke:#ff0000;" x="77.26125" xlink:href="#m0dc085d01c" y="228.439219"/>
     <use style="fill:#ff0000;stroke:#ff0000;" x="81.44625" xlink:href="#m0dc085d01c" y="228.439219"/>
     <use style="fill:#ff0000;stroke:#ff0000;" x="85.63125" xlink:href="#m0dc085d01c" y="228.439216"/>
     <use style="fill:#ff0000;stroke:#ff0000;" x="89.81625" xlink:href="#m0dc085d01c" y="202.787283"/>
     <use style="fill:#ff0000;stroke:#ff0000;" x="94.00125" xlink:href="#m0dc085d01c" y="203.337318"/>
     <use style="fill:#ff0000;stroke:#ff0000;" x="98.18625" xlink:href="#m0dc085d01c" y="199.866744"/>
     <use style="fill:#ff0000;stroke:#ff0000;" x="102.37125" xlink:href="#m0dc085d01c" y="185.250957"/>
     <use style="fill:#ff0000;stroke:#ff0000;" x="106.55625" xlink:href="#m0dc085d01c" y="178.076624"/>
     <use style="fill:#ff0000;stroke:#ff0000;" x="110.74125" xlink:href="#m0dc085d01c" y="166.430164"/>
     <use style="fill:#ff0000;stroke:#ff0000;" x="114.92625" xlink:href="#m0dc085d01c" y="164.452905"/>
     <use style="fill:#ff0000;stroke:#ff0000;" x="119.11125" xlink:href="#m0dc085d01c" y="161.310027"/>
     <use style="fill:#ff0000;stroke:#ff0000;" x="123.29625" xlink:href="#m0dc085d01c" y="153.859631"/>
     <use style="fill:#ff0000;stroke:#ff0000;" x="127.48125" xlink:href="#m0dc085d01c" y="152.031565"/>
     <use style="fill:#ff0000;stroke:#ff0000;" x="131.66625" xlink:href="#m0dc085d01c" y="148.245903"/>
     <use style="fill:#ff0000;stroke:#ff0000;" x="135.85125" xlink:href="#m0dc085d01c" y="148.061252"/>
     <use style="fill:#ff0000;stroke:#ff0000;" x="140.03625" xlink:href="#m0dc085d01c" y="147.300808"/>
     <use style="fill:#ff0000;stroke:#ff0000;" x="144.22125" xlink:href="#m0dc085d01c" y="148.673599"/>
     <use style="fill:#ff0000;stroke:#ff0000;" x="148.40625" xlink:href="#m0dc085d01c" y="148.671754"/>
     <use style="fill:#ff0000;stroke:#ff0000;" x="152.59125" xlink:href="#m0dc085d01c" y="150.135858"/>
     <use style="fill:#ff0000;stroke:#ff0000;" x="156.77625" xlink:href="#m0dc085d01c" y="150.42208"/>
     <use style="fill:#ff0000;stroke:#ff0000;" x="160.96125" xlink:href="#m0dc085d01c" y="150.623973"/>
     <use style="fill:#ff0000;stroke:#ff0000;" x="165.14625" xlink:href="#m0dc085d01c" y="151.233815"/>
     <use style="fill:#ff0000;stroke:#ff0000;" x="169.33125" xlink:href="#m0dc085d01c" y="152.166547"/>
     <use style="fill:#ff0000;stroke:#ff0000;" x="173.51625" xlink:href="#m0dc085d01c" y="153.266264"/>
     <use style="fill:#ff0000;stroke:#ff0000;" x="177.70125" xlink:href="#m0dc085d01c" y="154.241762"/>
     <use style="fill:#ff0000;stroke:#ff0000;" x="181.88625" xlink:href="#m0dc085d01c" y="155.072333"/>
     <use style="fill:#ff0000;stroke:#ff0000;" x="186.07125" xlink:href="#m0dc085d01c" y="156.113339"/>
     <use style="fill:#ff0000;stroke:#ff0000;" x="190.25625" xlink:href="#m0dc085d01c" y="156.694224"/>
     <use style="fill:#ff0000;stroke:#ff0000;" x="194.44125" xlink:href="#m0dc085d01c" y="157.547656"/>
     <use style="fill:#ff0000;stroke:#ff0000;" x="198.62625" xlink:href="#m0dc085d01c" y="157.111323"/>
     <use style="fill:#ff0000;stroke:#ff0000;" x="202.81125" xlink:href="#m0dc085d01c" y="157.209225"/>
     <use style="fill:#ff0000;stroke:#ff0000;" x="206.99625" xlink:href="#m0dc085d01c" y="158.090564"/>
     <use style="fill:#ff0000;stroke:#ff0000;" x="211.18125" xlink:href="#m0dc085d01c" y="158.916919"/>
     <use style="fill:#ff0000;stroke:#ff0000;" x="215.36625" xlink:href="#m0dc085d01c" y="159.459189"/>
     <use style="fill:#ff0000;stroke:#ff0000;" x="219.55125" xlink:href="#m0dc085d01c" y="159.59089"/>
     <use style="fill:#ff0000;stroke:#ff0000;" x="223.73625" xlink:href="#m0dc085d01c" y="159.258441"/>
     <use style="fill:#ff0000;stroke:#ff0000;" x="227.92125" xlink:href="#m0dc085d01c" y="157.984091"/>
     <use style="fill:#ff0000;stroke:#ff0000;" x="232.10625" xlink:href="#m0dc085d01c" y="158.013685"/>
     <use style="fill:#ff0000;stroke:#ff0000;" x="236.29125" xlink:href="#m0dc085d01c" y="158.210902"/>
     <use style="fill:#ff0000;stroke:#ff0000;" x="240.47625" xlink:href="#m0dc085d01c" y="154.787784"/>
     <use style="fill:#ff0000;stroke:#ff0000;" x="244.66125" xlink:href="#m0dc085d01c" y="153.538641"/>
     <use style="fill:#ff0000;stroke:#ff0000;" x="248.84625" xlink:href="#m0dc085d01c" y="154.227964"/>
     <use style="fill:#ff0000;stroke:#ff0000;" x="253.03125" xlink:href="#m0dc085d01c" y="154.833578"/>
     <use style="fill:#ff0000;stroke:#ff0000;" x="257.21625" xlink:href="#m0dc085d01c" y="154.861722"/>
     <use style="fill:#ff0000;stroke:#ff0000;" x="261.40125" xlink:href="#m0dc085d01c" y="154.19189"/>
     <use style="fill:#ff0000;stroke:#ff0000;" x="265.58625" xlink:href="#m0dc085d01c" y="154.844767"/>
     <use style="fill:#ff0000;stroke:#ff0000;" x="269.77125" xlink:href="#m0dc085d01c" y="155.419983"/>
     <use style="fill:#ff0000;stroke:#ff0000;" x="273.95625" xlink:href="#m0dc085d01c" y="156.003335"/>
     <use style="fill:#ff0000;stroke:#ff0000;" x="278.14125" xlink:href="#m0dc085d01c" y="156.616315"/>
     <use style="fill:#ff0000;stroke:#ff0000;" x="282.32625" xlink:href="#m0dc085d01c" y="157.23667"/>
     <use style="fill:#ff0000;stroke:#ff0000;" x="286.51125" xlink:href="#m0dc085d01c" y="157.217298"/>
     <use style="fill:#ff0000;stroke:#ff0000;" x="290.69625" xlink:href="#m0dc085d01c" y="157.810849"/>
     <use style="fill:#ff0000;stroke:#ff0000;" x="294.88125" xlink:href="#m0dc085d01c" y="156.018839"/>
     <use style="fill:#ff0000;stroke:#ff0000;" x="299.06625" xlink:href="#m0dc085d01c" y="156.601977"/>
     <use style="fill:#ff0000;stroke:#ff0000;" x="303.25125" xlink:href="#m0dc085d01c" y="157.10635"/>
     <use style="fill:#ff0000;stroke:#ff0000;" x="307.43625" xlink:href="#m0dc085d01c" y="157.275089"/>
     <use style="fill:#ff0000;stroke:#ff0000;" x="311.62125" xlink:href="#m0dc085d01c" y="157.824518"/>
     <use style="fill:#ff0000;stroke:#ff0000;" x="315.80625" xlink:href="#m0dc085d01c" y="158.300062"/>
     <use style="fill:#ff0000;stroke:#ff0000;" x="319.99125" xlink:href="#m0dc085d01c" y="158.544329"/>
     <use style="fill:#ff0000;stroke:#ff0000;" x="324.17625" xlink:href="#m0dc085d01c" y="158.306665"/>
     <use style="fill:#ff0000;stroke:#ff0000;" x="328.36125" xlink:href="#m0dc085d01c" y="158.577295"/>
     <use style="fill:#ff0000;stroke:#ff0000;" x="332.54625" xlink:href="#m0dc085d01c" y="159.062763"/>
     <use style="fill:#ff0000;stroke:#ff0000;" x="336.73125" xlink:href="#m0dc085d01c" y="159.485202"/>
     <use style="fill:#ff0000;stroke:#ff0000;" x="340.91625" xlink:href="#m0dc085d01c" y="159.876267"/>
     <use style="fill:#ff0000;stroke:#ff0000;" x="345.10125" xlink:href="#m0dc085d01c" y="159.753109"/>
     <use style="fill:#ff0000;stroke:#ff0000;" x="349.28625" xlink:href="#m0dc085d01c" y="159.792256"/>
     <use style="fill:#ff0000;stroke:#ff0000;" x="353.47125" xlink:href="#m0dc085d01c" y="160.204771"/>
     <use style="fill:#ff0000;stroke:#ff0000;" x="357.65625" xlink:href="#m0dc085d01c" y="159.983284"/>
     <use style="fill:#ff0000;stroke:#ff0000;" x="361.84125" xlink:href="#m0dc085d01c" y="160.428345"/>
     <use style="fill:#ff0000;stroke:#ff0000;" x="366.02625" xlink:href="#m0dc085d01c" y="160.799293"/>
     <use style="fill:#ff0000;stroke:#ff0000;" x="370.21125" xlink:href="#m0dc085d01c" y="161.220644"/>
    </g>
   </g>
   <g id="line2d_18">
    <path clip-path="url(#pfa68afd168)" d="M 43.78125 63.473886 
L 47.96625 55.605084 
L 48.004706 -1 
M 110.100714 -1 
L 110.74125 75.463885 
L 114.92625 76.140778 
L 119.11125 105.461814 
L 123.29625 126.690724 
L 127.48125 135.793798 
L 131.66625 127.035584 
L 135.85125 121.388709 
L 140.03625 119.075303 
L 144.22125 122.04811 
L 148.40625 123.142865 
L 152.59125 122.548423 
L 156.77625 126.396379 
L 160.96125 137.942375 
L 165.14625 139.449743 
L 169.33125 137.721036 
L 173.51625 137.249484 
L 177.70125 136.553409 
L 181.88625 137.15573 
L 186.07125 137.438107 
L 190.25625 135.989353 
L 194.44125 139.15564 
L 198.62625 139.695578 
L 202.81125 135.418525 
L 206.99625 136.118432 
L 211.18125 136.056469 
L 215.36625 137.94108 
L 219.55125 137.261554 
L 223.73625 135.807167 
L 227.92125 138.73148 
L 232.10625 140.322781 
L 236.29125 141.704286 
L 240.47625 139.505689 
L 244.66125 144.087512 
L 248.84625 144.666552 
L 253.03125 144.531301 
L 257.21625 145.895572 
L 261.40125 145.150536 
L 265.58625 144.689581 
L 269.77125 144.180113 
L 273.95625 143.925411 
L 278.14125 144.145733 
L 282.32625 144.162209 
L 286.51125 142.629473 
L 290.69625 142.555371 
L 294.88125 141.320672 
L 299.06625 141.251633 
L 303.25125 141.044429 
L 307.43625 142.287962 
L 311.62125 142.306938 
L 315.80625 142.626029 
L 319.99125 142.067013 
L 324.17625 142.943533 
L 328.36125 142.900622 
L 332.54625 142.917103 
L 336.73125 142.757823 
L 340.91625 143.19856 
L 345.10125 143.966649 
L 349.28625 143.194361 
L 353.47125 143.405893 
L 357.65625 143.810251 
L 361.84125 143.768036 
L 366.02625 143.374161 
L 370.21125 143.298977 
" style="fill:none;stroke:#0000ff;stroke-linecap:square;stroke-width:3;"/>
   </g>
   <g id="patch_3">
    <path d="M 43.78125 228.439219 
L 43.78125 10.999219 
" style="fill:none;stroke:#000000;stroke-linecap:square;stroke-linejoin:miter;stroke-width:0.8;"/>
   </g>
   <g id="patch_4">
    <path d="M 378.58125 228.439219 
L 378.58125 10.999219 
" style="fill:none;stroke:#000000;stroke-linecap:square;stroke-linejoin:miter;stroke-width:0.8;"/>
   </g>
   <g id="patch_5">
    <path d="M 43.78125 228.439219 
L 378.58125 228.439219 
" style="fill:none;stroke:#000000;stroke-linecap:square;stroke-linejoin:miter;stroke-width:0.8;"/>
   </g>
   <g id="patch_6">
    <path d="M 43.78125 10.999219 
L 378.58125 10.999219 
" style="fill:none;stroke:#000000;stroke-linecap:square;stroke-linejoin:miter;stroke-width:0.8;"/>
   </g>
   <g id="legend_1">
    <g id="patch_7">
     <path d="M 316.30625 48.355469 
L 371.58125 48.355469 
Q 373.58125 48.355469 373.58125 46.355469 
L 373.58125 17.999219 
Q 373.58125 15.999219 371.58125 15.999219 
L 316.30625 15.999219 
Q 314.30625 15.999219 314.30625 17.999219 
L 314.30625 46.355469 
Q 314.30625 48.355469 316.30625 48.355469 
z
" style="fill:#ffffff;opacity:0.8;stroke:#cccccc;stroke-linejoin:miter;"/>
    </g>
    <g id="line2d_19">
     <path d="M 318.30625 24.097656 
L 338.30625 24.097656 
" style="fill:none;stroke:#ff0000;stroke-linecap:square;stroke-width:2;"/>
    </g>
    <g id="line2d_20">
     <g>
      <use style="fill:#ff0000;stroke:#ff0000;" x="328.30625" xlink:href="#m0dc085d01c" y="24.097656"/>
     </g>
    </g>
    <g id="text_19">
     <!-- train -->
     <g transform="translate(346.30625 27.597656)scale(0.1 -0.1)">
      <use xlink:href="#DejaVuSans-116"/>
      <use x="39.208984" xlink:href="#DejaVuSans-114"/>
      <use x="80.322266" xlink:href="#DejaVuSans-97"/>
      <use x="141.601562" xlink:href="#DejaVuSans-105"/>
      <use x="169.384766" xlink:href="#DejaVuSans-110"/>
     </g>
    </g>
    <g id="line2d_21">
     <path d="M 318.30625 38.775781 
L 338.30625 38.775781 
" style="fill:none;stroke:#0000ff;stroke-linecap:square;stroke-width:3;"/>
    </g>
    <g id="line2d_22"/>
    <g id="text_20">
     <!-- val -->
     <defs>
      <path d="M 2.984375 54.6875 
L 12.5 54.6875 
L 29.59375 8.796875 
L 46.6875 54.6875 
L 56.203125 54.6875 
L 35.6875 0 
L 23.484375 0 
z
" id="DejaVuSans-118"/>
      <path d="M 9.421875 75.984375 
L 18.40625 75.984375 
L 18.40625 0 
L 9.421875 0 
z
" id="DejaVuSans-108"/>
     </defs>
     <g transform="translate(346.30625 42.275781)scale(0.1 -0.1)">
      <use xlink:href="#DejaVuSans-118"/>
      <use x="59.179688" xlink:href="#DejaVuSans-97"/>
      <use x="120.458984" xlink:href="#DejaVuSans-108"/>
     </g>
    </g>
   </g>
  </g>
 </g>
 <defs>
  <clipPath id="pfa68afd168">
   <rect height="217.44" width="334.8" x="43.78125" y="10.999219"/>
  </clipPath>
 </defs>
</svg>
