<?xml version="1.0" encoding="utf-8" standalone="no"?>
<!DOCTYPE svg PUBLIC "-//W3C//DTD SVG 1.1//EN"
  "http://www.w3.org/Graphics/SVG/1.1/DTD/svg11.dtd">
<!-- Created with matplotlib (https://matplotlib.org/) -->
<svg height="265.995469pt" version="1.1" viewBox="0 0 393.732813 265.995469" width="393.732813pt" xmlns="http://www.w3.org/2000/svg" xmlns:xlink="http://www.w3.org/1999/xlink">
 <defs>
  <style type="text/css">
*{stroke-linecap:butt;stroke-linejoin:round;}
  </style>
 </defs>
 <g id="figure_1">
  <g id="patch_1">
   <path d="M 0 265.995469 
L 393.732813 265.995469 
L 393.732813 0 
L 0 0 
z
" style="fill:none;"/>
  </g>
  <g id="axes_1">
   <g id="patch_2">
    <path d="M 43.78125 228.439219 
L 378.58125 228.439219 
L 378.58125 10.999219 
L 43.78125 10.999219 
z
" style="fill:#ffffff;"/>
   </g>
   <g id="matplotlib.axis_1">
    <g id="xtick_1">
     <g id="line2d_1">
      <defs>
       <path d="M 0 0 
L 0 3.5 
" id="m215136e11a" style="stroke:#000000;stroke-width:0.8;"/>
      </defs>
      <g>
       <use style="stroke:#000000;stroke-width:0.8;" x="43.78125" xlink:href="#m215136e11a" y="228.439219"/>
      </g>
     </g>
     <g id="text_1">
      <!-- 0.0 -->
      <defs>
       <path d="M 31.78125 66.40625 
Q 24.171875 66.40625 20.328125 58.90625 
Q 16.5 51.421875 16.5 36.375 
Q 16.5 21.390625 20.328125 13.890625 
Q 24.171875 6.390625 31.78125 6.390625 
Q 39.453125 6.390625 43.28125 13.890625 
Q 47.125 21.390625 47.125 36.375 
Q 47.125 51.421875 43.28125 58.90625 
Q 39.453125 66.40625 31.78125 66.40625 
z
M 31.78125 74.21875 
Q 44.046875 74.21875 50.515625 64.515625 
Q 56.984375 54.828125 56.984375 36.375 
Q 56.984375 17.96875 50.515625 8.265625 
Q 44.046875 -1.421875 31.78125 -1.421875 
Q 19.53125 -1.421875 13.0625 8.265625 
Q 6.59375 17.96875 6.59375 36.375 
Q 6.59375 54.828125 13.0625 64.515625 
Q 19.53125 74.21875 31.78125 74.21875 
z
" id="DejaVuSans-48"/>
       <path d="M 10.6875 12.40625 
L 21 12.40625 
L 21 0 
L 10.6875 0 
z
" id="DejaVuSans-46"/>
      </defs>
      <g transform="translate(35.829688 243.037656)scale(0.1 -0.1)">
       <use xlink:href="#DejaVuSans-48"/>
       <use x="63.623047" xlink:href="#DejaVuSans-46"/>
       <use x="95.410156" xlink:href="#DejaVuSans-48"/>
      </g>
     </g>
    </g>
    <g id="xtick_2">
     <g id="line2d_2">
      <g>
       <use style="stroke:#000000;stroke-width:0.8;" x="110.74125" xlink:href="#m215136e11a" y="228.439219"/>
      </g>
     </g>
     <g id="text_2">
      <!-- 0.2 -->
      <defs>
       <path d="M 19.1875 8.296875 
L 53.609375 8.296875 
L 53.609375 0 
L 7.328125 0 
L 7.328125 8.296875 
Q 12.9375 14.109375 22.625 23.890625 
Q 32.328125 33.6875 34.8125 36.53125 
Q 39.546875 41.84375 41.421875 45.53125 
Q 43.3125 49.21875 43.3125 52.78125 
Q 43.3125 58.59375 39.234375 62.25 
Q 35.15625 65.921875 28.609375 65.921875 
Q 23.96875 65.921875 18.8125 64.3125 
Q 13.671875 62.703125 7.8125 59.421875 
L 7.8125 69.390625 
Q 13.765625 71.78125 18.9375 73 
Q 24.125 74.21875 28.421875 74.21875 
Q 39.75 74.21875 46.484375 68.546875 
Q 53.21875 62.890625 53.21875 53.421875 
Q 53.21875 48.921875 51.53125 44.890625 
Q 49.859375 40.875 45.40625 35.40625 
Q 44.1875 33.984375 37.640625 27.21875 
Q 31.109375 20.453125 19.1875 8.296875 
z
" id="DejaVuSans-50"/>
      </defs>
      <g transform="translate(102.789688 243.037656)scale(0.1 -0.1)">
       <use xlink:href="#DejaVuSans-48"/>
       <use x="63.623047" xlink:href="#DejaVuSans-46"/>
       <use x="95.410156" xlink:href="#DejaVuSans-50"/>
      </g>
     </g>
    </g>
    <g id="xtick_3">
     <g id="line2d_3">
      <g>
       <use style="stroke:#000000;stroke-width:0.8;" x="177.70125" xlink:href="#m215136e11a" y="228.439219"/>
      </g>
     </g>
     <g id="text_3">
      <!-- 0.4 -->
      <defs>
       <path d="M 37.796875 64.3125 
L 12.890625 25.390625 
L 37.796875 25.390625 
z
M 35.203125 72.90625 
L 47.609375 72.90625 
L 47.609375 25.390625 
L 58.015625 25.390625 
L 58.015625 17.1875 
L 47.609375 17.1875 
L 47.609375 0 
L 37.796875 0 
L 37.796875 17.1875 
L 4.890625 17.1875 
L 4.890625 26.703125 
z
" id="DejaVuSans-52"/>
      </defs>
      <g transform="translate(169.749688 243.037656)scale(0.1 -0.1)">
       <use xlink:href="#DejaVuSans-48"/>
       <use x="63.623047" xlink:href="#DejaVuSans-46"/>
       <use x="95.410156" xlink:href="#DejaVuSans-52"/>
      </g>
     </g>
    </g>
    <g id="xtick_4">
     <g id="line2d_4">
      <g>
       <use style="stroke:#000000;stroke-width:0.8;" x="244.66125" xlink:href="#m215136e11a" y="228.439219"/>
      </g>
     </g>
     <g id="text_4">
      <!-- 0.6 -->
      <defs>
       <path d="M 33.015625 40.375 
Q 26.375 40.375 22.484375 35.828125 
Q 18.609375 31.296875 18.609375 23.390625 
Q 18.609375 15.53125 22.484375 10.953125 
Q 26.375 6.390625 33.015625 6.390625 
Q 39.65625 6.390625 43.53125 10.953125 
Q 47.40625 15.53125 47.40625 23.390625 
Q 47.40625 31.296875 43.53125 35.828125 
Q 39.65625 40.375 33.015625 40.375 
z
M 52.59375 71.296875 
L 52.59375 62.3125 
Q 48.875 64.0625 45.09375 64.984375 
Q 41.3125 65.921875 37.59375 65.921875 
Q 27.828125 65.921875 22.671875 59.328125 
Q 17.53125 52.734375 16.796875 39.40625 
Q 19.671875 43.65625 24.015625 45.921875 
Q 28.375 48.1875 33.59375 48.1875 
Q 44.578125 48.1875 50.953125 41.515625 
Q 57.328125 34.859375 57.328125 23.390625 
Q 57.328125 12.15625 50.6875 5.359375 
Q 44.046875 -1.421875 33.015625 -1.421875 
Q 20.359375 -1.421875 13.671875 8.265625 
Q 6.984375 17.96875 6.984375 36.375 
Q 6.984375 53.65625 15.1875 63.9375 
Q 23.390625 74.21875 37.203125 74.21875 
Q 40.921875 74.21875 44.703125 73.484375 
Q 48.484375 72.75 52.59375 71.296875 
z
" id="DejaVuSans-54"/>
      </defs>
      <g transform="translate(236.709688 243.037656)scale(0.1 -0.1)">
       <use xlink:href="#DejaVuSans-48"/>
       <use x="63.623047" xlink:href="#DejaVuSans-46"/>
       <use x="95.410156" xlink:href="#DejaVuSans-54"/>
      </g>
     </g>
    </g>
    <g id="xtick_5">
     <g id="line2d_5">
      <g>
       <use style="stroke:#000000;stroke-width:0.8;" x="311.62125" xlink:href="#m215136e11a" y="228.439219"/>
      </g>
     </g>
     <g id="text_5">
      <!-- 0.8 -->
      <defs>
       <path d="M 31.78125 34.625 
Q 24.75 34.625 20.71875 30.859375 
Q 16.703125 27.09375 16.703125 20.515625 
Q 16.703125 13.921875 20.71875 10.15625 
Q 24.75 6.390625 31.78125 6.390625 
Q 38.8125 6.390625 42.859375 10.171875 
Q 46.921875 13.96875 46.921875 20.515625 
Q 46.921875 27.09375 42.890625 30.859375 
Q 38.875 34.625 31.78125 34.625 
z
M 21.921875 38.8125 
Q 15.578125 40.375 12.03125 44.71875 
Q 8.5 49.078125 8.5 55.328125 
Q 8.5 64.0625 14.71875 69.140625 
Q 20.953125 74.21875 31.78125 74.21875 
Q 42.671875 74.21875 48.875 69.140625 
Q 55.078125 64.0625 55.078125 55.328125 
Q 55.078125 49.078125 51.53125 44.71875 
Q 48 40.375 41.703125 38.8125 
Q 48.828125 37.15625 52.796875 32.3125 
Q 56.78125 27.484375 56.78125 20.515625 
Q 56.78125 9.90625 50.3125 4.234375 
Q 43.84375 -1.421875 31.78125 -1.421875 
Q 19.734375 -1.421875 13.25 4.234375 
Q 6.78125 9.90625 6.78125 20.515625 
Q 6.78125 27.484375 10.78125 32.3125 
Q 14.796875 37.15625 21.921875 38.8125 
z
M 18.3125 54.390625 
Q 18.3125 48.734375 21.84375 45.5625 
Q 25.390625 42.390625 31.78125 42.390625 
Q 38.140625 42.390625 41.71875 45.5625 
Q 45.3125 48.734375 45.3125 54.390625 
Q 45.3125 60.0625 41.71875 63.234375 
Q 38.140625 66.40625 31.78125 66.40625 
Q 25.390625 66.40625 21.84375 63.234375 
Q 18.3125 60.0625 18.3125 54.390625 
z
" id="DejaVuSans-56"/>
      </defs>
      <g transform="translate(303.669688 243.037656)scale(0.1 -0.1)">
       <use xlink:href="#DejaVuSans-48"/>
       <use x="63.623047" xlink:href="#DejaVuSans-46"/>
       <use x="95.410156" xlink:href="#DejaVuSans-56"/>
      </g>
     </g>
    </g>
    <g id="xtick_6">
     <g id="line2d_6">
      <g>
       <use style="stroke:#000000;stroke-width:0.8;" x="378.58125" xlink:href="#m215136e11a" y="228.439219"/>
      </g>
     </g>
     <g id="text_6">
      <!-- 1.0 -->
      <defs>
       <path d="M 12.40625 8.296875 
L 28.515625 8.296875 
L 28.515625 63.921875 
L 10.984375 60.40625 
L 10.984375 69.390625 
L 28.421875 72.90625 
L 38.28125 72.90625 
L 38.28125 8.296875 
L 54.390625 8.296875 
L 54.390625 0 
L 12.40625 0 
z
" id="DejaVuSans-49"/>
      </defs>
      <g transform="translate(370.629687 243.037656)scale(0.1 -0.1)">
       <use xlink:href="#DejaVuSans-49"/>
       <use x="63.623047" xlink:href="#DejaVuSans-46"/>
       <use x="95.410156" xlink:href="#DejaVuSans-48"/>
      </g>
     </g>
    </g>
    <g id="text_7">
     <!-- recalls -->
     <defs>
      <path d="M 41.109375 46.296875 
Q 39.59375 47.171875 37.8125 47.578125 
Q 36.03125 48 33.890625 48 
Q 26.265625 48 22.1875 43.046875 
Q 18.109375 38.09375 18.109375 28.8125 
L 18.109375 0 
L 9.078125 0 
L 9.078125 54.6875 
L 18.109375 54.6875 
L 18.109375 46.1875 
Q 20.953125 51.171875 25.484375 53.578125 
Q 30.03125 56 36.53125 56 
Q 37.453125 56 38.578125 55.875 
Q 39.703125 55.765625 41.0625 55.515625 
z
" id="DejaVuSans-114"/>
      <path d="M 56.203125 29.59375 
L 56.203125 25.203125 
L 14.890625 25.203125 
Q 15.484375 15.921875 20.484375 11.0625 
Q 25.484375 6.203125 34.421875 6.203125 
Q 39.59375 6.203125 44.453125 7.46875 
Q 49.3125 8.734375 54.109375 11.28125 
L 54.109375 2.78125 
Q 49.265625 0.734375 44.1875 -0.34375 
Q 39.109375 -1.421875 33.890625 -1.421875 
Q 20.796875 -1.421875 13.15625 6.1875 
Q 5.515625 13.8125 5.515625 26.8125 
Q 5.515625 40.234375 12.765625 48.109375 
Q 20.015625 56 32.328125 56 
Q 43.359375 56 49.78125 48.890625 
Q 56.203125 41.796875 56.203125 29.59375 
z
M 47.21875 32.234375 
Q 47.125 39.59375 43.09375 43.984375 
Q 39.0625 48.390625 32.421875 48.390625 
Q 24.90625 48.390625 20.390625 44.140625 
Q 15.875 39.890625 15.1875 32.171875 
z
" id="DejaVuSans-101"/>
      <path d="M 48.78125 52.59375 
L 48.78125 44.1875 
Q 44.96875 46.296875 41.140625 47.34375 
Q 37.3125 48.390625 33.40625 48.390625 
Q 24.65625 48.390625 19.8125 42.84375 
Q 14.984375 37.3125 14.984375 27.296875 
Q 14.984375 17.28125 19.8125 11.734375 
Q 24.65625 6.203125 33.40625 6.203125 
Q 37.3125 6.203125 41.140625 7.25 
Q 44.96875 8.296875 48.78125 10.40625 
L 48.78125 2.09375 
Q 45.015625 0.34375 40.984375 -0.53125 
Q 36.96875 -1.421875 32.421875 -1.421875 
Q 20.0625 -1.421875 12.78125 6.34375 
Q 5.515625 14.109375 5.515625 27.296875 
Q 5.515625 40.671875 12.859375 48.328125 
Q 20.21875 56 33.015625 56 
Q 37.15625 56 41.109375 55.140625 
Q 45.0625 54.296875 48.78125 52.59375 
z
" id="DejaVuSans-99"/>
      <path d="M 34.28125 27.484375 
Q 23.390625 27.484375 19.1875 25 
Q 14.984375 22.515625 14.984375 16.5 
Q 14.984375 11.71875 18.140625 8.90625 
Q 21.296875 6.109375 26.703125 6.109375 
Q 34.1875 6.109375 38.703125 11.40625 
Q 43.21875 16.703125 43.21875 25.484375 
L 43.21875 27.484375 
z
M 52.203125 31.203125 
L 52.203125 0 
L 43.21875 0 
L 43.21875 8.296875 
Q 40.140625 3.328125 35.546875 0.953125 
Q 30.953125 -1.421875 24.3125 -1.421875 
Q 15.921875 -1.421875 10.953125 3.296875 
Q 6 8.015625 6 15.921875 
Q 6 25.140625 12.171875 29.828125 
Q 18.359375 34.515625 30.609375 34.515625 
L 43.21875 34.515625 
L 43.21875 35.40625 
Q 43.21875 41.609375 39.140625 45 
Q 35.0625 48.390625 27.6875 48.390625 
Q 23 48.390625 18.546875 47.265625 
Q 14.109375 46.140625 10.015625 43.890625 
L 10.015625 52.203125 
Q 14.9375 54.109375 19.578125 55.046875 
Q 24.21875 56 28.609375 56 
Q 40.484375 56 46.34375 49.84375 
Q 52.203125 43.703125 52.203125 31.203125 
z
" id="DejaVuSans-97"/>
      <path d="M 9.421875 75.984375 
L 18.40625 75.984375 
L 18.40625 0 
L 9.421875 0 
z
" id="DejaVuSans-108"/>
      <path d="M 44.28125 53.078125 
L 44.28125 44.578125 
Q 40.484375 46.53125 36.375 47.5 
Q 32.28125 48.484375 27.875 48.484375 
Q 21.1875 48.484375 17.84375 46.4375 
Q 14.5 44.390625 14.5 40.28125 
Q 14.5 37.15625 16.890625 35.375 
Q 19.28125 33.59375 26.515625 31.984375 
L 29.59375 31.296875 
Q 39.15625 29.25 43.1875 25.515625 
Q 47.21875 21.78125 47.21875 15.09375 
Q 47.21875 7.46875 41.1875 3.015625 
Q 35.15625 -1.421875 24.609375 -1.421875 
Q 20.21875 -1.421875 15.453125 -0.5625 
Q 10.6875 0.296875 5.421875 2 
L 5.421875 11.28125 
Q 10.40625 8.6875 15.234375 7.390625 
Q 20.0625 6.109375 24.8125 6.109375 
Q 31.15625 6.109375 34.5625 8.28125 
Q 37.984375 10.453125 37.984375 14.40625 
Q 37.984375 18.0625 35.515625 20.015625 
Q 33.0625 21.96875 24.703125 23.78125 
L 21.578125 24.515625 
Q 13.234375 26.265625 9.515625 29.90625 
Q 5.8125 33.546875 5.8125 39.890625 
Q 5.8125 47.609375 11.28125 51.796875 
Q 16.75 56 26.8125 56 
Q 31.78125 56 36.171875 55.265625 
Q 40.578125 54.546875 44.28125 53.078125 
z
" id="DejaVuSans-115"/>
     </defs>
     <g transform="translate(194.965625 256.715781)scale(0.1 -0.1)">
      <use xlink:href="#DejaVuSans-114"/>
      <use x="38.863281" xlink:href="#DejaVuSans-101"/>
      <use x="100.386719" xlink:href="#DejaVuSans-99"/>
      <use x="155.367188" xlink:href="#DejaVuSans-97"/>
      <use x="216.646484" xlink:href="#DejaVuSans-108"/>
      <use x="244.429688" xlink:href="#DejaVuSans-108"/>
      <use x="272.212891" xlink:href="#DejaVuSans-115"/>
     </g>
    </g>
   </g>
   <g id="matplotlib.axis_2">
    <g id="ytick_1">
     <g id="line2d_7">
      <defs>
       <path d="M 0 0 
L -3.5 0 
" id="m6e8d83b8e5" style="stroke:#000000;stroke-width:0.8;"/>
      </defs>
      <g>
       <use style="stroke:#000000;stroke-width:0.8;" x="43.78125" xlink:href="#m6e8d83b8e5" y="228.439219"/>
      </g>
     </g>
     <g id="text_8">
      <!-- 0.0 -->
      <g transform="translate(20.878125 232.238437)scale(0.1 -0.1)">
       <use xlink:href="#DejaVuSans-48"/>
       <use x="63.623047" xlink:href="#DejaVuSans-46"/>
       <use x="95.410156" xlink:href="#DejaVuSans-48"/>
      </g>
     </g>
    </g>
    <g id="ytick_2">
     <g id="line2d_8">
      <g>
       <use style="stroke:#000000;stroke-width:0.8;" x="43.78125" xlink:href="#m6e8d83b8e5" y="184.951219"/>
      </g>
     </g>
     <g id="text_9">
      <!-- 0.2 -->
      <g transform="translate(20.878125 188.750437)scale(0.1 -0.1)">
       <use xlink:href="#DejaVuSans-48"/>
       <use x="63.623047" xlink:href="#DejaVuSans-46"/>
       <use x="95.410156" xlink:href="#DejaVuSans-50"/>
      </g>
     </g>
    </g>
    <g id="ytick_3">
     <g id="line2d_9">
      <g>
       <use style="stroke:#000000;stroke-width:0.8;" x="43.78125" xlink:href="#m6e8d83b8e5" y="141.463219"/>
      </g>
     </g>
     <g id="text_10">
      <!-- 0.4 -->
      <g transform="translate(20.878125 145.262437)scale(0.1 -0.1)">
       <use xlink:href="#DejaVuSans-48"/>
       <use x="63.623047" xlink:href="#DejaVuSans-46"/>
       <use x="95.410156" xlink:href="#DejaVuSans-52"/>
      </g>
     </g>
    </g>
    <g id="ytick_4">
     <g id="line2d_10">
      <g>
       <use style="stroke:#000000;stroke-width:0.8;" x="43.78125" xlink:href="#m6e8d83b8e5" y="97.975219"/>
      </g>
     </g>
     <g id="text_11">
      <!-- 0.6 -->
      <g transform="translate(20.878125 101.774437)scale(0.1 -0.1)">
       <use xlink:href="#DejaVuSans-48"/>
       <use x="63.623047" xlink:href="#DejaVuSans-46"/>
       <use x="95.410156" xlink:href="#DejaVuSans-54"/>
      </g>
     </g>
    </g>
    <g id="ytick_5">
     <g id="line2d_11">
      <g>
       <use style="stroke:#000000;stroke-width:0.8;" x="43.78125" xlink:href="#m6e8d83b8e5" y="54.487219"/>
      </g>
     </g>
     <g id="text_12">
      <!-- 0.8 -->
      <g transform="translate(20.878125 58.286437)scale(0.1 -0.1)">
       <use xlink:href="#DejaVuSans-48"/>
       <use x="63.623047" xlink:href="#DejaVuSans-46"/>
       <use x="95.410156" xlink:href="#DejaVuSans-56"/>
      </g>
     </g>
    </g>
    <g id="ytick_6">
     <g id="line2d_12">
      <g>
       <use style="stroke:#000000;stroke-width:0.8;" x="43.78125" xlink:href="#m6e8d83b8e5" y="10.999219"/>
      </g>
     </g>
     <g id="text_13">
      <!-- 1.0 -->
      <g transform="translate(20.878125 14.798437)scale(0.1 -0.1)">
       <use xlink:href="#DejaVuSans-49"/>
       <use x="63.623047" xlink:href="#DejaVuSans-46"/>
       <use x="95.410156" xlink:href="#DejaVuSans-48"/>
      </g>
     </g>
    </g>
    <g id="text_14">
     <!-- precision -->
     <defs>
      <path d="M 18.109375 8.203125 
L 18.109375 -20.796875 
L 9.078125 -20.796875 
L 9.078125 54.6875 
L 18.109375 54.6875 
L 18.109375 46.390625 
Q 20.953125 51.265625 25.265625 53.625 
Q 29.59375 56 35.59375 56 
Q 45.5625 56 51.78125 48.09375 
Q 58.015625 40.1875 58.015625 27.296875 
Q 58.015625 14.40625 51.78125 6.484375 
Q 45.5625 -1.421875 35.59375 -1.421875 
Q 29.59375 -1.421875 25.265625 0.953125 
Q 20.953125 3.328125 18.109375 8.203125 
z
M 48.6875 27.296875 
Q 48.6875 37.203125 44.609375 42.84375 
Q 40.53125 48.484375 33.40625 48.484375 
Q 26.265625 48.484375 22.1875 42.84375 
Q 18.109375 37.203125 18.109375 27.296875 
Q 18.109375 17.390625 22.1875 11.75 
Q 26.265625 6.109375 33.40625 6.109375 
Q 40.53125 6.109375 44.609375 11.75 
Q 48.6875 17.390625 48.6875 27.296875 
z
" id="DejaVuSans-112"/>
      <path d="M 9.421875 54.6875 
L 18.40625 54.6875 
L 18.40625 0 
L 9.421875 0 
z
M 9.421875 75.984375 
L 18.40625 75.984375 
L 18.40625 64.59375 
L 9.421875 64.59375 
z
" id="DejaVuSans-105"/>
      <path d="M 30.609375 48.390625 
Q 23.390625 48.390625 19.1875 42.75 
Q 14.984375 37.109375 14.984375 27.296875 
Q 14.984375 17.484375 19.15625 11.84375 
Q 23.34375 6.203125 30.609375 6.203125 
Q 37.796875 6.203125 41.984375 11.859375 
Q 46.1875 17.53125 46.1875 27.296875 
Q 46.1875 37.015625 41.984375 42.703125 
Q 37.796875 48.390625 30.609375 48.390625 
z
M 30.609375 56 
Q 42.328125 56 49.015625 48.375 
Q 55.71875 40.765625 55.71875 27.296875 
Q 55.71875 13.875 49.015625 6.21875 
Q 42.328125 -1.421875 30.609375 -1.421875 
Q 18.84375 -1.421875 12.171875 6.21875 
Q 5.515625 13.875 5.515625 27.296875 
Q 5.515625 40.765625 12.171875 48.375 
Q 18.84375 56 30.609375 56 
z
" id="DejaVuSans-111"/>
      <path d="M 54.890625 33.015625 
L 54.890625 0 
L 45.90625 0 
L 45.90625 32.71875 
Q 45.90625 40.484375 42.875 44.328125 
Q 39.84375 48.1875 33.796875 48.1875 
Q 26.515625 48.1875 22.3125 43.546875 
Q 18.109375 38.921875 18.109375 30.90625 
L 18.109375 0 
L 9.078125 0 
L 9.078125 54.6875 
L 18.109375 54.6875 
L 18.109375 46.1875 
Q 21.34375 51.125 25.703125 53.5625 
Q 30.078125 56 35.796875 56 
Q 45.21875 56 50.046875 50.171875 
Q 54.890625 44.34375 54.890625 33.015625 
z
" id="DejaVuSans-110"/>
     </defs>
     <g transform="translate(14.798438 142.273125)rotate(-90)scale(0.1 -0.1)">
      <use xlink:href="#DejaVuSans-112"/>
      <use x="63.476562" xlink:href="#DejaVuSans-114"/>
      <use x="102.339844" xlink:href="#DejaVuSans-101"/>
      <use x="163.863281" xlink:href="#DejaVuSans-99"/>
      <use x="218.84375" xlink:href="#DejaVuSans-105"/>
      <use x="246.626953" xlink:href="#DejaVuSans-115"/>
      <use x="298.726562" xlink:href="#DejaVuSans-105"/>
      <use x="326.509766" xlink:href="#DejaVuSans-111"/>
      <use x="387.691406" xlink:href="#DejaVuSans-110"/>
     </g>
    </g>
   </g>
   <g id="line2d_13">
    <path clip-path="url(#p69e317d92a)" d="M 378.58125 208.793515 
L 378.51949 194.80264 
L 378.51949 181.56634 
L 378.45773 168.300018 
L 378.148931 155.496647 
L 377.963652 143.186857 
L 377.778372 131.536415 
L 377.593093 120.636687 
L 377.469573 110.187752 
L 377.099014 99.932464 
L 376.666695 91.874129 
L 376.357896 84.006704 
L 375.925578 76.154765 
L 375.678538 69.650992 
L 375.06094 64.326631 
L 374.505102 60.028574 
L 374.258062 55.809925 
L 374.072783 51.307593 
L 373.084626 47.82073 
L 372.528787 43.987726 
L 372.096469 41.034705 
L 371.355351 38.564052 
L 370.552473 36.084255 
L 369.502556 33.607659 
L 369.070237 31.659755 
L 368.514399 29.500726 
L 367.526242 28.259999 
L 367.032163 26.61603 
L 365.982246 25.725766 
L 365.364648 24.363862 
L 364.005932 23.638783 
L 362.956015 22.627878 
L 361.782578 21.451132 
L 360.917941 20.630844 
L 359.682744 19.691921 
L 358.879866 19.043432 
L 358.015229 18.149403 
L 356.841792 17.652575 
L 355.853635 17.186706 
L 354.371399 16.76563 
L 352.827404 16.33985 
L 351.530448 15.945883 
L 350.109972 15.800733 
L 348.813015 15.483407 
L 347.763098 15.031506 
L 346.404382 14.706822 
L 344.613347 14.382986 
L 342.884072 14.097285 
L 340.845998 13.986399 
L 339.054963 13.694199 
L 336.89337 13.4902 
L 335.225854 13.459256 
L 333.434819 13.247491 
L 331.705544 12.940647 
L 329.482191 12.909448 
L 327.258837 12.691359 
L 325.097243 12.610236 
L 322.318051 12.531161 
L 320.156458 12.44721 
L 316.821427 12.319111 
L 314.103995 12.234112 
L 310.892484 12.000093 
L 308.545611 11.958661 
L 306.075218 11.916902 
L 303.357786 11.721097 
L 300.084515 11.730285 
L 297.120044 11.686149 
L 292.796856 11.53717 
L 289.461826 11.490054 
L 285.879756 11.331526 
L 282.730005 11.3359 
L 279.518494 11.283677 
L 274.948267 11.289293 
L 269.575163 11.296187 
L 265.499014 11.301639 
L 261.855185 11.306685 
L 257.099678 11.187914 
L 251.788334 11.192728 
L 246.724028 11.131482 
L 241.721482 11.134822 
L 235.73078 11.139052 
L 229.801837 11.071386 
L 224.181693 11.073634 
L 217.017553 11.07671 
L 211.27389 10.999219 
L 205.097907 10.999219 
L 199.045445 10.999219 
L 191.448987 10.999219 
L 184.593646 10.999219 
L 175.329673 10.999219 
L 166.250979 10.999219 
L 158.222202 10.999219 
L 147.846552 10.999219 
L 137.347382 10.999219 
L 126.909972 10.999219 
L 116.225522 10.999219 
L 104.491156 10.999219 
L 89.607039 10.999219 
L 76.019878 10.999219 
L 63.173834 10.999219 
L 50.574831 10.999219 
L 43.78125 10.999219 
" style="fill:none;stroke:#ff0000;stroke-linecap:square;stroke-width:1.5;"/>
   </g>
   <g id="line2d_14">
    <path clip-path="url(#p69e317d92a)" d="M 378.58125 208.784342 
L 378.45773 208.763379 
L 378.45773 208.679902 
L 378.395971 208.60906 
L 378.272451 208.507679 
L 378.272451 208.504642 
L 378.210691 208.364583 
L 377.963652 208.287333 
L 377.963652 208.266948 
L 377.963652 208.175228 
L 377.901892 208.177228 
L 377.778372 208.101345 
L 377.778372 208.072813 
L 377.716612 207.899061 
L 377.654853 207.902501 
L 377.654853 207.791394 
L 377.593093 207.640677 
L 377.531333 207.644157 
L 377.531333 207.533163 
L 377.469573 207.503508 
L 377.407813 207.50701 
L 377.407813 207.39601 
L 377.346054 206.9416 
L 377.222534 206.906597 
L 377.222534 206.837655 
L 377.160774 206.558617 
L 377.037254 206.462253 
L 377.037254 206.454841 
L 376.975495 206.281219 
L 376.913735 206.284908 
L 376.913735 206.173878 
L 376.851975 206.093164 
L 376.790215 206.096882 
L 376.790215 205.985632 
L 376.728455 205.354953 
L 376.666695 205.35878 
L 376.666695 205.247799 
L 376.604936 205.106665 
L 376.419656 205.037176 
L 376.419656 205.007209 
L 376.357896 204.291675 
L 376.234377 204.275727 
L 376.234377 204.188617 
L 376.172617 204.104893 
L 376.110857 204.108908 
L 376.110857 203.997602 
L 376.049097 203.684638 
L 375.987337 203.688716 
L 375.987337 203.577708 
L 375.925578 203.36971 
L 375.802058 203.308996 
L 375.802058 203.266786 
L 375.740298 203.139626 
L 375.678538 203.143785 
L 375.678538 203.032688 
L 375.616779 202.902495 
L 375.555019 202.90669 
L 375.555019 202.795705 
L 375.493259 202.297162 
L 375.431499 202.301444 
L 375.431499 202.190392 
L 375.369739 201.795176 
L 375.24622 201.749671 
L 375.24622 201.692783 
L 375.18446 201.692863 
L 375.18446 201.438477 
L 375.06094 201.339422 
L 375.06094 201.336273 
L 374.99918 201.175338 
L 374.93742 201.179784 
L 374.93742 201.068435 
L 374.875661 200.646175 
L 374.813901 200.650697 
L 374.813901 200.539607 
L 374.752141 200.10805 
L 374.566862 200.016799 
L 374.566862 200.010555 
L 374.505102 199.955371 
L 374.443342 199.959994 
L 374.443342 199.848788 
L 374.381582 199.333034 
L 374.258062 199.2907 
L 374.258062 199.231431 
L 374.196303 199.033895 
L 374.134543 199.038648 
L 374.134543 198.927495 
L 374.072783 198.863972 
L 373.949263 198.872025 
L 373.949263 198.762572 
L 373.887503 198.460453 
L 373.825744 198.465288 
L 373.825744 198.354314 
L 373.763984 197.926233 
L 373.640464 197.828316 
L 373.640464 197.825088 
L 373.578704 197.257909 
L 373.516945 197.262911 
L 373.516945 197.152002 
L 373.455185 197.070787 
L 373.393425 197.075816 
L 373.393425 196.964381 
L 373.331665 196.673036 
L 373.208145 196.596016 
L 373.208145 196.572394 
L 373.146386 196.180407 
L 373.084626 196.185558 
L 373.084626 196.074814 
L 373.022866 195.750557 
L 372.961106 195.755767 
L 372.961106 195.644788 
L 372.899346 195.277472 
L 372.837586 195.282746 
L 372.837586 195.171348 
L 372.775827 194.791099 
L 372.714067 194.796438 
L 372.714067 194.685636 
L 372.652307 193.954229 
L 372.590547 193.959679 
L 372.590547 193.848411 
L 372.528787 193.251394 
L 372.405268 193.221788 
L 372.405268 193.151972 
L 372.343508 192.733904 
L 372.219988 192.66451 
L 372.219988 192.634601 
L 372.158228 192.219655 
L 371.911189 192.168498 
L 371.911189 192.13088 
L 371.849429 192.07371 
L 371.66415 192.001323 
L 371.66415 191.979458 
L 371.60239 191.427561 
L 371.47887 191.403502 
L 371.47887 191.328452 
L 371.417111 190.690701 
L 371.293591 190.660426 
L 371.293591 190.590984 
L 371.231831 190.503487 
L 371.170071 190.509394 
L 371.170071 190.397983 
L 371.108311 189.525425 
L 370.923032 189.468497 
L 370.923032 189.432863 
L 370.861272 188.901959 
L 370.799512 188.908067 
L 370.799512 188.796455 
L 370.737752 188.092671 
L 370.614233 188.058377 
L 370.614233 187.994507 
L 370.552473 187.648018 
L 370.428953 187.605525 
L 370.428953 187.548902 
L 370.367194 187.086127 
L 370.305434 187.09246 
L 370.305434 186.982122 
L 370.243674 186.327845 
L 370.181914 186.334269 
L 370.181914 186.2229 
L 370.120154 185.408884 
L 370.058394 185.415417 
L 370.058394 185.303943 
L 369.996635 185.044876 
L 369.934875 185.051452 
L 369.934875 184.941335 
L 369.873115 184.827321 
L 369.749595 184.830589 
L 369.749595 184.729274 
L 369.687836 184.109483 
L 369.626076 184.116171 
L 369.626076 184.004582 
L 369.564316 182.6674 
L 369.502556 182.674251 
L 369.502556 182.562571 
L 369.440796 182.180802 
L 369.255517 182.151095 
L 369.255517 182.091184 
L 369.255517 182.02172 
L 369.193757 182.023007 
L 369.070237 181.959654 
L 369.070237 181.925675 
L 369.008477 181.333779 
L 368.946718 181.340786 
L 368.946718 181.230081 
L 368.884958 180.705612 
L 368.699678 180.653102 
L 368.699678 180.615145 
L 368.637919 180.457745 
L 368.514399 180.423616 
L 368.514399 180.361022 
L 368.452639 179.985059 
L 368.329119 179.941821 
L 368.329119 179.888244 
L 368.26736 179.893357 
L 368.26736 179.742298 
L 368.2056 179.749491 
L 368.2056 179.639239 
L 368.14384 179.038566 
L 368.08208 179.045836 
L 368.08208 178.934474 
L 368.02032 178.465047 
L 367.95856 178.472379 
L 367.95856 178.360567 
L 367.896801 178.022805 
L 367.773281 178.028655 
L 367.773281 177.925967 
L 367.711521 177.769555 
L 367.649761 177.776964 
L 367.649761 177.666427 
L 367.588002 177.286622 
L 367.464482 177.202682 
L 367.464482 177.191162 
L 367.402722 176.943892 
L 367.279202 176.893658 
L 367.279202 176.849296 
L 367.217443 176.62916 
L 367.155683 176.636696 
L 367.155683 176.525679 
L 367.093923 176.228486 
L 366.970403 176.1501 
L 366.970403 176.133274 
L 366.908643 176.030038 
L 366.846884 176.037641 
L 366.846884 175.926354 
L 366.785124 175.570265 
L 366.723364 175.577916 
L 366.723364 175.467091 
L 366.661604 175.051893 
L 366.599844 175.059598 
L 366.599844 174.949061 
L 366.538085 174.317413 
L 366.476325 174.325192 
L 366.476325 174.214133 
L 366.414565 174.141582 
L 366.229285 174.068805 
L 366.229285 174.053177 
L 366.167526 173.743922 
L 366.105766 173.751765 
L 366.105766 173.640853 
L 366.044006 173.444215 
L 365.982246 173.452089 
L 365.982246 173.34259 
L 365.920486 172.853694 
L 365.796967 172.812303 
L 365.796967 172.757663 
L 365.735207 172.249524 
L 365.611687 172.226497 
L 365.611687 172.153896 
L 365.549927 171.171885 
L 365.488168 171.179982 
L 365.488168 171.069773 
L 365.488168 171.008686 
L 365.426408 171.013888 
L 365.364648 171.022003 
L 365.364648 170.911142 
L 365.302888 170.669755 
L 365.179368 170.683106 
L 365.179368 170.576785 
L 365.117609 170.415815 
L 364.994089 170.330831 
L 364.994089 170.321873 
L 364.932329 170.213357 
L 364.870569 170.221557 
L 364.870569 170.110414 
L 364.808809 170.115615 
L 364.808809 169.746114 
L 364.74705 169.754358 
L 364.74705 169.644438 
L 364.68529 169.050119 
L 364.56177 169.013628 
L 364.56177 168.957291 
L 364.50001 168.139853 
L 364.376491 168.150198 
L 364.376491 168.046975 
L 364.376491 167.780844 
L 364.314731 167.78601 
L 364.252971 167.794437 
L 364.252971 167.683408 
L 364.191211 167.283482 
L 364.129451 167.291955 
L 364.129451 167.18236 
L 364.129451 166.881459 
L 364.067692 166.889967 
L 363.882412 166.865077 
L 363.882412 166.804462 
L 363.820652 166.691406 
L 363.635373 166.679772 
L 363.635373 166.605166 
L 363.573613 166.470793 
L 363.511853 166.479351 
L 363.511853 166.370026 
L 363.450093 166.244842 
L 363.388334 166.253422 
L 363.388334 166.143255 
L 363.326574 166.144946 
L 363.326574 166.093164 
L 363.264814 166.101759 
L 363.264814 165.991011 
L 363.203054 165.951044 
L 363.017775 165.889975 
L 363.017775 165.865599 
L 362.956015 165.727576 
L 362.770735 165.648343 
L 362.770735 165.641321 
L 362.708976 165.204429 
L 362.585456 165.175478 
L 362.585456 165.11123 
L 362.523696 165.080601 
L 362.461936 165.089301 
L 362.461936 164.978223 
L 362.400176 164.702119 
L 362.276657 164.676107 
L 362.276657 164.610776 
L 362.214897 163.903147 
L 362.153137 163.911949 
L 362.153137 163.800317 
L 362.091377 163.734498 
L 362.029617 163.743317 
L 362.029617 163.634805 
L 362.029617 163.314643 
L 361.967858 163.319712 
L 361.782578 163.270502 
L 361.782578 163.236344 
L 361.720818 162.955358 
L 361.535539 162.878459 
L 361.535539 162.870774 
L 361.473779 162.594081 
L 361.350259 162.522671 
L 361.350259 162.503235 
L 361.2885 162.081683 
L 361.22674 162.090652 
L 361.22674 161.980183 
L 361.16498 161.225735 
L 361.04146 161.239767 
L 361.04146 161.13449 
L 360.9797 160.661599 
L 360.917941 160.670683 
L 360.917941 160.559445 
L 360.856181 160.311734 
L 360.794421 160.320847 
L 360.794421 160.212584 
L 360.732661 160.213364 
L 360.732661 160.146558 
L 360.670901 160.155686 
L 360.670901 160.046854 
L 360.609142 159.942615 
L 360.485622 159.935666 
L 360.485622 159.851391 
L 360.423862 159.593737 
L 360.362102 159.602914 
L 360.362102 159.492204 
L 360.300342 159.343237 
L 360.115063 159.25929 
L 360.053303 159.203987 
L 359.991543 159.213202 
L 359.991543 159.101102 
L 359.929783 158.784941 
L 359.806264 158.764193 
L 359.806264 158.694313 
L 359.744504 158.112816 
L 359.682744 158.122117 
L 359.682744 158.010799 
L 359.620984 157.566806 
L 359.435705 157.495341 
L 359.435705 157.486283 
L 359.373945 157.359485 
L 359.312185 157.368848 
L 359.312185 157.259558 
L 359.250425 157.259808 
L 359.250425 156.874559 
L 359.126906 156.819515 
L 359.126906 156.782536 
L 359.065146 155.831212 
L 358.941626 155.750302 
L 358.941626 155.740777 
L 358.879866 155.458567 
L 358.818107 155.468071 
L 358.818107 155.357487 
L 358.756347 155.207759 
L 358.694587 155.217282 
L 358.694587 155.105892 
L 358.632827 154.91603 
L 358.571067 154.925576 
L 358.571067 154.813252 
L 358.509308 154.719956 
L 358.324028 154.714306 
L 358.324028 154.64061 
L 358.262268 153.572461 
L 358.138749 153.561362 
L 358.138749 153.480221 
L 358.076989 153.378022 
L 358.015229 153.387681 
L 358.015229 153.275504 
L 357.953469 152.874437 
L 357.891709 152.88413 
L 357.891709 152.775573 
L 357.82995 152.452524 
L 357.64467 152.37189 
L 357.58291 151.981597 
L 357.459391 151.953468 
L 357.459391 151.889849 
L 357.397631 151.376103 
L 357.150591 151.307608 
L 357.088832 150.905437 
L 356.965312 150.881489 
L 356.965312 150.815971 
L 356.903552 150.507591 
L 356.841792 150.517454 
L 356.841792 150.407122 
L 356.780033 150.278646 
L 356.718273 150.288525 
L 356.718273 150.1775 
L 356.656513 149.650073 
L 356.594753 149.659991 
L 356.594753 149.552778 
L 356.532993 149.466533 
L 356.471233 149.476464 
L 356.471233 149.368708 
L 356.409474 148.990592 
L 356.162434 148.950095 
L 356.162434 148.921359 
L 356.100674 148.862284 
L 356.038915 148.872262 
L 356.038915 148.762698 
L 355.977155 148.313894 
L 355.915395 148.323905 
L 355.915395 148.21278 
L 355.853635 148.105496 
L 355.791875 148.115522 
L 355.791875 148.003773 
L 355.730116 147.700452 
L 355.606596 147.637382 
L 355.606596 147.613587 
L 355.544836 147.510433 
L 355.483076 147.520499 
L 355.483076 147.412958 
L 355.421316 147.146914 
L 355.174277 147.084775 
L 355.174277 147.078738 
L 355.112517 146.797997 
L 355.050757 146.808113 
L 355.050757 146.698516 
L 354.988998 146.586525 
L 354.927238 146.596655 
L 354.927238 146.486446 
L 354.865478 146.21977 
L 354.741958 146.128836 
L 354.680199 145.484087 
L 354.618439 145.49428 
L 354.618439 145.387271 
L 354.556679 145.195299 
L 354.494919 145.20551 
L 354.494919 145.09771 
L 354.433159 144.93615 
L 354.30964 144.956604 
L 354.30964 144.848094 
L 354.24788 144.634045 
L 354.00084 144.636478 
L 354.00084 144.565688 
L 354.00084 144.183945 
L 353.939081 144.18772 
L 353.877321 144.197997 
L 353.877321 144.08735 
L 353.877321 144.03518 
L 353.815561 144.045466 
L 353.692041 143.968063 
L 353.692041 143.954982 
L 353.630282 143.853929 
L 353.445002 143.838911 
L 353.445002 143.773213 
L 353.383242 143.53956 
L 353.321482 143.549884 
L 353.321482 143.437325 
L 353.259723 143.20165 
L 353.197963 143.211993 
L 353.197963 143.105175 
L 353.136203 142.516454 
L 353.012683 142.469377 
L 353.012683 142.428626 
L 352.950923 141.809323 
L 352.765644 141.764665 
L 352.765644 141.730123 
L 352.703884 141.449306 
L 352.580365 141.386612 
L 352.580365 141.358722 
L 352.518605 141.180444 
L 352.395085 141.103178 
L 352.395085 141.089136 
L 352.333325 140.980058 
L 352.148046 140.926892 
L 352.148046 140.905725 
L 352.086286 140.760666 
L 351.901007 140.73543 
L 351.901007 140.685768 
L 351.839247 140.497054 
L 351.653967 140.421484 
L 351.592207 140.267308 
L 351.530448 140.277826 
L 351.530448 140.170093 
L 351.468688 140.000483 
L 351.406928 140.011015 
L 351.406928 139.902585 
L 351.345168 139.724554 
L 351.283408 139.735101 
L 351.283408 139.625949 
L 351.221648 139.241335 
L 351.036369 139.199489 
L 351.036369 139.162665 
L 350.974609 138.870145 
L 350.78933 138.812831 
L 350.78933 138.79053 
L 350.72757 138.637258 
L 350.60405 138.621149 
L 350.60405 138.546407 
L 350.54229 138.549541 
L 350.54229 138.489649 
L 350.480531 138.500268 
L 350.480531 138.38776 
L 350.418771 138.157432 
L 350.357011 138.168067 
L 350.357011 138.062248 
L 350.295251 137.608925 
L 350.171731 137.630242 
L 350.171731 137.523092 
L 350.109972 137.187641 
L 349.986452 137.108524 
L 349.986452 137.100786 
L 349.924692 136.933142 
L 349.862932 136.943834 
L 349.862932 136.834948 
L 349.801173 136.666203 
L 349.677653 136.632866 
L 349.677653 136.578052 
L 349.615893 136.329477 
L 349.554133 136.340199 
L 349.554133 136.229759 
L 349.554133 136.016018 
L 349.492373 136.026752 
L 349.307094 135.987506 
L 349.307094 135.947759 
L 349.307094 135.860195 
L 349.245334 135.870942 
L 349.183574 135.881691 
L 349.183574 135.770013 
L 349.121814 135.29102 
L 349.060055 135.301791 
L 349.060055 135.196751 
L 348.998295 134.81764 
L 348.936535 134.828428 
L 348.936535 134.722275 
L 348.874775 134.651251 
L 348.751256 134.599093 
L 348.751256 134.566276 
L 348.689496 134.12352 
L 348.627736 134.134339 
L 348.627736 134.026495 
L 348.627736 133.575878 
L 348.565976 133.578328 
L 348.442456 133.524475 
L 348.442456 133.490868 
L 348.380697 133.240454 
L 348.257177 133.245257 
L 348.257177 133.152179 
L 348.257177 133.143708 
L 348.195417 133.154567 
L 348.195417 133.146095 
L 348.133657 133.156957 
L 348.133657 133.046686 
L 348.133657 133.004206 
L 348.071897 133.015073 
L 347.948378 133.019812 
L 347.948378 132.926197 
L 347.948378 132.840933 
L 347.886618 132.85181 
L 347.763098 132.788161 
L 347.763098 132.762509 
L 347.701339 131.945194 
L 347.639579 131.956102 
L 347.639579 131.85157 
L 347.577819 131.371666 
L 347.516059 131.382591 
L 347.516059 131.276769 
L 347.454299 131.217024 
L 347.26902 131.187907 
L 347.26902 131.14363 
L 347.20726 131.145711 
L 347.20726 130.985951 
L 347.02198 130.938726 
L 347.02198 130.912006 
L 346.960221 130.842715 
L 346.774941 130.786286 
L 346.774941 130.768404 
L 346.713181 129.922389 
L 346.651422 129.933375 
L 346.651422 129.824056 
L 346.589662 128.970258 
L 346.219103 128.943453 
L 346.219103 128.924856 
L 346.157343 128.861421 
L 346.033823 128.836883 
L 346.033823 128.771582 
L 345.972064 128.370189 
L 345.910304 128.38123 
L 345.910304 128.277592 
L 345.848544 128.004896 
L 345.663264 127.952623 
L 345.663264 127.933619 
L 345.601505 127.754239 
L 345.539745 127.765302 
L 345.539745 127.660255 
L 345.539745 127.353411 
L 345.477985 127.364483 
L 345.416225 127.375557 
L 345.416225 127.26965 
L 345.416225 127.192488 
L 345.354465 127.203567 
L 345.230946 127.167784 
L 345.230946 127.119444 
L 345.169186 126.888142 
L 345.107426 126.899234 
L 345.107426 126.792217 
L 345.107426 126.772735 
L 345.045666 126.774087 
L 344.983906 126.785185 
L 344.983906 126.677883 
L 344.922147 126.679219 
L 344.922147 126.591242 
L 344.860387 126.602347 
L 344.860387 126.494614 
L 344.798627 126.161419 
L 344.675107 126.144155 
L 344.675107 126.074963 
L 344.613347 126.016799 
L 344.304548 126.003064 
L 344.304548 125.96338 
L 344.242788 125.655931 
L 344.057509 125.679374 
L 344.057509 125.579394 
L 344.057509 125.519312 
L 343.995749 125.530462 
L 343.933989 125.541614 
L 343.933989 125.431284 
L 343.87223 125.372107 
L 343.81047 125.383266 
L 343.81047 125.27255 
L 343.74871 124.950137 
L 343.62519 124.962332 
L 343.62519 124.860804 
L 343.62519 124.820137 
L 343.56343 124.821139 
L 343.316391 124.804785 
L 343.316391 124.753839 
L 343.254631 124.437783 
L 343.131112 124.398579 
L 343.131112 124.357481 
L 343.069352 123.769085 
L 343.007592 123.780288 
L 343.007592 123.676212 
L 342.945832 123.572695 
L 342.884072 123.583905 
L 342.884072 123.479394 
L 342.822313 123.03883 
L 342.760553 123.050048 
L 342.760553 122.944426 
L 342.698793 122.945073 
L 342.698793 122.573652 
L 342.637033 122.584877 
L 342.637033 122.478276 
L 342.575273 122.329201 
L 342.513513 122.340431 
L 342.513513 122.233293 
L 342.451754 122.040368 
L 342.328234 121.98743 
L 342.328234 121.955077 
L 342.266474 121.663409 
L 342.142954 121.675052 
L 342.142954 121.577302 
L 342.081195 121.348855 
L 341.957675 121.294871 
L 341.957675 121.262055 
L 341.895915 121.021055 
L 341.834155 121.032316 
L 341.834155 120.922268 
L 341.772396 120.679564 
L 341.587116 120.613665 
L 341.587116 120.602576 
L 341.525356 120.168382 
L 341.340077 120.112684 
L 341.340077 120.090277 
L 341.278317 119.786887 
L 341.216557 119.798173 
L 341.216557 119.685346 
L 341.154797 119.572254 
L 341.031278 119.549538 
L 341.031278 119.49286 
L 340.969518 119.299626 
L 340.784238 119.230972 
L 340.722479 119.105238 
L 340.660719 119.116545 
L 340.660719 119.01354 
L 340.598959 118.967541 
L 340.475439 118.886858 
L 340.413679 118.459825 
L 340.35192 118.471143 
L 340.35192 118.366809 
L 340.29016 118.273596 
L 340.10488 118.214483 
L 340.10488 118.202837 
L 340.043121 117.628672 
L 339.857841 117.568408 
L 339.857841 117.556615 
L 339.796081 117.189227 
L 339.734321 117.200564 
L 339.734321 117.093581 
L 339.672562 117.069212 
L 339.610802 117.080553 
L 339.610802 116.973294 
L 339.549042 116.805411 
L 339.363762 116.743626 
L 339.363762 116.731636 
L 339.302003 116.442405 
L 339.116723 116.45235 
L 339.116723 116.367859 
L 339.054963 116.318787 
L 338.993204 116.330147 
L 338.993204 116.22121 
L 338.931444 116.050536 
L 338.746164 116.084633 
L 338.746164 115.975125 
L 338.684404 115.852361 
L 338.499125 115.788727 
L 338.499125 115.776496 
L 338.437365 115.419692 
L 338.313845 115.430134 
L 338.313845 115.331522 
L 338.252086 115.20703 
L 338.128566 115.167928 
L 338.128566 115.118383 
L 338.128566 114.919771 
L 338.066806 114.931156 
L 337.943287 114.929057 
L 337.943287 114.841904 
L 337.881527 114.678586 
L 337.819767 114.689978 
L 337.819767 114.57738 
L 337.758007 114.388045 
L 337.634487 114.37312 
L 337.634487 114.310204 
L 337.572728 114.208177 
L 337.449208 114.167866 
L 337.449208 114.129965 
L 337.387448 113.760967 
L 337.202169 113.756999 
L 337.202169 113.693307 
L 337.140409 113.500425 
L 336.955129 113.457857 
L 336.955129 113.432235 
L 336.89337 113.225393 
L 336.64633 113.193831 
L 336.64633 113.168064 
L 336.58457 112.908227 
L 336.461051 112.840368 
L 336.461051 112.827398 
L 336.399291 112.695963 
L 336.337531 112.70739 
L 336.337531 112.603267 
L 336.275771 112.432027 
L 336.152252 112.37642 
L 336.152252 112.350242 
L 336.090492 112.151815 
L 335.966972 112.108942 
L 335.966972 112.069463 
L 335.905212 112.001859 
L 335.658173 111.94206 
L 335.596413 111.755062 
L 335.472894 111.698384 
L 335.472894 111.671837 
L 335.411134 111.310348 
L 335.164094 111.249143 
L 335.102335 111.099729 
L 334.978815 111.055477 
L 334.978815 111.015144 
L 334.917055 110.918907 
L 334.731776 110.84539 
L 334.670016 110.694634 
L 334.484736 110.674856 
L 334.484736 110.62063 
L 334.422977 110.428304 
L 334.299457 110.369525 
L 334.299457 110.34226 
L 334.237697 110.27186 
L 334.175937 110.283333 
L 334.175937 110.173993 
L 334.114178 110.034789 
L 334.052418 110.046262 
L 334.052418 109.936436 
L 334.052418 109.881446 
L 333.990658 109.892919 
L 333.867138 109.888356 
L 333.867138 109.805733 
L 333.805378 109.568644 
L 333.558339 109.545328 
L 333.558339 109.503747 
L 333.496579 109.362516 
L 333.434819 109.374 
L 333.434819 109.262685 
L 333.37306 108.531403 
L 333.24954 108.512026 
L 333.24954 108.441423 
L 333.24954 108.115573 
L 333.18778 108.12704 
L 333.064261 108.078907 
L 333.064261 108.050453 
L 333.002501 107.890915 
L 332.940741 107.902387 
L 332.940741 107.802404 
L 332.940741 107.788107 
L 332.878981 107.799579 
L 332.570182 107.79975 
L 332.570182 107.756793 
L 332.508422 107.710953 
L 332.384902 107.676547 
L 332.384902 107.633474 
L 332.384902 107.403231 
L 332.323143 107.414716 
L 332.261383 107.426203 
L 332.261383 107.325191 
L 332.199623 107.235495 
L 332.076103 107.171606 
L 332.076103 107.157116 
L 332.014344 107.038037 
L 331.829064 106.999851 
L 331.829064 106.97076 
L 331.767304 106.822004 
L 331.396745 106.803413 
L 331.396745 106.788801 
L 331.334985 106.389714 
L 331.211466 106.412719 
L 331.211466 106.309631 
L 331.149706 106.070046 
L 331.087946 106.081546 
L 331.087946 105.977853 
L 331.026186 105.915177 
L 330.902667 105.863911 
L 330.902667 105.834178 
L 330.840907 105.771283 
L 330.779147 105.782788 
L 330.779147 105.678475 
L 330.717387 105.465848 
L 330.593868 105.488852 
L 330.593868 105.383971 
L 330.532108 104.989241 
L 330.470348 105.000735 
L 330.470348 104.894974 
L 330.470348 104.682907 
L 330.408588 104.694395 
L 330.346828 104.705885 
L 330.346828 104.599572 
L 330.285068 104.321566 
L 330.161549 104.329263 
L 330.161549 104.237534 
L 330.099789 104.1265 
L 330.038029 104.137985 
L 330.038029 104.030578 
L 329.976269 103.749581 
L 329.85275 103.679888 
L 329.85275 103.664432 
L 329.79099 103.350444 
L 329.60571 103.384873 
L 329.60571 103.275995 
L 329.543951 102.990979 
L 329.358671 102.978455 
L 329.358671 102.915803 
L 329.358671 102.853088 
L 329.296911 102.864563 
L 329.173392 102.871831 
L 329.173392 102.777608 
L 329.111632 102.568676 
L 328.988112 102.512718 
L 328.988112 102.481125 
L 328.926352 102.318555 
L 328.802833 102.262229 
L 328.802833 102.23049 
L 328.741073 101.795927 
L 328.555793 101.718309 
L 328.494034 101.649641 
L 328.370514 101.656539 
L 328.370514 101.560212 
L 328.308754 101.346339 
L 327.999955 101.290695 
L 327.938195 101.124197 
L 327.814676 101.130936 
L 327.814676 101.049848 
L 327.752916 100.94762 
L 327.505876 100.912172 
L 327.505876 100.895889 
L 327.444117 100.80958 
L 327.382357 100.821059 
L 327.382357 100.723117 
L 327.320597 100.554638 
L 327.073558 100.534977 
L 327.073558 100.502164 
L 327.011798 100.299943 
L 326.702999 100.32441 
L 326.702999 100.258465 
L 326.702999 100.225467 
L 326.641239 100.236953 
L 326.33244 100.19531 
L 326.27068 100.024686 
L 326.20892 100.036182 
L 326.20892 99.936619 
L 326.14716 99.848392 
L 326.023641 99.788157 
L 326.023641 99.771499 
L 325.961881 99.682951 
L 325.838361 99.639156 
L 325.838361 99.605737 
L 325.776601 99.516866 
L 325.591322 99.517867 
L 325.591322 99.450826 
L 325.529562 99.260774 
L 325.220763 99.217247 
L 325.159003 98.941619 
L 324.973724 98.959187 
L 324.973724 98.87446 
L 324.911964 98.767153 
L 324.788444 98.688137 
L 324.788444 98.654095 
L 324.726684 98.665595 
L 324.417885 98.637937 
L 324.417885 98.620882 
L 324.356125 98.37603 
L 324.294366 98.387536 
L 324.294366 98.284701 
L 324.232606 98.227556 
L 324.109086 98.147448 
L 324.047326 98.021201 
L 323.800287 97.998234 
L 323.800287 97.963708 
L 323.738527 97.906108 
L 323.615008 97.82532 
L 323.553248 97.628701 
L 323.429728 97.564791 
L 323.429728 97.547392 
L 323.367968 97.506673 
L 323.182689 97.488931 
L 323.182689 97.436614 
L 323.120929 97.255929 
L 322.997409 97.19139 
L 322.997409 97.173864 
L 322.997409 97.156334 
L 322.93565 97.167842 
L 322.62685 97.137681 
L 322.62685 97.120118 
L 322.565091 97.00856 
L 322.379811 97.007912 
L 322.379811 96.93743 
L 322.318051 96.790085 
L 322.132772 96.789289 
L 322.132772 96.718509 
L 322.071012 96.214571 
L 321.885733 96.159792 
L 321.885733 96.141918 
L 321.823973 96.08188 
L 321.700453 96.069089 
L 321.700453 95.997421 
L 321.638693 95.955123 
L 321.453414 95.89987 
L 321.453414 95.881898 
L 321.391654 95.767466 
L 321.329894 95.778974 
L 321.329894 95.670827 
L 321.329894 95.472099 
L 321.268134 95.483595 
L 321.206375 95.495095 
L 321.206375 95.386436 
L 321.144615 95.343534 
L 320.959335 95.287258 
L 320.959335 95.269088 
L 320.897575 95.226046 
L 320.774056 95.13982 
L 320.774056 95.066899 
L 320.712296 95.078398 
L 320.588776 95.101405 
L 320.588776 94.991857 
L 320.527016 94.673617 
L 320.403497 94.67823 
L 320.403497 94.586311 
L 320.341737 94.52417 
L 320.032938 94.47102 
L 319.971178 94.316228 
L 319.724139 94.251108 
L 319.662379 94.151305 
L 319.477099 94.14866 
L 319.477099 94.074302 
L 319.41534 93.936832 
L 319.29182 93.847871 
L 319.23006 93.784623 
L 318.983021 93.737058 
L 318.983021 93.718329 
L 318.983021 93.699594 
L 318.921261 93.711096 
L 318.674222 93.719642 
L 318.674222 93.644589 
L 318.612462 93.505737 
L 318.488942 93.453438 
L 318.488942 93.415748 
L 318.427182 93.162823 
L 318.303663 93.185818 
L 318.303663 93.091116 
L 318.241903 93.064694 
L 318.118383 92.99279 
L 318.056624 92.928267 
L 317.994864 92.939766 
L 317.994864 92.844612 
L 317.933104 92.665388 
L 317.747824 92.661651 
L 317.747824 92.604288 
L 317.686065 92.500905 
L 317.439025 92.470176 
L 317.439025 92.450984 
L 317.377265 92.25101 
L 317.130226 92.239185 
L 317.130226 92.200623 
L 317.068466 91.960921 
L 316.944947 91.925788 
L 316.944947 91.887022 
L 316.883187 91.840315 
L 316.759667 91.84388 
L 316.759667 91.766181 
L 316.697907 91.583022 
L 316.450868 91.609458 
L 316.450868 91.531404 
L 316.389108 91.327767 
L 316.265589 91.331132 
L 316.265589 91.252707 
L 316.265589 91.134899 
L 316.203829 91.14637 
L 316.142069 91.157844 
L 316.142069 91.059505 
L 316.080309 90.854121 
L 315.95679 90.837542 
L 315.95679 90.778239 
L 315.95679 90.699089 
L 315.89503 90.710547 
L 315.77151 90.634389 
L 315.70975 90.586329 
L 315.524471 90.561138 
L 315.524471 90.521387 
L 315.462711 90.293846 
L 315.215672 90.299756 
L 315.215672 90.239826 
L 315.153912 89.910676 
L 315.030392 89.933565 
L 315.030392 89.833053 
L 315.030392 89.812933 
L 314.968632 89.824376 
L 314.845113 89.84727 
L 314.845113 89.746564 
L 314.845113 89.68607 
L 314.783353 89.697512 
L 314.659833 89.619446 
L 314.598073 89.529778 
L 314.474554 89.49192 
L 314.474554 89.451393 
L 314.412794 89.30048 
L 314.165755 89.244553 
L 314.103995 89.052154 
L 313.795196 89.027622 
L 313.795196 89.007174 
L 313.733436 88.752235 
L 313.609916 88.754561 
L 313.609916 88.672357 
L 313.548156 88.60148 
L 313.424637 88.562537 
L 313.424637 88.521306 
L 313.424637 88.356138 
L 313.362877 88.367554 
L 313.239357 88.390397 
L 313.239357 88.286948 
L 313.177598 88.174019 
L 313.054078 88.113819 
L 313.054078 88.093046 
L 312.992318 87.708564 
L 312.868798 87.710449 
L 312.868798 87.626781 
L 312.807039 87.344531 
L 312.683519 87.325229 
L 312.683519 87.2621 
L 312.683519 87.072374 
L 312.621759 87.083735 
L 312.498239 87.021963 
L 312.498239 87.000821 
L 312.43648 86.736747 
L 312.31296 86.71697 
L 312.31296 86.653208 
L 312.2512 86.53685 
L 312.065921 86.464266 
L 312.065921 86.421573 
L 312.004161 86.432915 
L 311.880641 86.412881 
L 311.880641 86.348742 
L 311.818881 86.059979 
L 311.571842 86.062318 
L 311.571842 85.997787 
L 311.571842 85.846986 
L 311.510082 85.858308 
L 311.139523 85.839952 
L 311.139523 85.818346 
L 311.077764 85.764822 
L 310.892484 85.690585 
L 310.830724 85.658572 
L 310.707205 85.637869 
L 310.707205 85.572743 
L 310.707205 85.507556 
L 310.645445 85.51889 
L 310.398406 85.455444 
L 310.336646 85.183069 
L 310.274886 85.194394 
L 310.274886 85.084964 
L 310.213126 84.898873 
L 309.966087 84.834193 
L 309.904327 84.779458 
L 309.780807 84.80209 
L 309.780807 84.691854 
L 309.719047 84.570651 
L 309.472008 84.527391 
L 309.472008 84.505247 
L 309.410248 84.42791 
L 309.163209 84.384381 
L 309.163209 84.362167 
L 309.101449 84.173236 
L 308.91617 84.095641 
L 308.85441 83.972891 
L 308.73089 83.99549 
L 308.73089 83.88357 
L 308.66913 83.805199 
L 308.360331 83.749414 
L 308.298572 83.580684 
L 308.051532 83.513088 
L 307.989772 83.366181 
L 307.680973 83.400018 
L 307.680973 83.332063 
L 307.680973 83.127814 
L 307.619213 83.139097 
L 307.310414 83.127319 
L 307.310414 83.104557 
L 307.248655 82.681984 
L 307.063375 82.647033 
L 307.063375 82.624098 
L 307.063375 82.578209 
L 307.001615 82.589474 
L 306.692816 82.576931 
L 306.692816 82.553942 
L 306.631056 82.473187 
L 306.507537 82.495741 
L 306.507537 82.403576 
L 306.507537 82.334376 
L 306.445777 82.345645 
L 306.384017 82.356918 
L 306.384017 82.264534 
L 306.322257 82.044312 
L 306.013458 82.007777 
L 305.951698 81.926076 
L 305.889938 81.937336 
L 305.889938 81.844245 
L 305.828179 81.692293 
L 305.581139 81.643844 
L 305.519379 81.60832 
L 305.39586 81.630829 
L 305.39586 81.537171 
L 305.3341 81.478095 
L 305.148821 81.417957 
L 305.087061 81.217481 
L 304.963541 81.19282 
L 304.963541 81.145648 
L 304.963541 81.074834 
L 304.901781 81.086066 
L 304.778262 81.061281 
L 304.778262 81.013992 
L 304.778262 80.682113 
L 304.716502 80.69332 
L 304.654742 80.70453 
L 304.654742 80.609417 
L 304.592982 80.430012 
L 304.407703 80.391978 
L 304.407703 80.368088 
L 304.345943 80.283637 
L 304.222423 80.234195 
L 304.222423 80.210237 
L 304.160663 80.1495 
L 303.913624 80.098227 
L 303.851864 80.013244 
L 303.728345 79.939306 
L 303.728345 79.794593 
L 303.666585 79.805768 
L 303.604825 79.816947 
L 303.604825 79.720298 
L 303.543065 79.634689 
L 303.357786 79.619756 
L 303.357786 79.571273 
L 303.357786 79.547019 
L 303.296026 79.558189 
L 303.234266 79.569362 
L 303.234266 79.472252 
L 303.172506 79.434813 
L 302.987227 79.395338 
L 302.987227 79.370993 
L 302.987227 79.273531 
L 302.925467 79.284692 
L 302.801947 79.233826 
L 302.801947 79.20941 
L 302.740187 78.975953 
L 302.616668 78.949219 
L 302.616668 78.900157 
L 302.554908 78.665489 
L 302.369629 78.649604 
L 302.369629 78.600298 
L 302.307869 78.438586 
L 302.060829 78.38409 
L 301.99907 78.122314 
L 301.75203 78.116994 
L 301.75203 78.067219 
L 301.75203 78.01741 
L 301.69027 78.028511 
L 301.381471 78.034204 
L 301.381471 77.984302 
L 301.381471 77.959338 
L 301.319712 77.97045 
L 301.134432 77.953838 
L 301.134432 77.903834 
L 301.134432 77.828767 
L 301.072672 77.839877 
L 300.887393 77.823126 
L 300.887393 77.772987 
L 300.887393 77.747905 
L 300.825633 77.759019 
L 300.702113 77.781257 
L 300.702113 77.680819 
L 300.702113 77.580246 
L 300.640353 77.591352 
L 300.269795 77.557294 
L 300.208035 77.239942 
L 300.146275 77.251038 
L 300.146275 77.149671 
L 300.084515 77.008442 
L 299.837476 77.027354 
L 299.837476 76.951025 
L 299.837476 76.772624 
L 299.775716 76.783691 
L 299.713956 76.794762 
L 299.713956 76.69261 
L 299.652196 76.524561 
L 299.528677 76.546668 
L 299.528677 76.444107 
L 299.528677 76.367096 
L 299.466917 76.378138 
L 299.405157 76.389183 
L 299.405157 76.28636 
L 299.343397 76.091315 
L 299.219878 76.08756 
L 299.219878 76.010093 
L 299.219878 75.984254 
L 299.158118 75.995272 
L 299.034598 75.913842 
L 299.034598 75.810224 
L 298.972838 75.821233 
L 298.787559 75.750484 
L 298.787559 75.724512 
L 298.725799 75.735524 
L 298.602279 75.679566 
L 298.602279 75.653551 
L 298.54052 75.194729 
L 298.23172 75.197207 
L 298.23172 75.144763 
L 298.169961 75.02446 
L 298.108201 75.035429 
L 298.108201 74.930232 
L 298.046441 74.730345 
L 297.799402 74.668462 
L 297.799402 74.589103 
L 297.737642 74.600045 
L 297.367083 74.559756 
L 297.305323 74.384818 
L 296.996524 74.386342 
L 296.996524 74.333082 
L 296.996524 74.279786 
L 296.934764 74.29073 
L 296.564205 74.249697 
L 296.502445 74.153718 
L 296.317166 74.079469 
L 296.255406 73.956299 
L 295.946607 73.957312 
L 295.946607 73.903532 
L 295.884847 73.698968 
L 295.514288 73.683598 
L 295.514288 73.656571 
L 295.514288 73.629535 
L 295.452528 73.640477 
L 295.329009 73.608254 
L 295.329009 73.554098 
L 295.267249 73.429471 
L 295.143729 73.397032 
L 295.143729 73.342689 
L 295.081969 73.19034 
L 294.89669 73.114018 
L 294.89669 72.895405 
L 294.83493 72.906296 
L 294.649651 72.884221 
L 294.649651 72.829409 
L 294.587891 72.620648 
L 294.402611 72.598258 
L 294.402611 72.54319 
L 294.340852 72.388612 
L 294.217332 72.382723 
L 294.217332 72.299817 
L 294.155572 72.255349 
L 293.908533 72.187977 
L 293.908533 72.132509 
L 293.846773 72.143362 
L 293.661493 72.148183 
L 293.661493 72.064843 
L 293.661493 72.037043 
L 293.599734 72.047896 
L 293.414454 71.969132 
L 293.414454 71.94127 
L 293.352694 71.952123 
L 293.229175 71.86226 
L 293.167415 71.621444 
L 293.043895 71.530969 
L 293.043895 71.50291 
L 292.982135 71.513731 
L 292.796856 71.461944 
L 292.796856 71.433832 
L 292.796856 71.236766 
L 292.735096 71.247569 
L 292.611577 71.212772 
L 292.611577 71.18455 
L 292.549817 71.054076 
L 292.179258 71.033949 
L 292.117498 70.988068 
L 291.993978 70.924554 
L 291.932218 70.707874 
L 291.623419 70.676297 
L 291.56166 70.515743 
L 291.37638 70.462242 
L 291.31462 70.157432 
L 291.129341 70.132147 
L 291.129341 70.103364 
L 291.129341 69.872722 
L 291.067581 69.883444 
L 290.944061 69.847114 
L 290.944061 69.818205 
L 290.882301 69.655236 
L 290.697022 69.687371 
L 290.697022 69.600352 
L 290.635262 69.4658 
L 290.573502 69.476496 
L 290.573502 69.389202 
L 290.511743 69.312492 
L 290.388223 69.333864 
L 290.388223 69.246347 
L 290.326463 69.140177 
L 289.955904 69.145736 
L 289.955904 69.116454 
L 289.894144 68.951201 
L 289.832384 68.96187 
L 289.832384 68.873744 
L 289.770625 68.707843 
L 289.708865 68.718488 
L 289.708865 68.630049 
L 289.708865 68.600548 
L 289.647105 68.611183 
L 289.523585 68.543865 
L 289.461826 68.317723 
L 289.338306 68.279634 
L 289.338306 68.249958 
L 289.276546 68.112007 
L 289.091267 68.084284 
L 289.091267 68.054506 
L 289.029507 67.88618 
L 288.782467 67.838869 
L 288.782467 67.808962 
L 288.720708 67.819543 
L 288.597188 67.810788 
L 288.597188 67.750897 
L 288.535428 67.671547 
L 288.473668 67.682122 
L 288.473668 67.592079 
L 288.411909 67.482418 
L 288.226629 67.42378 
L 288.164869 67.313736 
L 288.04135 67.334835 
L 288.04135 67.244242 
L 287.97959 66.952036 
L 287.85607 66.881994 
L 287.79431 66.801318 
L 287.547271 66.78247 
L 287.547271 66.752015 
L 287.485511 66.671074 
L 287.300232 66.70258 
L 287.300232 66.610997 
L 287.300232 66.519309 
L 287.238472 66.529797 
L 286.682634 66.593738 
L 286.682634 66.532456 
L 286.620874 66.328092 
L 286.497354 66.287568 
L 286.497354 66.256793 
L 286.435594 66.082366 
L 285.941516 66.073528 
L 285.879756 65.805218 
L 285.817996 65.815677 
L 285.817996 65.722518 
L 285.756236 65.577449 
L 285.509197 65.525712 
L 285.509197 65.432101 
L 285.447437 65.442529 
L 285.323917 65.463397 
L 285.323917 65.369643 
L 285.323917 65.30708 
L 285.262158 65.3175 
L 285.076878 65.28614 
L 285.076878 65.254801 
L 285.076878 65.097923 
L 285.015118 65.108326 
L 284.768079 65.055649 
L 284.768079 65.02418 
L 284.706319 65.034588 
L 284.644559 65.044999 
L 284.644559 64.950497 
L 284.644559 64.761164 
L 284.5828 64.771543 
L 284.33576 64.718206 
L 284.33576 64.654883 
L 284.274 64.665261 
L 283.965201 64.622063 
L 283.965201 64.590321 
L 283.903441 64.600707 
L 283.718162 64.536541 
L 283.718162 64.377382 
L 283.656402 64.38775 
L 283.594642 64.398123 
L 283.594642 64.302454 
L 283.532883 64.121119 
L 283.409363 64.109807 
L 283.409363 64.045766 
L 283.347603 63.992005 
L 282.853524 63.978445 
L 282.853524 63.946305 
L 282.791765 63.956654 
L 282.606485 63.923374 
L 282.606485 63.89118 
L 282.544725 63.708072 
L 282.359446 63.642138 
L 282.359446 63.577448 
L 282.297686 63.58777 
L 282.235926 63.598096 
L 282.235926 63.50094 
L 282.174166 63.349054 
L 282.050647 63.369656 
L 282.050647 63.272154 
L 281.988887 62.858551 
L 281.865367 62.846331 
L 281.865367 62.780879 
L 281.803607 62.594422 
L 281.247769 62.58784 
L 281.186009 62.499302 
L 281.06249 62.519759 
L 281.06249 62.42084 
L 281.00073 62.332011 
L 280.691931 62.316964 
L 280.691931 62.283872 
L 280.691931 62.217648 
L 280.630171 62.227857 
L 280.506651 62.181984 
L 280.506651 62.148812 
L 280.506651 62.082428 
L 280.444891 62.092627 
L 280.074332 62.054131 
L 280.012573 61.931111 
L 279.703774 61.88201 
L 279.703774 61.848605 
L 279.642014 61.858806 
L 279.209695 61.829916 
L 279.209695 61.79642 
L 279.147935 61.806635 
L 278.962656 61.736678 
L 278.900896 61.511596 
L 278.653857 61.45127 
L 278.592097 61.326447 
L 278.098018 61.306447 
L 278.098018 61.27258 
L 278.036258 61.28277 
L 277.974498 61.292963 
L 277.974498 61.191251 
L 277.974498 61.089416 
L 277.912739 61.099584 
L 277.727459 61.062117 
L 277.727459 61.028097 
L 277.727459 60.994063 
L 277.665699 61.004229 
L 277.54218 60.922345 
L 277.54218 60.854124 
L 277.48042 60.864278 
L 277.171621 60.846773 
L 277.171621 60.812585 
L 277.109861 60.583003 
L 276.862822 60.520545 
L 276.801062 60.358678 
L 276.739302 60.368793 
L 276.739302 60.265407 
L 276.739302 60.230917 
L 276.677542 60.241016 
L 276.245223 60.242721 
L 276.245223 60.208148 
L 276.183464 60.010499 
L 275.998184 59.971384 
L 275.998184 59.936663 
L 275.998184 59.728034 
L 275.936424 59.738092 
L 275.627625 59.718723 
L 275.627625 59.683841 
L 275.565865 59.554219 
L 275.318826 59.594447 
L 275.318826 59.489465 
L 275.257066 59.429447 
L 275.071787 59.354335 
L 275.010027 59.188624 
L 274.392429 59.183234 
L 274.392429 59.041981 
L 274.330669 59.052007 
L 273.89835 59.122303 
L 273.89835 59.016082 
L 273.83659 58.884268 
L 273.466031 58.837843 
L 273.404272 58.741083 
L 273.280752 58.725495 
L 273.280752 58.654171 
L 273.280752 58.618487 
L 273.218992 58.628498 
L 273.095472 58.612816 
L 273.095472 58.54134 
L 273.033713 58.372367 
L 272.539634 58.38057 
L 272.539634 58.344655 
L 272.477874 58.210821 
L 272.292595 58.132699 
L 272.230835 57.926062 
L 272.045555 57.883565 
L 272.045555 57.847361 
L 271.983796 57.603412 
L 271.922036 57.613323 
L 271.922036 57.504262 
L 271.860276 57.441365 
L 271.613237 57.444514 
L 271.613237 57.37158 
L 271.551477 57.198834 
L 271.242678 57.211611 
L 271.242678 57.138359 
L 271.180918 57.001514 
L 270.810359 56.987172 
L 270.810359 56.950388 
L 270.748599 56.849783 
L 270.4398 56.825283 
L 270.4398 56.788369 
L 270.37804 56.687365 
L 270.131001 56.652713 
L 270.131001 56.615674 
L 270.069241 56.328577 
L 269.822202 56.330568 
L 269.822202 56.256095 
L 269.760442 56.079392 
L 269.451643 56.016094 
L 269.389883 55.913519 
L 269.204604 55.86779 
L 269.204604 55.717565 
L 269.142844 55.727299 
L 268.895805 55.72865 
L 268.895805 55.691006 
L 268.895805 55.577976 
L 268.834045 55.5877 
L 268.648765 55.579166 
L 268.648765 55.541416 
L 268.648765 55.503649 
L 268.587005 55.513372 
L 268.216446 55.496133 
L 268.154687 55.430125 
L 267.969407 55.42142 
L 267.969407 55.383485 
L 267.907647 55.279298 
L 267.598848 55.251843 
L 267.598848 54.946801 
L 267.537088 54.956479 
L 267.351809 54.985539 
L 267.351809 54.90906 
L 267.290049 54.650491 
L 266.91949 54.669982 
L 266.91949 54.631537 
L 266.85773 54.525738 
L 266.795971 54.535378 
L 266.795971 54.45831 
L 266.734211 54.352193 
L 266.672451 54.36181 
L 266.672451 54.284545 
L 266.672451 54.207212 
L 266.610691 54.216807 
L 266.425412 54.168165 
L 266.363652 54.022624 
L 266.301892 54.032202 
L 266.301892 53.954515 
L 266.240132 53.886315 
L 266.178372 53.895875 
L 266.178372 53.818023 
L 266.116612 53.51542 
L 265.869573 53.514333 
L 265.869573 53.475191 
L 265.807813 53.367147 
L 265.746054 53.376638 
L 265.746054 53.29817 
L 265.746054 53.219631 
L 265.684294 53.2291 
L 265.622534 53.238573 
L 265.622534 53.159937 
L 265.622534 52.963038 
L 265.560774 52.972468 
L 265.375495 52.961324 
L 265.375495 52.921846 
L 265.375495 52.882351 
L 265.313735 52.891778 
L 264.943176 52.908867 
L 264.943176 52.869289 
L 264.881416 52.680537 
L 264.572617 52.648174 
L 264.572617 52.608411 
L 264.510857 52.617825 
L 264.140298 52.634569 
L 264.140298 52.594722 
L 264.078538 52.444556 
L 263.955019 52.383439 
L 263.893259 52.192651 
L 263.58446 52.159273 
L 263.5227 51.887069 
L 262.781582 51.918559 
L 262.719822 51.806588 
L 262.349263 51.781698 
L 262.349263 51.700551 
L 262.287503 51.709901 
L 261.978704 51.756716 
L 261.978704 51.675408 
L 261.916945 51.481136 
L 261.793425 51.459002 
L 261.793425 51.418186 
L 261.793425 51.21382 
L 261.731665 51.223108 
L 261.546386 51.169059 
L 261.484626 50.890921 
L 261.175827 50.85481 
L 261.114067 50.740343 
L 260.990547 50.676206 
L 260.990547 50.510768 
L 260.928787 50.519963 
L 260.558228 50.492285 
L 260.558228 50.409268 
L 260.496469 50.418463 
L 260.12591 50.390523 
L 260.06415 50.191354 
L 259.94063 50.209711 
L 259.94063 50.126192 
L 259.94063 50.042594 
L 259.87887 50.051749 
L 259.199512 50.110811 
L 259.199512 50.068871 
L 259.137752 49.9521 
L 259.014233 49.970448 
L 259.014233 49.886344 
L 259.014233 49.844262 
L 258.952473 49.85342 
L 258.581914 49.866298 
L 258.581914 49.824122 
L 258.581914 49.73971 
L 258.520154 49.748867 
L 258.396635 49.682654 
L 258.396635 49.640355 
L 258.334875 49.6495 
L 258.273115 49.658651 
L 258.273115 49.573961 
L 258.211355 49.45589 
L 257.717277 49.443934 
L 257.717277 49.316232 
L 257.655517 49.325346 
L 257.593757 49.334465 
L 257.593757 49.249197 
L 257.593757 49.206533 
L 257.531997 49.215632 
L 257.408477 49.233843 
L 257.408477 49.148406 
L 257.408477 49.105657 
L 257.346718 49.114745 
L 257.099678 49.10833 
L 257.099678 49.0655 
L 257.037919 48.903035 
L 256.48208 48.898734 
L 256.42032 48.692299 
L 256.173281 48.685334 
L 256.173281 48.642114 
L 256.111521 48.521356 
L 255.740962 48.488874 
L 255.740962 48.14106 
L 255.679202 48.150036 
L 255.370403 48.151358 
L 255.370403 48.107715 
L 255.308643 48.029335 
L 254.938085 48.039471 
L 254.938085 47.995685 
L 254.938085 47.951877 
L 254.876325 47.960851 
L 254.567526 47.961904 
L 254.567526 47.918003 
L 254.567526 47.87408 
L 254.505766 47.883054 
L 254.011687 47.866943 
L 253.949927 47.611184 
L 253.394089 47.603306 
L 253.332329 47.479219 
L 253.08529 47.426161 
L 253.02353 47.301594 
L 252.467692 47.292828 
L 252.467692 47.158745 
L 252.405932 47.167669 
L 252.158893 47.158626 
L 252.158893 47.113821 
L 252.158893 47.024145 
L 252.097133 47.033055 
L 251.541294 47.023504 
L 251.479534 46.942391 
L 251.232495 46.887899 
L 251.232495 46.842759 
L 251.170735 46.851673 
L 251.108976 46.860592 
L 251.108976 46.770209 
L 251.108976 46.724984 
L 251.047216 46.73388 
L 250.861936 46.71531 
L 250.861936 46.670004 
L 250.861936 46.579324 
L 250.800176 46.588201 
L 250.676657 46.515143 
L 250.614897 46.205345 
L 249.750259 46.237611 
L 249.6885 46.108997 
L 249.3797 46.107289 
L 249.3797 46.06135 
L 249.317941 45.932202 
L 249.194421 45.857689 
L 249.132661 45.774236 
L 248.762102 45.734571 
L 248.700342 45.60447 
L 247.712185 45.652335 
L 247.650425 45.521421 
L 247.526906 45.492379 
L 247.526906 45.445709 
L 247.526906 45.212 
L 247.465146 45.220741 
L 247.279866 45.246992 
L 247.279866 45.153263 
L 247.279866 45.059439 
L 247.218107 45.068159 
L 247.094587 45.085612 
L 247.094587 44.991633 
L 247.032827 44.812059 
L 246.847548 44.790947 
L 246.847548 44.743761 
L 246.785788 44.6107 
L 246.415229 44.56792 
L 246.353469 44.244177 
L 245.797631 44.226258 
L 245.797631 44.178535 
L 245.735871 44.187133 
L 245.365312 44.238814 
L 245.365312 44.14315 
L 245.365312 44.095281 
L 245.303552 44.10388 
L 245.056513 44.042404 
L 245.056513 43.994409 
L 244.994753 44.002999 
L 244.006596 44.044639 
L 244.006596 43.899826 
L 243.944836 43.908441 
L 243.697797 43.846174 
L 243.697797 43.79775 
L 243.636037 43.806356 
L 243.203718 43.818193 
L 243.203718 43.769634 
L 243.141958 43.583722 
L 242.833159 43.529161 
L 242.771399 43.342342 
L 242.092041 43.387578 
L 242.092041 43.338519 
L 242.030282 43.101354 
L 241.597963 43.062503 
L 241.536203 42.972282 
L 241.350923 42.948403 
L 241.350923 42.898925 
L 241.350923 42.849422 
L 241.289164 42.857922 
L 240.053967 42.929334 
L 240.053967 42.77981 
L 239.992207 42.788351 
L 239.806928 42.764061 
L 239.806928 42.714095 
L 239.806928 42.664102 
L 239.745168 42.672627 
L 239.683408 42.681158 
L 239.683408 42.581046 
L 239.621648 42.489316 
L 238.695251 42.516531 
L 238.695251 42.415733 
L 238.633491 42.424251 
L 238.386452 42.407875 
L 238.386452 42.35735 
L 238.386452 42.306798 
L 238.324692 42.315306 
L 237.954133 42.315788 
L 237.954133 42.265101 
L 237.954133 42.214386 
L 237.892373 42.222892 
L 237.521814 42.172348 
L 237.521814 42.019629 
L 237.460055 42.028109 
L 236.965976 41.993956 
L 236.965976 41.942833 
L 236.904216 41.95132 
L 236.657177 41.934105 
L 236.657177 41.882867 
L 236.657177 41.831601 
L 236.595417 41.840076 
L 236.471897 41.805711 
L 236.471897 41.754354 
L 236.410138 41.659995 
L 236.163098 41.642308 
L 236.163098 41.590777 
L 236.101339 41.444422 
L 235.792539 41.434804 
L 235.792539 41.383059 
L 235.792539 41.331286 
L 235.73078 41.339684 
L 235.66902 41.348086 
L 235.66902 41.244406 
L 235.66902 41.192523 
L 235.60726 41.200893 
L 234.927902 41.189135 
L 234.927902 41.13702 
L 234.866142 41.14541 
L 234.433823 41.152031 
L 234.433823 41.09976 
L 234.433823 41.04746 
L 234.372064 41.055851 
L 233.754465 41.14002 
L 233.754465 41.035061 
L 233.754465 40.982537 
L 233.692705 40.990943 
L 233.569186 40.955178 
L 233.569186 40.902559 
L 233.569186 40.849909 
L 233.507426 40.858292 
L 233.198627 40.794739 
L 233.198627 40.689084 
L 233.136867 40.697445 
L 233.013347 40.608331 
L 232.951588 40.457644 
L 232.333989 40.434597 
L 232.27223 40.283029 
L 232.14871 40.299644 
L 232.14871 40.192838 
L 232.08695 39.987098 
L 231.839911 39.912795 
L 231.778151 39.652179 
L 231.592871 39.676718 
L 231.592871 39.568885 
L 231.592871 39.406903 
L 231.531112 39.415027 
L 231.345832 39.385317 
L 231.345832 39.331178 
L 231.345832 39.222806 
L 231.284072 39.230895 
L 230.913513 39.170848 
L 230.851754 39.015647 
L 230.481195 38.954895 
L 230.481195 38.900257 
L 230.419435 38.908304 
L 230.234155 38.877752 
L 230.234155 38.822997 
L 230.234155 38.76821 
L 230.172396 38.776236 
L 229.925356 38.698582 
L 229.925356 38.643632 
L 229.863596 38.651641 
L 229.245998 38.621684 
L 229.245998 38.511261 
L 229.184238 38.519265 
L 228.998959 38.432645 
L 228.998959 38.377266 
L 228.937199 38.385248 
L 228.75192 38.353755 
L 228.75192 38.298255 
L 228.69016 38.195104 
L 228.196081 38.147355 
L 228.196081 38.091567 
L 228.134321 38.099512 
L 227.454963 38.075203 
L 227.454963 38.019148 
L 227.393204 38.027107 
L 225.540409 38.154973 
L 225.540409 38.098374 
L 225.478649 38.106437 
L 225.16985 38.146823 
L 225.16985 38.090104 
L 225.10809 37.984613 
L 224.799291 37.968017 
L 224.799291 37.911075 
L 224.737531 37.919123 
L 224.490492 37.951362 
L 224.490492 37.894313 
L 224.490492 37.83723 
L 224.428732 37.845272 
L 223.502335 37.909137 
L 223.502335 37.794326 
L 223.440575 37.802401 
L 223.193536 37.777221 
L 223.193536 37.662052 
L 223.131776 37.670107 
L 222.884736 37.644665 
L 222.822977 37.47934 
L 222.575937 37.453539 
L 222.575937 37.395577 
L 222.514178 37.40359 
L 222.390658 37.419632 
L 222.390658 37.361589 
L 222.390658 37.303511 
L 222.328898 37.311508 
L 222.143619 37.277356 
L 222.081859 37.168871 
L 221.958339 37.126501 
L 221.896579 37.01768 
L 221.58778 37.057452 
L 221.58778 36.998925 
L 221.52602 36.889687 
L 221.155461 36.878581 
L 221.155461 36.819802 
L 221.093702 36.827727 
L 220.599623 36.832349 
L 220.537863 36.72225 
L 220.290824 36.694844 
L 220.290824 36.517193 
L 220.229064 36.525076 
L 219.982025 36.497288 
L 219.982025 36.318959 
L 219.920265 36.326802 
L 219.487946 36.3222 
L 219.426186 36.150861 
L 219.364427 36.158684 
L 219.364427 36.098858 
L 219.364427 36.038995 
L 219.302667 36.04679 
L 218.932108 36.093667 
L 218.932108 36.033652 
L 218.932108 35.973601 
L 218.870348 35.981398 
L 218.685068 36.004819 
L 218.685068 35.944664 
L 218.685068 35.824242 
L 218.623309 35.83201 
L 218.438029 35.795008 
L 218.438029 35.734637 
L 218.376269 35.742391 
L 217.696911 35.7674 
L 217.635151 35.593094 
L 217.449872 35.616362 
L 217.449872 35.555534 
L 217.388112 35.44148 
L 216.894034 35.442284 
L 216.894034 35.197519 
L 216.832274 35.205194 
L 215.782357 35.274817 
L 215.782357 35.213182 
L 215.720597 35.22091 
L 215.288278 35.27515 
L 215.288278 35.213337 
L 215.288278 35.027662 
L 215.226518 35.035361 
L 214.73244 35.035003 
L 214.73244 34.910627 
L 214.67068 34.918318 
L 214.54716 34.933715 
L 214.54716 34.871415 
L 214.54716 34.809074 
L 214.485401 34.816745 
L 214.238361 34.847477 
L 214.238361 34.785008 
L 214.238361 34.722498 
L 214.176601 34.730158 
L 213.003165 34.813739 
L 213.003165 34.750792 
L 212.941405 34.758516 
L 212.632606 34.734116 
L 212.632606 34.670979 
L 212.570846 34.678697 
L 212.200287 34.725112 
L 212.200287 34.661807 
L 212.200287 34.59846 
L 212.138527 34.606178 
L 211.706208 34.596806 
L 211.706208 34.53323 
L 211.644449 34.540951 
L 211.21213 34.595141 
L 211.21213 34.531377 
L 211.21213 34.46757 
L 211.15037 34.475295 
L 211.08861 34.483025 
L 211.08861 34.41914 
L 211.08861 34.355212 
L 211.02685 34.36291 
L 210.656292 34.409206 
L 210.656292 34.345106 
L 210.594532 34.224457 
L 210.347492 34.190898 
L 210.347492 34.126535 
L 210.285733 34.134201 
L 209.976933 34.108086 
L 209.976933 34.043524 
L 209.915174 34.051183 
L 209.668134 34.017168 
L 209.606375 33.895267 
L 209.174056 33.883816 
L 209.112296 33.761332 
L 208.432938 33.780038 
L 208.432938 33.71465 
L 208.371178 33.722283 
L 208.185899 33.745213 
L 208.185899 33.679703 
L 208.124139 33.293236 
L 207.259501 33.332887 
L 207.197741 33.208055 
L 206.271344 33.255104 
L 206.271344 33.188488 
L 206.209584 33.196064 
L 205.530226 33.212835 
L 205.530226 33.145885 
L 205.468466 33.153483 
L 205.406707 33.161086 
L 205.406707 33.094049 
L 205.344947 32.900188 
L 204.974388 32.878088 
L 204.974388 32.810677 
L 204.912628 32.818198 
L 203.986231 32.863851 
L 203.986231 32.796014 
L 203.924471 32.803577 
L 203.553912 32.781034 
L 203.553912 32.712956 
L 203.492152 32.720514 
L 203.306873 32.743219 
L 203.306873 32.675008 
L 203.306873 32.60675 
L 203.245113 32.614287 
L 203.121593 32.561006 
L 203.121593 32.492589 
L 203.059833 32.500099 
L 202.565755 32.491711 
L 202.565755 32.423006 
L 202.503995 32.43052 
L 202.133436 32.406814 
L 202.133436 32.337861 
L 202.071676 32.345369 
L 201.762877 32.313859 
L 201.701117 32.113626 
L 201.392318 32.081512 
L 201.392318 32.012005 
L 201.330558 32.019445 
L 201.268798 32.026891 
L 201.268798 31.957291 
L 201.268798 31.887641 
L 201.207039 31.895049 
L 201.021759 31.847514 
L 201.021759 31.777677 
L 200.959999 31.785061 
L 200.157122 31.811333 
L 200.157122 31.741084 
L 200.095362 31.748497 
L 199.848322 31.70779 
L 199.848322 31.637328 
L 199.786563 31.644722 
L 199.601283 31.596334 
L 199.601283 31.52568 
L 199.539523 31.53305 
L 199.292484 31.562584 
L 199.292484 31.491766 
L 199.292484 31.420896 
L 199.230724 31.428247 
L 199.107205 31.371976 
L 199.107205 31.300935 
L 199.045445 31.308256 
L 198.489606 31.303062 
L 198.489606 31.231688 
L 198.427847 31.239016 
L 198.119047 31.20417 
L 198.057288 31.068172 
L 197.933768 31.082768 
L 197.933768 31.010976 
L 197.933768 30.867235 
L 197.872008 30.87447 
L 197.810248 30.881711 
L 197.810248 30.809714 
L 197.810248 30.737666 
L 197.748489 30.744864 
L 197.13089 30.744777 
L 197.13089 30.599893 
L 197.06913 30.607078 
L 196.142733 30.642582 
L 196.142733 30.496606 
L 196.080973 30.503803 
L 195.833934 30.532646 
L 195.833934 30.459455 
L 195.833934 30.386211 
L 195.772174 30.393386 
L 195.648655 30.407752 
L 195.648655 30.33438 
L 195.586895 30.19459 
L 194.784017 30.213715 
L 194.784017 30.139778 
L 194.722257 30.14692 
L 194.413458 30.108568 
L 194.413458 30.03437 
L 194.351698 30.041494 
L 193.919379 30.017057 
L 193.919379 29.942546 
L 193.85762 29.949662 
L 193.054742 30.042662 
L 193.054742 29.967738 
L 193.054742 29.892759 
L 192.992982 29.899899 
L 192.807703 29.921353 
L 192.807703 29.846213 
L 192.745943 29.702849 
L 192.375384 29.669979 
L 192.375384 29.59443 
L 192.313624 29.6015 
L 191.078428 29.667889 
L 191.078428 29.591673 
L 191.016668 29.598804 
L 190.584349 29.572393 
L 190.522589 29.426337 
L 189.904991 29.420635 
L 189.904991 29.343615 
L 189.843231 29.350717 
L 189.596192 29.301965 
L 189.596192 29.22469 
L 189.534432 29.231765 
L 189.102113 29.203892 
L 189.040353 29.05564 
L 188.608035 29.027095 
L 188.608035 28.949078 
L 188.546275 28.956103 
L 188.422755 28.970171 
L 188.422755 28.892009 
L 188.360995 28.742459 
L 188.113956 28.69186 
L 188.113956 28.613312 
L 188.052196 28.620242 
L 187.558118 28.675872 
L 187.558118 28.597008 
L 187.558118 28.518081 
L 187.496358 28.525003 
L 186.94052 28.508271 
L 186.94052 28.428933 
L 186.87876 28.435852 
L 186.508201 28.477484 
L 186.508201 28.397881 
L 186.508201 28.318215 
L 186.446441 28.325115 
L 185.890603 28.307443 
L 185.890603 28.227358 
L 185.828843 28.234255 
L 184.778926 28.27167 
L 184.778926 28.190925 
L 184.717166 28.197863 
L 183.481969 28.256362 
L 183.481969 28.174854 
L 183.42021 28.18185 
L 183.11141 28.216917 
L 183.11141 28.13516 
L 183.11141 27.971446 
L 183.049651 27.978385 
L 182.864371 27.999235 
L 182.864371 27.917155 
L 182.864371 27.835007 
L 182.802611 27.841907 
L 182.370293 27.807903 
L 182.370293 27.725373 
L 182.308533 27.732256 
L 181.011577 27.794833 
L 180.949817 27.634961 
L 180.332218 27.620572 
L 180.270459 27.375453 
L 179.8999 27.332311 
L 179.8999 27.247884 
L 179.83814 27.254708 
L 178.294144 27.341843 
L 178.294144 27.256415 
L 178.232384 27.263324 
L 177.861826 27.219168 
L 177.861826 27.133359 
L 177.800066 27.140243 
L 177.491267 27.174747 
L 177.491267 27.088663 
L 177.491267 27.002505 
L 177.429507 27.009356 
L 176.688389 27.005349 
L 176.688389 26.918599 
L 176.626629 26.925457 
L 175.885511 26.920952 
L 175.885511 26.833601 
L 175.823751 26.840468 
L 174.959114 26.849275 
L 174.959114 26.761245 
L 174.897354 26.768131 
L 173.291599 26.949303 
L 173.291599 26.860227 
L 173.291599 26.771072 
L 173.229839 26.778051 
L 172.674 26.751539 
L 172.674 26.572101 
L 172.612241 26.579032 
L 170.635926 26.71304 
L 170.635926 26.621885 
L 170.574166 26.628948 
L 169.27721 26.686671 
L 169.27721 26.317499 
L 169.21545 26.324509 
L 168.721372 26.287969 
L 168.721372 26.195026 
L 168.659612 26.202015 
L 168.412573 26.136812 
L 168.412573 26.043499 
L 168.350813 26.050442 
L 167.362656 26.068316 
L 167.300896 25.792434 
L 165.077542 25.948863 
L 165.077542 25.852805 
L 165.015782 25.859855 
L 164.706983 25.7988 
L 164.706983 25.702304 
L 164.645223 25.709309 
L 164.212905 25.6616 
L 164.151145 25.474391 
L 163.965865 25.397837 
L 163.965865 25.202792 
L 163.904106 25.209618 
L 162.545389 25.262776 
L 162.545389 25.164002 
L 162.48363 25.170892 
L 161.866031 25.140793 
L 161.866031 25.041332 
L 161.804272 25.048206 
L 160.569075 25.086578 
L 160.569075 24.985958 
L 160.507315 24.992882 
L 160.445555 24.999813 
L 160.445555 24.899001 
L 160.445555 24.798088 
L 160.383796 24.804933 
L 159.086839 24.848206 
L 159.086839 24.746053 
L 159.02508 24.752954 
L 157.419324 24.83128 
L 157.357564 24.630778 
L 156.739966 24.596184 
L 156.739966 24.49165 
L 156.678206 24.498572 
L 155.751809 24.497822 
L 155.751809 24.392262 
L 155.690049 24.399198 
L 155.38125 24.433985 
L 155.38125 24.328008 
L 155.38125 24.221921 
L 155.31949 24.228798 
L 154.763652 24.184289 
L 154.763652 24.077461 
L 154.701892 24.084305 
L 153.837254 24.073143 
L 153.837254 23.965298 
L 153.775495 23.972144 
L 152.725578 23.980711 
L 152.663818 23.76932 
L 151.119822 23.831357 
L 151.119822 23.720519 
L 151.058062 23.727414 
L 149.390547 23.803886 
L 149.390547 23.691201 
L 149.328787 23.698194 
L 148.34063 23.811136 
L 148.34063 23.583392 
L 148.27887 23.590399 
L 147.661272 23.660898 
L 147.661272 23.546177 
L 147.599512 23.55321 
L 146.796635 23.645362 
L 146.734875 23.420848 
L 146.179036 23.484404 
L 146.179036 23.367819 
L 146.117277 23.374859 
L 145.993757 23.388962 
L 145.993757 23.15502 
L 145.931997 23.161958 
L 145.437919 23.217751 
L 145.437919 23.10001 
L 145.376159 23.106957 
L 145.0056 23.148804 
L 144.94384 22.918896 
L 143.832163 23.044 
L 143.832163 22.924166 
L 143.770403 22.931128 
L 142.473447 23.079219 
L 142.473447 22.957776 
L 142.411687 22.964852 
L 142.349927 22.971936 
L 142.349927 22.850214 
L 142.288168 22.857239 
L 142.226408 22.864272 
L 142.226408 22.742269 
L 142.164648 22.749243 
L 141.732329 22.798289 
L 141.732329 22.675591 
L 141.670569 22.682562 
L 140.991211 22.759796 
L 140.991211 22.636116 
L 140.929451 22.643118 
L 140.867692 22.650128 
L 140.867692 22.526159 
L 140.805932 22.533107 
L 140.250093 22.596019 
L 140.250093 22.47119 
L 140.188334 22.478151 
L 139.014897 22.612036 
L 139.014897 22.359022 
L 138.953137 22.366008 
L 138.767858 22.387019 
L 138.767858 22.259983 
L 138.706098 22.26693 
L 137.96498 22.350965 
L 137.96498 22.222801 
L 137.90322 22.229785 
L 136.976823 22.335601 
L 136.976823 22.206057 
L 136.915063 22.213106 
L 136.235705 22.291226 
L 136.235705 22.160588 
L 136.173945 22.167665 
L 134.876989 22.318396 
L 134.876989 22.185843 
L 134.815229 22.193041 
L 134.50643 22.229174 
L 134.50643 22.095963 
L 134.44467 22.103136 
L 133.827072 22.17538 
L 133.827072 22.041094 
L 133.765312 22.048287 
L 133.641792 22.062702 
L 133.641792 21.927992 
L 133.580033 21.93513 
L 133.518273 21.942278 
L 133.518273 21.807224 
L 133.456513 21.814297 
L 133.209474 21.842683 
L 133.209474 21.707032 
L 133.147714 21.714068 
L 133.024194 21.728166 
L 132.962434 21.462712 
L 132.777155 21.483446 
L 132.777155 21.346661 
L 132.715395 21.353504 
L 132.530116 21.37409 
L 132.468356 20.968229 
L 132.344836 20.981494 
L 132.283076 20.711539 
L 131.850757 20.757075 
L 131.850757 20.617878 
L 131.788998 20.624329 
L 131.603718 20.643735 
L 131.603718 20.503993 
L 131.541958 20.51039 
L 128.948046 20.78703 
L 128.948046 20.643127 
L 128.886286 20.649815 
L 128.701007 20.669935 
L 128.701007 20.52545 
L 128.639247 20.532079 
L 128.021648 20.598882 
L 128.021648 20.453132 
L 127.959889 20.459766 
L 127.836369 20.473063 
L 127.836369 20.326814 
L 127.774609 20.333378 
L 127.40405 20.372957 
L 127.40405 20.22581 
L 127.34229 20.23234 
L 125.304216 20.453132 
L 125.304216 20.302308 
L 125.242456 20.309059 
L 125.180697 20.31582 
L 125.180697 20.164568 
L 125.118937 20.171233 
L 123.760221 20.320372 
L 123.760221 20.166438 
L 123.698461 20.173223 
L 123.636701 20.180019 
L 123.636701 20.025638 
L 123.574941 20.032334 
L 122.525024 20.147709 
L 122.525024 19.991098 
L 122.463264 19.997864 
L 122.216225 20.02503 
L 122.216225 19.867618 
L 122.154465 19.874321 
L 121.536867 19.941915 
L 121.536867 19.782999 
L 121.475107 19.789699 
L 120.61047 19.884585 
L 120.61047 19.723663 
L 120.54871 19.7304 
L 119.189994 19.881293 
L 119.189994 19.717332 
L 119.128234 19.724191 
L 118.757675 19.765574 
L 118.757675 19.600485 
L 118.695915 19.607295 
L 116.287282 19.881572 
L 116.287282 19.711042 
L 116.225522 19.718171 
L 115.793204 19.768404 
L 115.731444 19.431298 
L 115.669684 19.438261 
L 115.669684 19.265533 
L 115.607924 19.27237 
L 112.581693 19.621839 
L 112.581693 19.441669 
L 112.519933 19.44896 
L 112.458173 19.456263 
L 112.458173 19.275482 
L 112.396413 19.282647 
L 112.149374 19.311434 
L 112.149374 19.129584 
L 112.087614 19.13666 
L 111.778815 19.172226 
L 111.778815 18.98914 
L 111.717055 18.996136 
L 110.04954 19.189784 
L 110.04954 18.813774 
L 109.98778 18.820801 
L 109.617221 18.863233 
L 109.617221 18.673572 
L 109.555461 18.680523 
L 107.393868 18.932016 
L 107.393868 18.735848 
L 107.332108 18.743099 
L 106.838029 18.801598 
L 106.838029 18.603453 
L 106.776269 18.610647 
L 105.788112 18.727634 
L 105.788112 18.525988 
L 105.726352 18.533232 
L 105.170514 18.599063 
L 105.170514 18.190814 
L 105.108754 18.197817 
L 104.429396 18.275754 
L 104.429396 18.068697 
L 104.367636 18.075668 
L 104.182357 18.096667 
L 104.182357 17.888407 
L 104.120597 17.895235 
L 104.058837 17.902076 
L 104.058837 17.693002 
L 103.997077 17.699656 
L 103.935318 17.706323 
L 103.935318 17.49643 
L 103.873558 17.502908 
L 103.811798 17.509398 
L 103.811798 17.298679 
L 103.750038 17.304979 
L 102.576601 17.427109 
L 102.576601 17.21179 
L 102.514842 17.218136 
L 100.415008 17.441885 
L 100.415008 17.218371 
L 100.353248 17.224966 
L 99.73565 17.291695 
L 99.73565 16.838102 
L 99.67389 16.84438 
L 99.61213 16.850672 
L 99.61213 16.622667 
L 99.55037 16.628733 
L 97.635816 16.823504 
L 97.574056 16.356083 
L 95.227182 16.594166 
L 95.227182 16.346104 
L 95.165423 16.352372 
L 94.671344 16.403053 
L 94.671344 16.151825 
L 94.609584 16.157938 
L 90.718715 16.574603 
L 90.718715 16.302633 
L 90.656956 16.30945 
L 89.915838 16.392639 
L 89.915838 16.115454 
L 89.854078 16.122151 
L 88.804161 16.238737 
L 88.804161 15.954286 
L 88.742401 15.960937 
L 87.630724 16.083785 
L 87.630724 15.791285 
L 87.568964 15.797895 
L 86.519047 15.913117 
L 86.519047 15.612514 
L 86.457288 15.619049 
L 85.77793 15.692168 
L 85.77793 15.385616 
L 85.71617 15.391946 
L 79.416668 16.150082 
L 76.019878 16.678622 
L 76.019878 16.282808 
L 75.958118 16.292702 
L 75.09348 16.435219 
L 75.09348 16.026733 
L 75.03172 16.036439 
L 74.167083 16.176362 
L 74.167083 15.754368 
L 74.105323 15.76384 
L 73.364205 15.880525 
L 73.364205 15.445845 
L 73.302445 15.454956 
L 71.63493 15.715922 
L 71.63493 15.25348 
L 71.57317 15.262748 
L 67.620542 15.953548 
L 67.620542 15.414244 
L 67.558782 15.425478 
L 67.188223 15.494102 
L 67.188223 14.942431 
L 67.126463 14.952673 
L 65.458948 15.250839 
L 65.458948 14.653673 
L 65.397188 14.663938 
L 62.309197 15.262748 
L 62.309197 14.563809 
L 62.247437 14.575535 
L 60.826961 14.868258 
L 60.826961 14.105504 
L 60.765201 14.116638 
L 57.80073 14.764414 
L 57.67721 14.797297 
L 57.67721 13.860271 
L 57.61545 13.872875 
L 55.330337 14.432482 
L 55.330337 13.300171 
L 55.268577 13.31241 
L 52.983464 13.879219 
L 51.315948 14.506316 
L 50.018992 15.221355 
L 49.710193 15.43677 
L 49.710193 13.240868 
L 49.648433 13.264219 
L 48.474997 13.823115 
L 47.548599 14.506316 
L 46.807481 15.348019 
L 46.251643 16.302633 
L 45.757564 17.58831 
L 45.325246 19.362296 
L 44.954687 21.871219 
L 44.645888 25.495219 
L 44.645888 10.999219 
L 44.584128 10.999219 
L 43.78125 10.999219 
L 43.78125 10.999219 
" style="fill:none;stroke:#0000ff;stroke-dasharray:5.55,2.4;stroke-dashoffset:0;stroke-width:1.5;"/>
   </g>
   <g id="patch_3">
    <path d="M 43.78125 228.439219 
L 43.78125 10.999219 
" style="fill:none;stroke:#000000;stroke-linecap:square;stroke-linejoin:miter;stroke-width:0.8;"/>
   </g>
   <g id="patch_4">
    <path d="M 378.58125 228.439219 
L 378.58125 10.999219 
" style="fill:none;stroke:#000000;stroke-linecap:square;stroke-linejoin:miter;stroke-width:0.8;"/>
   </g>
   <g id="patch_5">
    <path d="M 43.78125 228.439219 
L 378.58125 228.439219 
" style="fill:none;stroke:#000000;stroke-linecap:square;stroke-linejoin:miter;stroke-width:0.8;"/>
   </g>
   <g id="patch_6">
    <path d="M 43.78125 10.999219 
L 378.58125 10.999219 
" style="fill:none;stroke:#000000;stroke-linecap:square;stroke-linejoin:miter;stroke-width:0.8;"/>
   </g>
   <g id="legend_1">
    <g id="patch_7">
     <path d="M 50.78125 223.439219 
L 158.032813 223.439219 
Q 160.032813 223.439219 160.032813 221.439219 
L 160.032813 193.082969 
Q 160.032813 191.082969 158.032813 191.082969 
L 50.78125 191.082969 
Q 48.78125 191.082969 48.78125 193.082969 
L 48.78125 221.439219 
Q 48.78125 223.439219 50.78125 223.439219 
z
" style="fill:#ffffff;opacity:0.8;stroke:#cccccc;stroke-linejoin:miter;"/>
    </g>
    <g id="line2d_15">
     <path d="M 52.78125 199.181406 
L 72.78125 199.181406 
" style="fill:none;stroke:#ff0000;stroke-linecap:square;stroke-width:1.5;"/>
    </g>
    <g id="line2d_16"/>
    <g id="text_15">
     <!-- Random Forest -->
     <defs>
      <path d="M 44.390625 34.1875 
Q 47.5625 33.109375 50.5625 29.59375 
Q 53.5625 26.078125 56.59375 19.921875 
L 66.609375 0 
L 56 0 
L 46.6875 18.703125 
Q 43.0625 26.03125 39.671875 28.421875 
Q 36.28125 30.8125 30.421875 30.8125 
L 19.671875 30.8125 
L 19.671875 0 
L 9.8125 0 
L 9.8125 72.90625 
L 32.078125 72.90625 
Q 44.578125 72.90625 50.734375 67.671875 
Q 56.890625 62.453125 56.890625 51.90625 
Q 56.890625 45.015625 53.6875 40.46875 
Q 50.484375 35.9375 44.390625 34.1875 
z
M 19.671875 64.796875 
L 19.671875 38.921875 
L 32.078125 38.921875 
Q 39.203125 38.921875 42.84375 42.21875 
Q 46.484375 45.515625 46.484375 51.90625 
Q 46.484375 58.296875 42.84375 61.546875 
Q 39.203125 64.796875 32.078125 64.796875 
z
" id="DejaVuSans-82"/>
      <path d="M 45.40625 46.390625 
L 45.40625 75.984375 
L 54.390625 75.984375 
L 54.390625 0 
L 45.40625 0 
L 45.40625 8.203125 
Q 42.578125 3.328125 38.25 0.953125 
Q 33.9375 -1.421875 27.875 -1.421875 
Q 17.96875 -1.421875 11.734375 6.484375 
Q 5.515625 14.40625 5.515625 27.296875 
Q 5.515625 40.1875 11.734375 48.09375 
Q 17.96875 56 27.875 56 
Q 33.9375 56 38.25 53.625 
Q 42.578125 51.265625 45.40625 46.390625 
z
M 14.796875 27.296875 
Q 14.796875 17.390625 18.875 11.75 
Q 22.953125 6.109375 30.078125 6.109375 
Q 37.203125 6.109375 41.296875 11.75 
Q 45.40625 17.390625 45.40625 27.296875 
Q 45.40625 37.203125 41.296875 42.84375 
Q 37.203125 48.484375 30.078125 48.484375 
Q 22.953125 48.484375 18.875 42.84375 
Q 14.796875 37.203125 14.796875 27.296875 
z
" id="DejaVuSans-100"/>
      <path d="M 52 44.1875 
Q 55.375 50.25 60.0625 53.125 
Q 64.75 56 71.09375 56 
Q 79.640625 56 84.28125 50.015625 
Q 88.921875 44.046875 88.921875 33.015625 
L 88.921875 0 
L 79.890625 0 
L 79.890625 32.71875 
Q 79.890625 40.578125 77.09375 44.375 
Q 74.3125 48.1875 68.609375 48.1875 
Q 61.625 48.1875 57.5625 43.546875 
Q 53.515625 38.921875 53.515625 30.90625 
L 53.515625 0 
L 44.484375 0 
L 44.484375 32.71875 
Q 44.484375 40.625 41.703125 44.40625 
Q 38.921875 48.1875 33.109375 48.1875 
Q 26.21875 48.1875 22.15625 43.53125 
Q 18.109375 38.875 18.109375 30.90625 
L 18.109375 0 
L 9.078125 0 
L 9.078125 54.6875 
L 18.109375 54.6875 
L 18.109375 46.1875 
Q 21.1875 51.21875 25.484375 53.609375 
Q 29.78125 56 35.6875 56 
Q 41.65625 56 45.828125 52.96875 
Q 50 49.953125 52 44.1875 
z
" id="DejaVuSans-109"/>
      <path id="DejaVuSans-32"/>
      <path d="M 9.8125 72.90625 
L 51.703125 72.90625 
L 51.703125 64.59375 
L 19.671875 64.59375 
L 19.671875 43.109375 
L 48.578125 43.109375 
L 48.578125 34.8125 
L 19.671875 34.8125 
L 19.671875 0 
L 9.8125 0 
z
" id="DejaVuSans-70"/>
      <path d="M 18.3125 70.21875 
L 18.3125 54.6875 
L 36.8125 54.6875 
L 36.8125 47.703125 
L 18.3125 47.703125 
L 18.3125 18.015625 
Q 18.3125 11.328125 20.140625 9.421875 
Q 21.96875 7.515625 27.59375 7.515625 
L 36.8125 7.515625 
L 36.8125 0 
L 27.59375 0 
Q 17.1875 0 13.234375 3.875 
Q 9.28125 7.765625 9.28125 18.015625 
L 9.28125 47.703125 
L 2.6875 47.703125 
L 2.6875 54.6875 
L 9.28125 54.6875 
L 9.28125 70.21875 
z
" id="DejaVuSans-116"/>
     </defs>
     <g transform="translate(80.78125 202.681406)scale(0.1 -0.1)">
      <use xlink:href="#DejaVuSans-82"/>
      <use x="67.232422" xlink:href="#DejaVuSans-97"/>
      <use x="128.511719" xlink:href="#DejaVuSans-110"/>
      <use x="191.890625" xlink:href="#DejaVuSans-100"/>
      <use x="255.367188" xlink:href="#DejaVuSans-111"/>
      <use x="316.548828" xlink:href="#DejaVuSans-109"/>
      <use x="413.960938" xlink:href="#DejaVuSans-32"/>
      <use x="445.748047" xlink:href="#DejaVuSans-70"/>
      <use x="499.642578" xlink:href="#DejaVuSans-111"/>
      <use x="560.824219" xlink:href="#DejaVuSans-114"/>
      <use x="599.6875" xlink:href="#DejaVuSans-101"/>
      <use x="661.210938" xlink:href="#DejaVuSans-115"/>
      <use x="713.310547" xlink:href="#DejaVuSans-116"/>
     </g>
    </g>
    <g id="line2d_17">
     <path d="M 52.78125 213.859531 
L 72.78125 213.859531 
" style="fill:none;stroke:#0000ff;stroke-dasharray:5.55,2.4;stroke-dashoffset:0;stroke-width:1.5;"/>
    </g>
    <g id="line2d_18"/>
    <g id="text_16">
     <!-- SGD -->
     <defs>
      <path d="M 53.515625 70.515625 
L 53.515625 60.890625 
Q 47.90625 63.578125 42.921875 64.890625 
Q 37.9375 66.21875 33.296875 66.21875 
Q 25.25 66.21875 20.875 63.09375 
Q 16.5 59.96875 16.5 54.203125 
Q 16.5 49.359375 19.40625 46.890625 
Q 22.3125 44.4375 30.421875 42.921875 
L 36.375 41.703125 
Q 47.40625 39.59375 52.65625 34.296875 
Q 57.90625 29 57.90625 20.125 
Q 57.90625 9.515625 50.796875 4.046875 
Q 43.703125 -1.421875 29.984375 -1.421875 
Q 24.8125 -1.421875 18.96875 -0.25 
Q 13.140625 0.921875 6.890625 3.21875 
L 6.890625 13.375 
Q 12.890625 10.015625 18.65625 8.296875 
Q 24.421875 6.59375 29.984375 6.59375 
Q 38.421875 6.59375 43.015625 9.90625 
Q 47.609375 13.234375 47.609375 19.390625 
Q 47.609375 24.75 44.3125 27.78125 
Q 41.015625 30.8125 33.5 32.328125 
L 27.484375 33.5 
Q 16.453125 35.6875 11.515625 40.375 
Q 6.59375 45.0625 6.59375 53.421875 
Q 6.59375 63.09375 13.40625 68.65625 
Q 20.21875 74.21875 32.171875 74.21875 
Q 37.3125 74.21875 42.625 73.28125 
Q 47.953125 72.359375 53.515625 70.515625 
z
" id="DejaVuSans-83"/>
      <path d="M 59.515625 10.40625 
L 59.515625 29.984375 
L 43.40625 29.984375 
L 43.40625 38.09375 
L 69.28125 38.09375 
L 69.28125 6.78125 
Q 63.578125 2.734375 56.6875 0.65625 
Q 49.8125 -1.421875 42 -1.421875 
Q 24.90625 -1.421875 15.25 8.5625 
Q 5.609375 18.5625 5.609375 36.375 
Q 5.609375 54.25 15.25 64.234375 
Q 24.90625 74.21875 42 74.21875 
Q 49.125 74.21875 55.546875 72.453125 
Q 61.96875 70.703125 67.390625 67.28125 
L 67.390625 56.78125 
Q 61.921875 61.421875 55.765625 63.765625 
Q 49.609375 66.109375 42.828125 66.109375 
Q 29.4375 66.109375 22.71875 58.640625 
Q 16.015625 51.171875 16.015625 36.375 
Q 16.015625 21.625 22.71875 14.15625 
Q 29.4375 6.6875 42.828125 6.6875 
Q 48.046875 6.6875 52.140625 7.59375 
Q 56.25 8.5 59.515625 10.40625 
z
" id="DejaVuSans-71"/>
      <path d="M 19.671875 64.796875 
L 19.671875 8.109375 
L 31.59375 8.109375 
Q 46.6875 8.109375 53.6875 14.9375 
Q 60.6875 21.78125 60.6875 36.53125 
Q 60.6875 51.171875 53.6875 57.984375 
Q 46.6875 64.796875 31.59375 64.796875 
z
M 9.8125 72.90625 
L 30.078125 72.90625 
Q 51.265625 72.90625 61.171875 64.09375 
Q 71.09375 55.28125 71.09375 36.53125 
Q 71.09375 17.671875 61.125 8.828125 
Q 51.171875 0 30.078125 0 
L 9.8125 0 
z
" id="DejaVuSans-68"/>
     </defs>
     <g transform="translate(80.78125 217.359531)scale(0.1 -0.1)">
      <use xlink:href="#DejaVuSans-83"/>
      <use x="63.476562" xlink:href="#DejaVuSans-71"/>
      <use x="140.966797" xlink:href="#DejaVuSans-68"/>
     </g>
    </g>
   </g>
  </g>
 </g>
 <defs>
  <clipPath id="p69e317d92a">
   <rect height="217.44" width="334.8" x="43.78125" y="10.999219"/>
  </clipPath>
 </defs>
</svg>
