<?xml version="1.0" encoding="utf-8" standalone="no"?>
<!DOCTYPE svg PUBLIC "-//W3C//DTD SVG 1.1//EN"
  "http://www.w3.org/Graphics/SVG/1.1/DTD/svg11.dtd">
<!-- Created with matplotlib (https://matplotlib.org/) -->
<svg height="265.995469pt" version="1.1" viewBox="0 0 393.732813 265.995469" width="393.732813pt" xmlns="http://www.w3.org/2000/svg" xmlns:xlink="http://www.w3.org/1999/xlink">
 <defs>
  <style type="text/css">
*{stroke-linecap:butt;stroke-linejoin:round;}
  </style>
 </defs>
 <g id="figure_1">
  <g id="patch_1">
   <path d="M 0 265.995469 
L 393.732813 265.995469 
L 393.732813 0 
L 0 0 
z
" style="fill:none;"/>
  </g>
  <g id="axes_1">
   <g id="patch_2">
    <path d="M 43.78125 228.439219 
L 378.58125 228.439219 
L 378.58125 10.999219 
L 43.78125 10.999219 
z
" style="fill:#ffffff;"/>
   </g>
   <g id="matplotlib.axis_1">
    <g id="xtick_1">
     <g id="line2d_1">
      <defs>
       <path d="M 0 0 
L 0 3.5 
" id="mff38e6088c" style="stroke:#000000;stroke-width:0.8;"/>
      </defs>
      <g>
       <use style="stroke:#000000;stroke-width:0.8;" x="43.78125" xlink:href="#mff38e6088c" y="228.439219"/>
      </g>
     </g>
     <g id="text_1">
      <!-- 0.0 -->
      <defs>
       <path d="M 31.78125 66.40625 
Q 24.171875 66.40625 20.328125 58.90625 
Q 16.5 51.421875 16.5 36.375 
Q 16.5 21.390625 20.328125 13.890625 
Q 24.171875 6.390625 31.78125 6.390625 
Q 39.453125 6.390625 43.28125 13.890625 
Q 47.125 21.390625 47.125 36.375 
Q 47.125 51.421875 43.28125 58.90625 
Q 39.453125 66.40625 31.78125 66.40625 
z
M 31.78125 74.21875 
Q 44.046875 74.21875 50.515625 64.515625 
Q 56.984375 54.828125 56.984375 36.375 
Q 56.984375 17.96875 50.515625 8.265625 
Q 44.046875 -1.421875 31.78125 -1.421875 
Q 19.53125 -1.421875 13.0625 8.265625 
Q 6.59375 17.96875 6.59375 36.375 
Q 6.59375 54.828125 13.0625 64.515625 
Q 19.53125 74.21875 31.78125 74.21875 
z
" id="DejaVuSans-48"/>
       <path d="M 10.6875 12.40625 
L 21 12.40625 
L 21 0 
L 10.6875 0 
z
" id="DejaVuSans-46"/>
      </defs>
      <g transform="translate(35.829688 243.037656)scale(0.1 -0.1)">
       <use xlink:href="#DejaVuSans-48"/>
       <use x="63.623047" xlink:href="#DejaVuSans-46"/>
       <use x="95.410156" xlink:href="#DejaVuSans-48"/>
      </g>
     </g>
    </g>
    <g id="xtick_2">
     <g id="line2d_2">
      <g>
       <use style="stroke:#000000;stroke-width:0.8;" x="110.74125" xlink:href="#mff38e6088c" y="228.439219"/>
      </g>
     </g>
     <g id="text_2">
      <!-- 0.2 -->
      <defs>
       <path d="M 19.1875 8.296875 
L 53.609375 8.296875 
L 53.609375 0 
L 7.328125 0 
L 7.328125 8.296875 
Q 12.9375 14.109375 22.625 23.890625 
Q 32.328125 33.6875 34.8125 36.53125 
Q 39.546875 41.84375 41.421875 45.53125 
Q 43.3125 49.21875 43.3125 52.78125 
Q 43.3125 58.59375 39.234375 62.25 
Q 35.15625 65.921875 28.609375 65.921875 
Q 23.96875 65.921875 18.8125 64.3125 
Q 13.671875 62.703125 7.8125 59.421875 
L 7.8125 69.390625 
Q 13.765625 71.78125 18.9375 73 
Q 24.125 74.21875 28.421875 74.21875 
Q 39.75 74.21875 46.484375 68.546875 
Q 53.21875 62.890625 53.21875 53.421875 
Q 53.21875 48.921875 51.53125 44.890625 
Q 49.859375 40.875 45.40625 35.40625 
Q 44.1875 33.984375 37.640625 27.21875 
Q 31.109375 20.453125 19.1875 8.296875 
z
" id="DejaVuSans-50"/>
      </defs>
      <g transform="translate(102.789688 243.037656)scale(0.1 -0.1)">
       <use xlink:href="#DejaVuSans-48"/>
       <use x="63.623047" xlink:href="#DejaVuSans-46"/>
       <use x="95.410156" xlink:href="#DejaVuSans-50"/>
      </g>
     </g>
    </g>
    <g id="xtick_3">
     <g id="line2d_3">
      <g>
       <use style="stroke:#000000;stroke-width:0.8;" x="177.70125" xlink:href="#mff38e6088c" y="228.439219"/>
      </g>
     </g>
     <g id="text_3">
      <!-- 0.4 -->
      <defs>
       <path d="M 37.796875 64.3125 
L 12.890625 25.390625 
L 37.796875 25.390625 
z
M 35.203125 72.90625 
L 47.609375 72.90625 
L 47.609375 25.390625 
L 58.015625 25.390625 
L 58.015625 17.1875 
L 47.609375 17.1875 
L 47.609375 0 
L 37.796875 0 
L 37.796875 17.1875 
L 4.890625 17.1875 
L 4.890625 26.703125 
z
" id="DejaVuSans-52"/>
      </defs>
      <g transform="translate(169.749688 243.037656)scale(0.1 -0.1)">
       <use xlink:href="#DejaVuSans-48"/>
       <use x="63.623047" xlink:href="#DejaVuSans-46"/>
       <use x="95.410156" xlink:href="#DejaVuSans-52"/>
      </g>
     </g>
    </g>
    <g id="xtick_4">
     <g id="line2d_4">
      <g>
       <use style="stroke:#000000;stroke-width:0.8;" x="244.66125" xlink:href="#mff38e6088c" y="228.439219"/>
      </g>
     </g>
     <g id="text_4">
      <!-- 0.6 -->
      <defs>
       <path d="M 33.015625 40.375 
Q 26.375 40.375 22.484375 35.828125 
Q 18.609375 31.296875 18.609375 23.390625 
Q 18.609375 15.53125 22.484375 10.953125 
Q 26.375 6.390625 33.015625 6.390625 
Q 39.65625 6.390625 43.53125 10.953125 
Q 47.40625 15.53125 47.40625 23.390625 
Q 47.40625 31.296875 43.53125 35.828125 
Q 39.65625 40.375 33.015625 40.375 
z
M 52.59375 71.296875 
L 52.59375 62.3125 
Q 48.875 64.0625 45.09375 64.984375 
Q 41.3125 65.921875 37.59375 65.921875 
Q 27.828125 65.921875 22.671875 59.328125 
Q 17.53125 52.734375 16.796875 39.40625 
Q 19.671875 43.65625 24.015625 45.921875 
Q 28.375 48.1875 33.59375 48.1875 
Q 44.578125 48.1875 50.953125 41.515625 
Q 57.328125 34.859375 57.328125 23.390625 
Q 57.328125 12.15625 50.6875 5.359375 
Q 44.046875 -1.421875 33.015625 -1.421875 
Q 20.359375 -1.421875 13.671875 8.265625 
Q 6.984375 17.96875 6.984375 36.375 
Q 6.984375 53.65625 15.1875 63.9375 
Q 23.390625 74.21875 37.203125 74.21875 
Q 40.921875 74.21875 44.703125 73.484375 
Q 48.484375 72.75 52.59375 71.296875 
z
" id="DejaVuSans-54"/>
      </defs>
      <g transform="translate(236.709688 243.037656)scale(0.1 -0.1)">
       <use xlink:href="#DejaVuSans-48"/>
       <use x="63.623047" xlink:href="#DejaVuSans-46"/>
       <use x="95.410156" xlink:href="#DejaVuSans-54"/>
      </g>
     </g>
    </g>
    <g id="xtick_5">
     <g id="line2d_5">
      <g>
       <use style="stroke:#000000;stroke-width:0.8;" x="311.62125" xlink:href="#mff38e6088c" y="228.439219"/>
      </g>
     </g>
     <g id="text_5">
      <!-- 0.8 -->
      <defs>
       <path d="M 31.78125 34.625 
Q 24.75 34.625 20.71875 30.859375 
Q 16.703125 27.09375 16.703125 20.515625 
Q 16.703125 13.921875 20.71875 10.15625 
Q 24.75 6.390625 31.78125 6.390625 
Q 38.8125 6.390625 42.859375 10.171875 
Q 46.921875 13.96875 46.921875 20.515625 
Q 46.921875 27.09375 42.890625 30.859375 
Q 38.875 34.625 31.78125 34.625 
z
M 21.921875 38.8125 
Q 15.578125 40.375 12.03125 44.71875 
Q 8.5 49.078125 8.5 55.328125 
Q 8.5 64.0625 14.71875 69.140625 
Q 20.953125 74.21875 31.78125 74.21875 
Q 42.671875 74.21875 48.875 69.140625 
Q 55.078125 64.0625 55.078125 55.328125 
Q 55.078125 49.078125 51.53125 44.71875 
Q 48 40.375 41.703125 38.8125 
Q 48.828125 37.15625 52.796875 32.3125 
Q 56.78125 27.484375 56.78125 20.515625 
Q 56.78125 9.90625 50.3125 4.234375 
Q 43.84375 -1.421875 31.78125 -1.421875 
Q 19.734375 -1.421875 13.25 4.234375 
Q 6.78125 9.90625 6.78125 20.515625 
Q 6.78125 27.484375 10.78125 32.3125 
Q 14.796875 37.15625 21.921875 38.8125 
z
M 18.3125 54.390625 
Q 18.3125 48.734375 21.84375 45.5625 
Q 25.390625 42.390625 31.78125 42.390625 
Q 38.140625 42.390625 41.71875 45.5625 
Q 45.3125 48.734375 45.3125 54.390625 
Q 45.3125 60.0625 41.71875 63.234375 
Q 38.140625 66.40625 31.78125 66.40625 
Q 25.390625 66.40625 21.84375 63.234375 
Q 18.3125 60.0625 18.3125 54.390625 
z
" id="DejaVuSans-56"/>
      </defs>
      <g transform="translate(303.669688 243.037656)scale(0.1 -0.1)">
       <use xlink:href="#DejaVuSans-48"/>
       <use x="63.623047" xlink:href="#DejaVuSans-46"/>
       <use x="95.410156" xlink:href="#DejaVuSans-56"/>
      </g>
     </g>
    </g>
    <g id="xtick_6">
     <g id="line2d_6">
      <g>
       <use style="stroke:#000000;stroke-width:0.8;" x="378.58125" xlink:href="#mff38e6088c" y="228.439219"/>
      </g>
     </g>
     <g id="text_6">
      <!-- 1.0 -->
      <defs>
       <path d="M 12.40625 8.296875 
L 28.515625 8.296875 
L 28.515625 63.921875 
L 10.984375 60.40625 
L 10.984375 69.390625 
L 28.421875 72.90625 
L 38.28125 72.90625 
L 38.28125 8.296875 
L 54.390625 8.296875 
L 54.390625 0 
L 12.40625 0 
z
" id="DejaVuSans-49"/>
      </defs>
      <g transform="translate(370.629687 243.037656)scale(0.1 -0.1)">
       <use xlink:href="#DejaVuSans-49"/>
       <use x="63.623047" xlink:href="#DejaVuSans-46"/>
       <use x="95.410156" xlink:href="#DejaVuSans-48"/>
      </g>
     </g>
    </g>
    <g id="text_7">
     <!-- False Positive Rate -->
     <defs>
      <path d="M 9.8125 72.90625 
L 51.703125 72.90625 
L 51.703125 64.59375 
L 19.671875 64.59375 
L 19.671875 43.109375 
L 48.578125 43.109375 
L 48.578125 34.8125 
L 19.671875 34.8125 
L 19.671875 0 
L 9.8125 0 
z
" id="DejaVuSans-70"/>
      <path d="M 34.28125 27.484375 
Q 23.390625 27.484375 19.1875 25 
Q 14.984375 22.515625 14.984375 16.5 
Q 14.984375 11.71875 18.140625 8.90625 
Q 21.296875 6.109375 26.703125 6.109375 
Q 34.1875 6.109375 38.703125 11.40625 
Q 43.21875 16.703125 43.21875 25.484375 
L 43.21875 27.484375 
z
M 52.203125 31.203125 
L 52.203125 0 
L 43.21875 0 
L 43.21875 8.296875 
Q 40.140625 3.328125 35.546875 0.953125 
Q 30.953125 -1.421875 24.3125 -1.421875 
Q 15.921875 -1.421875 10.953125 3.296875 
Q 6 8.015625 6 15.921875 
Q 6 25.140625 12.171875 29.828125 
Q 18.359375 34.515625 30.609375 34.515625 
L 43.21875 34.515625 
L 43.21875 35.40625 
Q 43.21875 41.609375 39.140625 45 
Q 35.0625 48.390625 27.6875 48.390625 
Q 23 48.390625 18.546875 47.265625 
Q 14.109375 46.140625 10.015625 43.890625 
L 10.015625 52.203125 
Q 14.9375 54.109375 19.578125 55.046875 
Q 24.21875 56 28.609375 56 
Q 40.484375 56 46.34375 49.84375 
Q 52.203125 43.703125 52.203125 31.203125 
z
" id="DejaVuSans-97"/>
      <path d="M 9.421875 75.984375 
L 18.40625 75.984375 
L 18.40625 0 
L 9.421875 0 
z
" id="DejaVuSans-108"/>
      <path d="M 44.28125 53.078125 
L 44.28125 44.578125 
Q 40.484375 46.53125 36.375 47.5 
Q 32.28125 48.484375 27.875 48.484375 
Q 21.1875 48.484375 17.84375 46.4375 
Q 14.5 44.390625 14.5 40.28125 
Q 14.5 37.15625 16.890625 35.375 
Q 19.28125 33.59375 26.515625 31.984375 
L 29.59375 31.296875 
Q 39.15625 29.25 43.1875 25.515625 
Q 47.21875 21.78125 47.21875 15.09375 
Q 47.21875 7.46875 41.1875 3.015625 
Q 35.15625 -1.421875 24.609375 -1.421875 
Q 20.21875 -1.421875 15.453125 -0.5625 
Q 10.6875 0.296875 5.421875 2 
L 5.421875 11.28125 
Q 10.40625 8.6875 15.234375 7.390625 
Q 20.0625 6.109375 24.8125 6.109375 
Q 31.15625 6.109375 34.5625 8.28125 
Q 37.984375 10.453125 37.984375 14.40625 
Q 37.984375 18.0625 35.515625 20.015625 
Q 33.0625 21.96875 24.703125 23.78125 
L 21.578125 24.515625 
Q 13.234375 26.265625 9.515625 29.90625 
Q 5.8125 33.546875 5.8125 39.890625 
Q 5.8125 47.609375 11.28125 51.796875 
Q 16.75 56 26.8125 56 
Q 31.78125 56 36.171875 55.265625 
Q 40.578125 54.546875 44.28125 53.078125 
z
" id="DejaVuSans-115"/>
      <path d="M 56.203125 29.59375 
L 56.203125 25.203125 
L 14.890625 25.203125 
Q 15.484375 15.921875 20.484375 11.0625 
Q 25.484375 6.203125 34.421875 6.203125 
Q 39.59375 6.203125 44.453125 7.46875 
Q 49.3125 8.734375 54.109375 11.28125 
L 54.109375 2.78125 
Q 49.265625 0.734375 44.1875 -0.34375 
Q 39.109375 -1.421875 33.890625 -1.421875 
Q 20.796875 -1.421875 13.15625 6.1875 
Q 5.515625 13.8125 5.515625 26.8125 
Q 5.515625 40.234375 12.765625 48.109375 
Q 20.015625 56 32.328125 56 
Q 43.359375 56 49.78125 48.890625 
Q 56.203125 41.796875 56.203125 29.59375 
z
M 47.21875 32.234375 
Q 47.125 39.59375 43.09375 43.984375 
Q 39.0625 48.390625 32.421875 48.390625 
Q 24.90625 48.390625 20.390625 44.140625 
Q 15.875 39.890625 15.1875 32.171875 
z
" id="DejaVuSans-101"/>
      <path id="DejaVuSans-32"/>
      <path d="M 19.671875 64.796875 
L 19.671875 37.40625 
L 32.078125 37.40625 
Q 38.96875 37.40625 42.71875 40.96875 
Q 46.484375 44.53125 46.484375 51.125 
Q 46.484375 57.671875 42.71875 61.234375 
Q 38.96875 64.796875 32.078125 64.796875 
z
M 9.8125 72.90625 
L 32.078125 72.90625 
Q 44.34375 72.90625 50.609375 67.359375 
Q 56.890625 61.8125 56.890625 51.125 
Q 56.890625 40.328125 50.609375 34.8125 
Q 44.34375 29.296875 32.078125 29.296875 
L 19.671875 29.296875 
L 19.671875 0 
L 9.8125 0 
z
" id="DejaVuSans-80"/>
      <path d="M 30.609375 48.390625 
Q 23.390625 48.390625 19.1875 42.75 
Q 14.984375 37.109375 14.984375 27.296875 
Q 14.984375 17.484375 19.15625 11.84375 
Q 23.34375 6.203125 30.609375 6.203125 
Q 37.796875 6.203125 41.984375 11.859375 
Q 46.1875 17.53125 46.1875 27.296875 
Q 46.1875 37.015625 41.984375 42.703125 
Q 37.796875 48.390625 30.609375 48.390625 
z
M 30.609375 56 
Q 42.328125 56 49.015625 48.375 
Q 55.71875 40.765625 55.71875 27.296875 
Q 55.71875 13.875 49.015625 6.21875 
Q 42.328125 -1.421875 30.609375 -1.421875 
Q 18.84375 -1.421875 12.171875 6.21875 
Q 5.515625 13.875 5.515625 27.296875 
Q 5.515625 40.765625 12.171875 48.375 
Q 18.84375 56 30.609375 56 
z
" id="DejaVuSans-111"/>
      <path d="M 9.421875 54.6875 
L 18.40625 54.6875 
L 18.40625 0 
L 9.421875 0 
z
M 9.421875 75.984375 
L 18.40625 75.984375 
L 18.40625 64.59375 
L 9.421875 64.59375 
z
" id="DejaVuSans-105"/>
      <path d="M 18.3125 70.21875 
L 18.3125 54.6875 
L 36.8125 54.6875 
L 36.8125 47.703125 
L 18.3125 47.703125 
L 18.3125 18.015625 
Q 18.3125 11.328125 20.140625 9.421875 
Q 21.96875 7.515625 27.59375 7.515625 
L 36.8125 7.515625 
L 36.8125 0 
L 27.59375 0 
Q 17.1875 0 13.234375 3.875 
Q 9.28125 7.765625 9.28125 18.015625 
L 9.28125 47.703125 
L 2.6875 47.703125 
L 2.6875 54.6875 
L 9.28125 54.6875 
L 9.28125 70.21875 
z
" id="DejaVuSans-116"/>
      <path d="M 2.984375 54.6875 
L 12.5 54.6875 
L 29.59375 8.796875 
L 46.6875 54.6875 
L 56.203125 54.6875 
L 35.6875 0 
L 23.484375 0 
z
" id="DejaVuSans-118"/>
      <path d="M 44.390625 34.1875 
Q 47.5625 33.109375 50.5625 29.59375 
Q 53.5625 26.078125 56.59375 19.921875 
L 66.609375 0 
L 56 0 
L 46.6875 18.703125 
Q 43.0625 26.03125 39.671875 28.421875 
Q 36.28125 30.8125 30.421875 30.8125 
L 19.671875 30.8125 
L 19.671875 0 
L 9.8125 0 
L 9.8125 72.90625 
L 32.078125 72.90625 
Q 44.578125 72.90625 50.734375 67.671875 
Q 56.890625 62.453125 56.890625 51.90625 
Q 56.890625 45.015625 53.6875 40.46875 
Q 50.484375 35.9375 44.390625 34.1875 
z
M 19.671875 64.796875 
L 19.671875 38.921875 
L 32.078125 38.921875 
Q 39.203125 38.921875 42.84375 42.21875 
Q 46.484375 45.515625 46.484375 51.90625 
Q 46.484375 58.296875 42.84375 61.546875 
Q 39.203125 64.796875 32.078125 64.796875 
z
" id="DejaVuSans-82"/>
     </defs>
     <g transform="translate(164.714844 256.715781)scale(0.1 -0.1)">
      <use xlink:href="#DejaVuSans-70"/>
      <use x="48.394531" xlink:href="#DejaVuSans-97"/>
      <use x="109.673828" xlink:href="#DejaVuSans-108"/>
      <use x="137.457031" xlink:href="#DejaVuSans-115"/>
      <use x="189.556641" xlink:href="#DejaVuSans-101"/>
      <use x="251.080078" xlink:href="#DejaVuSans-32"/>
      <use x="282.867188" xlink:href="#DejaVuSans-80"/>
      <use x="339.544922" xlink:href="#DejaVuSans-111"/>
      <use x="400.726562" xlink:href="#DejaVuSans-115"/>
      <use x="452.826172" xlink:href="#DejaVuSans-105"/>
      <use x="480.609375" xlink:href="#DejaVuSans-116"/>
      <use x="519.818359" xlink:href="#DejaVuSans-105"/>
      <use x="547.601562" xlink:href="#DejaVuSans-118"/>
      <use x="606.78125" xlink:href="#DejaVuSans-101"/>
      <use x="668.304688" xlink:href="#DejaVuSans-32"/>
      <use x="700.091797" xlink:href="#DejaVuSans-82"/>
      <use x="767.324219" xlink:href="#DejaVuSans-97"/>
      <use x="828.603516" xlink:href="#DejaVuSans-116"/>
      <use x="867.8125" xlink:href="#DejaVuSans-101"/>
     </g>
    </g>
   </g>
   <g id="matplotlib.axis_2">
    <g id="ytick_1">
     <g id="line2d_7">
      <defs>
       <path d="M 0 0 
L -3.5 0 
" id="mc9ebf7bcbc" style="stroke:#000000;stroke-width:0.8;"/>
      </defs>
      <g>
       <use style="stroke:#000000;stroke-width:0.8;" x="43.78125" xlink:href="#mc9ebf7bcbc" y="228.439219"/>
      </g>
     </g>
     <g id="text_8">
      <!-- 0.0 -->
      <g transform="translate(20.878125 232.238437)scale(0.1 -0.1)">
       <use xlink:href="#DejaVuSans-48"/>
       <use x="63.623047" xlink:href="#DejaVuSans-46"/>
       <use x="95.410156" xlink:href="#DejaVuSans-48"/>
      </g>
     </g>
    </g>
    <g id="ytick_2">
     <g id="line2d_8">
      <g>
       <use style="stroke:#000000;stroke-width:0.8;" x="43.78125" xlink:href="#mc9ebf7bcbc" y="184.951219"/>
      </g>
     </g>
     <g id="text_9">
      <!-- 0.2 -->
      <g transform="translate(20.878125 188.750437)scale(0.1 -0.1)">
       <use xlink:href="#DejaVuSans-48"/>
       <use x="63.623047" xlink:href="#DejaVuSans-46"/>
       <use x="95.410156" xlink:href="#DejaVuSans-50"/>
      </g>
     </g>
    </g>
    <g id="ytick_3">
     <g id="line2d_9">
      <g>
       <use style="stroke:#000000;stroke-width:0.8;" x="43.78125" xlink:href="#mc9ebf7bcbc" y="141.463219"/>
      </g>
     </g>
     <g id="text_10">
      <!-- 0.4 -->
      <g transform="translate(20.878125 145.262437)scale(0.1 -0.1)">
       <use xlink:href="#DejaVuSans-48"/>
       <use x="63.623047" xlink:href="#DejaVuSans-46"/>
       <use x="95.410156" xlink:href="#DejaVuSans-52"/>
      </g>
     </g>
    </g>
    <g id="ytick_4">
     <g id="line2d_10">
      <g>
       <use style="stroke:#000000;stroke-width:0.8;" x="43.78125" xlink:href="#mc9ebf7bcbc" y="97.975219"/>
      </g>
     </g>
     <g id="text_11">
      <!-- 0.6 -->
      <g transform="translate(20.878125 101.774437)scale(0.1 -0.1)">
       <use xlink:href="#DejaVuSans-48"/>
       <use x="63.623047" xlink:href="#DejaVuSans-46"/>
       <use x="95.410156" xlink:href="#DejaVuSans-54"/>
      </g>
     </g>
    </g>
    <g id="ytick_5">
     <g id="line2d_11">
      <g>
       <use style="stroke:#000000;stroke-width:0.8;" x="43.78125" xlink:href="#mc9ebf7bcbc" y="54.487219"/>
      </g>
     </g>
     <g id="text_12">
      <!-- 0.8 -->
      <g transform="translate(20.878125 58.286437)scale(0.1 -0.1)">
       <use xlink:href="#DejaVuSans-48"/>
       <use x="63.623047" xlink:href="#DejaVuSans-46"/>
       <use x="95.410156" xlink:href="#DejaVuSans-56"/>
      </g>
     </g>
    </g>
    <g id="ytick_6">
     <g id="line2d_12">
      <g>
       <use style="stroke:#000000;stroke-width:0.8;" x="43.78125" xlink:href="#mc9ebf7bcbc" y="10.999219"/>
      </g>
     </g>
     <g id="text_13">
      <!-- 1.0 -->
      <g transform="translate(20.878125 14.798437)scale(0.1 -0.1)">
       <use xlink:href="#DejaVuSans-49"/>
       <use x="63.623047" xlink:href="#DejaVuSans-46"/>
       <use x="95.410156" xlink:href="#DejaVuSans-48"/>
      </g>
     </g>
    </g>
    <g id="text_14">
     <!-- True Positive Rate -->
     <defs>
      <path d="M -0.296875 72.90625 
L 61.375 72.90625 
L 61.375 64.59375 
L 35.5 64.59375 
L 35.5 0 
L 25.59375 0 
L 25.59375 64.59375 
L -0.296875 64.59375 
z
" id="DejaVuSans-84"/>
      <path d="M 41.109375 46.296875 
Q 39.59375 47.171875 37.8125 47.578125 
Q 36.03125 48 33.890625 48 
Q 26.265625 48 22.1875 43.046875 
Q 18.109375 38.09375 18.109375 28.8125 
L 18.109375 0 
L 9.078125 0 
L 9.078125 54.6875 
L 18.109375 54.6875 
L 18.109375 46.1875 
Q 20.953125 51.171875 25.484375 53.578125 
Q 30.03125 56 36.53125 56 
Q 37.453125 56 38.578125 55.875 
Q 39.703125 55.765625 41.0625 55.515625 
z
" id="DejaVuSans-114"/>
      <path d="M 8.5 21.578125 
L 8.5 54.6875 
L 17.484375 54.6875 
L 17.484375 21.921875 
Q 17.484375 14.15625 20.5 10.265625 
Q 23.53125 6.390625 29.59375 6.390625 
Q 36.859375 6.390625 41.078125 11.03125 
Q 45.3125 15.671875 45.3125 23.6875 
L 45.3125 54.6875 
L 54.296875 54.6875 
L 54.296875 0 
L 45.3125 0 
L 45.3125 8.40625 
Q 42.046875 3.421875 37.71875 1 
Q 33.40625 -1.421875 27.6875 -1.421875 
Q 18.265625 -1.421875 13.375 4.4375 
Q 8.5 10.296875 8.5 21.578125 
z
M 31.109375 56 
z
" id="DejaVuSans-117"/>
     </defs>
     <g transform="translate(14.798438 164.248906)rotate(-90)scale(0.1 -0.1)">
      <use xlink:href="#DejaVuSans-84"/>
      <use x="46.333984" xlink:href="#DejaVuSans-114"/>
      <use x="87.447266" xlink:href="#DejaVuSans-117"/>
      <use x="150.826172" xlink:href="#DejaVuSans-101"/>
      <use x="212.349609" xlink:href="#DejaVuSans-32"/>
      <use x="244.136719" xlink:href="#DejaVuSans-80"/>
      <use x="300.814453" xlink:href="#DejaVuSans-111"/>
      <use x="361.996094" xlink:href="#DejaVuSans-115"/>
      <use x="414.095703" xlink:href="#DejaVuSans-105"/>
      <use x="441.878906" xlink:href="#DejaVuSans-116"/>
      <use x="481.087891" xlink:href="#DejaVuSans-105"/>
      <use x="508.871094" xlink:href="#DejaVuSans-118"/>
      <use x="568.050781" xlink:href="#DejaVuSans-101"/>
      <use x="629.574219" xlink:href="#DejaVuSans-32"/>
      <use x="661.361328" xlink:href="#DejaVuSans-82"/>
      <use x="728.59375" xlink:href="#DejaVuSans-97"/>
      <use x="789.873047" xlink:href="#DejaVuSans-116"/>
      <use x="829.082031" xlink:href="#DejaVuSans-101"/>
     </g>
    </g>
   </g>
   <g id="line2d_13">
    <path clip-path="url(#pa88915b483)" d="M 43.78125 228.439219 
L 43.891666 196.71167 
L 43.8978 196.71167 
L 44.002082 175.011792 
L 44.014351 175.011792 
L 44.124767 160.291172 
L 44.130901 160.291172 
L 44.235183 149.140403 
L 44.253586 149.060182 
L 44.364002 142.802915 
L 44.370136 142.802915 
L 44.480552 134.901111 
L 44.486686 134.901111 
L 44.597102 130.208162 
L 44.603236 130.208162 
L 44.713653 124.271781 
L 44.725921 124.271781 
L 44.836337 121.183259 
L 44.842471 121.183259 
L 44.952887 117.332633 
L 44.959022 117.332633 
L 45.063304 114.966103 
L 45.08784 114.885882 
L 45.198257 111.23581 
L 45.204391 111.23581 
L 45.302538 107.264852 
L 45.320941 107.264852 
L 45.431357 104.497215 
L 45.437491 104.497215 
L 45.547908 100.285594 
L 45.56631 100.205373 
L 45.670592 97.397625 
L 45.688995 97.397625 
L 45.799411 95.833308 
L 45.811679 95.793198 
L 45.922095 94.549767 
L 45.92823 94.549767 
L 46.038646 92.905229 
L 46.063183 92.825007 
L 46.167464 90.979916 
L 46.20427 90.899695 
L 46.314686 89.977149 
L 46.333089 89.896928 
L 46.443505 87.08918 
L 46.468042 87.08918 
L 46.578458 85.524863 
L 46.590726 85.444642 
L 46.701142 84.562207 
L 46.707276 84.562207 
L 46.817693 83.158333 
L 46.823827 83.158333 
L 46.934243 82.35612 
L 46.971048 82.275898 
L 47.081464 80.952246 
L 47.112136 80.872025 
L 47.222552 79.789036 
L 47.247089 79.748925 
L 47.35137 78.425273 
L 47.400444 78.345052 
L 47.51086 77.06151 
L 47.535397 77.021399 
L 47.633545 75.577415 
L 47.658082 75.537304 
L 47.768498 74.614758 
L 47.774632 74.614758 
L 47.878914 73.932877 
L 47.909585 73.892766 
L 48.020001 72.649335 
L 48.038404 72.649335 
L 48.14882 71.847121 
L 48.167223 71.7669 
L 48.271504 70.844354 
L 48.289907 70.764133 
L 48.375786 69.600923 
L 48.449397 69.520702 
L 48.553679 68.558046 
L 48.572082 68.477824 
L 48.664095 67.6355 
L 48.707035 67.595389 
L 48.768377 66.953618 
L 48.829719 66.953618 
L 48.940135 66.432179 
L 48.964672 66.351958 
L 49.075088 65.549744 
L 49.093491 65.509634 
L 49.185504 64.70742 
L 49.210041 64.70742 
L 49.314323 63.905207 
L 49.344994 63.824985 
L 49.45541 63.303546 
L 49.479947 63.263436 
L 49.590363 62.822218 
L 49.602632 62.741997 
L 49.713048 62.140337 
L 49.743719 62.100226 
L 49.854135 61.578787 
L 49.915477 61.498566 
L 50.013625 60.937016 
L 50.044296 60.896906 
L 50.142444 60.295245 
L 50.197652 60.215024 
L 50.301934 59.653474 
L 50.351008 59.573253 
L 50.406216 59.292478 
L 50.485961 59.252368 
L 50.596377 58.771039 
L 50.627048 58.690818 
L 50.725195 58.169379 
L 50.792672 58.129269 
L 50.884685 57.688051 
L 50.995101 57.60783 
L 51.105518 57.246834 
L 51.154591 57.246834 
L 51.265007 56.845727 
L 51.301813 56.765505 
L 51.375424 56.44462 
L 51.436766 56.404509 
L 51.541048 55.802849 
L 51.565585 55.722628 
L 51.669867 55.361632 
L 51.694403 55.321521 
L 51.792551 54.840193 
L 51.841625 54.759971 
L 51.933638 54.358865 
L 51.982712 54.318754 
L 52.093128 53.797315 
L 52.099262 53.797315 
L 52.203544 53.275876 
L 52.307826 53.195655 
L 52.39984 52.714327 
L 52.455048 52.674216 
L 52.565464 51.992334 
L 52.596135 51.912113 
L 52.694282 51.430785 
L 52.767893 51.350564 
L 52.859907 50.989567 
L 52.927383 50.909346 
L 53.031665 50.54835 
L 53.11141 50.468129 
L 53.221826 50.147243 
L 53.258631 50.107132 
L 53.362913 49.585694 
L 53.411987 49.505472 
L 53.522403 48.943923 
L 53.583745 48.863701 
L 53.688027 48.582927 
L 53.724833 48.542816 
L 53.792309 48.262041 
L 53.933396 48.22193 
L 54.02541 47.941156 
L 54.197168 47.860934 
L 54.295316 47.499938 
L 54.325987 47.459827 
L 54.436403 47.058721 
L 54.479343 46.978499 
L 54.583625 46.497171 
L 54.669504 46.41695 
L 54.761517 46.136175 
L 54.853531 46.055954 
L 54.93941 45.694958 
L 55.037557 45.614736 
L 55.0989 45.414183 
L 55.203182 45.333961 
L 55.270658 44.972965 
L 55.460819 44.892744 
L 55.558967 44.65208 
L 55.620309 44.571858 
L 55.706188 44.250973 
L 55.785933 44.170752 
L 55.896349 43.809756 
L 55.957691 43.769645 
L 55.963826 43.48887 
L 56.123316 43.408649 
L 56.221463 43.127874 
L 56.246 43.047653 
L 56.356416 42.686656 
L 56.374819 42.606435 
L 56.454564 42.445992 
L 56.546577 42.365771 
L 56.632457 42.084996 
L 56.699933 42.004775 
L 56.791946 41.764111 
L 56.890094 41.683889 
L 56.994376 41.443225 
L 57.080255 41.363004 
L 57.184537 41.202561 
L 57.294953 41.12234 
L 57.393101 41.042119 
L 57.448309 41.002008 
L 57.558725 40.641012 
L 57.669141 40.56079 
L 57.773423 40.440458 
L 57.91451 40.360237 
L 57.95745 40.239905 
L 58.037195 40.199794 
L 58.147611 40.039352 
L 58.221221 39.95913 
L 58.313235 39.798687 
L 58.356174 39.758577 
L 58.411382 39.598134 
L 58.540201 39.517913 
L 58.613812 39.156917 
L 58.730362 39.076695 
L 58.748765 38.916253 
L 58.902121 38.836031 
L 59.006403 38.595367 
L 59.153624 38.515146 
L 59.26404 38.15415 
L 59.386725 38.073928 
L 59.398993 37.993707 
L 59.607557 37.913485 
L 59.711839 37.632711 
L 59.834523 37.552489 
L 59.895866 37.432157 
L 59.994013 37.392047 
L 60.098295 37.191493 
L 60.245516 37.111272 
L 60.33753 36.950829 
L 60.447946 36.910718 
L 60.509288 36.750276 
L 60.601302 36.670054 
L 60.65651 36.589833 
L 60.828268 36.549722 
L 60.88961 36.349169 
L 61.116577 36.268948 
L 61.20859 36.068394 
L 61.337409 35.988173 
L 61.447825 35.747509 
L 61.834281 35.667287 
L 61.914026 35.506845 
L 62.318885 35.426623 
L 62.423167 35.306291 
L 62.466107 35.22607 
L 62.466107 35.145849 
L 62.821892 35.065627 
L 62.926174 34.824963 
L 63.061127 34.744742 
L 63.171543 34.62441 
L 63.318764 34.584299 
L 63.386241 34.463967 
L 63.650013 34.383746 
L 63.735892 34.303524 
L 63.778831 34.263414 
L 63.883113 34.102971 
L 63.938321 34.022749 
L 64.024201 33.782085 
L 64.330912 33.701864 
L 64.441328 33.581532 
L 64.570147 33.501311 
L 64.643758 33.340868 
L 64.870724 33.260647 
L 64.870724 33.220536 
L 65.165167 33.180425 
L 65.165167 33.100204 
L 65.367596 33.019982 
L 65.367596 32.979872 
L 65.846066 32.89965 
L 65.846066 32.85954 
L 66.079167 32.779318 
L 66.183449 32.578765 
L 66.342939 32.498544 
L 66.44722 32.338101 
L 66.520831 32.25788 
L 66.520831 32.217769 
L 66.895019 32.177658 
L 66.919556 32.017215 
L 67.121985 31.936994 
L 67.158791 31.856773 
L 67.269207 31.776551 
L 67.336683 31.656219 
L 67.575918 31.575998 
L 67.575918 31.535887 
L 67.980777 31.455666 
L 68.04212 31.335334 
L 68.152536 31.255112 
L 68.220012 31.054559 
L 68.342697 30.974338 
L 68.385636 30.813895 
L 68.943851 30.733674 
L 69.005193 30.573231 
L 69.238294 30.49301 
L 69.238294 30.452899 
L 69.5082 30.372678 
L 69.618616 30.292456 
L 69.839448 30.212235 
L 69.94373 30.051792 
L 70.023475 29.971571 
L 70.133891 29.811128 
L 70.520347 29.730907 
L 70.526482 29.650685 
L 70.85773 29.570464 
L 70.85773 29.530353 
L 71.041757 29.490243 
L 71.146039 29.3298 
L 71.256455 29.249578 
L 71.360737 29.169357 
L 71.40981 29.089136 
L 71.514092 28.968804 
L 71.869877 28.888582 
L 71.869877 28.848472 
L 72.035502 28.76825 
L 72.121381 28.647918 
L 72.52624 28.567697 
L 72.630522 28.487476 
L 72.820683 28.447365 
L 72.900428 28.327033 
L 73.28075 28.246811 
L 73.329824 28.16659 
L 73.581327 28.086369 
L 73.581327 28.046258 
L 74.084334 27.966037 
L 74.084334 27.925926 
L 74.875649 27.845705 
L 74.930857 27.765483 
L 75.10875 27.685262 
L 75.157823 27.605041 
L 75.34185 27.524819 
L 75.34185 27.484709 
L 76.053421 27.404487 
L 76.053421 27.364376 
L 76.869273 27.284155 
L 76.967421 27.203934 
L 77.32934 27.123712 
L 77.427488 27.043491 
L 77.76487 26.96327 
L 77.76487 26.923159 
L 78.212669 26.842938 
L 78.280145 26.722606 
L 78.543917 26.642384 
L 78.617528 26.481941 
L 78.789286 26.40172 
L 78.869031 26.281388 
L 79.341367 26.201167 
L 79.439514 26.120945 
L 79.678749 26.040724 
L 79.789165 25.920392 
L 79.942521 25.840171 
L 79.979326 25.759949 
L 80.525272 25.679728 
L 80.525272 25.639617 
L 80.991474 25.559396 
L 81.077353 25.479174 
L 81.531286 25.398953 
L 81.623299 25.318732 
L 82.083366 25.23851 
L 82.156977 25.158289 
L 82.874682 25.078068 
L 82.923755 24.997846 
L 83.334749 24.917625 
L 83.426762 24.717072 
L 83.984977 24.63685 
L 83.984977 24.556629 
L 84.340762 24.476407 
L 84.340762 24.436297 
L 85.273164 24.356075 
L 85.303836 24.275854 
L 85.892721 24.195633 
L 85.917258 24.03519 
L 86.585889 23.954969 
L 86.641097 23.834637 
L 87.13797 23.754415 
L 87.13797 23.714305 
L 88.174654 23.634083 
L 88.174654 23.593972 
L 88.450694 23.553862 
L 88.450694 23.47364 
L 88.990506 23.393419 
L 89.002775 23.313198 
L 89.990385 23.232976 
L 89.990385 23.192866 
L 90.530197 23.112644 
L 90.603808 23.032423 
L 91.726372 22.952202 
L 91.799982 22.83187 
L 92.290721 22.751648 
L 92.33366 22.671427 
L 92.781459 22.591205 
L 92.867338 22.510984 
L 94.664667 22.430763 
L 94.732143 22.350541 
L 95.781096 22.27032 
L 95.781096 22.230209 
L 96.54174 22.149988 
L 96.54174 22.109877 
L 97.007942 22.029656 
L 97.007942 21.989545 
L 97.701109 21.909324 
L 97.701109 21.869213 
L 99.40029 21.788992 
L 99.504572 21.70877 
L 100.19774 21.628549 
L 100.19774 21.588438 
L 100.535122 21.508217 
L 100.535122 21.468106 
L 101.43072 21.387885 
L 101.516599 21.307664 
L 101.841713 21.267553 
L 101.93986 21.10711 
L 102.798652 21.026889 
L 102.798652 20.986778 
L 103.866008 20.946668 
L 103.976424 20.826336 
L 104.258598 20.746114 
L 104.258598 20.706003 
L 107.135551 20.625782 
L 107.135551 20.585671 
L 109.454289 20.50545 
L 109.454289 20.465339 
L 111.47245 20.385118 
L 111.47245 20.345007 
L 112.042933 20.264786 
L 112.042933 20.224675 
L 113.196168 20.144454 
L 113.232973 20.064233 
L 114.901483 19.984011 
L 114.932154 19.90379 
L 116.165134 19.823569 
L 116.165134 19.783458 
L 119.876342 19.703236 
L 119.876342 19.663126 
L 121.51418 19.582904 
L 121.593925 19.502683 
L 122.612207 19.422462 
L 122.612207 19.382351 
L 123.599818 19.30213 
L 123.599818 19.262019 
L 124.820529 19.181798 
L 124.820529 19.141687 
L 125.538233 19.061466 
L 125.538233 19.021355 
L 129.353723 18.941134 
L 129.37826 18.860912 
L 130.40881 18.780691 
L 130.40881 18.74058 
L 130.752327 18.660359 
L 130.752327 18.620248 
L 132.666206 18.540027 
L 132.666206 18.499916 
L 135.917346 18.419695 
L 135.917346 18.379584 
L 139.837118 18.299363 
L 139.837118 18.259252 
L 141.40748 18.179031 
L 141.40748 18.13892 
L 143.867305 18.058699 
L 143.885708 17.978477 
L 146.014285 17.898256 
L 146.014285 17.858145 
L 146.952821 17.777924 
L 146.952821 17.737813 
L 149.449452 17.657592 
L 149.449452 17.617481 
L 152.228257 17.53726 
L 152.228257 17.497149 
L 153.620727 17.416928 
L 153.620727 17.376817 
L 154.375237 17.296596 
L 154.375237 17.256485 
L 159.104726 17.176264 
L 159.104726 17.136153 
L 159.583196 17.055932 
L 159.583196 17.015821 
L 161.681102 16.935599 
L 161.681102 16.895489 
L 163.300538 16.815267 
L 163.300538 16.775157 
L 165.386175 16.694935 
L 165.386175 16.654825 
L 172.121557 16.574603 
L 172.121557 16.534493 
L 172.569355 16.454271 
L 172.569355 16.414161 
L 174.691798 16.333939 
L 174.691798 16.293829 
L 176.384845 16.213607 
L 176.458456 16.133386 
L 178.924415 16.053165 
L 178.924415 16.013054 
L 179.55624 15.932832 
L 179.55624 15.892722 
L 181.678683 15.8125 
L 181.678683 15.77239 
L 184.199851 15.692168 
L 184.230522 15.611947 
L 190.659192 15.531726 
L 190.659192 15.491615 
L 192.033259 15.411394 
L 192.033259 15.371283 
L 193.922601 15.291062 
L 193.922601 15.250951 
L 194.879541 15.17073 
L 194.879541 15.130619 
L 199.92801 15.050397 
L 199.92801 15.010287 
L 201.792815 14.930065 
L 201.792815 14.889955 
L 209.227499 14.809733 
L 209.227499 14.769623 
L 210.938948 14.689401 
L 210.938948 14.649291 
L 212.313015 14.569069 
L 212.313015 14.528959 
L 220.226168 14.448737 
L 220.226168 14.408627 
L 222.863886 14.328405 
L 222.937497 14.248184 
L 227.305067 14.167963 
L 227.305067 14.127852 
L 232.414878 14.04763 
L 232.414878 14.00752 
L 245.62187 13.927298 
L 245.62187 13.887188 
L 252.197762 13.806966 
L 252.197762 13.766856 
L 253.829466 13.686634 
L 253.829466 13.646524 
L 255.123788 13.606413 
L 255.123788 13.526192 
L 266.950579 13.44597 
L 266.950579 13.40586 
L 280.034886 13.325638 
L 280.034886 13.285528 
L 283.273758 13.205306 
L 283.273758 13.165196 
L 294.321502 13.084974 
L 294.321502 13.044863 
L 296.824267 12.964642 
L 296.824267 12.924531 
L 307.344467 12.84431 
L 307.344467 12.804199 
L 313.435754 12.723978 
L 313.435754 12.683867 
L 323.802599 12.603646 
L 323.802599 12.563535 
L 336.439107 12.483314 
L 336.439107 12.443203 
L 341.690006 12.362982 
L 341.690006 12.322871 
L 349.547951 12.24265 
L 349.547951 12.202539 
L 353.854179 12.122318 
L 353.854179 12.082207 
L 356.921293 12.001986 
L 356.921293 11.961875 
L 358.884246 11.881654 
L 358.988528 11.801432 
L 361.871614 11.721211 
L 361.871614 11.6811 
L 365.889533 11.600879 
L 365.889533 11.560768 
L 369.545533 11.480547 
L 369.545533 11.440436 
L 371.588231 11.360215 
L 371.588231 11.320104 
L 373.397828 11.239883 
L 373.397828 11.199772 
L 376.869801 11.119551 
L 376.869801 11.07944 
L 378.58125 10.999219 
L 378.58125 10.999219 
" style="fill:none;stroke:#1f77b4;stroke-linecap:square;stroke-width:2;"/>
   </g>
   <g id="line2d_14">
    <path clip-path="url(#pa88915b483)" d="M 43.78125 228.439219 
L 378.58125 10.999219 
" style="fill:none;stroke:#000000;stroke-dasharray:5.55,2.4;stroke-dashoffset:0;stroke-width:1.5;"/>
   </g>
   <g id="patch_3">
    <path d="M 43.78125 228.439219 
L 43.78125 10.999219 
" style="fill:none;stroke:#000000;stroke-linecap:square;stroke-linejoin:miter;stroke-width:0.8;"/>
   </g>
   <g id="patch_4">
    <path d="M 378.58125 228.439219 
L 378.58125 10.999219 
" style="fill:none;stroke:#000000;stroke-linecap:square;stroke-linejoin:miter;stroke-width:0.8;"/>
   </g>
   <g id="patch_5">
    <path d="M 43.78125 228.439219 
L 378.58125 228.439219 
" style="fill:none;stroke:#000000;stroke-linecap:square;stroke-linejoin:miter;stroke-width:0.8;"/>
   </g>
   <g id="patch_6">
    <path d="M 43.78125 10.999219 
L 378.58125 10.999219 
" style="fill:none;stroke:#000000;stroke-linecap:square;stroke-linejoin:miter;stroke-width:0.8;"/>
   </g>
  </g>
 </g>
 <defs>
  <clipPath id="pa88915b483">
   <rect height="217.44" width="334.8" x="43.78125" y="10.999219"/>
  </clipPath>
 </defs>
</svg>
