<?xml version="1.0" encoding="utf-8" standalone="no"?>
<!DOCTYPE svg PUBLIC "-//W3C//DTD SVG 1.1//EN"
  "http://www.w3.org/Graphics/SVG/1.1/DTD/svg11.dtd">
<!-- Created with matplotlib (https://matplotlib.org/) -->
<svg height="265.995469pt" version="1.1" viewBox="0 0 393.732813 265.995469" width="393.732813pt" xmlns="http://www.w3.org/2000/svg" xmlns:xlink="http://www.w3.org/1999/xlink">
 <defs>
  <style type="text/css">
*{stroke-linecap:butt;stroke-linejoin:round;}
  </style>
 </defs>
 <g id="figure_1">
  <g id="patch_1">
   <path d="M 0 265.995469 
L 393.732813 265.995469 
L 393.732813 0 
L 0 0 
z
" style="fill:none;"/>
  </g>
  <g id="axes_1">
   <g id="patch_2">
    <path d="M 43.78125 228.439219 
L 378.58125 228.439219 
L 378.58125 10.999219 
L 43.78125 10.999219 
z
" style="fill:#ffffff;"/>
   </g>
   <g id="matplotlib.axis_1">
    <g id="xtick_1">
     <g id="line2d_1">
      <defs>
       <path d="M 0 0 
L 0 3.5 
" id="m71a3a8d7db" style="stroke:#000000;stroke-width:0.8;"/>
      </defs>
      <g>
       <use style="stroke:#000000;stroke-width:0.8;" x="43.78125" xlink:href="#m71a3a8d7db" y="228.439219"/>
      </g>
     </g>
     <g id="text_1">
      <!-- 0.0 -->
      <defs>
       <path d="M 31.78125 66.40625 
Q 24.171875 66.40625 20.328125 58.90625 
Q 16.5 51.421875 16.5 36.375 
Q 16.5 21.390625 20.328125 13.890625 
Q 24.171875 6.390625 31.78125 6.390625 
Q 39.453125 6.390625 43.28125 13.890625 
Q 47.125 21.390625 47.125 36.375 
Q 47.125 51.421875 43.28125 58.90625 
Q 39.453125 66.40625 31.78125 66.40625 
z
M 31.78125 74.21875 
Q 44.046875 74.21875 50.515625 64.515625 
Q 56.984375 54.828125 56.984375 36.375 
Q 56.984375 17.96875 50.515625 8.265625 
Q 44.046875 -1.421875 31.78125 -1.421875 
Q 19.53125 -1.421875 13.0625 8.265625 
Q 6.59375 17.96875 6.59375 36.375 
Q 6.59375 54.828125 13.0625 64.515625 
Q 19.53125 74.21875 31.78125 74.21875 
z
" id="DejaVuSans-48"/>
       <path d="M 10.6875 12.40625 
L 21 12.40625 
L 21 0 
L 10.6875 0 
z
" id="DejaVuSans-46"/>
      </defs>
      <g transform="translate(35.829688 243.037656)scale(0.1 -0.1)">
       <use xlink:href="#DejaVuSans-48"/>
       <use x="63.623047" xlink:href="#DejaVuSans-46"/>
       <use x="95.410156" xlink:href="#DejaVuSans-48"/>
      </g>
     </g>
    </g>
    <g id="xtick_2">
     <g id="line2d_2">
      <g>
       <use style="stroke:#000000;stroke-width:0.8;" x="110.74125" xlink:href="#m71a3a8d7db" y="228.439219"/>
      </g>
     </g>
     <g id="text_2">
      <!-- 0.2 -->
      <defs>
       <path d="M 19.1875 8.296875 
L 53.609375 8.296875 
L 53.609375 0 
L 7.328125 0 
L 7.328125 8.296875 
Q 12.9375 14.109375 22.625 23.890625 
Q 32.328125 33.6875 34.8125 36.53125 
Q 39.546875 41.84375 41.421875 45.53125 
Q 43.3125 49.21875 43.3125 52.78125 
Q 43.3125 58.59375 39.234375 62.25 
Q 35.15625 65.921875 28.609375 65.921875 
Q 23.96875 65.921875 18.8125 64.3125 
Q 13.671875 62.703125 7.8125 59.421875 
L 7.8125 69.390625 
Q 13.765625 71.78125 18.9375 73 
Q 24.125 74.21875 28.421875 74.21875 
Q 39.75 74.21875 46.484375 68.546875 
Q 53.21875 62.890625 53.21875 53.421875 
Q 53.21875 48.921875 51.53125 44.890625 
Q 49.859375 40.875 45.40625 35.40625 
Q 44.1875 33.984375 37.640625 27.21875 
Q 31.109375 20.453125 19.1875 8.296875 
z
" id="DejaVuSans-50"/>
      </defs>
      <g transform="translate(102.789688 243.037656)scale(0.1 -0.1)">
       <use xlink:href="#DejaVuSans-48"/>
       <use x="63.623047" xlink:href="#DejaVuSans-46"/>
       <use x="95.410156" xlink:href="#DejaVuSans-50"/>
      </g>
     </g>
    </g>
    <g id="xtick_3">
     <g id="line2d_3">
      <g>
       <use style="stroke:#000000;stroke-width:0.8;" x="177.70125" xlink:href="#m71a3a8d7db" y="228.439219"/>
      </g>
     </g>
     <g id="text_3">
      <!-- 0.4 -->
      <defs>
       <path d="M 37.796875 64.3125 
L 12.890625 25.390625 
L 37.796875 25.390625 
z
M 35.203125 72.90625 
L 47.609375 72.90625 
L 47.609375 25.390625 
L 58.015625 25.390625 
L 58.015625 17.1875 
L 47.609375 17.1875 
L 47.609375 0 
L 37.796875 0 
L 37.796875 17.1875 
L 4.890625 17.1875 
L 4.890625 26.703125 
z
" id="DejaVuSans-52"/>
      </defs>
      <g transform="translate(169.749688 243.037656)scale(0.1 -0.1)">
       <use xlink:href="#DejaVuSans-48"/>
       <use x="63.623047" xlink:href="#DejaVuSans-46"/>
       <use x="95.410156" xlink:href="#DejaVuSans-52"/>
      </g>
     </g>
    </g>
    <g id="xtick_4">
     <g id="line2d_4">
      <g>
       <use style="stroke:#000000;stroke-width:0.8;" x="244.66125" xlink:href="#m71a3a8d7db" y="228.439219"/>
      </g>
     </g>
     <g id="text_4">
      <!-- 0.6 -->
      <defs>
       <path d="M 33.015625 40.375 
Q 26.375 40.375 22.484375 35.828125 
Q 18.609375 31.296875 18.609375 23.390625 
Q 18.609375 15.53125 22.484375 10.953125 
Q 26.375 6.390625 33.015625 6.390625 
Q 39.65625 6.390625 43.53125 10.953125 
Q 47.40625 15.53125 47.40625 23.390625 
Q 47.40625 31.296875 43.53125 35.828125 
Q 39.65625 40.375 33.015625 40.375 
z
M 52.59375 71.296875 
L 52.59375 62.3125 
Q 48.875 64.0625 45.09375 64.984375 
Q 41.3125 65.921875 37.59375 65.921875 
Q 27.828125 65.921875 22.671875 59.328125 
Q 17.53125 52.734375 16.796875 39.40625 
Q 19.671875 43.65625 24.015625 45.921875 
Q 28.375 48.1875 33.59375 48.1875 
Q 44.578125 48.1875 50.953125 41.515625 
Q 57.328125 34.859375 57.328125 23.390625 
Q 57.328125 12.15625 50.6875 5.359375 
Q 44.046875 -1.421875 33.015625 -1.421875 
Q 20.359375 -1.421875 13.671875 8.265625 
Q 6.984375 17.96875 6.984375 36.375 
Q 6.984375 53.65625 15.1875 63.9375 
Q 23.390625 74.21875 37.203125 74.21875 
Q 40.921875 74.21875 44.703125 73.484375 
Q 48.484375 72.75 52.59375 71.296875 
z
" id="DejaVuSans-54"/>
      </defs>
      <g transform="translate(236.709688 243.037656)scale(0.1 -0.1)">
       <use xlink:href="#DejaVuSans-48"/>
       <use x="63.623047" xlink:href="#DejaVuSans-46"/>
       <use x="95.410156" xlink:href="#DejaVuSans-54"/>
      </g>
     </g>
    </g>
    <g id="xtick_5">
     <g id="line2d_5">
      <g>
       <use style="stroke:#000000;stroke-width:0.8;" x="311.62125" xlink:href="#m71a3a8d7db" y="228.439219"/>
      </g>
     </g>
     <g id="text_5">
      <!-- 0.8 -->
      <defs>
       <path d="M 31.78125 34.625 
Q 24.75 34.625 20.71875 30.859375 
Q 16.703125 27.09375 16.703125 20.515625 
Q 16.703125 13.921875 20.71875 10.15625 
Q 24.75 6.390625 31.78125 6.390625 
Q 38.8125 6.390625 42.859375 10.171875 
Q 46.921875 13.96875 46.921875 20.515625 
Q 46.921875 27.09375 42.890625 30.859375 
Q 38.875 34.625 31.78125 34.625 
z
M 21.921875 38.8125 
Q 15.578125 40.375 12.03125 44.71875 
Q 8.5 49.078125 8.5 55.328125 
Q 8.5 64.0625 14.71875 69.140625 
Q 20.953125 74.21875 31.78125 74.21875 
Q 42.671875 74.21875 48.875 69.140625 
Q 55.078125 64.0625 55.078125 55.328125 
Q 55.078125 49.078125 51.53125 44.71875 
Q 48 40.375 41.703125 38.8125 
Q 48.828125 37.15625 52.796875 32.3125 
Q 56.78125 27.484375 56.78125 20.515625 
Q 56.78125 9.90625 50.3125 4.234375 
Q 43.84375 -1.421875 31.78125 -1.421875 
Q 19.734375 -1.421875 13.25 4.234375 
Q 6.78125 9.90625 6.78125 20.515625 
Q 6.78125 27.484375 10.78125 32.3125 
Q 14.796875 37.15625 21.921875 38.8125 
z
M 18.3125 54.390625 
Q 18.3125 48.734375 21.84375 45.5625 
Q 25.390625 42.390625 31.78125 42.390625 
Q 38.140625 42.390625 41.71875 45.5625 
Q 45.3125 48.734375 45.3125 54.390625 
Q 45.3125 60.0625 41.71875 63.234375 
Q 38.140625 66.40625 31.78125 66.40625 
Q 25.390625 66.40625 21.84375 63.234375 
Q 18.3125 60.0625 18.3125 54.390625 
z
" id="DejaVuSans-56"/>
      </defs>
      <g transform="translate(303.669688 243.037656)scale(0.1 -0.1)">
       <use xlink:href="#DejaVuSans-48"/>
       <use x="63.623047" xlink:href="#DejaVuSans-46"/>
       <use x="95.410156" xlink:href="#DejaVuSans-56"/>
      </g>
     </g>
    </g>
    <g id="xtick_6">
     <g id="line2d_6">
      <g>
       <use style="stroke:#000000;stroke-width:0.8;" x="378.58125" xlink:href="#m71a3a8d7db" y="228.439219"/>
      </g>
     </g>
     <g id="text_6">
      <!-- 1.0 -->
      <defs>
       <path d="M 12.40625 8.296875 
L 28.515625 8.296875 
L 28.515625 63.921875 
L 10.984375 60.40625 
L 10.984375 69.390625 
L 28.421875 72.90625 
L 38.28125 72.90625 
L 38.28125 8.296875 
L 54.390625 8.296875 
L 54.390625 0 
L 12.40625 0 
z
" id="DejaVuSans-49"/>
      </defs>
      <g transform="translate(370.629687 243.037656)scale(0.1 -0.1)">
       <use xlink:href="#DejaVuSans-49"/>
       <use x="63.623047" xlink:href="#DejaVuSans-46"/>
       <use x="95.410156" xlink:href="#DejaVuSans-48"/>
      </g>
     </g>
    </g>
    <g id="text_7">
     <!-- recalls -->
     <defs>
      <path d="M 41.109375 46.296875 
Q 39.59375 47.171875 37.8125 47.578125 
Q 36.03125 48 33.890625 48 
Q 26.265625 48 22.1875 43.046875 
Q 18.109375 38.09375 18.109375 28.8125 
L 18.109375 0 
L 9.078125 0 
L 9.078125 54.6875 
L 18.109375 54.6875 
L 18.109375 46.1875 
Q 20.953125 51.171875 25.484375 53.578125 
Q 30.03125 56 36.53125 56 
Q 37.453125 56 38.578125 55.875 
Q 39.703125 55.765625 41.0625 55.515625 
z
" id="DejaVuSans-114"/>
      <path d="M 56.203125 29.59375 
L 56.203125 25.203125 
L 14.890625 25.203125 
Q 15.484375 15.921875 20.484375 11.0625 
Q 25.484375 6.203125 34.421875 6.203125 
Q 39.59375 6.203125 44.453125 7.46875 
Q 49.3125 8.734375 54.109375 11.28125 
L 54.109375 2.78125 
Q 49.265625 0.734375 44.1875 -0.34375 
Q 39.109375 -1.421875 33.890625 -1.421875 
Q 20.796875 -1.421875 13.15625 6.1875 
Q 5.515625 13.8125 5.515625 26.8125 
Q 5.515625 40.234375 12.765625 48.109375 
Q 20.015625 56 32.328125 56 
Q 43.359375 56 49.78125 48.890625 
Q 56.203125 41.796875 56.203125 29.59375 
z
M 47.21875 32.234375 
Q 47.125 39.59375 43.09375 43.984375 
Q 39.0625 48.390625 32.421875 48.390625 
Q 24.90625 48.390625 20.390625 44.140625 
Q 15.875 39.890625 15.1875 32.171875 
z
" id="DejaVuSans-101"/>
      <path d="M 48.78125 52.59375 
L 48.78125 44.1875 
Q 44.96875 46.296875 41.140625 47.34375 
Q 37.3125 48.390625 33.40625 48.390625 
Q 24.65625 48.390625 19.8125 42.84375 
Q 14.984375 37.3125 14.984375 27.296875 
Q 14.984375 17.28125 19.8125 11.734375 
Q 24.65625 6.203125 33.40625 6.203125 
Q 37.3125 6.203125 41.140625 7.25 
Q 44.96875 8.296875 48.78125 10.40625 
L 48.78125 2.09375 
Q 45.015625 0.34375 40.984375 -0.53125 
Q 36.96875 -1.421875 32.421875 -1.421875 
Q 20.0625 -1.421875 12.78125 6.34375 
Q 5.515625 14.109375 5.515625 27.296875 
Q 5.515625 40.671875 12.859375 48.328125 
Q 20.21875 56 33.015625 56 
Q 37.15625 56 41.109375 55.140625 
Q 45.0625 54.296875 48.78125 52.59375 
z
" id="DejaVuSans-99"/>
      <path d="M 34.28125 27.484375 
Q 23.390625 27.484375 19.1875 25 
Q 14.984375 22.515625 14.984375 16.5 
Q 14.984375 11.71875 18.140625 8.90625 
Q 21.296875 6.109375 26.703125 6.109375 
Q 34.1875 6.109375 38.703125 11.40625 
Q 43.21875 16.703125 43.21875 25.484375 
L 43.21875 27.484375 
z
M 52.203125 31.203125 
L 52.203125 0 
L 43.21875 0 
L 43.21875 8.296875 
Q 40.140625 3.328125 35.546875 0.953125 
Q 30.953125 -1.421875 24.3125 -1.421875 
Q 15.921875 -1.421875 10.953125 3.296875 
Q 6 8.015625 6 15.921875 
Q 6 25.140625 12.171875 29.828125 
Q 18.359375 34.515625 30.609375 34.515625 
L 43.21875 34.515625 
L 43.21875 35.40625 
Q 43.21875 41.609375 39.140625 45 
Q 35.0625 48.390625 27.6875 48.390625 
Q 23 48.390625 18.546875 47.265625 
Q 14.109375 46.140625 10.015625 43.890625 
L 10.015625 52.203125 
Q 14.9375 54.109375 19.578125 55.046875 
Q 24.21875 56 28.609375 56 
Q 40.484375 56 46.34375 49.84375 
Q 52.203125 43.703125 52.203125 31.203125 
z
" id="DejaVuSans-97"/>
      <path d="M 9.421875 75.984375 
L 18.40625 75.984375 
L 18.40625 0 
L 9.421875 0 
z
" id="DejaVuSans-108"/>
      <path d="M 44.28125 53.078125 
L 44.28125 44.578125 
Q 40.484375 46.53125 36.375 47.5 
Q 32.28125 48.484375 27.875 48.484375 
Q 21.1875 48.484375 17.84375 46.4375 
Q 14.5 44.390625 14.5 40.28125 
Q 14.5 37.15625 16.890625 35.375 
Q 19.28125 33.59375 26.515625 31.984375 
L 29.59375 31.296875 
Q 39.15625 29.25 43.1875 25.515625 
Q 47.21875 21.78125 47.21875 15.09375 
Q 47.21875 7.46875 41.1875 3.015625 
Q 35.15625 -1.421875 24.609375 -1.421875 
Q 20.21875 -1.421875 15.453125 -0.5625 
Q 10.6875 0.296875 5.421875 2 
L 5.421875 11.28125 
Q 10.40625 8.6875 15.234375 7.390625 
Q 20.0625 6.109375 24.8125 6.109375 
Q 31.15625 6.109375 34.5625 8.28125 
Q 37.984375 10.453125 37.984375 14.40625 
Q 37.984375 18.0625 35.515625 20.015625 
Q 33.0625 21.96875 24.703125 23.78125 
L 21.578125 24.515625 
Q 13.234375 26.265625 9.515625 29.90625 
Q 5.8125 33.546875 5.8125 39.890625 
Q 5.8125 47.609375 11.28125 51.796875 
Q 16.75 56 26.8125 56 
Q 31.78125 56 36.171875 55.265625 
Q 40.578125 54.546875 44.28125 53.078125 
z
" id="DejaVuSans-115"/>
     </defs>
     <g transform="translate(194.965625 256.715781)scale(0.1 -0.1)">
      <use xlink:href="#DejaVuSans-114"/>
      <use x="38.863281" xlink:href="#DejaVuSans-101"/>
      <use x="100.386719" xlink:href="#DejaVuSans-99"/>
      <use x="155.367188" xlink:href="#DejaVuSans-97"/>
      <use x="216.646484" xlink:href="#DejaVuSans-108"/>
      <use x="244.429688" xlink:href="#DejaVuSans-108"/>
      <use x="272.212891" xlink:href="#DejaVuSans-115"/>
     </g>
    </g>
   </g>
   <g id="matplotlib.axis_2">
    <g id="ytick_1">
     <g id="line2d_7">
      <defs>
       <path d="M 0 0 
L -3.5 0 
" id="m6b55cf050d" style="stroke:#000000;stroke-width:0.8;"/>
      </defs>
      <g>
       <use style="stroke:#000000;stroke-width:0.8;" x="43.78125" xlink:href="#m6b55cf050d" y="228.439219"/>
      </g>
     </g>
     <g id="text_8">
      <!-- 0.0 -->
      <g transform="translate(20.878125 232.238437)scale(0.1 -0.1)">
       <use xlink:href="#DejaVuSans-48"/>
       <use x="63.623047" xlink:href="#DejaVuSans-46"/>
       <use x="95.410156" xlink:href="#DejaVuSans-48"/>
      </g>
     </g>
    </g>
    <g id="ytick_2">
     <g id="line2d_8">
      <g>
       <use style="stroke:#000000;stroke-width:0.8;" x="43.78125" xlink:href="#m6b55cf050d" y="184.951219"/>
      </g>
     </g>
     <g id="text_9">
      <!-- 0.2 -->
      <g transform="translate(20.878125 188.750437)scale(0.1 -0.1)">
       <use xlink:href="#DejaVuSans-48"/>
       <use x="63.623047" xlink:href="#DejaVuSans-46"/>
       <use x="95.410156" xlink:href="#DejaVuSans-50"/>
      </g>
     </g>
    </g>
    <g id="ytick_3">
     <g id="line2d_9">
      <g>
       <use style="stroke:#000000;stroke-width:0.8;" x="43.78125" xlink:href="#m6b55cf050d" y="141.463219"/>
      </g>
     </g>
     <g id="text_10">
      <!-- 0.4 -->
      <g transform="translate(20.878125 145.262437)scale(0.1 -0.1)">
       <use xlink:href="#DejaVuSans-48"/>
       <use x="63.623047" xlink:href="#DejaVuSans-46"/>
       <use x="95.410156" xlink:href="#DejaVuSans-52"/>
      </g>
     </g>
    </g>
    <g id="ytick_4">
     <g id="line2d_10">
      <g>
       <use style="stroke:#000000;stroke-width:0.8;" x="43.78125" xlink:href="#m6b55cf050d" y="97.975219"/>
      </g>
     </g>
     <g id="text_11">
      <!-- 0.6 -->
      <g transform="translate(20.878125 101.774437)scale(0.1 -0.1)">
       <use xlink:href="#DejaVuSans-48"/>
       <use x="63.623047" xlink:href="#DejaVuSans-46"/>
       <use x="95.410156" xlink:href="#DejaVuSans-54"/>
      </g>
     </g>
    </g>
    <g id="ytick_5">
     <g id="line2d_11">
      <g>
       <use style="stroke:#000000;stroke-width:0.8;" x="43.78125" xlink:href="#m6b55cf050d" y="54.487219"/>
      </g>
     </g>
     <g id="text_12">
      <!-- 0.8 -->
      <g transform="translate(20.878125 58.286437)scale(0.1 -0.1)">
       <use xlink:href="#DejaVuSans-48"/>
       <use x="63.623047" xlink:href="#DejaVuSans-46"/>
       <use x="95.410156" xlink:href="#DejaVuSans-56"/>
      </g>
     </g>
    </g>
    <g id="ytick_6">
     <g id="line2d_12">
      <g>
       <use style="stroke:#000000;stroke-width:0.8;" x="43.78125" xlink:href="#m6b55cf050d" y="10.999219"/>
      </g>
     </g>
     <g id="text_13">
      <!-- 1.0 -->
      <g transform="translate(20.878125 14.798437)scale(0.1 -0.1)">
       <use xlink:href="#DejaVuSans-49"/>
       <use x="63.623047" xlink:href="#DejaVuSans-46"/>
       <use x="95.410156" xlink:href="#DejaVuSans-48"/>
      </g>
     </g>
    </g>
    <g id="text_14">
     <!-- precision -->
     <defs>
      <path d="M 18.109375 8.203125 
L 18.109375 -20.796875 
L 9.078125 -20.796875 
L 9.078125 54.6875 
L 18.109375 54.6875 
L 18.109375 46.390625 
Q 20.953125 51.265625 25.265625 53.625 
Q 29.59375 56 35.59375 56 
Q 45.5625 56 51.78125 48.09375 
Q 58.015625 40.1875 58.015625 27.296875 
Q 58.015625 14.40625 51.78125 6.484375 
Q 45.5625 -1.421875 35.59375 -1.421875 
Q 29.59375 -1.421875 25.265625 0.953125 
Q 20.953125 3.328125 18.109375 8.203125 
z
M 48.6875 27.296875 
Q 48.6875 37.203125 44.609375 42.84375 
Q 40.53125 48.484375 33.40625 48.484375 
Q 26.265625 48.484375 22.1875 42.84375 
Q 18.109375 37.203125 18.109375 27.296875 
Q 18.109375 17.390625 22.1875 11.75 
Q 26.265625 6.109375 33.40625 6.109375 
Q 40.53125 6.109375 44.609375 11.75 
Q 48.6875 17.390625 48.6875 27.296875 
z
" id="DejaVuSans-112"/>
      <path d="M 9.421875 54.6875 
L 18.40625 54.6875 
L 18.40625 0 
L 9.421875 0 
z
M 9.421875 75.984375 
L 18.40625 75.984375 
L 18.40625 64.59375 
L 9.421875 64.59375 
z
" id="DejaVuSans-105"/>
      <path d="M 30.609375 48.390625 
Q 23.390625 48.390625 19.1875 42.75 
Q 14.984375 37.109375 14.984375 27.296875 
Q 14.984375 17.484375 19.15625 11.84375 
Q 23.34375 6.203125 30.609375 6.203125 
Q 37.796875 6.203125 41.984375 11.859375 
Q 46.1875 17.53125 46.1875 27.296875 
Q 46.1875 37.015625 41.984375 42.703125 
Q 37.796875 48.390625 30.609375 48.390625 
z
M 30.609375 56 
Q 42.328125 56 49.015625 48.375 
Q 55.71875 40.765625 55.71875 27.296875 
Q 55.71875 13.875 49.015625 6.21875 
Q 42.328125 -1.421875 30.609375 -1.421875 
Q 18.84375 -1.421875 12.171875 6.21875 
Q 5.515625 13.875 5.515625 27.296875 
Q 5.515625 40.765625 12.171875 48.375 
Q 18.84375 56 30.609375 56 
z
" id="DejaVuSans-111"/>
      <path d="M 54.890625 33.015625 
L 54.890625 0 
L 45.90625 0 
L 45.90625 32.71875 
Q 45.90625 40.484375 42.875 44.328125 
Q 39.84375 48.1875 33.796875 48.1875 
Q 26.515625 48.1875 22.3125 43.546875 
Q 18.109375 38.921875 18.109375 30.90625 
L 18.109375 0 
L 9.078125 0 
L 9.078125 54.6875 
L 18.109375 54.6875 
L 18.109375 46.1875 
Q 21.34375 51.125 25.703125 53.5625 
Q 30.078125 56 35.796875 56 
Q 45.21875 56 50.046875 50.171875 
Q 54.890625 44.34375 54.890625 33.015625 
z
" id="DejaVuSans-110"/>
     </defs>
     <g transform="translate(14.798438 142.273125)rotate(-90)scale(0.1 -0.1)">
      <use xlink:href="#DejaVuSans-112"/>
      <use x="63.476562" xlink:href="#DejaVuSans-114"/>
      <use x="102.339844" xlink:href="#DejaVuSans-101"/>
      <use x="163.863281" xlink:href="#DejaVuSans-99"/>
      <use x="218.84375" xlink:href="#DejaVuSans-105"/>
      <use x="246.626953" xlink:href="#DejaVuSans-115"/>
      <use x="298.726562" xlink:href="#DejaVuSans-105"/>
      <use x="326.509766" xlink:href="#DejaVuSans-111"/>
      <use x="387.691406" xlink:href="#DejaVuSans-110"/>
     </g>
    </g>
   </g>
   <g id="line2d_13">
    <path clip-path="url(#pfb78797ed8)" d="M 378.58125 208.661664 
L 378.210691 208.581266 
L 378.210691 208.570543 
L 378.148931 208.473137 
L 377.901892 208.378673 
L 377.901892 208.375594 
L 377.840132 208.238385 
L 377.778372 208.241772 
L 377.778372 208.130498 
L 377.716612 207.84401 
L 377.593093 207.794851 
L 377.593093 207.739948 
L 377.531333 207.254245 
L 377.407813 207.230731 
L 377.407813 207.150394 
L 377.346054 206.979703 
L 377.099014 206.929171 
L 377.099014 206.882942 
L 377.037254 206.738251 
L 376.851975 206.682309 
L 376.851975 206.637815 
L 376.790215 206.19649 
L 376.666695 206.174328 
L 376.666695 206.09282 
L 376.604936 206.027311 
L 376.481416 205.981077 
L 376.481416 205.923663 
L 376.419656 205.781506 
L 376.357896 205.785275 
L 376.357896 205.674284 
L 376.296137 205.632841 
L 376.234377 205.636633 
L 376.234377 205.525482 
L 376.172617 205.259286 
L 376.049097 205.22698 
L 376.049097 205.155832 
L 375.987337 204.846009 
L 375.925578 204.84992 
L 375.925578 204.739004 
L 375.863818 204.038199 
L 375.802058 204.042227 
L 375.802058 203.931232 
L 375.740298 203.81291 
L 375.678538 203.816973 
L 375.678538 203.705965 
L 375.616779 203.507398 
L 375.431499 203.419874 
L 375.431499 203.408611 
L 375.369739 203.276805 
L 375.307979 203.280949 
L 375.307979 203.169839 
L 375.24622 202.088955 
L 375.18446 202.09327 
L 375.18446 201.982153 
L 375.1227 201.431009 
L 375.06094 201.435418 
L 375.06094 201.324302 
L 374.99918 201.151094 
L 374.875661 201.07097 
L 374.875661 201.049105 
L 374.813901 200.76682 
L 374.752141 200.771326 
L 374.752141 200.660518 
L 374.690381 200.315054 
L 374.628621 200.319624 
L 374.628621 200.208539 
L 374.566862 200.121156 
L 374.505102 200.125755 
L 374.505102 200.014475 
L 374.443342 199.428435 
L 374.381582 199.43313 
L 374.381582 199.322113 
L 374.319822 199.225239 
L 374.258062 199.229964 
L 374.258062 199.118819 
L 374.196303 198.840114 
L 374.134543 198.844894 
L 374.134543 198.733785 
L 374.072783 197.021362 
L 374.011023 197.026388 
L 374.011023 196.915666 
L 373.949263 196.31624 
L 373.887503 196.321361 
L 373.887503 196.210029 
L 373.825744 196.121061 
L 373.640464 196.053635 
L 373.640464 196.025614 
L 373.578704 195.28398 
L 373.516945 195.289243 
L 373.516945 195.178119 
L 373.455185 193.864892 
L 373.393425 193.870339 
L 373.393425 193.759803 
L 373.393425 193.507179 
L 373.331665 193.511622 
L 373.208145 193.47946 
L 373.208145 193.411888 
L 373.146386 193.076706 
L 373.084626 193.082259 
L 373.084626 192.970849 
L 373.022866 192.096961 
L 372.837586 192.006616 
L 372.837586 192.003179 
L 372.775827 191.793342 
L 372.714067 191.799062 
L 372.714067 191.688602 
L 372.652307 191.2219 
L 372.528787 191.198771 
L 372.528787 191.121927 
L 372.467028 190.543693 
L 372.343508 190.477129 
L 372.343508 190.44471 
L 372.281748 189.180449 
L 372.219988 189.186497 
L 372.219988 189.075591 
L 372.158228 188.690595 
L 372.096469 188.696704 
L 372.096469 188.585714 
L 372.034709 188.030352 
L 371.972949 188.036542 
L 371.972949 187.926047 
L 371.911189 187.571145 
L 371.849429 187.577391 
L 371.849429 187.465779 
L 371.787669 187.037296 
L 371.72591 187.043607 
L 371.72591 186.931997 
L 371.66415 186.572575 
L 371.60239 186.578943 
L 371.60239 186.467819 
L 371.54063 186.3809 
L 371.355351 186.343305 
L 371.355351 186.289458 
L 371.293591 185.754525 
L 371.231831 185.760994 
L 371.231831 185.650113 
L 371.170071 185.124445 
L 371.108311 185.130989 
L 371.108311 185.020034 
L 371.046552 183.035327 
L 370.923032 183.02383 
L 370.923032 182.93771 
L 370.861272 182.481513 
L 370.799512 182.488357 
L 370.799512 182.378057 
L 370.799512 182.233873 
L 370.737752 182.238891 
L 370.614233 182.206245 
L 370.614233 182.141139 
L 370.552473 181.96289 
L 370.490713 181.969797 
L 370.490713 181.85877 
L 370.428953 181.765511 
L 370.367194 181.772442 
L 370.367194 181.662329 
L 370.305434 181.217807 
L 370.243674 181.224799 
L 370.243674 181.11399 
L 370.181914 180.384924 
L 370.120154 180.392008 
L 370.120154 180.281244 
L 370.058394 179.627477 
L 369.996635 179.634643 
L 369.996635 179.524479 
L 369.934875 178.284135 
L 369.873115 178.291442 
L 369.873115 178.181681 
L 369.811355 177.885807 
L 369.749595 177.893158 
L 369.749595 177.781601 
L 369.687836 177.120695 
L 369.564316 177.034387 
L 369.564316 177.025171 
L 369.502556 176.227483 
L 369.379036 176.185427 
L 369.379036 176.132973 
L 369.379036 175.849822 
L 369.317277 175.852559 
L 369.255517 175.860124 
L 369.255517 175.748912 
L 369.193757 175.51556 
L 369.131997 175.52316 
L 369.131997 175.412929 
L 369.070237 175.341881 
L 369.008477 175.349501 
L 369.008477 175.238501 
L 368.946718 175.084994 
L 368.884958 175.092642 
L 368.884958 174.983018 
L 368.823198 174.463805 
L 368.761438 174.471515 
L 368.761438 174.361835 
L 368.699678 173.191859 
L 368.637919 173.199692 
L 368.637919 173.09009 
L 368.576159 172.750266 
L 368.514399 172.758143 
L 368.514399 172.646738 
L 368.452639 172.367303 
L 368.390879 172.375219 
L 368.390879 172.264992 
L 368.329119 172.062309 
L 368.26736 172.070256 
L 368.26736 171.958784 
L 368.2056 171.835209 
L 368.14384 171.843179 
L 368.14384 171.733579 
L 368.08208 171.221607 
L 367.95856 171.203245 
L 367.95856 171.125642 
L 367.896801 171.000999 
L 367.835041 171.009053 
L 367.835041 170.898989 
L 367.773281 170.38587 
L 367.711521 170.393983 
L 367.711521 170.284469 
L 367.649761 169.370872 
L 367.588002 169.379077 
L 367.588002 169.268724 
L 367.526242 168.511749 
L 367.464482 168.520031 
L 367.464482 168.40956 
L 367.402722 167.781979 
L 367.340962 167.790326 
L 367.340962 167.680343 
L 367.279202 166.546451 
L 367.217443 166.554904 
L 367.217443 166.443722 
L 367.155683 165.934918 
L 367.032163 165.872921 
L 367.032163 165.841949 
L 366.970403 165.392703 
L 366.908643 165.401258 
L 366.908643 165.289284 
L 366.846884 164.40563 
L 366.785124 164.414267 
L 366.785124 164.302329 
L 366.723364 163.527495 
L 366.661604 163.536203 
L 366.661604 163.424845 
L 366.599844 162.753564 
L 366.538085 162.762335 
L 366.538085 162.652069 
L 366.476325 162.223809 
L 366.414565 162.232623 
L 366.414565 162.120527 
L 366.352805 161.735993 
L 366.291045 161.744847 
L 366.291045 161.634978 
L 366.229285 160.864562 
L 366.167526 160.873483 
L 366.167526 160.764714 
L 366.105766 160.563188 
L 366.044006 160.572134 
L 366.044006 160.46235 
L 365.982246 159.180749 
L 365.858726 159.135368 
L 365.858726 159.088745 
L 365.796967 158.412526 
L 365.735207 158.421631 
L 365.735207 158.313339 
L 365.673447 157.731877 
L 365.611687 157.741032 
L 365.611687 157.63058 
L 365.549927 156.802542 
L 365.488168 156.811763 
L 365.488168 156.702886 
L 365.426408 156.552751 
L 365.364648 156.561992 
L 365.364648 156.452311 
L 365.302888 155.866284 
L 365.179368 155.870902 
L 365.179368 155.773038 
L 365.117609 153.856826 
L 365.055849 153.866244 
L 365.055849 153.757925 
L 364.994089 153.539859 
L 364.932329 153.5493 
L 364.932329 153.440015 
L 364.870569 153.254957 
L 364.74705 153.178767 
L 364.74705 153.163727 
L 364.68529 152.393029 
L 364.56177 152.386467 
L 364.56177 152.304436 
L 364.50001 151.693081 
L 364.376491 151.670461 
L 364.376491 151.602524 
L 364.314731 150.287307 
L 364.252971 150.296954 
L 364.252971 150.188566 
L 364.191211 149.701261 
L 364.067692 149.698639 
L 364.067692 149.610569 
L 364.005932 149.299362 
L 363.944172 149.309071 
L 363.944172 149.197816 
L 363.882412 148.928035 
L 363.758893 148.94189 
L 363.758893 148.83516 
L 363.697133 148.466257 
L 363.573613 148.463063 
L 363.573613 148.377758 
L 363.511853 147.912223 
L 363.388334 147.845321 
L 363.388334 147.822225 
L 363.326574 147.449041 
L 363.264814 147.458865 
L 363.264814 147.347941 
L 363.203054 147.15265 
L 363.141294 147.162492 
L 363.141294 147.050711 
L 363.079534 146.741195 
L 363.017775 146.751061 
L 363.017775 146.644054 
L 362.956015 146.186992 
L 362.894255 146.196888 
L 362.894255 146.088381 
L 362.832495 145.898618 
L 362.770735 145.908531 
L 362.770735 145.799219 
L 362.708976 145.227409 
L 362.523696 145.232587 
L 362.523696 145.146126 
L 362.461936 144.914288 
L 362.400176 144.924257 
L 362.400176 144.81219 
L 362.338417 144.194081 
L 362.153137 144.154445 
L 362.153137 144.116402 
L 362.091377 143.756904 
L 362.029617 143.766936 
L 362.029617 143.65802 
L 361.967858 142.793127 
L 361.844338 142.800185 
L 361.844338 142.701833 
L 361.782578 142.176906 
L 361.659059 142.137269 
L 361.659059 142.090659 
L 361.597299 141.598222 
L 361.473779 141.510536 
L 361.412019 140.805497 
L 361.2885 140.812109 
L 361.2885 140.715838 
L 361.22674 140.032195 
L 361.16498 140.042402 
L 361.16498 139.930374 
L 361.10322 138.933793 
L 360.9797 138.939953 
L 360.9797 138.846612 
L 360.917941 138.379983 
L 360.856181 138.390259 
L 360.856181 138.28117 
L 360.794421 138.116364 
L 360.670901 138.129632 
L 360.670901 138.027173 
L 360.609142 137.780311 
L 360.485622 137.778814 
L 360.485622 137.690271 
L 360.423862 136.760363 
L 360.362102 136.770707 
L 360.362102 136.665037 
L 360.362102 136.619675 
L 360.300342 136.630024 
L 360.238583 136.640376 
L 360.238583 136.534364 
L 360.176823 135.964943 
L 360.115063 135.975318 
L 360.115063 135.867722 
L 360.053303 134.976885 
L 359.929783 134.887751 
L 359.868024 134.47165 
L 359.806264 134.482076 
L 359.806264 134.370866 
L 359.744504 134.25388 
L 359.682744 134.264316 
L 359.682744 134.152545 
L 359.620984 133.640569 
L 359.559225 133.651025 
L 359.559225 133.545849 
L 359.497465 133.059668 
L 359.435705 133.070143 
L 359.435705 132.963631 
L 359.373945 132.965907 
L 359.373945 132.826242 
L 359.312185 132.836726 
L 359.312185 132.72965 
L 359.250425 132.434074 
L 359.188666 132.444571 
L 359.188666 132.336572 
L 359.126906 132.046734 
L 359.065146 132.057244 
L 359.065146 131.948329 
L 359.003386 131.647508 
L 358.879866 131.668556 
L 358.879866 131.558695 
L 358.879866 131.440104 
L 358.818107 131.442154 
L 358.756347 131.452687 
L 358.756347 131.342292 
L 358.694587 130.667917 
L 358.571067 130.602736 
L 358.571067 130.576819 
L 358.571067 130.455691 
L 358.509308 130.45759 
L 358.385788 130.42671 
L 358.385788 130.374645 
L 358.385788 130.305139 
L 358.324028 130.31571 
L 358.262268 130.326283 
L 358.262268 130.221843 
L 358.200508 129.424278 
L 358.076989 129.356826 
L 358.076989 129.339079 
L 358.015229 129.118389 
L 357.891709 129.041426 
L 357.891709 129.032492 
L 357.82995 128.855106 
L 357.70643 128.768597 
L 357.64467 128.127846 
L 357.52115 128.057976 
L 357.52115 128.039728 
L 357.459391 127.95903 
L 357.397631 127.969672 
L 357.397631 127.859849 
L 357.335871 127.33629 
L 357.212351 127.25565 
L 357.212351 127.246371 
L 357.150591 126.753453 
L 357.088832 126.764122 
L 357.088832 126.651536 
L 357.027072 126.445722 
L 356.965312 126.4564 
L 356.965312 126.352538 
L 356.965312 126.172641 
L 356.903552 126.183324 
L 356.841792 126.194009 
L 356.841792 126.089571 
L 356.780033 126.005131 
L 356.718273 126.015822 
L 356.718273 125.910978 
L 356.656513 125.807053 
L 356.594753 125.81775 
L 356.594753 125.712458 
L 356.532993 125.531166 
L 356.471233 125.541871 
L 356.471233 125.43597 
L 356.409474 124.933362 
L 356.347714 124.944077 
L 356.347714 124.836899 
L 356.347714 124.602283 
L 356.285954 124.603205 
L 356.100674 124.576549 
L 356.100674 124.527474 
L 356.038915 124.034979 
L 355.915395 124.016779 
L 355.915395 123.947276 
L 355.915395 123.927401 
L 355.853635 123.938142 
L 355.791875 123.948885 
L 355.791875 123.83944 
L 355.730116 122.895356 
L 355.668356 122.90611 
L 355.668356 122.794424 
L 355.606596 122.530039 
L 355.483076 122.510678 
L 355.483076 122.439056 
L 355.421316 121.956082 
L 355.359557 121.966851 
L 355.359557 121.86341 
L 355.297797 121.541815 
L 355.236037 121.55259 
L 355.236037 121.448301 
L 355.174277 120.797345 
L 354.927238 120.798193 
L 354.927238 120.734694 
L 354.865478 120.426864 
L 354.741958 120.427143 
L 354.741958 120.341825 
L 354.680199 120.341948 
L 354.680199 120.074407 
L 354.618439 120.085207 
L 354.618439 119.977819 
L 354.556679 119.82714 
L 354.433159 119.827183 
L 354.433159 119.740829 
L 354.371399 119.578516 
L 354.24788 119.600139 
L 354.24788 119.491658 
L 354.18612 119.142945 
L 354.12436 119.153762 
L 354.12436 119.044345 
L 354.0626 118.59321 
L 354.00084 118.60403 
L 354.00084 118.493465 
L 353.939081 117.735277 
L 353.877321 117.746099 
L 353.877321 117.633754 
L 353.815561 117.486911 
L 353.753801 117.497737 
L 353.753801 117.396142 
L 353.692041 117.350447 
L 353.630282 117.361276 
L 353.630282 117.25939 
L 353.568522 116.849384 
L 353.445002 116.84821 
L 353.445002 116.7682 
L 353.383242 116.400292 
L 353.321482 116.411127 
L 353.321482 116.307386 
L 353.259723 115.691719 
L 353.197963 115.702553 
L 353.197963 115.597454 
L 353.136203 114.985369 
L 353.074443 114.996202 
L 353.074443 114.889738 
L 353.012683 114.841339 
L 352.889164 114.851159 
L 352.889164 114.756235 
L 352.827404 114.552914 
L 352.765644 114.563753 
L 352.765644 114.456369 
L 352.703884 114.311739 
L 352.642124 114.322581 
L 352.642124 114.214698 
L 352.580365 113.440277 
L 352.518605 113.451113 
L 352.518605 113.341531 
L 352.456845 113.095861 
L 352.395085 113.106698 
L 352.395085 112.996414 
L 352.333325 112.773733 
L 352.024526 112.729331 
L 352.024526 112.716992 
L 352.024526 112.46967 
L 351.962766 112.480514 
L 351.839247 112.452616 
L 351.839247 112.390565 
L 351.777487 112.252218 
L 351.530448 112.23335 
L 351.530448 112.183476 
L 351.468688 111.83146 
L 351.283408 111.776098 
L 351.283408 111.763525 
L 351.221648 111.370614 
L 351.098129 111.379667 
L 351.098129 111.290947 
L 351.036369 110.843393 
L 350.974609 110.854248 
L 350.974609 110.751889 
L 350.912849 110.711497 
L 350.66581 110.75494 
L 350.66581 110.652305 
L 350.60405 110.521751 
L 350.480531 110.45331 
L 350.480531 110.440416 
L 350.418771 110.140994 
L 350.357011 110.151859 
L 350.357011 110.048064 
L 350.295251 109.010852 
L 350.109972 108.964044 
L 350.109972 108.937568 
L 350.048212 108.709598 
L 349.924692 108.731302 
L 349.924692 108.624848 
L 349.862932 108.315192 
L 349.739413 108.336893 
L 349.739413 108.229671 
L 349.677653 108.133106 
L 349.554133 108.060661 
L 349.554133 108.047199 
L 349.492373 107.896269 
L 349.307094 107.888319 
L 349.307094 107.82073 
L 349.245334 107.546881 
L 349.183574 107.557735 
L 349.183574 107.448918 
L 349.121814 107.036242 
L 348.998295 106.975618 
L 348.998295 106.948153 
L 348.936535 106.296081 
L 348.874775 106.306916 
L 348.874775 106.195723 
L 348.813015 106.136957 
L 348.689496 106.088947 
L 348.689496 106.047099 
L 348.627736 105.69404 
L 348.504216 105.687621 
L 348.504216 105.603295 
L 348.442456 105.515597 
L 348.380697 105.52643 
L 348.380697 105.413627 
L 348.318937 105.198226 
L 348.133657 105.131472 
L 348.071897 104.514768 
L 347.948378 104.536407 
L 347.948378 104.435977 
L 347.886618 104.274246 
L 347.701339 104.205823 
L 347.639579 104.028845 
L 347.577819 104.039665 
L 347.577819 103.938304 
L 347.516059 103.585755 
L 347.392539 103.56363 
L 347.392539 103.50525 
L 347.33078 103.193983 
L 347.1455 103.152969 
L 347.1455 103.123569 
L 347.08374 102.290626 
L 346.960221 102.252558 
L 346.960221 102.20779 
L 346.898461 102.039181 
L 346.713181 102.011623 
L 346.713181 101.966647 
L 346.651422 101.676765 
L 346.527902 101.653102 
L 346.527902 101.59275 
L 346.466142 101.346382 
L 346.342622 101.367936 
L 346.342622 101.26174 
L 346.280863 101.029107 
L 346.033823 100.995942 
L 346.033823 100.965409 
L 345.972064 100.577914 
L 345.910304 100.58868 
L 345.910304 100.481023 
L 345.848544 100.214111 
L 345.786784 100.224869 
L 345.786784 100.116554 
L 345.725024 99.582957 
L 345.601505 99.573189 
L 345.601505 99.495003 
L 345.601505 99.354029 
L 345.539745 99.364764 
L 345.416225 99.370556 
L 345.416225 99.276368 
L 345.354465 99.082552 
L 345.230946 99.009385 
L 345.230946 98.993599 
L 345.169186 98.703652 
L 344.983906 98.688224 
L 344.983906 98.624691 
L 344.922147 98.332771 
L 344.675107 98.263785 
L 344.613347 97.985931 
L 344.489828 97.991294 
L 344.489828 97.894785 
L 344.428068 97.728189 
L 344.304548 97.73347 
L 344.304548 97.652687 
L 344.242788 97.533935 
L 344.181029 97.544644 
L 344.181029 97.447373 
L 344.119269 97.425624 
L 343.995749 97.447046 
L 343.995749 97.34957 
L 343.933989 96.952545 
L 343.74871 96.902778 
L 343.74871 96.886394 
L 343.74871 96.853612 
L 343.68695 96.86431 
L 343.62519 96.875011 
L 343.62519 96.77656 
L 343.56343 96.391957 
L 343.501671 96.402642 
L 343.501671 96.303441 
L 343.439911 96.198196 
L 343.378151 96.208877 
L 343.378151 96.109343 
L 343.316391 95.770455 
L 343.254631 95.781121 
L 343.254631 95.680901 
L 343.192871 95.272326 
L 343.069352 95.20945 
L 343.069352 95.192603 
L 343.069352 95.158895 
L 343.007592 95.169541 
L 342.884072 95.106486 
L 342.884072 95.089602 
L 342.822313 94.897301 
L 342.637033 94.912295 
L 342.637033 94.827516 
L 342.575273 94.634243 
L 342.451754 94.570366 
L 342.451754 94.553321 
L 342.389994 94.393267 
L 342.204714 94.390982 
L 342.204714 94.322538 
L 342.142954 94.247517 
L 341.834155 94.197766 
L 341.772396 94.122486 
L 341.710636 94.133129 
L 341.710636 94.02987 
L 341.648876 93.764361 
L 341.587116 93.774991 
L 341.587116 93.671136 
L 341.525356 93.473564 
L 341.278317 93.481291 
L 341.278317 93.411698 
L 341.216557 93.335227 
L 341.031278 93.314788 
L 341.031278 93.262427 
L 340.969518 93.220651 
L 340.907758 93.231278 
L 340.907758 93.126343 
L 340.907758 93.073815 
L 340.845998 93.084437 
L 340.784238 93.095061 
L 340.784238 92.989872 
L 340.722479 92.895135 
L 340.598959 92.846039 
L 340.598959 92.810842 
L 340.537199 92.627546 
L 340.475439 92.638158 
L 340.475439 92.532146 
L 340.475439 92.479078 
L 340.413679 92.489685 
L 340.2284 92.468401 
L 340.2284 92.415239 
L 340.16664 92.194988 
L 340.10488 92.205591 
L 340.10488 92.098769 
L 340.043121 92.002374 
L 339.981361 92.012971 
L 339.981361 91.905802 
L 339.919601 91.791145 
L 339.796081 91.812328 
L 339.796081 91.704776 
L 339.734321 91.463738 
L 339.610802 91.448873 
L 339.610802 91.376763 
L 339.549042 91.242887 
L 339.363762 91.220358 
L 339.363762 91.166057 
L 339.302003 91.031612 
L 339.054963 90.964921 
L 338.993204 90.920933 
L 338.869684 90.905684 
L 338.869684 90.832819 
L 338.807924 90.569444 
L 338.622645 90.509567 
L 338.622645 90.491237 
L 338.560885 90.078851 
L 338.499125 90.089395 
L 338.499125 89.978626 
L 338.437365 89.822671 
L 338.128566 89.80122 
L 338.128566 89.764116 
L 338.066806 89.607435 
L 338.005046 89.61797 
L 338.005046 89.506257 
L 337.943287 89.25541 
L 337.881527 89.265928 
L 337.881527 89.153601 
L 337.881527 89.09737 
L 337.819767 89.107881 
L 337.449208 89.077148 
L 337.449208 89.058361 
L 337.387448 88.805319 
L 337.325688 88.81583 
L 337.325688 88.721452 
L 337.263928 88.618531 
L 337.140409 88.620619 
L 337.140409 88.544867 
L 337.140409 88.393117 
L 337.078649 88.403613 
L 336.955129 88.386616 
L 336.955129 88.329584 
L 336.89337 88.149627 
L 336.76985 88.075175 
L 336.70809 87.798564 
L 336.64633 87.809039 
L 336.64633 87.713072 
L 336.64633 87.655428 
L 336.58457 87.665896 
L 336.461051 87.667612 
L 336.461051 87.590646 
L 336.399291 87.389011 
L 336.275771 87.371295 
L 336.275771 87.313299 
L 336.214011 87.24635 
L 336.152252 87.256808 
L 336.152252 87.159921 
L 336.090492 87.05393 
L 335.905212 86.988084 
L 335.843453 86.901193 
L 335.658173 86.874067 
L 335.658173 86.835052 
L 335.658173 86.756958 
L 335.596413 86.767404 
L 335.472894 86.788306 
L 335.472894 86.690548 
L 335.411134 86.446178 
L 335.349374 86.456613 
L 335.349374 86.358355 
L 335.287614 86.17185 
L 335.164094 86.192696 
L 335.164094 86.09401 
L 335.164094 86.014962 
L 335.102335 86.025378 
L 334.855295 85.968105 
L 334.793536 85.740433 
L 334.731776 85.750844 
L 334.731776 85.651396 
L 334.670016 85.402571 
L 334.546496 85.343395 
L 334.546496 85.32339 
L 334.546496 85.102966 
L 334.484736 85.113343 
L 334.422977 85.123723 
L 334.422977 85.023292 
L 334.361217 84.953216 
L 334.237697 84.91356 
L 334.237697 84.873261 
L 334.175937 84.35764 
L 334.114178 84.36798 
L 334.114178 84.266378 
L 334.052418 84.093456 
L 333.805378 84.073569 
L 333.805378 84.032736 
L 333.743619 83.40714 
L 333.681859 83.417428 
L 333.681859 83.314328 
L 333.620099 82.952204 
L 333.37306 82.910221 
L 333.37306 82.889446 
L 333.3113 82.691618 
L 333.24954 82.70187 
L 333.24954 82.597593 
L 333.18778 82.398823 
L 333.002501 82.324781 
L 332.940741 82.209101 
L 332.755461 82.19777 
L 332.755461 82.13468 
L 332.693702 82.039633 
L 332.570182 81.954643 
L 332.508422 81.5203 
L 332.261383 81.497344 
L 332.261383 81.454814 
L 332.199623 81.337263 
L 332.137863 81.347454 
L 332.137863 81.240819 
L 332.076103 81.101445 
L 331.890824 81.024948 
L 331.829064 80.863526 
L 331.643785 80.829571 
L 331.643785 80.786561 
L 331.582025 80.60286 
L 331.334985 80.535546 
L 331.273226 80.264252 
L 331.149706 80.262839 
L 331.149706 80.175983 
L 331.087946 79.968519 
L 330.840907 79.899959 
L 330.779147 79.84456 
L 330.346828 79.806101 
L 330.285068 79.706668 
L 330.161549 79.726936 
L 330.161549 79.617185 
L 330.099789 79.473379 
L 329.79099 79.435869 
L 329.79099 79.413817 
L 329.72923 79.24728 
L 329.482191 79.28776 
L 329.482191 79.177097 
L 329.482191 78.999694 
L 329.420431 79.009798 
L 329.235151 78.95124 
L 329.235151 78.929002 
L 329.173392 78.738647 
L 329.111632 78.74874 
L 329.111632 78.637131 
L 329.049872 78.401071 
L 328.926352 78.353932 
L 328.926352 78.309044 
L 328.926352 78.24166 
L 328.864593 78.251722 
L 328.679313 78.214459 
L 328.679313 78.169448 
L 328.617553 77.999183 
L 328.555793 78.009235 
L 328.555793 77.9189 
L 328.494034 77.793231 
L 328.432274 77.803271 
L 328.432274 77.712649 
L 328.370514 77.313499 
L 328.246994 77.310708 
L 328.246994 77.242262 
L 328.185235 77.000743 
L 327.999955 76.961944 
L 327.999955 76.93901 
L 327.938195 76.78825 
L 327.567636 76.779109 
L 327.567636 76.756085 
L 327.567636 76.686971 
L 327.505876 76.696949 
L 327.320597 76.703843 
L 327.320597 76.63462 
L 327.258837 76.459685 
L 327.135318 76.386983 
L 327.073558 76.280976 
L 326.888278 76.264416 
L 326.888278 76.217936 
L 326.826518 76.088275 
L 326.455959 76.054763 
L 326.3942 75.947964 
L 326.27068 75.897722 
L 326.27068 75.874322 
L 326.20892 75.555898 
L 326.023641 75.515119 
L 326.023641 75.491581 
L 325.961881 75.31293 
L 325.838361 75.332762 
L 325.838361 75.238281 
L 325.776601 75.011458 
L 325.653082 74.983805 
L 325.653082 74.936332 
L 325.591322 74.874953 
L 325.529562 74.884841 
L 325.529562 74.789702 
L 325.529562 74.622925 
L 325.467802 74.632792 
L 325.344283 74.628674 
L 325.344283 74.557046 
L 325.344283 74.389652 
L 325.282523 74.399505 
L 325.159003 74.395269 
L 325.159003 74.323376 
L 325.097243 74.069019 
L 324.973724 74.064617 
L 324.973724 73.992367 
L 324.973724 73.968269 
L 324.911964 73.978095 
L 324.664925 73.945058 
L 324.664925 73.920919 
L 324.603165 73.882445 
L 324.417885 73.815219 
L 324.356125 73.631207 
L 324.109086 73.59765 
L 324.109086 73.573353 
L 324.109086 73.524738 
L 324.047326 73.534553 
L 323.800287 73.476477 
L 323.738527 73.388799 
L 323.491488 73.330421 
L 323.429728 73.291359 
L 323.244449 73.222939 
L 323.182689 73.134741 
L 323.059169 73.12984 
L 323.059169 73.05621 
L 322.997409 73.016888 
L 322.87389 72.938133 
L 322.81213 72.7508 
L 322.565091 72.740589 
L 322.565091 72.691177 
L 322.503331 72.552528 
L 322.379811 72.522538 
L 322.379811 72.472954 
L 322.379811 72.44815 
L 322.318051 72.457924 
L 322.194532 72.403001 
L 322.194532 72.378158 
L 322.132772 72.31335 
L 322.009252 72.233319 
L 321.947492 72.143375 
L 321.823973 72.06304 
L 321.762213 71.922756 
L 321.515174 71.861528 
L 321.453414 71.720681 
L 321.268134 71.749897 
L 321.268134 71.64931 
L 321.268134 71.498187 
L 321.206375 71.507908 
L 320.897575 71.48084 
L 320.897575 71.455586 
L 320.835816 71.237633 
L 320.465257 71.194473 
L 320.403497 71.026295 
L 320.156458 71.039672 
L 320.156458 70.963252 
L 320.156458 70.937762 
L 320.094698 70.947465 
L 319.909418 70.900045 
L 319.909418 70.874512 
L 319.909418 70.695548 
L 319.847658 70.705236 
L 319.662379 70.657464 
L 319.662379 70.63183 
L 319.600619 70.307475 
L 319.29182 70.278475 
L 319.29182 70.252683 
L 319.23006 70.159082 
L 319.106541 70.100846 
L 319.106541 70.074978 
L 319.106541 70.023216 
L 319.044781 70.032864 
L 318.983021 70.042514 
L 318.983021 69.938869 
L 318.921261 69.740791 
L 318.859501 69.750417 
L 318.859501 69.646341 
L 318.797741 69.028563 
L 318.550702 68.961711 
L 318.488942 68.813353 
L 318.365423 68.806088 
L 318.365423 68.72697 
L 318.303663 68.525122 
L 318.241903 68.534642 
L 318.241903 68.428727 
L 318.180143 68.358702 
L 317.933104 68.290528 
L 317.871344 68.007179 
L 317.439025 67.96676 
L 317.439025 67.806234 
L 317.377265 67.815707 
L 317.130226 67.773202 
L 317.130226 67.746375 
L 317.068466 67.621569 
L 317.006707 67.631034 
L 317.006707 67.523434 
L 316.944947 67.371203 
L 316.574388 67.319863 
L 316.512628 67.139867 
L 316.389108 67.104514 
L 316.389108 67.050256 
L 316.327349 66.978219 
L 315.83327 66.999273 
L 315.83327 66.944833 
L 315.83327 66.9176 
L 315.77151 66.927031 
L 315.586231 66.873553 
L 315.586231 66.84627 
L 315.524471 66.691797 
L 315.400951 66.655913 
L 315.400951 66.601155 
L 315.339191 66.44605 
L 315.215672 66.354958 
L 315.153912 66.144101 
L 314.906873 66.098811 
L 314.906873 66.071197 
L 314.906873 66.015942 
L 314.845113 66.025305 
L 314.289274 65.998966 
L 314.289274 65.971256 
L 314.227515 65.980635 
L 314.042235 65.981059 
L 314.042235 65.897804 
L 313.980475 65.76822 
L 313.918715 65.777587 
L 313.918715 65.666232 
L 313.918715 65.554725 
L 313.856956 65.56407 
L 313.609916 65.489757 
L 313.548156 65.331213 
L 313.424637 65.321858 
L 313.424637 65.237733 
L 313.362877 65.106643 
L 312.807039 65.10612 
L 312.745279 64.748432 
L 312.559999 64.691359 
L 312.498239 64.530445 
L 312.127681 64.529295 
L 312.127681 64.500853 
L 312.127681 64.472402 
L 312.065921 64.481684 
L 312.004161 64.490969 
L 312.004161 64.405535 
L 311.942401 64.272208 
L 311.757122 64.2143 
L 311.695362 63.937175 
L 311.571842 63.926945 
L 311.571842 63.869514 
L 311.571842 63.812042 
L 311.510082 63.821266 
L 311.324803 63.791416 
L 311.324803 63.762631 
L 311.263043 63.656605 
L 311.016004 63.606899 
L 310.954244 63.384746 
L 310.892484 63.39394 
L 310.892484 63.306998 
L 310.830724 63.142004 
L 310.645445 63.08226 
L 310.645445 63.053153 
L 310.583685 63.062317 
L 310.336646 63.011572 
L 310.274886 62.904004 
L 310.151366 62.834642 
L 310.089606 62.75601 
L 309.966087 62.745018 
L 309.966087 62.686407 
L 309.966087 62.569059 
L 309.904327 62.578188 
L 309.842567 62.587321 
L 309.842567 62.49918 
L 309.842567 62.381513 
L 309.780807 62.390623 
L 309.595528 62.359048 
L 309.595528 62.32957 
L 309.595528 62.300082 
L 309.533768 62.30919 
L 309.101449 62.284427 
L 309.039689 62.145629 
L 308.91617 62.104593 
L 308.91617 62.074949 
L 308.91617 62.015628 
L 308.85441 62.024725 
L 308.545611 61.981133 
L 308.545611 61.951403 
L 308.483851 61.960505 
L 308.422091 61.96961 
L 308.422091 61.880334 
L 308.360331 61.829854 
L 308.175052 61.767663 
L 308.113292 61.657283 
L 308.051532 61.666363 
L 308.051532 61.576636 
L 307.989772 61.43593 
L 307.866253 61.454046 
L 307.866253 61.364027 
L 307.866253 61.273911 
L 307.804493 61.282952 
L 307.742733 61.291996 
L 307.742733 61.20176 
L 307.680973 60.999839 
L 307.495694 60.966491 
L 307.495694 60.936278 
L 307.495694 60.906054 
L 307.433934 60.915061 
L 307.372174 60.924071 
L 307.372174 60.833309 
L 307.372174 60.499675 
L 307.310414 60.508634 
L 307.186895 60.465736 
L 307.186895 60.435306 
L 307.125135 60.322417 
L 307.001615 60.309814 
L 307.001615 60.248787 
L 307.001615 60.218257 
L 306.939855 60.227193 
L 306.754576 60.162316 
L 306.692816 60.079437 
L 306.507537 60.106232 
L 306.507537 60.014281 
L 306.507537 59.983608 
L 306.445777 59.99253 
L 306.075218 59.953964 
L 306.013458 59.839832 
L 305.704659 59.791991 
L 305.642899 59.522839 
L 305.3341 59.474375 
L 305.27234 59.297025 
L 305.148821 59.283689 
L 305.148821 59.221477 
L 305.087061 58.887313 
L 304.778262 58.837624 
L 304.778262 58.774994 
L 304.716502 58.783817 
L 304.469463 58.756423 
L 304.469463 58.725047 
L 304.407703 58.639663 
L 304.345943 58.64848 
L 304.345943 58.554152 
L 304.345943 58.522686 
L 304.284183 58.53149 
L 304.098904 58.463403 
L 304.037144 58.346002 
L 303.851864 58.34079 
L 303.851864 58.277568 
L 303.790104 58.223079 
L 303.604825 58.154394 
L 303.543065 58.099744 
L 303.234266 58.048351 
L 303.172506 57.961713 
L 302.925467 57.9331 
L 302.925467 57.90123 
L 302.925467 57.837454 
L 302.863707 57.846213 
L 302.554908 57.890061 
L 302.554908 57.794229 
L 302.554908 57.762261 
L 302.493148 57.771023 
L 302.369629 57.788557 
L 302.369629 57.692542 
L 302.307869 57.50892 
L 302.184349 57.526395 
L 302.184349 57.430016 
L 302.122589 57.310052 
L 301.75203 57.330161 
L 301.75203 57.265664 
L 301.75203 57.201119 
L 301.69027 57.209832 
L 301.443231 57.180076 
L 301.443231 57.147738 
L 301.381471 57.091733 
L 301.010912 57.046789 
L 301.010912 57.014347 
L 300.949153 57.023058 
L 300.455074 56.995349 
L 300.393314 56.84127 
L 300.084515 56.786946 
L 300.022755 56.664931 
L 299.837476 56.658304 
L 299.837476 56.592814 
L 299.837476 56.56005 
L 299.775716 56.568738 
L 299.528677 56.537913 
L 299.528677 56.505089 
L 299.466917 56.316542 
L 298.417 56.365299 
L 298.35524 56.307919 
L 298.169961 56.267869 
L 298.169961 56.234766 
L 298.108201 56.077733 
L 297.552362 56.056244 
L 297.490603 55.998385 
L 297.181803 56.041862 
L 297.181803 55.941864 
L 297.120044 55.883815 
L 297.058284 55.8925 
L 297.058284 55.79228 
L 297.058284 55.691943 
L 296.996524 55.700602 
L 296.687725 55.64341 
L 296.625965 55.551404 
L 296.440686 55.476543 
L 296.440686 55.442906 
L 296.378926 55.451551 
L 296.193646 55.443836 
L 296.193646 55.376457 
L 296.193646 55.174005 
L 296.131886 55.18262 
L 296.070127 55.191237 
L 296.070127 55.089804 
L 296.070127 54.988252 
L 296.008367 54.996844 
L 295.514288 55.031776 
L 295.514288 54.963893 
L 295.514288 54.861968 
L 295.452528 54.870561 
L 295.02021 54.828636 
L 294.95845 54.632521 
L 294.649651 54.641249 
L 294.649651 54.572825 
L 294.649651 54.538593 
L 294.587891 54.547167 
L 294.402611 54.504364 
L 294.402611 54.47007 
L 294.340852 54.306949 
L 294.093812 54.23793 
L 294.093812 54.203489 
L 294.032052 54.212033 
L 293.846773 54.203208 
L 293.846773 54.134218 
L 293.846773 54.099702 
L 293.785013 54.108238 
L 293.476214 54.081837 
L 293.476214 54.047249 
L 293.414454 53.986563 
L 293.167415 53.951397 
L 293.167415 53.916714 
L 293.105655 53.682046 
L 292.796856 53.62006 
L 292.796856 53.585194 
L 292.735096 53.593689 
L 292.673336 53.602188 
L 292.673336 53.497474 
L 292.673336 53.462541 
L 292.611577 53.471022 
L 292.241018 53.416986 
L 292.179258 53.355399 
L 291.623419 53.326491 
L 291.623419 53.18581 
L 291.56166 53.194285 
L 291.37638 53.114006 
L 291.31462 53.01661 
L 291.067581 53.015128 
L 291.067581 52.944407 
L 291.005821 52.775784 
L 290.758782 52.774055 
L 290.758782 52.703051 
L 290.758782 52.631989 
L 290.697022 52.640408 
L 290.388223 52.575755 
L 290.326463 52.334435 
L 290.141184 52.252308 
L 290.141184 52.180702 
L 290.079424 52.189072 
L 289.894144 52.214203 
L 289.894144 52.106618 
L 289.894144 52.070727 
L 289.832384 52.079088 
L 289.585345 52.004723 
L 289.523585 51.941104 
L 289.214786 51.946866 
L 289.214786 51.87474 
L 289.153026 51.774777 
L 288.844227 51.780349 
L 288.844227 51.707977 
L 288.844227 51.635547 
L 288.782467 51.643875 
L 288.411909 51.657642 
L 288.411909 51.585042 
L 288.350149 51.375184 
L 288.164869 51.363672 
L 288.164869 51.290757 
L 288.103109 51.116473 
L 288.04135 51.124745 
L 288.04135 51.014998 
L 287.97959 50.876691 
L 287.91783 50.884928 
L 287.91783 50.774829 
L 287.91783 50.701353 
L 287.85607 50.709564 
L 287.423751 50.693508 
L 287.423751 50.65667 
L 287.423751 50.619816 
L 287.361992 50.628031 
L 286.991433 50.566614 
L 286.929673 50.278703 
L 286.682634 50.200052 
L 286.620874 50.096691 
L 286.312075 50.100271 
L 286.312075 50.025746 
L 286.250315 49.735128 
L 286.065035 49.722035 
L 286.065035 49.684583 
L 286.003275 49.61773 
L 285.879756 49.558883 
L 285.817996 49.491852 
L 285.447437 49.465151 
L 285.385677 49.397905 
L 285.076878 49.400635 
L 285.076878 49.362895 
L 285.076878 49.325139 
L 285.015118 49.333221 
L 284.891599 49.273799 
L 284.829839 48.9788 
L 284.5828 48.97297 
L 284.5828 48.934971 
L 284.52104 48.75274 
L 284.026961 48.740557 
L 283.965201 48.557457 
L 283.656402 48.559142 
L 283.656402 48.520821 
L 283.656402 48.405759 
L 283.594642 48.413735 
L 283.409363 48.39927 
L 283.409363 48.360841 
L 283.347603 48.253412 
L 283.224083 48.230822 
L 283.224083 48.192291 
L 283.162324 48.007311 
L 282.791765 47.977542 
L 282.791765 47.900107 
L 282.730005 47.908026 
L 282.544725 47.893033 
L 282.544725 47.854248 
L 282.544725 47.737791 
L 282.482966 47.74569 
L 282.235926 47.738435 
L 282.235926 47.699533 
L 282.174166 47.47363 
L 281.865367 47.434857 
L 281.865367 47.395763 
L 281.803607 47.403626 
L 281.124249 47.41194 
L 281.124249 47.294211 
L 281.06249 47.302081 
L 280.93897 47.31783 
L 280.93897 47.239219 
L 280.93897 47.199887 
L 280.87721 47.207747 
L 280.568411 47.207706 
L 280.568411 47.168299 
L 280.568411 47.089434 
L 280.506651 47.097287 
L 280.383132 47.073523 
L 280.383132 47.034027 
L 280.321372 46.804497 
L 280.136092 46.748634 
L 280.136092 46.629544 
L 280.074332 46.637331 
L 279.889053 46.66071 
L 279.889053 46.581175 
L 279.889053 46.541381 
L 279.827293 46.54916 
L 279.394974 46.523956 
L 279.394974 46.484053 
L 279.333215 46.491838 
L 279.147935 46.4353 
L 279.086175 46.323061 
L 278.715616 46.329628 
L 278.715616 46.289525 
L 278.715616 46.128934 
L 278.653857 46.136679 
L 278.221538 46.110471 
L 278.159778 46.037627 
L 277.665699 46.018909 
L 277.665699 45.978488 
L 277.60394 45.98624 
L 277.171621 45.959592 
L 277.171621 45.878508 
L 277.109861 45.886259 
L 277.048101 45.894013 
L 277.048101 45.812828 
L 276.986341 45.698636 
L 276.862822 45.632678 
L 276.801062 45.477328 
L 276.677542 45.492713 
L 276.677542 45.41104 
L 276.615782 45.214185 
L 276.492263 45.18851 
L 276.492263 45.147514 
L 276.430503 45.073094 
L 275.936424 45.051972 
L 275.936424 45.010817 
L 275.874664 45.018451 
L 275.504106 44.981859 
L 275.504106 44.858013 
L 275.442346 44.865633 
L 275.195306 44.854793 
L 275.195306 44.813418 
L 275.195306 44.689178 
L 275.133547 44.696778 
L 274.948267 44.678117 
L 274.948267 44.636617 
L 274.948267 44.595099 
L 274.886507 44.602689 
L 274.639468 44.549916 
L 274.577708 44.474247 
L 273.96011 44.50847 
L 273.96011 44.466715 
L 273.96011 44.383148 
L 273.89835 44.390732 
L 273.713071 44.329799 
L 273.713071 44.204098 
L 273.651311 44.211657 
L 273.466031 44.192383 
L 273.466031 44.150395 
L 273.404272 43.989773 
L 273.218992 43.928118 
L 273.218992 43.885963 
L 273.157232 43.893478 
L 272.724914 43.861687 
L 272.724914 43.819411 
L 272.663154 43.82693 
L 272.292595 43.787394 
L 272.292595 43.745004 
L 272.230835 43.752523 
L 272.107315 43.725138 
L 272.107315 43.682685 
L 272.045555 43.477598 
L 271.922036 43.407346 
L 271.860276 43.329509 
L 271.674997 43.309177 
L 271.674997 43.266452 
L 271.674997 43.223706 
L 271.613237 43.231147 
L 271.489717 43.160439 
L 271.489717 43.074761 
L 271.427957 43.082179 
L 270.995638 43.048313 
L 270.995638 42.962344 
L 270.933879 42.969757 
L 270.50156 42.935561 
L 270.4398 42.813538 
L 270.37804 42.82094 
L 270.37804 42.734526 
L 270.37804 42.691289 
L 270.31628 42.698669 
L 270.007481 42.648988 
L 269.945721 42.569639 
L 269.451643 42.58524 
L 269.451643 42.541755 
L 269.389883 42.418535 
L 268.957564 42.382838 
L 268.957564 42.295467 
L 268.895805 42.302817 
L 268.648765 42.288492 
L 268.648765 42.244713 
L 268.648765 42.200912 
L 268.587005 42.208254 
L 268.154687 42.171942 
L 268.154687 41.996094 
L 268.092927 42.003411 
L 267.845888 41.94458 
L 267.784128 41.775342 
L 267.475329 41.723315 
L 267.413569 41.642009 
L 267.04301 41.596908 
L 267.04301 41.508042 
L 266.98125 41.515299 
L 266.795971 41.448068 
L 266.795971 41.358961 
L 266.734211 41.366197 
L 266.672451 41.373436 
L 266.672451 41.284208 
L 266.610691 41.202102 
L 266.116612 41.170319 
L 266.054853 41.043012 
L 265.622534 41.003538 
L 265.622534 40.823442 
L 265.560774 40.830608 
L 265.004936 40.895255 
L 265.004936 40.804894 
L 265.004936 40.66919 
L 264.943176 40.676344 
L 264.881416 40.683502 
L 264.881416 40.592887 
L 264.881416 40.547546 
L 264.819656 40.55468 
L 264.510857 40.544983 
L 264.510857 40.499543 
L 264.510857 40.454081 
L 264.449097 40.461208 
L 264.016779 40.420053 
L 264.016779 40.37445 
L 263.955019 40.381577 
L 263.46094 40.347273 
L 263.46094 40.209946 
L 263.39918 40.217057 
L 262.966862 40.175115 
L 262.966862 40.129175 
L 262.905102 40.136285 
L 262.658062 40.072717 
L 262.596303 39.987673 
L 261.855185 39.980544 
L 261.793425 39.802404 
L 260.867028 39.815922 
L 260.805268 39.589945 
L 260.372949 39.545961 
L 260.372949 39.499159 
L 260.311189 39.506222 
L 260.12591 39.43368 
L 260.06415 39.346872 
L 259.508311 39.316231 
L 259.508311 39.269127 
L 259.446552 39.276169 
L 259.137752 39.217038 
L 259.137752 39.169803 
L 259.075993 39.176837 
L 258.952473 39.190915 
L 258.952473 39.096314 
L 258.952473 39.048979 
L 258.890713 39.055993 
L 258.705434 39.077057 
L 258.705434 38.982233 
L 258.643674 38.894303 
L 258.520154 38.908289 
L 258.520154 38.813214 
L 258.520154 38.765641 
L 258.458394 38.772609 
L 258.211355 38.752867 
L 258.211355 38.705195 
L 258.211355 38.657499 
L 258.149595 38.664454 
L 257.408477 38.652451 
L 257.408477 38.556623 
L 257.346718 38.563582 
L 255.555683 38.670382 
L 255.555683 38.573734 
L 255.493923 38.580757 
L 255.185124 38.519055 
L 255.185124 38.470582 
L 255.123364 38.477595 
L 254.814565 38.415567 
L 254.752805 38.227941 
L 253.641128 38.256176 
L 253.641128 38.207211 
L 253.579368 38.214217 
L 253.14705 38.165187 
L 253.14705 38.116058 
L 253.08529 38.123062 
L 252.097133 38.136904 
L 252.035373 37.946187 
L 251.788334 37.875097 
L 251.788334 37.825497 
L 251.726574 37.832481 
L 251.541294 37.803785 
L 251.541294 37.754088 
L 251.479534 37.661572 
L 251.356015 37.57585 
L 251.356015 37.426192 
L 251.294255 37.433101 
L 250.923696 37.424614 
L 250.923696 37.374571 
L 250.861936 37.281295 
L 249.750259 37.305218 
L 249.6885 37.211321 
L 248.762102 37.214163 
L 248.762102 37.112771 
L 248.700342 37.119696 
L 247.897465 37.159155 
L 247.897465 37.108228 
L 247.897465 37.057275 
L 247.835705 37.064216 
L 247.279866 37.024632 
L 247.279866 36.973479 
L 247.218107 36.980422 
L 246.847548 36.919604 
L 246.847548 36.816941 
L 246.785788 36.823862 
L 245.488832 36.866777 
L 245.488832 36.815085 
L 245.427072 36.822053 
L 244.871233 36.833092 
L 244.871233 36.781222 
L 244.809474 36.684356 
L 244.315395 36.688083 
L 244.315395 36.635991 
L 244.253635 36.538664 
L 243.574277 36.510597 
L 243.574277 36.458214 
L 243.512517 36.465165 
L 243.450757 36.472119 
L 243.450757 36.367219 
L 243.450757 36.314726 
L 243.388998 36.321646 
L 242.52436 36.313486 
L 242.4626 36.214849 
L 241.536203 36.213134 
L 241.536203 36.160047 
L 241.474443 36.166998 
L 240.424526 36.179024 
L 240.362766 35.918629 
L 238.757011 35.992322 
L 238.695251 35.783228 
L 237.954133 35.812744 
L 237.954133 35.758452 
L 237.954133 35.70413 
L 237.892373 35.711097 
L 237.213015 35.678936 
L 237.213015 35.62436 
L 237.151256 35.631334 
L 236.965976 35.65228 
L 236.965976 35.542928 
L 236.965976 35.488206 
L 236.904216 35.495155 
L 236.718937 35.40638 
L 236.718937 35.296609 
L 236.657177 35.303519 
L 236.224858 35.296961 
L 236.224858 35.241888 
L 236.163098 35.083352 
L 235.73078 35.076266 
L 235.73078 35.020925 
L 235.73078 34.910147 
L 235.66902 34.916996 
L 234.742622 34.908856 
L 234.680863 34.748429 
L 234.310304 34.733646 
L 234.310304 34.677694 
L 234.248544 34.684535 
L 233.445666 34.717652 
L 233.383906 34.612041 
L 232.951588 34.603736 
L 232.951588 34.547306 
L 232.889828 34.554163 
L 232.519269 34.595391 
L 232.519269 34.538828 
L 232.457509 34.432443 
L 232.08695 34.416813 
L 232.08695 34.360015 
L 232.02519 34.366856 
L 231.037033 34.419772 
L 231.037033 34.362657 
L 230.975273 34.369537 
L 230.789994 34.3902 
L 230.789994 34.332992 
L 230.789994 34.275751 
L 230.728234 34.282617 
L 230.110636 34.294063 
L 230.110636 34.23659 
L 230.048876 34.243471 
L 229.925356 34.257245 
L 229.925356 34.199693 
L 229.925356 34.142106 
L 229.863596 34.14897 
L 228.998959 34.187637 
L 228.998959 34.071839 
L 228.937199 34.078718 
L 228.50488 34.068914 
L 228.50488 34.010806 
L 228.443121 34.017688 
L 228.072562 34.000813 
L 228.072562 33.942528 
L 228.010802 33.949408 
L 227.887282 33.904813 
L 227.887282 33.846412 
L 227.825522 33.853273 
L 227.702003 33.867007 
L 227.702003 33.808524 
L 227.640243 33.69828 
L 226.713845 33.742338 
L 226.652086 33.572439 
L 226.281527 33.554414 
L 226.281527 33.495287 
L 226.219767 33.502114 
L 225.725688 33.497575 
L 225.725688 33.378853 
L 225.663928 33.38567 
L 225.16985 33.380795 
L 225.10809 33.268372 
L 223.811134 33.352238 
L 223.811134 33.292174 
L 223.749374 33.29904 
L 223.564094 33.259496 
L 223.564094 33.199293 
L 223.502335 33.206143 
L 222.514178 33.255794 
L 222.514178 33.195235 
L 222.452418 33.202124 
L 222.020099 33.189735 
L 222.020099 33.06816 
L 221.958339 33.075033 
L 221.58778 33.055399 
L 221.58778 32.994398 
L 221.52602 33.001267 
L 221.217221 33.035678 
L 221.217221 32.974538 
L 221.217221 32.852143 
L 221.155461 32.858987 
L 220.970182 32.879545 
L 220.970182 32.818222 
L 220.970182 32.75686 
L 220.908422 32.763687 
L 220.846662 32.770518 
L 220.846662 32.709084 
L 220.846662 32.647611 
L 220.784902 32.654412 
L 219.982025 32.681466 
L 219.982025 32.619673 
L 219.920265 32.6265 
L 219.796745 32.578283 
L 219.796745 32.516361 
L 219.734985 32.523166 
L 219.426186 32.495188 
L 219.426186 32.433082 
L 219.364427 32.439878 
L 218.932108 32.425284 
L 218.932108 32.300593 
L 218.870348 32.30737 
L 217.758671 32.367362 
L 217.758671 32.241756 
L 217.696911 32.248562 
L 216.770514 32.28803 
L 216.770514 32.161604 
L 216.708754 32.168426 
L 216.029396 32.180267 
L 216.029396 32.116733 
L 215.967636 32.123571 
L 214.855959 32.1835 
L 214.855959 32.119532 
L 214.7942 32.126418 
L 213.250204 32.235549 
L 213.250204 32.171008 
L 213.188444 32.177975 
L 212.941405 32.205888 
L 212.941405 32.14121 
L 212.941405 32.011725 
L 212.879645 32.018658 
L 212.694366 32.039483 
L 212.694366 31.9746 
L 212.694366 31.844706 
L 212.632606 31.8516 
L 212.385567 31.814111 
L 212.385567 31.74896 
L 212.323807 31.755838 
L 212.015008 31.724984 
L 212.015008 31.659631 
L 211.953248 31.666497 
L 210.471012 31.766779 
L 210.471012 31.634873 
L 210.409252 31.641795 
L 210.038693 31.617269 
L 209.976933 31.425401 
L 208.556458 31.517997 
L 208.494698 31.324168 
L 208.309418 31.27783 
L 208.309418 31.2107 
L 208.247658 31.217584 
L 208.062379 31.171006 
L 208.062379 31.103702 
L 208.000619 31.110563 
L 207.938859 31.11743 
L 207.938859 31.050038 
L 207.938859 30.982601 
L 207.877099 30.989431 
L 207.63006 30.949208 
L 207.63006 30.881575 
L 207.5683 30.888386 
L 207.074222 30.875178 
L 207.074222 30.739301 
L 207.012462 30.746092 
L 206.765423 30.705187 
L 206.765423 30.637026 
L 206.703663 30.643798 
L 206.394864 30.609392 
L 206.394864 30.541009 
L 206.333104 30.547766 
L 205.777265 30.540149 
L 205.777265 30.471458 
L 205.715506 30.478219 
L 205.468466 30.436464 
L 205.468466 30.367569 
L 205.406707 30.374311 
L 204.789108 30.372804 
L 204.789108 30.303574 
L 204.727349 30.310324 
L 202.380475 30.500218 
L 202.380475 30.430027 
L 202.318715 30.43692 
L 201.948156 30.407981 
L 201.948156 30.337533 
L 201.886397 30.344414 
L 201.207039 30.349669 
L 201.145279 30.214847 
L 200.218881 30.247236 
L 200.218881 30.175893 
L 200.157122 30.182798 
L 199.601283 30.173545 
L 199.539523 30.037019 
L 198.921925 30.034104 
L 198.860165 29.896731 
L 197.810248 30.014279 
L 197.810248 29.941649 
L 197.810248 29.868966 
L 197.748489 29.875878 
L 197.37793 29.844551 
L 197.37793 29.771592 
L 197.31617 29.778491 
L 196.575052 29.788347 
L 196.575052 29.641525 
L 196.513292 29.648417 
L 195.154576 29.727272 
L 195.154576 29.653154 
L 195.092816 29.660114 
L 194.722257 29.627636 
L 194.722257 29.553231 
L 194.660497 29.560177 
L 194.413458 29.588015 
L 194.413458 29.513427 
L 194.413458 29.438783 
L 194.351698 29.445705 
L 193.919379 29.494303 
L 193.919379 29.419399 
L 193.919379 29.344439 
L 193.85762 29.351351 
L 193.116502 29.359355 
L 193.116502 29.132956 
L 193.054742 29.139833 
L 192.437144 29.133019 
L 192.437144 29.057093 
L 192.375384 29.063975 
L 190.707869 29.251787 
L 190.707869 29.175059 
L 190.707869 29.098271 
L 190.646109 29.105248 
L 190.33731 29.063206 
L 190.33731 28.986138 
L 190.27555 28.993093 
L 189.657952 28.985518 
L 189.657952 28.90803 
L 189.596192 28.91499 
L 189.225633 28.879125 
L 189.225633 28.801324 
L 189.163873 28.808267 
L 188.978594 28.751156 
L 188.916834 28.601909 
L 187.558118 28.675872 
L 187.558118 28.597008 
L 187.496358 28.603958 
L 187.002279 28.580574 
L 187.002279 28.501328 
L 186.94052 28.508271 
L 186.446441 28.484442 
L 186.446441 28.40481 
L 186.384681 28.411745 
L 184.531886 28.541776 
L 184.531886 28.461107 
L 184.470127 28.468157 
L 183.11141 28.543277 
L 183.11141 28.461787 
L 183.049651 28.468909 
L 182.370293 28.465711 
L 182.308533 28.226608 
L 180.270459 28.379935 
L 180.208699 28.1369 
L 179.158782 28.175152 
L 179.158782 28.090972 
L 179.097022 28.098159 
L 178.664703 28.06413 
L 178.602943 27.817275 
L 178.108865 27.78924 
L 178.108865 27.704074 
L 178.047105 27.711168 
L 176.688389 27.782752 
L 176.688389 27.69667 
L 176.626629 27.703837 
L 175.638472 27.732604 
L 175.576712 27.47908 
L 173.847437 27.593324 
L 173.847437 27.505195 
L 173.785677 27.512441 
L 172.92104 27.525812 
L 172.92104 27.436991 
L 172.85928 27.444261 
L 172.612241 27.473406 
L 172.612241 27.384325 
L 172.612241 27.295166 
L 172.550481 27.302395 
L 171.253524 27.455717 
L 171.253524 27.36567 
L 171.191765 27.192597 
L 169.709529 27.277622 
L 169.647769 27.102226 
L 168.659612 27.12801 
L 168.659612 27.035792 
L 168.597852 27.043142 
L 167.362656 27.098432 
L 167.362656 27.005219 
L 167.300896 27.012632 
L 166.498018 27.015778 
L 166.498018 26.921831 
L 166.436258 26.929261 
L 164.768743 27.037346 
L 164.768743 26.942076 
L 164.706983 26.949621 
L 163.348267 27.021113 
L 163.348267 26.924695 
L 163.286507 26.932322 
L 161.124914 27.105885 
L 161.124914 27.007722 
L 161.063154 27.015531 
L 160.507315 26.987454 
L 160.445555 26.79751 
L 159.951477 26.760402 
L 159.889717 26.568997 
L 157.110525 26.821028 
L 157.110525 26.719097 
L 157.048765 26.727049 
L 156.987005 26.735008 
L 156.987005 26.63288 
L 156.987005 26.530647 
L 156.925246 26.538519 
L 155.31949 26.642384 
L 155.31949 26.538633 
L 155.25773 26.546626 
L 153.899014 26.619583 
L 153.899014 26.514469 
L 153.837254 26.522554 
L 153.466695 26.465662 
L 153.466695 26.359972 
L 153.404936 26.368015 
L 152.293259 26.407447 
L 152.293259 26.300552 
L 152.231499 26.308652 
L 150.563984 26.422153 
L 150.563984 26.313541 
L 150.502224 26.321779 
L 149.081748 26.403687 
L 149.081748 26.293526 
L 149.019988 26.30187 
L 148.34063 26.283304 
L 148.34063 26.17223 
L 148.27887 26.180571 
L 146.179036 26.356528 
L 146.179036 26.129724 
L 146.117277 26.138219 
L 144.94384 26.301466 
L 144.94384 26.18668 
L 144.88208 26.19531 
L 144.449761 26.25599 
L 144.449761 26.140589 
L 144.388002 26.149236 
L 143.214565 26.315431 
L 143.152805 25.973385 
L 142.720486 26.034291 
L 142.720486 25.916614 
L 142.658726 25.925292 
L 142.164648 25.995081 
L 142.164648 25.876692 
L 142.102888 25.885398 
L 141.855849 25.920321 
L 141.855849 25.801472 
L 141.794089 25.810164 
L 141.36177 25.871294 
L 141.36177 25.751785 
L 141.30001 25.760494 
L 140.929451 25.812963 
L 140.929451 25.692852 
L 140.867692 25.701568 
L 140.558893 25.745298 
L 140.558893 25.624647 
L 140.497133 25.633358 
L 140.373613 25.650811 
L 140.311853 25.295931 
L 138.767858 25.512811 
L 138.767858 25.389601 
L 138.706098 25.398344 
L 138.520818 25.424636 
L 138.459059 25.185853 
L 138.273779 25.211852 
L 138.273779 25.08763 
L 138.212019 25.096246 
L 137.532661 25.191731 
L 137.532661 25.066502 
L 137.470901 25.075174 
L 137.285622 25.101257 
L 137.285622 24.975585 
L 137.223862 24.984228 
L 137.162102 24.992882 
L 137.162102 24.866909 
L 137.100342 24.875501 
L 135.741626 25.067259 
L 135.741626 24.939432 
L 135.679866 24.9482 
L 135.124028 25.027606 
L 135.124028 24.898864 
L 135.062268 24.907667 
L 134.753469 24.951849 
L 134.753469 24.822486 
L 134.691709 24.83128 
L 133.827072 24.955573 
L 133.827072 24.824883 
L 133.765312 24.833769 
L 133.641792 24.851574 
L 133.641792 24.720481 
L 133.580033 24.729322 
L 132.036037 24.954111 
L 132.036037 24.820765 
L 131.974277 24.829829 
L 131.912517 24.838904 
L 131.912517 24.70522 
L 131.850757 24.714225 
L 131.294919 24.795808 
L 131.294919 24.661124 
L 131.233159 24.670165 
L 130.739081 24.742931 
L 130.739081 24.607315 
L 130.677321 24.616381 
L 127.959889 25.027606 
L 127.959889 24.8879 
L 127.898129 24.897446 
L 127.46581 24.964633 
L 127.46581 24.824015 
L 127.40405 24.833576 
L 127.34229 24.84315 
L 127.34229 24.702155 
L 127.280531 24.711651 
L 125.798295 24.943574 
L 125.798295 24.800065 
L 125.736535 24.809804 
L 124.624858 24.987496 
L 124.624858 24.841966 
L 124.563098 24.851874 
L 124.501339 24.861798 
L 124.501339 24.715864 
L 124.439579 24.725704 
L 124.192539 24.765204 
L 124.192539 24.618571 
L 124.13078 24.628383 
L 123.636701 24.707393 
L 123.636701 24.559654 
L 123.574941 24.569495 
L 121.907426 24.840699 
L 121.845666 24.397526 
L 121.598627 24.437432 
L 121.598627 24.285418 
L 121.536867 24.295326 
L 121.228068 24.345087 
L 121.166308 23.895435 
L 120.61047 23.983164 
L 120.54871 23.683219 
L 119.498793 23.848705 
L 119.437033 23.543834 
L 118.942954 23.62151 
L 118.942954 23.462859 
L 118.881195 23.472521 
L 117.584238 23.678935 
L 117.584238 23.355714 
L 117.522479 23.365475 
L 116.349042 23.553894 
L 116.349042 23.38946 
L 116.287282 23.399412 
L 116.040243 23.43938 
L 116.040243 23.274057 
L 115.978483 23.283965 
L 113.755129 23.651588 
L 113.755129 23.481215 
L 113.69337 23.491608 
L 113.261051 23.564847 
L 113.261051 23.221098 
L 113.199291 23.23136 
L 113.137531 23.241639 
L 113.137531 22.896188 
L 113.075771 22.906211 
L 112.396413 23.017586 
L 112.396413 22.667634 
L 112.334653 22.677582 
L 111.161217 22.86986 
L 111.161217 22.691569 
L 111.099457 22.701719 
L 110.543619 22.793864 
L 110.543619 22.61379 
L 110.481859 22.623969 
L 110.358339 22.644381 
L 110.296579 22.292317 
L 109.246662 22.463884 
L 109.246662 22.279648 
L 109.184902 22.289747 
L 108.999623 22.320152 
L 108.999623 22.13496 
L 108.937863 22.144974 
L 108.629064 22.195316 
L 108.629064 22.008839 
L 108.567304 22.018802 
L 107.949706 22.119438 
L 107.949706 21.930846 
L 107.887946 21.940847 
L 105.664593 22.313504 
L 105.664593 22.11831 
L 105.602833 22.128849 
L 104.676435 22.289373 
L 104.676435 22.090961 
L 104.614676 22.101646 
L 103.935318 22.220562 
L 103.935318 22.01957 
L 103.873558 22.030321 
L 101.711964 22.42031 
L 101.711964 22.211999 
L 101.650204 22.223348 
L 101.464925 22.257533 
L 101.464925 22.047999 
L 101.403165 22.059239 
L 101.341405 22.070502 
L 101.341405 21.649341 
L 101.279645 21.66022 
L 99.797409 21.92814 
L 99.797409 21.711672 
L 99.73565 21.722912 
L 98.623973 21.929358 
L 98.623973 21.708255 
L 98.562213 21.719733 
L 98.253414 21.777495 
L 98.253414 21.554559 
L 98.191654 21.565957 
L 96.894698 21.811152 
L 96.894698 21.582582 
L 96.832938 21.594302 
L 96.277099 21.700964 
L 96.277099 21.469454 
L 96.21534 21.481192 
L 96.15358 21.492956 
L 96.15358 21.260432 
L 96.09182 21.271975 
L 95.165423 21.448281 
L 95.103663 20.984982 
L 94.733104 21.054248 
L 94.733104 20.814219 
L 94.671344 20.825592 
L 92.324471 21.278201 
L 92.324471 21.026792 
L 92.262711 21.038976 
L 91.706873 21.14998 
L 91.706873 20.895012 
L 91.645113 20.907199 
L 91.459833 20.943941 
L 91.459833 20.68714 
L 91.398073 20.699144 
L 90.409916 20.89535 
L 90.409916 20.632636 
L 90.348156 20.644846 
L 89.915838 20.731188 
L 89.915838 20.465237 
L 89.854078 20.477373 
L 89.607039 20.526229 
L 89.545279 20.000616 
L 89.421759 20.023966 
L 89.421759 19.753297 
L 89.359999 19.76468 
L 88.865921 19.856827 
L 88.865921 19.582377 
L 88.804161 19.593685 
L 87.877764 19.766961 
L 87.877764 19.48611 
L 87.816004 19.497548 
L 87.136646 19.625429 
L 87.136646 18.764933 
L 87.074886 18.775615 
L 85.160331 19.121977 
L 85.160331 18.820801 
L 85.098572 18.832072 
L 84.295694 18.981598 
L 84.295694 18.673572 
L 84.233934 18.684874 
L 83.369296 18.846677 
L 83.369296 18.214422 
L 83.307537 18.225321 
L 82.689938 18.336151 
L 82.689938 18.013412 
L 82.628179 18.024203 
L 82.1341 18.111742 
L 82.1341 17.783618 
L 82.07234 17.794219 
L 80.343065 18.105101 
L 80.343065 17.760855 
L 80.281305 17.77194 
L 78.67555 18.073465 
L 78.67555 17.712632 
L 78.61379 17.724167 
L 78.55203 17.735742 
L 78.55203 17.37246 
L 78.49027 17.383467 
L 76.760995 17.707894 
L 76.760995 17.324746 
L 76.699236 17.336268 
L 74.599402 17.754636 
L 74.599402 17.344744 
L 74.537642 17.357113 
L 72.005489 17.909388 
L 72.005489 17.462403 
L 71.943729 17.476155 
L 69.967415 17.949356 
L 69.967415 17.467686 
L 69.905655 17.482522 
L 69.843895 17.497426 
L 69.843895 17.011385 
L 69.782135 17.02527 
L 69.288057 17.138701 
L 69.288057 16.640351 
L 69.226297 16.653687 
L 66.879424 17.21179 
L 66.879424 16.661719 
L 66.817664 16.676503 
L 66.694144 16.706305 
L 66.694144 16.149113 
L 66.632384 16.162702 
L 63.420874 16.983806 
L 60.826961 17.865745 
L 60.209363 18.115437 
L 60.209363 17.347832 
L 60.147603 17.371087 
L 57.986009 18.308126 
L 56.194974 19.322281 
L 54.650979 20.453132 
L 53.354023 21.671121 
L 52.180586 23.079219 
L 51.130669 24.696227 
L 50.574831 25.740914 
L 50.574831 24.00845 
L 50.513071 24.120598 
L 50.327791 24.468953 
L 50.327791 22.64779 
L 50.266031 22.752732 
L 49.401394 24.449116 
L 48.907315 25.658095 
L 48.907315 23.353764 
L 48.845555 23.49577 
L 48.536756 24.257755 
L 48.536756 21.736997 
L 48.474997 21.871219 
L 47.733879 23.789807 
L 47.11628 25.995081 
L 46.560442 28.749423 
L 46.066363 32.212877 
L 46.066363 27.307219 
L 46.004604 27.725373 
L 45.510525 32.041799 
L 45.078206 38.179219 
L 44.892927 42.062076 
L 44.892927 32.743219 
L 44.831167 33.88764 
L 44.522368 42.062076 
L 44.398848 47.239219 
L 44.398848 30.766491 
L 44.337088 32.743219 
L 44.151809 42.062076 
L 44.151809 10.999219 
L 44.090049 10.999219 
L 43.78125 10.999219 
L 43.78125 10.999219 
" style="fill:none;stroke:#0000ff;stroke-dasharray:5.55,2.4;stroke-dashoffset:0;stroke-width:1.5;"/>
   </g>
   <g id="patch_3">
    <path d="M 43.78125 228.439219 
L 43.78125 10.999219 
" style="fill:none;stroke:#000000;stroke-linecap:square;stroke-linejoin:miter;stroke-width:0.8;"/>
   </g>
   <g id="patch_4">
    <path d="M 378.58125 228.439219 
L 378.58125 10.999219 
" style="fill:none;stroke:#000000;stroke-linecap:square;stroke-linejoin:miter;stroke-width:0.8;"/>
   </g>
   <g id="patch_5">
    <path d="M 43.78125 228.439219 
L 378.58125 228.439219 
" style="fill:none;stroke:#000000;stroke-linecap:square;stroke-linejoin:miter;stroke-width:0.8;"/>
   </g>
   <g id="patch_6">
    <path d="M 43.78125 10.999219 
L 378.58125 10.999219 
" style="fill:none;stroke:#000000;stroke-linecap:square;stroke-linejoin:miter;stroke-width:0.8;"/>
   </g>
  </g>
 </g>
 <defs>
  <clipPath id="pfb78797ed8">
   <rect height="217.44" width="334.8" x="43.78125" y="10.999219"/>
  </clipPath>
 </defs>
</svg>
