<?xml version="1.0" encoding="utf-8" standalone="no"?>
<!DOCTYPE svg PUBLIC "-//W3C//DTD SVG 1.1//EN"
  "http://www.w3.org/Graphics/SVG/1.1/DTD/svg11.dtd">
<!-- Created with matplotlib (https://matplotlib.org/) -->
<svg height="265.995469pt" version="1.1" viewBox="0 0 388.009375 265.995469" width="388.009375pt" xmlns="http://www.w3.org/2000/svg" xmlns:xlink="http://www.w3.org/1999/xlink">
 <defs>
  <style type="text/css">
*{stroke-linecap:butt;stroke-linejoin:round;}
  </style>
 </defs>
 <g id="figure_1">
  <g id="patch_1">
   <path d="M 0 265.995469 
L 388.009375 265.995469 
L 388.009375 0 
L 0 0 
z
" style="fill:none;"/>
  </g>
  <g id="axes_1">
   <g id="patch_2">
    <path d="M 30.103125 228.439219 
L 364.903125 228.439219 
L 364.903125 10.999219 
L 30.103125 10.999219 
z
" style="fill:#ffffff;"/>
   </g>
   <g id="matplotlib.axis_1">
    <g id="xtick_1">
     <g id="line2d_1">
      <defs>
       <path d="M 0 0 
L 0 3.5 
" id="m3a6d4cb3ca" style="stroke:#000000;stroke-width:0.8;"/>
      </defs>
      <g>
       <use style="stroke:#000000;stroke-width:0.8;" x="30.103125" xlink:href="#m3a6d4cb3ca" y="228.439219"/>
      </g>
     </g>
     <g id="text_1">
      <!-- −20000 -->
      <defs>
       <path d="M 10.59375 35.5 
L 73.1875 35.5 
L 73.1875 27.203125 
L 10.59375 27.203125 
z
" id="DejaVuSans-8722"/>
       <path d="M 19.1875 8.296875 
L 53.609375 8.296875 
L 53.609375 0 
L 7.328125 0 
L 7.328125 8.296875 
Q 12.9375 14.109375 22.625 23.890625 
Q 32.328125 33.6875 34.8125 36.53125 
Q 39.546875 41.84375 41.421875 45.53125 
Q 43.3125 49.21875 43.3125 52.78125 
Q 43.3125 58.59375 39.234375 62.25 
Q 35.15625 65.921875 28.609375 65.921875 
Q 23.96875 65.921875 18.8125 64.3125 
Q 13.671875 62.703125 7.8125 59.421875 
L 7.8125 69.390625 
Q 13.765625 71.78125 18.9375 73 
Q 24.125 74.21875 28.421875 74.21875 
Q 39.75 74.21875 46.484375 68.546875 
Q 53.21875 62.890625 53.21875 53.421875 
Q 53.21875 48.921875 51.53125 44.890625 
Q 49.859375 40.875 45.40625 35.40625 
Q 44.1875 33.984375 37.640625 27.21875 
Q 31.109375 20.453125 19.1875 8.296875 
z
" id="DejaVuSans-50"/>
       <path d="M 31.78125 66.40625 
Q 24.171875 66.40625 20.328125 58.90625 
Q 16.5 51.421875 16.5 36.375 
Q 16.5 21.390625 20.328125 13.890625 
Q 24.171875 6.390625 31.78125 6.390625 
Q 39.453125 6.390625 43.28125 13.890625 
Q 47.125 21.390625 47.125 36.375 
Q 47.125 51.421875 43.28125 58.90625 
Q 39.453125 66.40625 31.78125 66.40625 
z
M 31.78125 74.21875 
Q 44.046875 74.21875 50.515625 64.515625 
Q 56.984375 54.828125 56.984375 36.375 
Q 56.984375 17.96875 50.515625 8.265625 
Q 44.046875 -1.421875 31.78125 -1.421875 
Q 19.53125 -1.421875 13.0625 8.265625 
Q 6.59375 17.96875 6.59375 36.375 
Q 6.59375 54.828125 13.0625 64.515625 
Q 19.53125 74.21875 31.78125 74.21875 
z
" id="DejaVuSans-48"/>
      </defs>
      <g transform="translate(10.007031 243.037656)scale(0.1 -0.1)">
       <use xlink:href="#DejaVuSans-8722"/>
       <use x="83.789062" xlink:href="#DejaVuSans-50"/>
       <use x="147.412109" xlink:href="#DejaVuSans-48"/>
       <use x="211.035156" xlink:href="#DejaVuSans-48"/>
       <use x="274.658203" xlink:href="#DejaVuSans-48"/>
       <use x="338.28125" xlink:href="#DejaVuSans-48"/>
      </g>
     </g>
    </g>
    <g id="xtick_2">
     <g id="line2d_2">
      <g>
       <use style="stroke:#000000;stroke-width:0.8;" x="71.953125" xlink:href="#m3a6d4cb3ca" y="228.439219"/>
      </g>
     </g>
     <g id="text_2">
      <!-- −15000 -->
      <defs>
       <path d="M 12.40625 8.296875 
L 28.515625 8.296875 
L 28.515625 63.921875 
L 10.984375 60.40625 
L 10.984375 69.390625 
L 28.421875 72.90625 
L 38.28125 72.90625 
L 38.28125 8.296875 
L 54.390625 8.296875 
L 54.390625 0 
L 12.40625 0 
z
" id="DejaVuSans-49"/>
       <path d="M 10.796875 72.90625 
L 49.515625 72.90625 
L 49.515625 64.59375 
L 19.828125 64.59375 
L 19.828125 46.734375 
Q 21.96875 47.46875 24.109375 47.828125 
Q 26.265625 48.1875 28.421875 48.1875 
Q 40.625 48.1875 47.75 41.5 
Q 54.890625 34.8125 54.890625 23.390625 
Q 54.890625 11.625 47.5625 5.09375 
Q 40.234375 -1.421875 26.90625 -1.421875 
Q 22.3125 -1.421875 17.546875 -0.640625 
Q 12.796875 0.140625 7.71875 1.703125 
L 7.71875 11.625 
Q 12.109375 9.234375 16.796875 8.0625 
Q 21.484375 6.890625 26.703125 6.890625 
Q 35.15625 6.890625 40.078125 11.328125 
Q 45.015625 15.765625 45.015625 23.390625 
Q 45.015625 31 40.078125 35.4375 
Q 35.15625 39.890625 26.703125 39.890625 
Q 22.75 39.890625 18.8125 39.015625 
Q 14.890625 38.140625 10.796875 36.28125 
z
" id="DejaVuSans-53"/>
      </defs>
      <g transform="translate(51.857031 243.037656)scale(0.1 -0.1)">
       <use xlink:href="#DejaVuSans-8722"/>
       <use x="83.789062" xlink:href="#DejaVuSans-49"/>
       <use x="147.412109" xlink:href="#DejaVuSans-53"/>
       <use x="211.035156" xlink:href="#DejaVuSans-48"/>
       <use x="274.658203" xlink:href="#DejaVuSans-48"/>
       <use x="338.28125" xlink:href="#DejaVuSans-48"/>
      </g>
     </g>
    </g>
    <g id="xtick_3">
     <g id="line2d_3">
      <g>
       <use style="stroke:#000000;stroke-width:0.8;" x="113.803125" xlink:href="#m3a6d4cb3ca" y="228.439219"/>
      </g>
     </g>
     <g id="text_3">
      <!-- −10000 -->
      <g transform="translate(93.707031 243.037656)scale(0.1 -0.1)">
       <use xlink:href="#DejaVuSans-8722"/>
       <use x="83.789062" xlink:href="#DejaVuSans-49"/>
       <use x="147.412109" xlink:href="#DejaVuSans-48"/>
       <use x="211.035156" xlink:href="#DejaVuSans-48"/>
       <use x="274.658203" xlink:href="#DejaVuSans-48"/>
       <use x="338.28125" xlink:href="#DejaVuSans-48"/>
      </g>
     </g>
    </g>
    <g id="xtick_4">
     <g id="line2d_4">
      <g>
       <use style="stroke:#000000;stroke-width:0.8;" x="155.653125" xlink:href="#m3a6d4cb3ca" y="228.439219"/>
      </g>
     </g>
     <g id="text_4">
      <!-- −5000 -->
      <g transform="translate(138.738281 243.037656)scale(0.1 -0.1)">
       <use xlink:href="#DejaVuSans-8722"/>
       <use x="83.789062" xlink:href="#DejaVuSans-53"/>
       <use x="147.412109" xlink:href="#DejaVuSans-48"/>
       <use x="211.035156" xlink:href="#DejaVuSans-48"/>
       <use x="274.658203" xlink:href="#DejaVuSans-48"/>
      </g>
     </g>
    </g>
    <g id="xtick_5">
     <g id="line2d_5">
      <g>
       <use style="stroke:#000000;stroke-width:0.8;" x="197.503125" xlink:href="#m3a6d4cb3ca" y="228.439219"/>
      </g>
     </g>
     <g id="text_5">
      <!-- 0 -->
      <g transform="translate(194.321875 243.037656)scale(0.1 -0.1)">
       <use xlink:href="#DejaVuSans-48"/>
      </g>
     </g>
    </g>
    <g id="xtick_6">
     <g id="line2d_6">
      <g>
       <use style="stroke:#000000;stroke-width:0.8;" x="239.353125" xlink:href="#m3a6d4cb3ca" y="228.439219"/>
      </g>
     </g>
     <g id="text_6">
      <!-- 5000 -->
      <g transform="translate(226.628125 243.037656)scale(0.1 -0.1)">
       <use xlink:href="#DejaVuSans-53"/>
       <use x="63.623047" xlink:href="#DejaVuSans-48"/>
       <use x="127.246094" xlink:href="#DejaVuSans-48"/>
       <use x="190.869141" xlink:href="#DejaVuSans-48"/>
      </g>
     </g>
    </g>
    <g id="xtick_7">
     <g id="line2d_7">
      <g>
       <use style="stroke:#000000;stroke-width:0.8;" x="281.203125" xlink:href="#m3a6d4cb3ca" y="228.439219"/>
      </g>
     </g>
     <g id="text_7">
      <!-- 10000 -->
      <g transform="translate(265.296875 243.037656)scale(0.1 -0.1)">
       <use xlink:href="#DejaVuSans-49"/>
       <use x="63.623047" xlink:href="#DejaVuSans-48"/>
       <use x="127.246094" xlink:href="#DejaVuSans-48"/>
       <use x="190.869141" xlink:href="#DejaVuSans-48"/>
       <use x="254.492188" xlink:href="#DejaVuSans-48"/>
      </g>
     </g>
    </g>
    <g id="xtick_8">
     <g id="line2d_8">
      <g>
       <use style="stroke:#000000;stroke-width:0.8;" x="323.053125" xlink:href="#m3a6d4cb3ca" y="228.439219"/>
      </g>
     </g>
     <g id="text_8">
      <!-- 15000 -->
      <g transform="translate(307.146875 243.037656)scale(0.1 -0.1)">
       <use xlink:href="#DejaVuSans-49"/>
       <use x="63.623047" xlink:href="#DejaVuSans-53"/>
       <use x="127.246094" xlink:href="#DejaVuSans-48"/>
       <use x="190.869141" xlink:href="#DejaVuSans-48"/>
       <use x="254.492188" xlink:href="#DejaVuSans-48"/>
      </g>
     </g>
    </g>
    <g id="xtick_9">
     <g id="line2d_9">
      <g>
       <use style="stroke:#000000;stroke-width:0.8;" x="364.903125" xlink:href="#m3a6d4cb3ca" y="228.439219"/>
      </g>
     </g>
     <g id="text_9">
      <!-- 20000 -->
      <g transform="translate(348.996875 243.037656)scale(0.1 -0.1)">
       <use xlink:href="#DejaVuSans-50"/>
       <use x="63.623047" xlink:href="#DejaVuSans-48"/>
       <use x="127.246094" xlink:href="#DejaVuSans-48"/>
       <use x="190.869141" xlink:href="#DejaVuSans-48"/>
       <use x="254.492188" xlink:href="#DejaVuSans-48"/>
      </g>
     </g>
    </g>
    <g id="text_10">
     <!-- Threshold -->
     <defs>
      <path d="M -0.296875 72.90625 
L 61.375 72.90625 
L 61.375 64.59375 
L 35.5 64.59375 
L 35.5 0 
L 25.59375 0 
L 25.59375 64.59375 
L -0.296875 64.59375 
z
" id="DejaVuSans-84"/>
      <path d="M 54.890625 33.015625 
L 54.890625 0 
L 45.90625 0 
L 45.90625 32.71875 
Q 45.90625 40.484375 42.875 44.328125 
Q 39.84375 48.1875 33.796875 48.1875 
Q 26.515625 48.1875 22.3125 43.546875 
Q 18.109375 38.921875 18.109375 30.90625 
L 18.109375 0 
L 9.078125 0 
L 9.078125 75.984375 
L 18.109375 75.984375 
L 18.109375 46.1875 
Q 21.34375 51.125 25.703125 53.5625 
Q 30.078125 56 35.796875 56 
Q 45.21875 56 50.046875 50.171875 
Q 54.890625 44.34375 54.890625 33.015625 
z
" id="DejaVuSans-104"/>
      <path d="M 41.109375 46.296875 
Q 39.59375 47.171875 37.8125 47.578125 
Q 36.03125 48 33.890625 48 
Q 26.265625 48 22.1875 43.046875 
Q 18.109375 38.09375 18.109375 28.8125 
L 18.109375 0 
L 9.078125 0 
L 9.078125 54.6875 
L 18.109375 54.6875 
L 18.109375 46.1875 
Q 20.953125 51.171875 25.484375 53.578125 
Q 30.03125 56 36.53125 56 
Q 37.453125 56 38.578125 55.875 
Q 39.703125 55.765625 41.0625 55.515625 
z
" id="DejaVuSans-114"/>
      <path d="M 56.203125 29.59375 
L 56.203125 25.203125 
L 14.890625 25.203125 
Q 15.484375 15.921875 20.484375 11.0625 
Q 25.484375 6.203125 34.421875 6.203125 
Q 39.59375 6.203125 44.453125 7.46875 
Q 49.3125 8.734375 54.109375 11.28125 
L 54.109375 2.78125 
Q 49.265625 0.734375 44.1875 -0.34375 
Q 39.109375 -1.421875 33.890625 -1.421875 
Q 20.796875 -1.421875 13.15625 6.1875 
Q 5.515625 13.8125 5.515625 26.8125 
Q 5.515625 40.234375 12.765625 48.109375 
Q 20.015625 56 32.328125 56 
Q 43.359375 56 49.78125 48.890625 
Q 56.203125 41.796875 56.203125 29.59375 
z
M 47.21875 32.234375 
Q 47.125 39.59375 43.09375 43.984375 
Q 39.0625 48.390625 32.421875 48.390625 
Q 24.90625 48.390625 20.390625 44.140625 
Q 15.875 39.890625 15.1875 32.171875 
z
" id="DejaVuSans-101"/>
      <path d="M 44.28125 53.078125 
L 44.28125 44.578125 
Q 40.484375 46.53125 36.375 47.5 
Q 32.28125 48.484375 27.875 48.484375 
Q 21.1875 48.484375 17.84375 46.4375 
Q 14.5 44.390625 14.5 40.28125 
Q 14.5 37.15625 16.890625 35.375 
Q 19.28125 33.59375 26.515625 31.984375 
L 29.59375 31.296875 
Q 39.15625 29.25 43.1875 25.515625 
Q 47.21875 21.78125 47.21875 15.09375 
Q 47.21875 7.46875 41.1875 3.015625 
Q 35.15625 -1.421875 24.609375 -1.421875 
Q 20.21875 -1.421875 15.453125 -0.5625 
Q 10.6875 0.296875 5.421875 2 
L 5.421875 11.28125 
Q 10.40625 8.6875 15.234375 7.390625 
Q 20.0625 6.109375 24.8125 6.109375 
Q 31.15625 6.109375 34.5625 8.28125 
Q 37.984375 10.453125 37.984375 14.40625 
Q 37.984375 18.0625 35.515625 20.015625 
Q 33.0625 21.96875 24.703125 23.78125 
L 21.578125 24.515625 
Q 13.234375 26.265625 9.515625 29.90625 
Q 5.8125 33.546875 5.8125 39.890625 
Q 5.8125 47.609375 11.28125 51.796875 
Q 16.75 56 26.8125 56 
Q 31.78125 56 36.171875 55.265625 
Q 40.578125 54.546875 44.28125 53.078125 
z
" id="DejaVuSans-115"/>
      <path d="M 30.609375 48.390625 
Q 23.390625 48.390625 19.1875 42.75 
Q 14.984375 37.109375 14.984375 27.296875 
Q 14.984375 17.484375 19.15625 11.84375 
Q 23.34375 6.203125 30.609375 6.203125 
Q 37.796875 6.203125 41.984375 11.859375 
Q 46.1875 17.53125 46.1875 27.296875 
Q 46.1875 37.015625 41.984375 42.703125 
Q 37.796875 48.390625 30.609375 48.390625 
z
M 30.609375 56 
Q 42.328125 56 49.015625 48.375 
Q 55.71875 40.765625 55.71875 27.296875 
Q 55.71875 13.875 49.015625 6.21875 
Q 42.328125 -1.421875 30.609375 -1.421875 
Q 18.84375 -1.421875 12.171875 6.21875 
Q 5.515625 13.875 5.515625 27.296875 
Q 5.515625 40.765625 12.171875 48.375 
Q 18.84375 56 30.609375 56 
z
" id="DejaVuSans-111"/>
      <path d="M 9.421875 75.984375 
L 18.40625 75.984375 
L 18.40625 0 
L 9.421875 0 
z
" id="DejaVuSans-108"/>
      <path d="M 45.40625 46.390625 
L 45.40625 75.984375 
L 54.390625 75.984375 
L 54.390625 0 
L 45.40625 0 
L 45.40625 8.203125 
Q 42.578125 3.328125 38.25 0.953125 
Q 33.9375 -1.421875 27.875 -1.421875 
Q 17.96875 -1.421875 11.734375 6.484375 
Q 5.515625 14.40625 5.515625 27.296875 
Q 5.515625 40.1875 11.734375 48.09375 
Q 17.96875 56 27.875 56 
Q 33.9375 56 38.25 53.625 
Q 42.578125 51.265625 45.40625 46.390625 
z
M 14.796875 27.296875 
Q 14.796875 17.390625 18.875 11.75 
Q 22.953125 6.109375 30.078125 6.109375 
Q 37.203125 6.109375 41.296875 11.75 
Q 45.40625 17.390625 45.40625 27.296875 
Q 45.40625 37.203125 41.296875 42.84375 
Q 37.203125 48.484375 30.078125 48.484375 
Q 22.953125 48.484375 18.875 42.84375 
Q 14.796875 37.203125 14.796875 27.296875 
z
" id="DejaVuSans-100"/>
     </defs>
     <g transform="translate(172.864844 256.715781)scale(0.1 -0.1)">
      <use xlink:href="#DejaVuSans-84"/>
      <use x="61.083984" xlink:href="#DejaVuSans-104"/>
      <use x="124.462891" xlink:href="#DejaVuSans-114"/>
      <use x="163.326172" xlink:href="#DejaVuSans-101"/>
      <use x="224.849609" xlink:href="#DejaVuSans-115"/>
      <use x="276.949219" xlink:href="#DejaVuSans-104"/>
      <use x="340.328125" xlink:href="#DejaVuSans-111"/>
      <use x="401.509766" xlink:href="#DejaVuSans-108"/>
      <use x="429.292969" xlink:href="#DejaVuSans-100"/>
     </g>
    </g>
   </g>
   <g id="matplotlib.axis_2">
    <g id="ytick_1">
     <g id="line2d_10">
      <defs>
       <path d="M 0 0 
L -3.5 0 
" id="m5e9e465835" style="stroke:#000000;stroke-width:0.8;"/>
      </defs>
      <g>
       <use style="stroke:#000000;stroke-width:0.8;" x="30.103125" xlink:href="#m5e9e465835" y="228.439219"/>
      </g>
     </g>
     <g id="text_11">
      <!-- 0.0 -->
      <defs>
       <path d="M 10.6875 12.40625 
L 21 12.40625 
L 21 0 
L 10.6875 0 
z
" id="DejaVuSans-46"/>
      </defs>
      <g transform="translate(7.2 232.238437)scale(0.1 -0.1)">
       <use xlink:href="#DejaVuSans-48"/>
       <use x="63.623047" xlink:href="#DejaVuSans-46"/>
       <use x="95.410156" xlink:href="#DejaVuSans-48"/>
      </g>
     </g>
    </g>
    <g id="ytick_2">
     <g id="line2d_11">
      <g>
       <use style="stroke:#000000;stroke-width:0.8;" x="30.103125" xlink:href="#m5e9e465835" y="184.951219"/>
      </g>
     </g>
     <g id="text_12">
      <!-- 0.2 -->
      <g transform="translate(7.2 188.750437)scale(0.1 -0.1)">
       <use xlink:href="#DejaVuSans-48"/>
       <use x="63.623047" xlink:href="#DejaVuSans-46"/>
       <use x="95.410156" xlink:href="#DejaVuSans-50"/>
      </g>
     </g>
    </g>
    <g id="ytick_3">
     <g id="line2d_12">
      <g>
       <use style="stroke:#000000;stroke-width:0.8;" x="30.103125" xlink:href="#m5e9e465835" y="141.463219"/>
      </g>
     </g>
     <g id="text_13">
      <!-- 0.4 -->
      <defs>
       <path d="M 37.796875 64.3125 
L 12.890625 25.390625 
L 37.796875 25.390625 
z
M 35.203125 72.90625 
L 47.609375 72.90625 
L 47.609375 25.390625 
L 58.015625 25.390625 
L 58.015625 17.1875 
L 47.609375 17.1875 
L 47.609375 0 
L 37.796875 0 
L 37.796875 17.1875 
L 4.890625 17.1875 
L 4.890625 26.703125 
z
" id="DejaVuSans-52"/>
      </defs>
      <g transform="translate(7.2 145.262437)scale(0.1 -0.1)">
       <use xlink:href="#DejaVuSans-48"/>
       <use x="63.623047" xlink:href="#DejaVuSans-46"/>
       <use x="95.410156" xlink:href="#DejaVuSans-52"/>
      </g>
     </g>
    </g>
    <g id="ytick_4">
     <g id="line2d_13">
      <g>
       <use style="stroke:#000000;stroke-width:0.8;" x="30.103125" xlink:href="#m5e9e465835" y="97.975219"/>
      </g>
     </g>
     <g id="text_14">
      <!-- 0.6 -->
      <defs>
       <path d="M 33.015625 40.375 
Q 26.375 40.375 22.484375 35.828125 
Q 18.609375 31.296875 18.609375 23.390625 
Q 18.609375 15.53125 22.484375 10.953125 
Q 26.375 6.390625 33.015625 6.390625 
Q 39.65625 6.390625 43.53125 10.953125 
Q 47.40625 15.53125 47.40625 23.390625 
Q 47.40625 31.296875 43.53125 35.828125 
Q 39.65625 40.375 33.015625 40.375 
z
M 52.59375 71.296875 
L 52.59375 62.3125 
Q 48.875 64.0625 45.09375 64.984375 
Q 41.3125 65.921875 37.59375 65.921875 
Q 27.828125 65.921875 22.671875 59.328125 
Q 17.53125 52.734375 16.796875 39.40625 
Q 19.671875 43.65625 24.015625 45.921875 
Q 28.375 48.1875 33.59375 48.1875 
Q 44.578125 48.1875 50.953125 41.515625 
Q 57.328125 34.859375 57.328125 23.390625 
Q 57.328125 12.15625 50.6875 5.359375 
Q 44.046875 -1.421875 33.015625 -1.421875 
Q 20.359375 -1.421875 13.671875 8.265625 
Q 6.984375 17.96875 6.984375 36.375 
Q 6.984375 53.65625 15.1875 63.9375 
Q 23.390625 74.21875 37.203125 74.21875 
Q 40.921875 74.21875 44.703125 73.484375 
Q 48.484375 72.75 52.59375 71.296875 
z
" id="DejaVuSans-54"/>
      </defs>
      <g transform="translate(7.2 101.774437)scale(0.1 -0.1)">
       <use xlink:href="#DejaVuSans-48"/>
       <use x="63.623047" xlink:href="#DejaVuSans-46"/>
       <use x="95.410156" xlink:href="#DejaVuSans-54"/>
      </g>
     </g>
    </g>
    <g id="ytick_5">
     <g id="line2d_14">
      <g>
       <use style="stroke:#000000;stroke-width:0.8;" x="30.103125" xlink:href="#m5e9e465835" y="54.487219"/>
      </g>
     </g>
     <g id="text_15">
      <!-- 0.8 -->
      <defs>
       <path d="M 31.78125 34.625 
Q 24.75 34.625 20.71875 30.859375 
Q 16.703125 27.09375 16.703125 20.515625 
Q 16.703125 13.921875 20.71875 10.15625 
Q 24.75 6.390625 31.78125 6.390625 
Q 38.8125 6.390625 42.859375 10.171875 
Q 46.921875 13.96875 46.921875 20.515625 
Q 46.921875 27.09375 42.890625 30.859375 
Q 38.875 34.625 31.78125 34.625 
z
M 21.921875 38.8125 
Q 15.578125 40.375 12.03125 44.71875 
Q 8.5 49.078125 8.5 55.328125 
Q 8.5 64.0625 14.71875 69.140625 
Q 20.953125 74.21875 31.78125 74.21875 
Q 42.671875 74.21875 48.875 69.140625 
Q 55.078125 64.0625 55.078125 55.328125 
Q 55.078125 49.078125 51.53125 44.71875 
Q 48 40.375 41.703125 38.8125 
Q 48.828125 37.15625 52.796875 32.3125 
Q 56.78125 27.484375 56.78125 20.515625 
Q 56.78125 9.90625 50.3125 4.234375 
Q 43.84375 -1.421875 31.78125 -1.421875 
Q 19.734375 -1.421875 13.25 4.234375 
Q 6.78125 9.90625 6.78125 20.515625 
Q 6.78125 27.484375 10.78125 32.3125 
Q 14.796875 37.15625 21.921875 38.8125 
z
M 18.3125 54.390625 
Q 18.3125 48.734375 21.84375 45.5625 
Q 25.390625 42.390625 31.78125 42.390625 
Q 38.140625 42.390625 41.71875 45.5625 
Q 45.3125 48.734375 45.3125 54.390625 
Q 45.3125 60.0625 41.71875 63.234375 
Q 38.140625 66.40625 31.78125 66.40625 
Q 25.390625 66.40625 21.84375 63.234375 
Q 18.3125 60.0625 18.3125 54.390625 
z
" id="DejaVuSans-56"/>
      </defs>
      <g transform="translate(7.2 58.286437)scale(0.1 -0.1)">
       <use xlink:href="#DejaVuSans-48"/>
       <use x="63.623047" xlink:href="#DejaVuSans-46"/>
       <use x="95.410156" xlink:href="#DejaVuSans-56"/>
      </g>
     </g>
    </g>
    <g id="ytick_6">
     <g id="line2d_15">
      <g>
       <use style="stroke:#000000;stroke-width:0.8;" x="30.103125" xlink:href="#m5e9e465835" y="10.999219"/>
      </g>
     </g>
     <g id="text_16">
      <!-- 1.0 -->
      <g transform="translate(7.2 14.798437)scale(0.1 -0.1)">
       <use xlink:href="#DejaVuSans-49"/>
       <use x="63.623047" xlink:href="#DejaVuSans-46"/>
       <use x="95.410156" xlink:href="#DejaVuSans-48"/>
      </g>
     </g>
    </g>
   </g>
   <g id="line2d_16">
    <path clip-path="url(#pc9f6bb9891)" d="M 30.095274 201.768953 
L 32.080938 201.531458 
L 32.220298 201.510327 
L 34.721154 201.189328 
L 35.516266 201.083173 
L 36.437165 200.94315 
L 36.569816 200.92173 
L 38.70236 200.647384 
L 39.682893 200.50335 
L 40.449845 200.384302 
L 41.545232 200.239492 
L 42.100349 200.158031 
L 43.52429 199.960502 
L 43.838696 199.916561 
L 44.75679 199.765989 
L 44.881124 199.74974 
L 47.128664 199.405282 
L 48.40477 199.214557 
L 48.590341 199.182959 
L 50.129659 198.937974 
L 50.256819 198.911761 
L 51.371581 198.714046 
L 52.907992 198.411095 
L 53.146371 198.374788 
L 54.520886 198.106537 
L 56.24546 197.767249 
L 56.537372 197.708067 
L 57.435861 197.540672 
L 57.808265 197.469895 
L 59.12689 197.224494 
L 59.277297 197.185033 
L 59.278271 197.189201 
L 60.583373 196.913341 
L 60.684157 196.891928 
L 61.403601 196.748761 
L 62.768818 196.470148 
L 63.723825 196.27657 
L 64.197814 196.169207 
L 64.82352 196.015875 
L 65.065597 195.947764 
L 66.314724 195.654501 
L 67.803576 195.309588 
L 68.420246 195.158351 
L 69.061349 194.995118 
L 70.464148 194.618182 
L 71.275546 194.398907 
L 74.273288 193.643322 
L 74.385817 193.60558 
L 74.931021 193.430483 
L 75.083962 193.371017 
L 75.690941 193.157328 
L 75.844561 193.104471 
L 76.399435 192.95067 
L 77.695895 192.543975 
L 77.936367 192.457842 
L 78.361906 192.304696 
L 79.334482 191.955259 
L 79.561787 191.868574 
L 80.005549 191.724167 
L 80.408592 191.572854 
L 80.776759 191.45114 
L 81.236388 191.299781 
L 81.388326 191.251898 
L 82.047723 191.02374 
L 83.371062 190.549618 
L 84.284875 190.239131 
L 84.390259 190.202382 
L 84.699812 190.070861 
L 85.14599 189.87524 
L 85.763826 189.604889 
L 86.159145 189.441907 
L 86.265908 189.399625 
L 87.048193 189.097742 
L 88.471748 188.526483 
L 90.256694 187.796874 
L 90.561198 187.648985 
L 91.21305 187.361524 
L 92.508126 186.703367 
L 93.024279 186.455241 
L 93.126972 186.389207 
L 93.134968 186.392546 
L 94.400131 185.800285 
L 95.071047 185.462096 
L 95.187392 185.397684 
L 95.517837 185.2163 
L 95.785243 185.100521 
L 96.311684 184.870383 
L 96.315928 184.875326 
L 96.514135 184.772616 
L 97.391711 184.299024 
L 97.503842 184.244641 
L 98.738435 183.57888 
L 98.991384 183.446633 
L 99.292112 183.312099 
L 99.598182 183.13564 
L 99.904437 182.939754 
L 100.017634 182.876495 
L 101.222728 182.171653 
L 102.781247 181.211782 
L 103.112957 181.025932 
L 103.561306 180.729488 
L 103.806269 180.594964 
L 103.923149 180.49675 
L 104.124884 180.367862 
L 104.321592 180.246398 
L 104.690779 179.974952 
L 104.857053 179.837048 
L 105.228451 179.622371 
L 105.338793 179.554477 
L 109.206757 176.640995 
L 109.319129 176.542484 
L 111.748989 174.785858 
L 111.971162 174.593116 
L 112.131115 174.442529 
L 112.309218 174.309109 
L 112.449441 174.213799 
L 116.926585 170.536782 
L 117.133122 170.330927 
L 117.267264 170.196961 
L 117.496974 170.017807 
L 117.767101 169.765291 
L 117.875979 169.682953 
L 118.091327 169.505504 
L 118.407967 169.214094 
L 118.413858 169.22239 
L 118.561796 169.064627 
L 118.820277 168.796892 
L 119.096485 168.571962 
L 123.089388 164.566296 
L 123.267424 164.417009 
L 124.520396 163.186978 
L 124.522017 163.192036 
L 124.636313 163.039821 
L 124.814114 162.888108 
L 125.08531 162.582384 
L 125.274201 162.397234 
L 125.282513 162.402265 
L 125.469097 162.20816 
L 125.642906 162.049361 
L 125.930956 161.80438 
L 126.052393 161.606505 
L 126.287484 161.366229 
L 127.15045 160.252367 
L 127.373407 159.993767 
L 127.510471 159.80976 
L 127.648809 159.585895 
L 127.836794 159.330694 
L 127.96627 159.177261 
L 128.170923 158.928713 
L 129.851942 156.856732 
L 129.852001 156.866091 
L 129.947206 156.71883 
L 129.961316 156.718977 
L 130.145142 156.552781 
L 130.267136 156.366884 
L 130.858797 155.560977 
L 130.997346 155.365003 
L 131.280324 155.018106 
L 131.434283 154.852544 
L 132.610616 153.409277 
L 132.748858 153.2666 
L 132.863905 153.102307 
L 133.768528 152.022749 
L 133.99344 151.665558 
L 134.229844 151.353871 
L 134.238321 151.358275 
L 134.354199 151.258633 
L 135.085875 150.148499 
L 135.197489 150.001536 
L 135.334913 149.814747 
L 135.52065 149.556465 
L 135.977996 148.864298 
L 136.138077 148.631017 
L 136.45716 148.110562 
L 136.685668 147.860569 
L 136.802174 147.669873 
L 136.803485 147.679887 
L 136.886038 147.557668 
L 136.891545 147.561756 
L 136.971457 147.405182 
L 137.085012 147.212001 
L 137.375628 146.82462 
L 137.647414 146.406585 
L 137.763335 146.261267 
L 137.893264 146.070399 
L 138.200974 145.567468 
L 138.392217 145.35747 
L 138.664778 144.961037 
L 138.804816 144.722995 
L 139.183057 144.036295 
L 139.396402 143.671056 
L 140.398345 142.172821 
L 141.133504 141.080524 
L 141.295205 140.771936 
L 141.69333 140.129512 
L 141.894935 139.848627 
L 142.363525 139.260889 
L 143.296541 137.885986 
L 143.407651 137.706117 
L 143.687753 137.238211 
L 144.198901 136.462394 
L 144.326978 136.183537 
L 144.582127 135.79766 
L 144.767924 135.431927 
L 144.833233 135.288027 
L 144.959543 135.082031 
L 144.962727 135.084679 
L 145.082329 134.858636 
L 145.443217 134.143869 
L 145.554659 134.014746 
L 145.671575 133.838082 
L 145.776948 133.647421 
L 145.955447 133.3654 
L 146.043789 133.217014 
L 146.075785 133.230165 
L 146.247378 132.881074 
L 147.749196 130.220018 
L 147.870628 130.051248 
L 147.979194 129.865621 
L 148.286157 129.305671 
L 148.506485 128.792661 
L 148.607738 128.653864 
L 149.45945 127.152012 
L 149.62056 126.877949 
L 149.630743 126.888929 
L 149.683478 126.792618 
L 150.165266 125.833872 
L 150.316115 125.520546 
L 153.192559 120.296218 
L 153.331966 120.075094 
L 153.530232 119.708058 
L 154.057058 118.738744 
L 154.231518 118.48672 
L 154.424197 118.118559 
L 154.726165 117.595514 
L 157.999703 111.410496 
L 158.146042 111.126733 
L 158.293293 110.816588 
L 158.296553 110.827848 
L 158.390232 110.655125 
L 158.496328 110.486882 
L 158.504393 110.498148 
L 158.62047 110.310876 
L 158.740014 110.103011 
L 158.742789 110.11428 
L 158.876712 109.936895 
L 158.987158 109.686583 
L 160.029673 107.785763 
L 160.451842 107.110665 
L 160.459321 107.121971 
L 160.487794 107.021992 
L 160.500124 107.019002 
L 160.590659 106.818497 
L 161.232685 105.289204 
L 161.322436 105.156293 
L 161.472637 104.804562 
L 161.544336 104.663261 
L 161.655235 104.469021 
L 161.920314 104.063433 
L 161.935719 104.074725 
L 161.967155 103.969011 
L 162.76511 102.366428 
L 162.870784 102.195006 
L 163.007788 102.030006 
L 163.123107 101.695973 
L 163.368725 101.203586 
L 163.508895 100.885298 
L 163.512188 100.907789 
L 163.601778 100.791263 
L 167.758229 92.546611 
L 167.851638 92.34304 
L 167.855343 92.346663 
L 167.969951 92.108733 
L 167.973341 92.119809 
L 168.030932 91.992868 
L 168.04482 92.015025 
L 168.068425 92.026108 
L 168.089068 91.932738 
L 168.283923 91.380874 
L 168.439619 91.070839 
L 169.768143 88.581712 
L 169.777124 88.592681 
L 169.815417 88.473949 
L 170.239819 87.647827 
L 170.557162 87.354099 
L 171.218362 85.931708 
L 171.219434 85.942591 
L 171.315147 85.819323 
L 171.575025 85.501079 
L 171.81647 85.063423 
L 171.831696 85.074289 
L 171.873895 84.990105 
L 172.076423 84.558776 
L 172.220379 84.240473 
L 172.839864 83.035154 
L 173.056647 82.663737 
L 173.171046 82.444257 
L 173.384347 82.133349 
L 173.751389 81.708463 
L 174.012596 81.145436 
L 174.137161 80.951233 
L 174.18388 80.983351 
L 174.223439 80.870427 
L 174.571918 80.032054 
L 174.597702 80.042715 
L 174.600749 80.05338 
L 174.649726 79.845124 
L 174.755177 79.715921 
L 174.781515 79.735487 
L 174.793904 79.74615 
L 174.818906 79.630723 
L 176.157853 77.4823 
L 176.159719 77.49284 
L 176.226607 77.326887 
L 176.238269 77.337432 
L 176.360574 77.173597 
L 176.652416 76.760371 
L 176.653615 76.770902 
L 176.806988 76.433846 
L 176.968094 76.133115 
L 176.969338 76.143612 
L 177.295147 75.660676 
L 177.398235 75.465113 
L 177.93713 74.748835 
L 178.027557 74.6898 
L 178.030572 74.664566 
L 178.342862 74.425191 
L 178.595635 74.198901 
L 178.765648 73.882564 
L 178.824569 73.873001 
L 178.847352 73.821641 
L 178.968011 73.699309 
L 178.990691 73.709755 
L 179.072178 73.674168 
L 179.075088 73.648348 
L 179.18208 73.322322 
L 179.200691 73.332746 
L 179.521496 72.685882 
L 179.623176 72.454436 
L 179.687995 72.448856 
L 179.701722 72.380222 
L 179.805568 72.210547 
L 180.055477 71.789294 
L 180.171317 71.537123 
L 180.189433 71.54744 
L 180.211633 71.450728 
L 180.30291 71.240244 
L 180.309775 71.250542 
L 180.398903 71.194473 
L 180.512061 70.989095 
L 180.516421 70.999383 
L 180.517892 71.009675 
L 180.595777 70.85126 
L 181.07813 69.992815 
L 181.143445 69.941071 
L 181.144189 69.913578 
L 181.274991 69.703486 
L 181.787727 68.939932 
L 181.90104 68.651444 
L 182.059857 68.365877 
L 182.061176 68.386159 
L 182.376771 67.900851 
L 182.444144 67.778229 
L 182.467434 67.788337 
L 182.565758 67.597971 
L 182.929342 66.754065 
L 182.940873 66.764072 
L 183.088838 66.455029 
L 183.15691 66.260646 
L 183.172742 66.280575 
L 183.319842 66.10549 
L 183.482739 65.821983 
L 183.500396 65.831914 
L 183.519674 65.743493 
L 183.649974 65.43823 
L 183.66476 65.458019 
L 183.702044 65.34933 
L 183.839659 65.011966 
L 183.846915 65.031689 
L 184.404035 63.944273 
L 184.570528 63.89003 
L 184.712437 63.611536 
L 184.724028 63.621315 
L 184.771228 63.599144 
L 184.77817 63.537774 
L 184.991353 63.121344 
L 185.506471 62.410566 
L 185.713527 62.095966 
L 185.951237 61.659215 
L 186.078343 61.379123 
L 186.088723 61.388756 
L 186.709504 60.122994 
L 186.710932 60.132498 
L 186.77755 60.109434 
L 186.784192 60.05375 
L 187.620149 58.439896 
L 187.79283 58.151263 
L 188.062728 57.698031 
L 188.109293 57.673468 
L 188.1138 57.605811 
L 188.371541 57.244657 
L 188.75584 56.732547 
L 188.820137 56.656826 
L 188.929684 56.382939 
L 189.047884 56.317463 
L 189.201191 56.077707 
L 189.232945 56.114171 
L 189.26207 56.123296 
L 189.280021 56.027786 
L 189.324687 56.047603 
L 189.444175 55.814421 
L 189.496572 55.824902 
L 189.451648 55.788407 
L 189.547923 55.79886 
L 189.639056 55.685358 
L 189.645399 55.694479 
L 189.837069 55.643341 
L 189.95858 55.405665 
L 190.121074 55.122015 
L 190.134885 55.140165 
L 190.167084 55.068848 
L 190.452747 54.604219 
L 190.455227 54.613245 
L 190.560387 54.478198 
L 190.577931 54.487219 
L 190.609865 54.41501 
L 190.725718 54.242955 
L 190.745549 54.26996 
L 190.762544 54.197419 
L 191.191354 53.931782 
L 191.446915 53.463326 
L 191.495147 53.462249 
L 191.524975 53.388575 
L 191.529996 53.40643 
L 191.635303 52.979071 
L 191.652516 52.98795 
L 191.799679 53.011486 
L 191.80616 52.937042 
L 191.858898 52.907013 
L 191.899739 52.933746 
L 191.953325 52.867985 
L 191.996009 52.764738 
L 192.06226 52.782534 
L 192.411362 52.130221 
L 192.460874 52.10125 
L 192.468947 52.072255 
L 192.578398 51.900537 
L 192.584312 51.909322 
L 192.620929 51.804275 
L 192.68243 51.818956 
L 192.719554 51.742876 
L 192.980718 51.507816 
L 193.094029 51.274609 
L 193.279875 51.22916 
L 195.124257 48.831829 
L 195.156433 48.86579 
L 195.173903 48.882793 
L 195.211023 48.680999 
L 195.233698 48.706425 
L 195.357284 48.597196 
L 195.545784 48.519436 
L 195.640034 48.242231 
L 195.644773 48.250682 
L 196.359929 47.247552 
L 196.408763 47.14743 
L 196.445372 47.155755 
L 196.701361 47.088428 
L 196.847274 46.810492 
L 196.921985 46.801578 
L 196.928016 46.759386 
L 197.051794 46.682459 
L 197.072696 46.690767 
L 197.088778 46.606095 
L 197.193045 46.332583 
L 197.203454 46.340846 
L 197.307464 46.306509 
L 197.312239 46.263885 
L 197.634451 45.857185 
L 197.63902 45.865393 
L 197.689463 45.795768 
L 197.73797 45.828603 
L 197.855519 45.629313 
L 197.895414 45.602463 
L 197.915285 45.559219 
L 197.935019 45.480828 
L 198.027632 45.538052 
L 198.164486 45.500387 
L 198.301276 45.375447 
L 198.378065 45.364587 
L 198.378408 45.320935 
L 198.461243 45.266267 
L 198.494393 45.274452 
L 198.528223 45.290832 
L 198.560904 45.203264 
L 198.687071 44.928615 
L 198.751554 44.969327 
L 198.814901 44.977481 
L 198.823265 44.889363 
L 199.110119 44.475744 
L 199.314848 44.196567 
L 199.315674 44.151978 
L 199.367551 44.21629 
L 199.419814 44.187707 
L 199.471138 44.151032 
L 199.487202 44.10628 
L 199.631949 43.753242 
L 199.672556 43.793274 
L 199.690688 43.801292 
L 199.708129 43.71096 
L 199.710887 43.718964 
L 200.41106 42.56309 
L 200.415682 42.570924 
L 200.569265 42.509912 
L 200.640678 42.378965 
L 200.654999 42.386775 
L 200.894375 42.348762 
L 200.894848 42.302333 
L 201.025974 41.968771 
L 201.05495 41.976525 
L 201.147751 41.953083 
L 201.154199 41.906333 
L 201.215593 41.695345 
L 201.346685 41.46817 
L 201.347564 41.475837 
L 201.479212 41.14431 
L 201.493718 41.151924 
L 201.539819 41.057263 
L 201.681485 41.008031 
L 201.858883 40.758242 
L 201.885408 40.765814 
L 201.903798 40.670257 
L 202.011875 40.564402 
L 202.271022 40.225025 
L 202.703224 40.230143 
L 202.798264 40.043551 
L 202.908423 39.983729 
L 202.932157 40.021216 
L 203.032391 39.961167 
L 203.185166 39.704915 
L 203.291677 39.742263 
L 203.293748 39.693149 
L 204.146497 38.892397 
L 204.150607 38.90719 
L 204.487375 38.867228 
L 204.7102 38.643834 
L 204.799307 38.564493 
L 205.141575 38.347222 
L 205.163696 38.354574 
L 205.181953 38.252323 
L 205.272808 38.135262 
L 205.27401 38.142578 
L 205.542747 38.149771 
L 205.583019 38.098216 
L 205.639762 38.157079 
L 206.077296 37.875821 
L 206.182927 37.637844 
L 206.315285 37.270737 
L 206.334458 37.277936 
L 206.426319 37.290398 
L 206.442612 37.25951 
L 206.571192 37.204757 
L 206.875613 36.821727 
L 206.878415 36.828894 
L 206.881904 36.836065 
L 206.887628 36.782857 
L 206.987365 36.569728 
L 206.987482 36.576838 
L 207.081911 36.048792 
L 207.197547 35.990225 
L 207.336162 35.863434 
L 207.375253 35.89134 
L 207.386519 35.898326 
L 207.396958 35.790188 
L 207.47106 35.601211 
L 207.497766 35.608138 
L 207.642798 35.534057 
L 207.934182 34.905264 
L 207.934761 34.912058 
L 208.04885 34.884205 
L 208.054243 34.842682 
L 208.19044 34.447411 
L 208.32342 34.438852 
L 208.454435 34.222785 
L 208.622867 34.177784 
L 208.863838 33.993452 
L 208.891748 33.725287 
L 208.923218 33.738454 
L 209.117803 33.671586 
L 209.201466 33.294261 
L 209.224142 33.300757 
L 209.372809 33.219365 
L 209.850384 32.512717 
L 209.877429 32.525394 
L 209.909162 32.467654 
L 210.080841 32.203474 
L 210.081549 32.209742 
L 210.107268 32.228568 
L 210.113773 32.112398 
L 210.479763 32.083526 
L 210.481702 32.025104 
L 210.569634 32.068986 
L 210.910933 32.1365 
L 210.912691 32.077586 
L 210.930985 32.018636 
L 210.96457 32.031264 
L 211.402392 31.995236 
L 211.481296 31.942262 
L 211.496903 31.948588 
L 211.658234 31.920828 
L 211.661977 31.86135 
L 211.755951 31.892968 
L 212.341773 31.891557 
L 212.342623 31.831395 
L 212.344034 31.771197 
L 212.442416 31.809427 
L 212.553771 31.720522 
L 212.55549 31.726894 
L 212.618783 31.73965 
L 212.619682 31.679108 
L 212.632796 31.618529 
L 212.718009 31.663063 
L 212.948369 31.499744 
L 212.962568 31.512426 
L 213.025974 31.525124 
L 213.036607 31.46416 
L 213.245231 31.405334 
L 213.251027 31.411678 
L 213.264478 31.424376 
L 213.279172 31.363077 
L 213.313155 31.382103 
L 213.397383 31.339724 
L 213.490203 31.167763 
L 213.597304 31.051716 
L 213.652678 31.064303 
L 213.653751 31.002333 
L 213.762698 30.841132 
L 214.067315 30.716527 
L 214.419819 30.678609 
L 214.56904 30.445635 
L 214.573115 30.451826 
L 214.644998 30.419697 
L 214.657626 30.356513 
L 214.73624 30.393643 
L 214.987533 30.379892 
L 215.02728 30.252809 
L 215.091515 30.283743 
L 215.192372 30.238601 
L 215.226515 30.117132 
L 215.309254 30.141792 
L 215.404177 30.096306 
L 215.496589 29.781645 
L 215.580869 29.812077 
L 215.801907 29.79033 
L 215.876893 29.614687 
L 216.386271 29.583834 
L 216.693429 29.191124 
L 216.756467 29.209189 
L 216.763237 29.143219 
L 216.830949 29.089189 
L 216.839315 29.101189 
L 217.164034 29.052757 
L 217.426348 28.505291 
L 217.440889 28.517044 
L 217.561852 28.467508 
L 217.709323 28.300581 
L 217.715775 28.323945 
L 217.847234 28.35911 
L 217.944504 28.25285 
L 217.958464 28.27042 
L 218.135098 28.255186 
L 218.258239 28.130406 
L 218.573768 28.149836 
L 218.672866 28.110476 
L 218.788733 27.990227 
L 218.871294 28.001933 
L 218.888612 27.932865 
L 218.92416 27.73692 
L 218.956154 27.777461 
L 219.076806 27.73117 
L 219.160538 27.475381 
L 219.195726 27.48111 
L 219.26604 27.509814 
L 219.279309 27.439804 
L 219.425769 27.339519 
L 219.427032 27.345233 
L 219.682277 27.29001 
L 219.755904 27.154092 
L 219.802341 27.171175 
L 219.887465 27.117256 
L 219.952895 26.761312 
L 219.998461 26.778051 
L 220.178522 26.745672 
L 220.179403 26.674048 
L 220.260952 26.696345 
L 220.632439 26.763619 
L 220.636871 26.691566 
L 220.767437 26.285532 
L 220.864366 26.24034 
L 221.026817 26.043716 
L 221.031573 26.049139 
L 221.187096 26.00863 
L 221.319099 25.889132 
L 221.426436 25.842617 
L 221.490426 25.716773 
L 221.538193 25.738227 
L 221.587141 25.759744 
L 221.626518 25.696479 
L 221.716763 25.56953 
L 221.740732 25.574867 
L 222.040105 25.591431 
L 222.177555 25.543432 
L 222.22672 25.559574 
L 222.229596 25.484489 
L 222.233523 25.409348 
L 222.302706 25.425371 
L 222.36455 25.360748 
L 222.517187 25.095553 
L 222.544525 25.116592 
L 222.776607 25.114461 
L 222.80004 24.967002 
L 222.88381 25.003829 
L 222.993711 24.942938 
L 223.104473 24.804933 
L 223.112207 24.810153 
L 223.37625 24.790514 
L 223.418756 24.635707 
L 223.461808 24.65647 
L 223.735005 24.646429 
L 223.870485 24.615323 
L 223.874135 24.620556 
L 223.924454 24.552616 
L 224.129171 24.274149 
L 224.1779 24.289555 
L 224.180972 24.21055 
L 224.19874 24.057413 
L 224.292731 24.082759 
L 224.4644 23.879531 
L 225.320638 23.890918 
L 225.425239 23.744217 
L 225.45703 23.75432 
L 225.543391 23.698337 
L 225.65304 23.493776 
L 225.661672 23.498764 
L 225.992094 23.481724 
L 226.047072 23.156966 
L 226.091515 23.181468 
L 226.340499 23.123146 
L 226.356325 23.040157 
L 226.45275 23.069429 
L 226.641148 22.917367 
L 226.652804 22.931902 
L 226.9295 22.935704 
L 227.120531 22.890469 
L 227.266317 22.869392 
L 227.269149 22.784341 
L 227.354184 22.798987 
L 227.564401 22.767412 
L 227.571723 22.681751 
L 227.669045 22.70613 
L 228.008641 22.693471 
L 228.090302 22.534983 
L 228.119833 22.544705 
L 228.231233 22.573972 
L 228.250621 22.491819 
L 228.359726 22.327097 
L 228.377387 22.341509 
L 228.872121 22.330991 
L 229.023857 22.178653 
L 229.305407 22.162014 
L 229.482552 22.012414 
L 229.587718 22.036303 
L 229.778238 21.880681 
L 229.781373 21.885418 
L 229.929712 21.833205 
L 229.956652 21.742865 
L 230.046754 21.771126 
L 230.065885 21.77585 
L 230.066657 21.685169 
L 230.066746 21.594408 
L 230.176601 21.613045 
L 231.338176 21.749061 
L 231.712976 21.222438 
L 231.954258 21.221181 
L 232.118493 21.054823 
L 232.325501 21.087156 
L 232.510792 21.019495 
L 232.837928 21.098615 
L 232.969967 20.836756 
L 232.973637 20.841347 
L 233.256124 20.803935 
L 233.342057 20.52887 
L 233.414035 20.546867 
L 234.01957 20.584499 
L 234.140392 20.321068 
L 234.166713 20.330058 
L 234.399568 20.059219 
L 234.879767 20.03265 
L 234.883278 19.93074 
L 234.987527 19.948244 
L 236.019014 20.136267 
L 236.232854 19.963563 
L 236.828676 19.953281 
L 236.987707 19.758913 
L 236.998106 19.763382 
L 237.060012 19.776817 
L 237.170587 19.683458 
L 237.179924 19.687907 
L 237.443717 19.625123 
L 237.449073 19.517487 
L 237.553168 19.539498 
L 237.595034 19.557189 
L 237.62057 19.45334 
L 237.735643 19.349276 
L 237.735682 19.240714 
L 237.809377 19.266469 
L 237.876316 19.161721 
L 237.986268 18.964054 
L 238.007021 18.976577 
L 238.976025 19.0782 
L 238.992234 18.967015 
L 239.064521 18.992485 
L 241.420043 19.083836 
L 241.565135 18.868707 
L 241.781966 18.903917 
L 241.834178 18.673572 
L 241.891116 18.677873 
L 241.917692 18.68218 
L 241.98062 18.450814 
L 242.015285 18.463394 
L 242.696722 18.445794 
L 242.808959 18.334244 
L 243.103194 18.367949 
L 243.119588 18.247219 
L 243.193106 18.259737 
L 243.240629 18.272298 
L 243.243438 18.151025 
L 243.348001 18.159288 
L 244.275112 18.195814 
L 244.447566 18.092457 
L 244.534646 18.12203 
L 244.556887 17.875305 
L 244.635153 17.887635 
L 244.957759 17.94158 
L 245.038045 17.818809 
L 245.811329 17.819293 
L 246.004135 17.449849 
L 246.018488 17.457833 
L 246.617897 17.542868 
L 246.62339 17.410561 
L 246.63456 17.414586 
L 247.871088 17.448116 
L 248.002096 17.328326 
L 248.827648 17.500747 
L 249.883839 17.52984 
L 249.964369 17.250061 
L 251.459727 17.272998 
L 251.477655 17.124289 
L 251.5735 17.141592 
L 252.253673 17.23853 
L 252.254379 17.086914 
L 252.326053 17.091288 
L 253.604601 17.332423 
L 253.681247 17.351399 
L 253.749092 17.197808 
L 253.772386 17.216465 
L 253.989437 17.230531 
L 253.996363 17.071128 
L 254.045074 17.094128 
L 255.050457 17.250408 
L 255.101766 17.265013 
L 255.102517 17.100419 
L 255.21054 17.13389 
L 255.383375 17.167729 
L 255.41948 17.001111 
L 255.877225 17.068118 
L 255.943725 16.730465 
L 256.001021 16.744231 
L 256.155535 16.771962 
L 256.237265 16.610574 
L 256.257803 16.619639 
L 256.494606 16.651599 
L 256.61896 16.497294 
L 256.620107 16.501782 
L 257.507697 16.471702 
L 257.516366 16.293728 
L 257.53408 16.302633 
L 257.773335 16.311569 
L 257.899133 16.141381 
L 257.907399 16.150082 
L 258.094434 16.171963 
L 258.139059 15.810657 
L 258.209764 15.818861 
L 258.880995 15.915254 
L 259.000949 15.73441 
L 259.00831 15.738539 
L 260.63276 15.954551 
L 260.881887 16.000139 
L 262.556649 16.216109 
L 262.819539 16.246323 
L 262.832642 16.041306 
L 262.919271 16.051068 
L 263.477918 16.135597 
L 263.831956 15.749646 
L 263.942254 15.76384 
L 263.954625 15.551801 
L 264.058668 15.588405 
L 264.443102 15.644427 
L 264.540549 15.432246 
L 264.567113 15.43677 
L 266.659913 15.690481 
L 268.102234 15.85279 
L 268.203401 15.620427 
L 268.209854 15.625602 
L 269.649464 15.819942 
L 269.848024 15.848233 
L 270.672674 15.970771 
L 270.67895 15.714785 
L 270.762684 15.731891 
L 271.009493 15.77812 
L 271.013129 15.518143 
L 271.118541 15.534777 
L 273.218235 15.837543 
L 274.387149 15.987721 
L 274.488735 16.014795 
L 274.520554 15.726175 
L 274.589913 15.739055 
L 275.004915 15.77812 
L 275.013552 15.485601 
L 275.075686 15.504191 
L 275.538024 15.580118 
L 275.60134 15.280738 
L 275.628701 15.292815 
L 276.511977 15.417448 
L 276.712305 15.113804 
L 278.381831 15.321421 
L 278.5854 15.374946 
L 280.11848 15.521971 
L 280.146044 15.180757 
L 280.219326 15.194203 
L 281.217832 15.340783 
L 281.277625 14.277209 
L 281.339345 14.288227 
L 281.556802 14.304894 
L 284.418125 14.583395 
L 284.704857 14.623219 
L 284.803888 14.232527 
L 284.956304 14.268993 
L 285.119033 13.871068 
L 285.813116 13.954714 
L 287.770908 14.144012 
L 287.95351 14.176839 
L 295.227959 15.124097 
L 295.249652 14.544436 
L 295.354801 14.61318 
L 295.431067 14.633313 
L 295.479012 14.03609 
L 299.517484 14.365163 
L 300.821406 14.587338 
L 301.67523 14.635339 
L 303.685155 14.840915 
L 303.775766 14.083474 
L 303.861637 14.116638 
L 304.62091 14.196866 
L 310.112172 14.934784 
L 310.12794 13.96431 
L 310.190382 13.991512 
L 311.649018 14.165821 
L 313.924476 14.450647 
L 313.971653 14.469006 
L 313.972769 13.32478 
L 318.43722 13.58779 
L 318.662805 13.634855 
L 321.93607 13.879219 
L 322.569375 13.977849 
L 328.467502 14.716142 
L 328.600735 14.813956 
L 329.06951 14.952673 
L 329.112696 14.988944 
L 331.610581 15.304961 
L 332.047027 15.391946 
L 333.969627 15.726175 
L 334.374668 15.941037 
L 334.426494 16.055963 
L 335.07957 16.176362 
L 335.350829 13.618978 
L 336.282003 13.823115 
L 336.810072 13.977849 
L 341.189189 14.623219 
L 341.567329 14.813956 
L 343.987125 15.025885 
L 344.851806 15.262748 
L 344.927357 15.348019 
L 349.695324 16.055963 
L 349.813669 16.176362 
L 351.586037 16.435219 
L 352.642442 16.721324 
L 352.994409 16.875976 
L 356.471102 17.21179 
L 356.921325 17.58831 
L 356.991835 17.794219 
L 357.704088 18.013412 
L 357.852177 18.247219 
L 358.520796 18.49715 
L 359.710656 10.999219 
L 365.135578 10.999219 
L 365.135578 10.999219 
" style="fill:none;stroke:#0000ff;stroke-dasharray:5.55,2.4;stroke-dashoffset:0;stroke-width:1.5;"/>
   </g>
   <g id="line2d_17">
    <path clip-path="url(#pc9f6bb9891)" d="M 30.095274 13.325638 
L 38.57352 13.40586 
L 38.687816 13.44597 
L 42.800023 13.526192 
L 42.910777 13.566302 
L 45.768811 13.646524 
L 45.878586 13.686634 
L 47.784414 13.766856 
L 47.902693 13.806966 
L 52.447696 13.887188 
L 52.561965 13.927298 
L 57.549433 14.00752 
L 57.66872 14.04763 
L 59.391394 14.127852 
L 59.512886 14.167963 
L 60.717963 14.248184 
L 60.835182 14.288295 
L 63.006455 14.368516 
L 63.12145 14.408627 
L 66.889105 14.488848 
L 66.995657 14.528959 
L 68.677189 14.60918 
L 68.801519 14.689401 
L 70.528618 14.769623 
L 70.648372 14.809733 
L 71.423198 14.889955 
L 71.535219 15.010287 
L 72.634658 15.090508 
L 72.747542 15.130619 
L 75.674071 15.21084 
L 75.785101 15.250951 
L 77.332259 15.331172 
L 77.446676 15.411394 
L 79.591198 15.491615 
L 79.703234 15.531726 
L 81.930629 15.611947 
L 82.042872 15.652058 
L 83.127742 15.732279 
L 83.234554 15.77239 
L 84.986983 15.852611 
L 85.098092 15.892722 
L 88.268127 15.972943 
L 88.379691 16.013054 
L 89.039451 16.093275 
L 89.150549 16.133386 
L 90.777083 16.213607 
L 90.886472 16.253718 
L 92.575088 16.333939 
L 92.686059 16.37405 
L 93.817362 16.454271 
L 93.92867 16.494382 
L 96.312853 16.574603 
L 96.426884 16.614714 
L 97.594512 16.694935 
L 97.708578 16.735046 
L 98.859363 16.815267 
L 98.974502 16.855378 
L 100.412757 16.935599 
L 100.523299 16.97571 
L 101.421833 17.055932 
L 101.535103 17.096042 
L 102.025891 17.176264 
L 102.136731 17.216374 
L 103.602544 17.296596 
L 103.714805 17.336706 
L 105.606137 17.416928 
L 105.715037 17.457038 
L 106.341052 17.53726 
L 106.452954 17.57737 
L 106.953262 17.657592 
L 107.063242 17.737813 
L 107.985375 17.818034 
L 108.0982 17.898256 
L 109.287442 17.978477 
L 109.399685 18.018588 
L 109.991604 18.098809 
L 110.103287 18.13892 
L 111.015419 18.219141 
L 111.127044 18.259252 
L 112.481243 18.339473 
L 112.587989 18.379584 
L 113.131659 18.459805 
L 113.248094 18.580137 
L 113.301922 18.660359 
L 113.412724 18.700469 
L 113.865036 18.780691 
L 113.990203 18.860912 
L 114.846218 18.941134 
L 114.956589 19.061466 
L 115.4232 19.141687 
L 115.535311 19.262019 
L 115.921904 19.34224 
L 116.037022 19.422462 
L 116.738952 19.502683 
L 116.854501 19.623015 
L 117.186737 19.703236 
L 117.300529 19.783458 
L 117.711385 19.863679 
L 117.819233 19.90379 
L 118.081168 19.984011 
L 118.192873 20.024122 
L 118.443983 20.104343 
L 118.557385 20.184565 
L 118.862958 20.264786 
L 118.982364 20.345007 
L 119.409137 20.425229 
L 119.52052 20.465339 
L 119.735365 20.545561 
L 119.868089 20.625782 
L 120.41665 20.706003 
L 120.527935 20.746114 
L 121.262166 20.826336 
L 121.376153 20.866446 
L 121.736228 20.946668 
L 121.855354 21.026889 
L 122.45795 21.10711 
L 122.609116 21.227442 
L 123.539704 21.307664 
L 123.650062 21.347774 
L 124.045463 21.427996 
L 124.156518 21.508217 
L 124.654967 21.588438 
L 124.76155 21.628549 
L 125.260036 21.70877 
L 125.381119 21.829103 
L 126.026331 21.909324 
L 126.131426 21.949435 
L 127.476046 22.029656 
L 127.584304 22.069767 
L 128.138085 22.149988 
L 128.253614 22.190099 
L 128.606086 22.27032 
L 128.718841 22.350541 
L 129.129701 22.430763 
L 129.241052 22.470873 
L 129.721854 22.551095 
L 129.83458 22.631316 
L 129.981975 22.711538 
L 130.105347 22.791759 
L 130.753836 22.87198 
L 130.863422 22.912091 
L 131.410054 22.992312 
L 131.521688 23.112644 
L 131.875473 23.192866 
L 132.000487 23.313198 
L 132.300081 23.393419 
L 132.421662 23.47364 
L 132.814618 23.553862 
L 132.923035 23.593972 
L 133.114045 23.674194 
L 133.218617 23.794526 
L 133.637285 23.874747 
L 133.748931 23.914858 
L 133.824333 23.995079 
L 133.935644 24.03519 
L 134.230618 24.115411 
L 134.381751 24.315965 
L 134.715309 24.396186 
L 134.826013 24.516518 
L 135.211605 24.59674 
L 135.325931 24.676961 
L 135.909258 24.757182 
L 136.021256 24.837404 
L 136.40205 24.917625 
L 136.510873 24.957736 
L 136.76302 25.037957 
L 136.891545 25.23851 
L 137.143217 25.318732 
L 137.249118 25.398953 
L 137.604543 25.479174 
L 137.716844 25.559396 
L 138.297744 25.639617 
L 138.409341 25.840171 
L 138.95198 25.920392 
L 139.06342 26.000613 
L 139.516167 26.080835 
L 139.625663 26.161056 
L 139.767199 26.241277 
L 139.8781 26.361609 
L 140.141778 26.441831 
L 140.258503 26.522052 
L 140.563346 26.602274 
L 140.676033 26.722606 
L 140.837783 26.802827 
L 140.963184 26.923159 
L 141.384676 27.00338 
L 141.496048 27.083602 
L 141.770543 27.163823 
L 141.88074 27.284155 
L 142.446193 27.364376 
L 142.570254 27.444598 
L 142.765379 27.524819 
L 142.874089 27.605041 
L 143.023049 27.685262 
L 143.132174 27.805594 
L 143.362534 27.885815 
L 143.468617 27.925926 
L 143.629939 28.006147 
L 143.746308 28.086369 
L 143.854959 28.16659 
L 143.96704 28.286922 
L 144.316389 28.367143 
L 144.432083 28.527586 
L 144.998442 28.607808 
L 145.117674 28.72814 
L 145.609376 28.808361 
L 145.720672 28.888582 
L 145.891996 28.968804 
L 145.991142 29.049025 
L 146.068967 29.129246 
L 146.194697 29.249578 
L 146.664138 29.3298 
L 146.772153 29.450132 
L 147.020648 29.530353 
L 147.127243 29.610575 
L 147.293372 29.690796 
L 147.404972 29.730907 
L 147.555439 29.811128 
L 147.674667 29.93146 
L 147.928103 30.011681 
L 148.043447 30.091903 
L 148.347168 30.172124 
L 148.478845 30.212235 
L 148.791229 30.292456 
L 148.900211 30.332567 
L 149.278014 30.412788 
L 149.398859 30.573231 
L 149.605566 30.653452 
L 149.717619 30.773784 
L 150.033998 30.854006 
L 150.145718 30.894116 
L 150.365277 30.974338 
L 150.474923 31.09467 
L 150.564744 31.174891 
L 150.683222 31.295223 
L 150.843391 31.375445 
L 150.959891 31.455666 
L 151.079605 31.535887 
L 151.191194 31.616109 
L 151.212171 31.69633 
L 151.374613 31.856773 
L 151.433969 31.936994 
L 151.546562 32.097437 
L 151.695469 32.177658 
L 151.824164 32.338101 
L 152.420228 32.418322 
L 152.534526 32.458433 
L 152.720659 32.538654 
L 152.836461 32.658986 
L 152.886651 32.739208 
L 153.061703 32.89965 
L 153.19619 32.979872 
L 153.390108 33.060093 
L 153.994983 33.140314 
L 154.105555 33.260647 
L 154.178971 33.340868 
L 154.3839 33.501311 
L 154.507329 33.581532 
L 154.619225 33.621643 
L 154.718957 33.701864 
L 154.821839 33.902417 
L 155.262093 33.982639 
L 155.381638 34.06286 
L 155.445105 34.143082 
L 155.644258 34.383746 
L 155.995998 34.463967 
L 156.149378 34.62441 
L 156.212502 34.704631 
L 156.317313 34.784852 
L 156.548699 34.865074 
L 156.663638 35.025516 
L 156.788505 35.105738 
L 156.905642 35.22607 
L 157.061962 35.306291 
L 157.169377 35.426623 
L 157.454009 35.506845 
L 157.565517 35.546955 
L 157.719803 35.627177 
L 157.821016 35.787619 
L 158.085799 35.867841 
L 158.329594 36.108505 
L 158.475581 36.188726 
L 158.610517 36.309058 
L 158.684583 36.38928 
L 158.788571 36.469501 
L 158.916817 36.549722 
L 159.022461 36.670054 
L 159.093799 36.750276 
L 159.214859 36.870608 
L 159.293184 36.950829 
L 159.424158 37.231604 
L 159.516035 37.311825 
L 159.626355 37.351936 
L 159.753144 37.432157 
L 159.871978 37.552489 
L 160.088697 37.632711 
L 160.288358 37.953596 
L 160.392196 38.033818 
L 160.530145 38.234371 
L 160.82912 38.314592 
L 160.95048 38.515146 
L 161.036304 38.595367 
L 161.122429 38.715699 
L 161.324324 38.79592 
L 161.453448 38.876142 
L 161.536996 38.956363 
L 161.655235 38.996474 
L 161.827918 39.076695 
L 161.939129 39.35747 
L 162.068848 39.437691 
L 162.207964 39.638245 
L 162.452863 39.718466 
L 162.556162 39.798687 
L 162.777535 40.039352 
L 163.066022 40.119573 
L 163.170725 40.199794 
L 163.291222 40.280016 
L 163.418606 40.320126 
L 163.540686 40.400348 
L 163.650944 40.440458 
L 163.867634 40.52068 
L 164.057273 40.881676 
L 164.142543 40.961897 
L 164.267151 41.12234 
L 164.404128 41.202561 
L 164.51133 41.322893 
L 164.955783 41.403115 
L 165.074858 41.643779 
L 165.422175 41.724 
L 165.583934 41.964664 
L 165.763182 42.044886 
L 165.8798 42.245439 
L 166.095952 42.32566 
L 166.378202 42.726767 
L 166.493075 42.806989 
L 166.617158 42.967431 
L 167.283707 43.729534 
L 167.481705 43.809756 
L 167.601117 43.930088 
L 167.724345 44.010309 
L 167.898664 44.210862 
L 167.981453 44.291084 
L 168.104336 44.491637 
L 168.448857 44.571858 
L 168.611719 44.852633 
L 168.686071 44.932855 
L 168.782144 45.013076 
L 168.880728 45.093297 
L 168.996396 45.213629 
L 169.108186 45.333961 
L 169.187834 45.414183 
L 169.282479 45.534515 
L 169.745405 45.935622 
L 169.861985 46.015843 
L 170.017184 46.176286 
L 170.050866 46.256507 
L 170.161719 46.336728 
L 170.194976 46.41695 
L 170.319345 46.577393 
L 170.340809 46.657614 
L 170.457368 46.777946 
L 170.576609 46.858167 
L 170.699313 46.898278 
L 170.854716 46.978499 
L 171.015511 47.138942 
L 171.111419 47.219163 
L 171.238757 47.499938 
L 171.345373 47.58016 
L 171.609501 47.901045 
L 171.70481 47.981266 
L 171.873895 48.18182 
L 171.980656 48.262041 
L 172.313875 48.703259 
L 172.522197 48.78348 
L 172.648042 48.863701 
L 172.86223 48.943923 
L 172.966759 49.144476 
L 173.166482 49.224697 
L 173.288473 49.465362 
L 173.32778 49.545583 
L 173.607969 49.866468 
L 173.707815 49.94669 
L 173.821419 50.187354 
L 173.923324 50.267575 
L 174.023701 50.468129 
L 174.458359 51.069789 
L 174.571918 51.15001 
L 175.086125 51.75167 
L 175.176431 51.831892 
L 175.357187 52.032445 
L 175.536097 52.112666 
L 175.652743 52.353331 
L 175.771971 52.433552 
L 175.98732 52.513773 
L 176.386914 53.315987 
L 176.42527 53.396208 
L 176.593788 53.596762 
L 176.652416 53.676983 
L 176.765791 53.877536 
L 176.814124 53.957758 
L 176.925582 54.07809 
L 176.998196 54.158311 
L 177.129464 54.318754 
L 177.271542 54.398975 
L 177.773624 55.28141 
L 177.853894 55.361632 
L 177.984568 55.481964 
L 178.013093 55.562185 
L 178.129511 55.602296 
L 178.296446 55.923181 
L 178.890458 56.885837 
L 179.072178 57.286944 
L 179.300146 57.367166 
L 179.443725 57.567719 
L 179.509341 57.64794 
L 179.623176 57.808383 
L 181.07813 59.733696 
L 181.376436 60.215024 
L 181.479364 60.57602 
L 181.523251 60.656241 
L 181.61964 60.776573 
L 181.715794 60.856795 
L 181.943636 61.057348 
L 182.002473 61.13757 
L 182.183373 61.578787 
L 182.247752 61.659008 
L 182.413118 61.939783 
L 182.587447 62.020005 
L 182.704232 62.140337 
L 182.929342 62.220558 
L 183.092615 62.421111 
L 183.161191 62.501333 
L 183.319842 62.661775 
L 183.429217 62.741997 
L 183.52223 62.862329 
L 183.649974 62.94255 
L 183.784575 63.183214 
L 183.839659 63.263436 
L 183.939979 63.383768 
L 184.014484 63.463989 
L 184.133774 63.624432 
L 184.477617 64.226092 
L 184.595588 64.506867 
L 184.640888 64.587088 
L 184.802859 65.028306 
L 184.84273 65.108527 
L 184.933259 65.30908 
L 185.976998 67.07395 
L 187.395306 68.718488 
L 187.480622 68.79871 
L 187.674131 69.119595 
L 187.774948 69.199816 
L 187.885081 69.280038 
L 188.186105 69.360259 
L 188.499693 69.761366 
L 188.574971 69.841587 
L 188.688692 70.042141 
L 188.744759 70.122362 
L 188.879245 70.322915 
L 189.06634 70.804244 
L 189.18244 71.044908 
L 189.840835 72.569114 
L 189.90154 72.649335 
L 190.018257 72.809778 
L 190.10424 72.889999 
L 190.243134 73.130663 
L 190.306727 73.210884 
L 190.475483 73.611991 
L 190.725718 73.972987 
L 190.882209 74.13343 
L 190.905276 74.213652 
L 191.109865 74.614758 
L 191.299314 74.855422 
L 191.454952 74.935644 
L 191.564727 75.29664 
L 191.635303 75.376861 
L 192.21715 76.45985 
L 192.365102 76.540071 
L 192.489848 76.700514 
L 192.578398 76.780735 
L 192.719554 77.101621 
L 192.843903 77.181842 
L 193.040148 77.462617 
L 193.058752 77.542838 
L 193.517574 78.22472 
L 193.567194 78.304941 
L 193.671337 78.425273 
L 193.743838 78.505494 
L 193.930956 78.86649 
L 194.030337 78.946712 
L 194.143698 79.147265 
L 194.187673 79.227487 
L 194.409699 79.548372 
L 194.941236 80.350586 
L 195.021664 80.430807 
L 195.196552 80.912135 
L 195.227519 80.992357 
L 195.357284 81.473685 
L 195.460439 81.634127 
L 195.592638 81.874792 
L 195.681855 81.955013 
L 196.157722 82.797337 
L 196.260393 83.038001 
L 196.393052 83.118223 
L 196.445372 83.238555 
L 196.519754 83.398997 
L 197.395832 84.963314 
L 197.491809 85.043535 
L 197.935019 85.845749 
L 198.014799 86.046302 
L 198.130113 86.246856 
L 198.353639 86.728184 
L 199.110119 87.811172 
L 199.198971 87.891394 
L 199.3273 88.091947 
L 199.487202 88.412832 
L 199.513567 88.493054 
L 199.733992 89.174935 
L 199.809618 89.255157 
L 199.940548 89.495821 
L 199.980408 89.576042 
L 200.08579 89.816706 
L 200.523563 90.418367 
L 200.640678 90.498588 
L 200.854822 90.779363 
L 201.167623 91.22058 
L 201.27851 91.300801 
L 201.362808 91.381023 
L 201.493718 91.661798 
L 201.638299 91.742019 
L 201.746258 92.022794 
L 201.780151 92.103015 
L 202.03505 92.584343 
L 202.152689 92.664565 
L 202.271022 92.825007 
L 202.461696 93.186003 
L 202.570561 93.386557 
L 202.958497 94.14866 
L 203.08622 94.389324 
L 203.185166 94.469545 
L 204.799307 97.477846 
L 204.91055 97.558068 
L 205.046953 97.878953 
L 205.216739 98.079507 
L 205.766088 99.162495 
L 206.191952 99.44327 
L 206.315285 99.724044 
L 206.566539 100.486147 
L 206.678127 100.686701 
L 206.878415 101.087808 
L 206.990379 101.168029 
L 207.1278 101.24825 
L 207.34417 101.729578 
L 207.70186 102.371349 
L 207.790094 102.451571 
L 207.934761 102.812567 
L 208.281086 103.494448 
L 208.350329 103.61478 
L 208.486655 103.695002 
L 208.598576 103.975777 
L 208.622867 104.055998 
L 208.785166 104.136219 
L 209.015801 104.497215 
L 209.708684 105.540093 
L 209.749382 105.660425 
L 209.940619 105.820868 
L 210.006057 105.901089 
L 210.10609 106.061532 
L 210.174123 106.141753 
L 210.339591 106.422528 
L 210.755474 107.425295 
L 210.851009 107.70607 
L 211.12059 107.986845 
L 211.220067 108.107177 
L 211.534329 108.468173 
L 211.643592 108.588505 
L 211.851631 108.949501 
L 211.918422 109.029722 
L 212.766345 110.794592 
L 212.87388 110.874814 
L 213.183583 111.356142 
L 213.313155 111.717138 
L 213.496621 111.997913 
L 213.611962 112.39902 
L 214.192438 113.121012 
L 214.480278 113.60234 
L 216.239654 116.690862 
L 216.304446 116.811194 
L 216.467265 117.011748 
L 217.146379 118.014515 
L 217.274423 118.215068 
L 217.413293 118.415622 
L 217.595238 118.736507 
L 218.0722 119.899717 
L 218.328314 120.260713 
L 218.573768 120.70193 
L 218.714249 120.942595 
L 218.802262 121.062927 
L 218.930808 121.26348 
L 219.013299 121.504144 
L 219.100336 121.704697 
L 219.427032 122.346468 
L 219.607657 122.707464 
L 219.887465 123.228903 
L 219.994447 123.309125 
L 220.10589 123.469567 
L 220.469507 124.111338 
L 220.632439 124.271781 
L 220.686999 124.352002 
L 220.809651 124.552556 
L 221.050124 124.913552 
L 221.514097 125.715766 
L 221.740732 126.277315 
L 221.889978 126.638311 
L 222.040105 126.959197 
L 222.140627 127.039418 
L 222.302706 127.400414 
L 222.488943 127.681189 
L 222.606718 128.122406 
L 222.776323 128.443292 
L 222.88381 128.804288 
L 223.129524 129.125173 
L 223.512881 129.807055 
L 223.874135 130.609269 
L 224.4644 131.612036 
L 224.66607 131.89281 
L 224.824327 132.334028 
L 225.346875 133.015909 
L 226.563703 134.981333 
L 226.641148 135.061554 
L 226.761793 135.462661 
L 226.9295 135.903878 
L 227.043607 135.9841 
L 227.151738 136.264875 
L 227.233957 136.665981 
L 227.315157 136.826424 
L 227.561408 137.227531 
L 227.669045 137.508306 
L 227.896047 137.989634 
L 228.009392 138.109966 
L 228.47787 138.831958 
L 228.635163 139.032512 
L 228.789559 139.353397 
L 228.915611 139.51384 
L 229.023857 139.634172 
L 229.304785 140.195721 
L 229.407797 140.396275 
L 229.737055 140.837492 
L 229.838587 141.078156 
L 229.956652 141.238599 
L 230.228021 141.800148 
L 230.736105 142.48203 
L 230.838648 142.642473 
L 231.666195 143.885904 
L 231.750858 143.966125 
L 231.863702 144.447453 
L 231.987927 144.80845 
L 232.193599 145.049114 
L 232.537841 145.490331 
L 232.663224 145.771106 
L 232.837928 146.091991 
L 232.89484 146.172213 
L 233.11152 146.573319 
L 233.218219 146.733762 
L 233.343214 147.094758 
L 235.050762 150.022838 
L 235.247861 150.223391 
L 235.425078 150.624498 
L 235.667165 151.025605 
L 235.815112 151.266269 
L 235.942772 151.587155 
L 236.153089 151.787708 
L 236.279331 151.988261 
L 236.408158 152.429479 
L 236.608145 152.5097 
L 236.631792 152.670143 
L 236.864855 152.830586 
L 237.59056 153.993795 
L 237.710021 154.114127 
L 237.738947 154.194349 
L 238.277751 155.197116 
L 238.722017 155.477891 
L 238.773109 155.598223 
L 239.00375 155.758665 
L 240.094586 157.242761 
L 241.590665 159.047741 
L 241.790533 159.328516 
L 242.42339 160.050508 
L 242.601788 160.371394 
L 243.551892 161.494493 
L 243.617297 161.695046 
L 243.740797 161.93571 
L 243.874022 162.136264 
L 244.539777 163.299473 
L 244.701472 163.70058 
L 244.986005 163.981355 
L 245.283471 164.342351 
L 245.403192 164.663236 
L 246.004135 165.46545 
L 246.051309 165.585782 
L 246.209182 165.746225 
L 246.341005 165.986889 
L 246.439403 166.187442 
L 246.63456 166.428106 
L 246.782819 166.588549 
L 246.852181 166.708881 
L 246.998308 166.869324 
L 247.371895 167.470984 
L 247.633595 167.912202 
L 247.89756 168.112755 
L 249.576206 171.201277 
L 249.76838 171.36172 
L 249.964369 171.522163 
L 250.374657 171.722716 
L 250.515629 172.204044 
L 250.797162 172.484819 
L 251.09904 172.645262 
L 251.304051 172.966147 
L 251.480362 173.12659 
L 251.685357 173.407365 
L 251.919037 173.607918 
L 252.254379 174.129357 
L 252.506962 174.370021 
L 252.608934 174.610685 
L 252.938588 174.931571 
L 252.964881 175.011792 
L 253.115801 175.172235 
L 253.560095 176.255223 
L 253.755027 176.576109 
L 253.8829 176.736551 
L 254.010804 176.896994 
L 254.045074 176.977215 
L 254.321152 177.177769 
L 254.458145 177.659097 
L 254.725218 177.81954 
L 254.91629 178.100314 
L 255.20694 178.661864 
L 255.328975 178.942639 
L 255.858938 179.464078 
L 255.957151 179.58441 
L 257.53408 181.910829 
L 257.899133 182.071272 
L 257.980874 182.311936 
L 258.25502 182.512489 
L 258.672566 183.074039 
L 258.799963 183.15426 
L 258.88005 183.314703 
L 258.904844 183.354814 
L 259.22851 183.595478 
L 259.37165 183.836142 
L 259.464438 183.996585 
L 259.695527 184.157027 
L 259.906343 184.598245 
L 260.326555 184.798798 
L 260.455072 185.119684 
L 260.63276 185.440569 
L 260.744921 185.721344 
L 260.978677 185.921897 
L 261.128912 186.282893 
L 261.46723 186.603779 
L 262.102831 187.085107 
L 262.267207 187.24555 
L 262.635854 187.766989 
L 263.046479 188.127985 
L 263.477918 188.649424 
L 263.727881 188.729645 
L 263.831956 188.930198 
L 263.965473 189.090641 
L 264.278369 189.61208 
L 264.397052 189.812633 
L 265.058744 190.534626 
L 265.242678 190.77529 
L 265.526342 191.015954 
L 265.999691 191.577503 
L 266.687488 192.098942 
L 267.68588 192.941266 
L 268.502065 193.583037 
L 268.547806 193.703369 
L 268.839745 193.863812 
L 269.04941 194.064365 
L 269.398481 194.465472 
L 269.530395 194.706136 
L 270.294082 195.468239 
L 270.295279 195.50835 
L 270.503236 195.668793 
L 270.60468 195.789125 
L 270.882842 196.11001 
L 271.037442 196.390785 
L 271.222996 196.591338 
L 271.386874 196.791892 
L 271.608847 196.992445 
L 271.776622 197.233109 
L 271.804648 197.313331 
L 272.357616 197.674327 
L 272.414067 197.834769 
L 272.83578 198.075433 
L 272.97133 198.195766 
L 273.079052 198.356208 
L 273.246789 198.516651 
L 273.344927 198.636983 
L 273.87894 198.877647 
L 273.994186 199.0782 
L 274.639708 199.679861 
L 275.013552 199.880414 
L 275.142839 200.040857 
L 275.519265 200.401853 
L 275.628701 200.562296 
L 275.995185 200.84307 
L 276.120512 201.043624 
L 276.205942 201.204067 
L 276.506713 201.324399 
L 276.61661 201.364509 
L 277.580227 201.885948 
L 277.663358 202.00628 
L 277.966319 202.166723 
L 278.174024 202.487608 
L 278.194753 202.60794 
L 278.404985 202.808494 
L 279.090422 203.329933 
L 280.331109 204.092036 
L 281.666005 205.134913 
L 282.451229 205.455799 
L 283.174771 206.258012 
L 283.388936 206.418455 
L 284.09385 206.779451 
L 284.622283 206.980005 
L 284.956304 207.421222 
L 285.140095 207.501443 
L 286.248216 208.303657 
L 286.652419 208.4641 
L 286.741585 208.624542 
L 287.306327 208.905317 
L 287.377056 209.06576 
L 287.924662 209.426756 
L 288.353538 209.948195 
L 288.507097 210.108638 
L 288.63229 210.22897 
L 290.355557 211.231737 
L 290.435384 211.392179 
L 290.910576 211.592733 
L 291.30336 211.753176 
L 291.776687 211.913618 
L 292.948661 212.675721 
L 293.139374 212.796053 
L 293.188747 212.876275 
L 293.832257 213.116939 
L 294.295075 213.477935 
L 295.003273 213.75871 
L 295.308061 214.079595 
L 295.431067 214.280148 
L 295.732742 214.36037 
L 296.597801 214.560923 
L 296.71385 214.641145 
L 296.987038 214.761477 
L 298.100228 214.921919 
L 298.970714 215.323026 
L 299.517484 215.684022 
L 299.962183 215.924686 
L 299.987442 216.085129 
L 300.821406 216.486236 
L 300.90502 216.566457 
L 301.868113 216.7269 
L 302.42647 216.967564 
L 303.149806 217.128007 
L 304.922854 217.809888 
L 304.976957 217.89011 
L 305.699719 218.130774 
L 305.700524 218.170884 
L 306.174368 218.411549 
L 306.337782 218.49177 
L 308.582383 219.173652 
L 309.128479 219.334094 
L 309.328541 219.454426 
L 310.483335 219.855533 
L 311.157987 220.015976 
L 311.164275 220.096197 
L 311.607365 220.25664 
L 311.86779 220.376972 
L 312.388214 220.577525 
L 312.855183 220.778079 
L 313.892674 220.938521 
L 313.972769 221.018743 
L 315.407031 221.299518 
L 315.416637 221.339628 
L 317.051688 221.580292 
L 317.169342 221.620403 
L 318.43722 221.780846 
L 318.662805 221.901178 
L 320.763566 222.222063 
L 321.134876 222.302285 
L 321.93607 222.462727 
L 322.11492 222.583059 
L 323.701476 222.823723 
L 324.338498 223.104498 
L 325.15724 223.305052 
L 325.494272 223.385273 
L 327.615562 223.585826 
L 327.693124 223.625937 
L 328.221297 223.78638 
L 328.943386 223.986933 
L 329.06951 224.107265 
L 329.112696 224.147376 
L 331.610581 224.468261 
L 332.047027 224.548483 
L 334.144701 224.869368 
L 334.426494 225.069922 
L 339.248029 225.832025 
L 340.481169 225.992467 
L 340.574114 226.032578 
L 344.822204 226.393574 
L 344.927357 226.473795 
L 359.710656 227.31612 
L 364.49752 227.476562 
L 365.135578 227.516673 
L 365.135578 227.516673 
" style="fill:none;stroke:#008000;stroke-linecap:square;stroke-width:1.5;"/>
   </g>
   <g id="patch_3">
    <path d="M 30.103125 228.439219 
L 30.103125 10.999219 
" style="fill:none;stroke:#000000;stroke-linecap:square;stroke-linejoin:miter;stroke-width:0.8;"/>
   </g>
   <g id="patch_4">
    <path d="M 364.903125 228.439219 
L 364.903125 10.999219 
" style="fill:none;stroke:#000000;stroke-linecap:square;stroke-linejoin:miter;stroke-width:0.8;"/>
   </g>
   <g id="patch_5">
    <path d="M 30.103125 228.439219 
L 364.903125 228.439219 
" style="fill:none;stroke:#000000;stroke-linecap:square;stroke-linejoin:miter;stroke-width:0.8;"/>
   </g>
   <g id="patch_6">
    <path d="M 30.103125 10.999219 
L 364.903125 10.999219 
" style="fill:none;stroke:#000000;stroke-linecap:square;stroke-linejoin:miter;stroke-width:0.8;"/>
   </g>
   <g id="legend_1">
    <g id="patch_7">
     <path d="M 37.103125 48.355469 
L 113.717188 48.355469 
Q 115.717188 48.355469 115.717188 46.355469 
L 115.717188 17.999219 
Q 115.717188 15.999219 113.717188 15.999219 
L 37.103125 15.999219 
Q 35.103125 15.999219 35.103125 17.999219 
L 35.103125 46.355469 
Q 35.103125 48.355469 37.103125 48.355469 
z
" style="fill:#ffffff;opacity:0.8;stroke:#cccccc;stroke-linejoin:miter;"/>
    </g>
    <g id="line2d_18">
     <path d="M 39.103125 24.097656 
L 59.103125 24.097656 
" style="fill:none;stroke:#0000ff;stroke-dasharray:5.55,2.4;stroke-dashoffset:0;stroke-width:1.5;"/>
    </g>
    <g id="line2d_19"/>
    <g id="text_17">
     <!-- Precision -->
     <defs>
      <path d="M 19.671875 64.796875 
L 19.671875 37.40625 
L 32.078125 37.40625 
Q 38.96875 37.40625 42.71875 40.96875 
Q 46.484375 44.53125 46.484375 51.125 
Q 46.484375 57.671875 42.71875 61.234375 
Q 38.96875 64.796875 32.078125 64.796875 
z
M 9.8125 72.90625 
L 32.078125 72.90625 
Q 44.34375 72.90625 50.609375 67.359375 
Q 56.890625 61.8125 56.890625 51.125 
Q 56.890625 40.328125 50.609375 34.8125 
Q 44.34375 29.296875 32.078125 29.296875 
L 19.671875 29.296875 
L 19.671875 0 
L 9.8125 0 
z
" id="DejaVuSans-80"/>
      <path d="M 48.78125 52.59375 
L 48.78125 44.1875 
Q 44.96875 46.296875 41.140625 47.34375 
Q 37.3125 48.390625 33.40625 48.390625 
Q 24.65625 48.390625 19.8125 42.84375 
Q 14.984375 37.3125 14.984375 27.296875 
Q 14.984375 17.28125 19.8125 11.734375 
Q 24.65625 6.203125 33.40625 6.203125 
Q 37.3125 6.203125 41.140625 7.25 
Q 44.96875 8.296875 48.78125 10.40625 
L 48.78125 2.09375 
Q 45.015625 0.34375 40.984375 -0.53125 
Q 36.96875 -1.421875 32.421875 -1.421875 
Q 20.0625 -1.421875 12.78125 6.34375 
Q 5.515625 14.109375 5.515625 27.296875 
Q 5.515625 40.671875 12.859375 48.328125 
Q 20.21875 56 33.015625 56 
Q 37.15625 56 41.109375 55.140625 
Q 45.0625 54.296875 48.78125 52.59375 
z
" id="DejaVuSans-99"/>
      <path d="M 9.421875 54.6875 
L 18.40625 54.6875 
L 18.40625 0 
L 9.421875 0 
z
M 9.421875 75.984375 
L 18.40625 75.984375 
L 18.40625 64.59375 
L 9.421875 64.59375 
z
" id="DejaVuSans-105"/>
      <path d="M 54.890625 33.015625 
L 54.890625 0 
L 45.90625 0 
L 45.90625 32.71875 
Q 45.90625 40.484375 42.875 44.328125 
Q 39.84375 48.1875 33.796875 48.1875 
Q 26.515625 48.1875 22.3125 43.546875 
Q 18.109375 38.921875 18.109375 30.90625 
L 18.109375 0 
L 9.078125 0 
L 9.078125 54.6875 
L 18.109375 54.6875 
L 18.109375 46.1875 
Q 21.34375 51.125 25.703125 53.5625 
Q 30.078125 56 35.796875 56 
Q 45.21875 56 50.046875 50.171875 
Q 54.890625 44.34375 54.890625 33.015625 
z
" id="DejaVuSans-110"/>
     </defs>
     <g transform="translate(67.103125 27.597656)scale(0.1 -0.1)">
      <use xlink:href="#DejaVuSans-80"/>
      <use x="58.552734" xlink:href="#DejaVuSans-114"/>
      <use x="97.416016" xlink:href="#DejaVuSans-101"/>
      <use x="158.939453" xlink:href="#DejaVuSans-99"/>
      <use x="213.919922" xlink:href="#DejaVuSans-105"/>
      <use x="241.703125" xlink:href="#DejaVuSans-115"/>
      <use x="293.802734" xlink:href="#DejaVuSans-105"/>
      <use x="321.585938" xlink:href="#DejaVuSans-111"/>
      <use x="382.767578" xlink:href="#DejaVuSans-110"/>
     </g>
    </g>
    <g id="line2d_20">
     <path d="M 39.103125 38.775781 
L 59.103125 38.775781 
" style="fill:none;stroke:#008000;stroke-linecap:square;stroke-width:1.5;"/>
    </g>
    <g id="line2d_21"/>
    <g id="text_18">
     <!-- Recall -->
     <defs>
      <path d="M 44.390625 34.1875 
Q 47.5625 33.109375 50.5625 29.59375 
Q 53.5625 26.078125 56.59375 19.921875 
L 66.609375 0 
L 56 0 
L 46.6875 18.703125 
Q 43.0625 26.03125 39.671875 28.421875 
Q 36.28125 30.8125 30.421875 30.8125 
L 19.671875 30.8125 
L 19.671875 0 
L 9.8125 0 
L 9.8125 72.90625 
L 32.078125 72.90625 
Q 44.578125 72.90625 50.734375 67.671875 
Q 56.890625 62.453125 56.890625 51.90625 
Q 56.890625 45.015625 53.6875 40.46875 
Q 50.484375 35.9375 44.390625 34.1875 
z
M 19.671875 64.796875 
L 19.671875 38.921875 
L 32.078125 38.921875 
Q 39.203125 38.921875 42.84375 42.21875 
Q 46.484375 45.515625 46.484375 51.90625 
Q 46.484375 58.296875 42.84375 61.546875 
Q 39.203125 64.796875 32.078125 64.796875 
z
" id="DejaVuSans-82"/>
      <path d="M 34.28125 27.484375 
Q 23.390625 27.484375 19.1875 25 
Q 14.984375 22.515625 14.984375 16.5 
Q 14.984375 11.71875 18.140625 8.90625 
Q 21.296875 6.109375 26.703125 6.109375 
Q 34.1875 6.109375 38.703125 11.40625 
Q 43.21875 16.703125 43.21875 25.484375 
L 43.21875 27.484375 
z
M 52.203125 31.203125 
L 52.203125 0 
L 43.21875 0 
L 43.21875 8.296875 
Q 40.140625 3.328125 35.546875 0.953125 
Q 30.953125 -1.421875 24.3125 -1.421875 
Q 15.921875 -1.421875 10.953125 3.296875 
Q 6 8.015625 6 15.921875 
Q 6 25.140625 12.171875 29.828125 
Q 18.359375 34.515625 30.609375 34.515625 
L 43.21875 34.515625 
L 43.21875 35.40625 
Q 43.21875 41.609375 39.140625 45 
Q 35.0625 48.390625 27.6875 48.390625 
Q 23 48.390625 18.546875 47.265625 
Q 14.109375 46.140625 10.015625 43.890625 
L 10.015625 52.203125 
Q 14.9375 54.109375 19.578125 55.046875 
Q 24.21875 56 28.609375 56 
Q 40.484375 56 46.34375 49.84375 
Q 52.203125 43.703125 52.203125 31.203125 
z
" id="DejaVuSans-97"/>
     </defs>
     <g transform="translate(67.103125 42.275781)scale(0.1 -0.1)">
      <use xlink:href="#DejaVuSans-82"/>
      <use x="64.982422" xlink:href="#DejaVuSans-101"/>
      <use x="126.505859" xlink:href="#DejaVuSans-99"/>
      <use x="181.486328" xlink:href="#DejaVuSans-97"/>
      <use x="242.765625" xlink:href="#DejaVuSans-108"/>
      <use x="270.548828" xlink:href="#DejaVuSans-108"/>
     </g>
    </g>
   </g>
  </g>
 </g>
 <defs>
  <clipPath id="pc9f6bb9891">
   <rect height="217.44" width="334.8" x="30.103125" y="10.999219"/>
  </clipPath>
 </defs>
</svg>
