<?xml version="1.0" encoding="utf-8" standalone="no"?>
<!DOCTYPE svg PUBLIC "-//W3C//DTD SVG 1.1//EN"
  "http://www.w3.org/Graphics/SVG/1.1/DTD/svg11.dtd">
<!-- Created with matplotlib (https://matplotlib.org/) -->
<svg height="265.995469pt" version="1.1" viewBox="0 0 393.732813 265.995469" width="393.732813pt" xmlns="http://www.w3.org/2000/svg" xmlns:xlink="http://www.w3.org/1999/xlink">
 <defs>
  <style type="text/css">
*{stroke-linecap:butt;stroke-linejoin:round;}
  </style>
 </defs>
 <g id="figure_1">
  <g id="patch_1">
   <path d="M 0 265.995469 
L 393.732813 265.995469 
L 393.732813 0 
L 0 0 
z
" style="fill:none;"/>
  </g>
  <g id="axes_1">
   <g id="patch_2">
    <path d="M 43.78125 228.439219 
L 378.58125 228.439219 
L 378.58125 10.999219 
L 43.78125 10.999219 
z
" style="fill:#ffffff;"/>
   </g>
   <g id="matplotlib.axis_1">
    <g id="xtick_1">
     <g id="line2d_1">
      <defs>
       <path d="M 0 0 
L 0 3.5 
" id="ma6dd55d87d" style="stroke:#000000;stroke-width:0.8;"/>
      </defs>
      <g>
       <use style="stroke:#000000;stroke-width:0.8;" x="43.78125" xlink:href="#ma6dd55d87d" y="228.439219"/>
      </g>
     </g>
     <g id="text_1">
      <!-- 0.0 -->
      <defs>
       <path d="M 31.78125 66.40625 
Q 24.171875 66.40625 20.328125 58.90625 
Q 16.5 51.421875 16.5 36.375 
Q 16.5 21.390625 20.328125 13.890625 
Q 24.171875 6.390625 31.78125 6.390625 
Q 39.453125 6.390625 43.28125 13.890625 
Q 47.125 21.390625 47.125 36.375 
Q 47.125 51.421875 43.28125 58.90625 
Q 39.453125 66.40625 31.78125 66.40625 
z
M 31.78125 74.21875 
Q 44.046875 74.21875 50.515625 64.515625 
Q 56.984375 54.828125 56.984375 36.375 
Q 56.984375 17.96875 50.515625 8.265625 
Q 44.046875 -1.421875 31.78125 -1.421875 
Q 19.53125 -1.421875 13.0625 8.265625 
Q 6.59375 17.96875 6.59375 36.375 
Q 6.59375 54.828125 13.0625 64.515625 
Q 19.53125 74.21875 31.78125 74.21875 
z
" id="DejaVuSans-48"/>
       <path d="M 10.6875 12.40625 
L 21 12.40625 
L 21 0 
L 10.6875 0 
z
" id="DejaVuSans-46"/>
      </defs>
      <g transform="translate(35.829688 243.037656)scale(0.1 -0.1)">
       <use xlink:href="#DejaVuSans-48"/>
       <use x="63.623047" xlink:href="#DejaVuSans-46"/>
       <use x="95.410156" xlink:href="#DejaVuSans-48"/>
      </g>
     </g>
    </g>
    <g id="xtick_2">
     <g id="line2d_2">
      <g>
       <use style="stroke:#000000;stroke-width:0.8;" x="110.74125" xlink:href="#ma6dd55d87d" y="228.439219"/>
      </g>
     </g>
     <g id="text_2">
      <!-- 0.2 -->
      <defs>
       <path d="M 19.1875 8.296875 
L 53.609375 8.296875 
L 53.609375 0 
L 7.328125 0 
L 7.328125 8.296875 
Q 12.9375 14.109375 22.625 23.890625 
Q 32.328125 33.6875 34.8125 36.53125 
Q 39.546875 41.84375 41.421875 45.53125 
Q 43.3125 49.21875 43.3125 52.78125 
Q 43.3125 58.59375 39.234375 62.25 
Q 35.15625 65.921875 28.609375 65.921875 
Q 23.96875 65.921875 18.8125 64.3125 
Q 13.671875 62.703125 7.8125 59.421875 
L 7.8125 69.390625 
Q 13.765625 71.78125 18.9375 73 
Q 24.125 74.21875 28.421875 74.21875 
Q 39.75 74.21875 46.484375 68.546875 
Q 53.21875 62.890625 53.21875 53.421875 
Q 53.21875 48.921875 51.53125 44.890625 
Q 49.859375 40.875 45.40625 35.40625 
Q 44.1875 33.984375 37.640625 27.21875 
Q 31.109375 20.453125 19.1875 8.296875 
z
" id="DejaVuSans-50"/>
      </defs>
      <g transform="translate(102.789688 243.037656)scale(0.1 -0.1)">
       <use xlink:href="#DejaVuSans-48"/>
       <use x="63.623047" xlink:href="#DejaVuSans-46"/>
       <use x="95.410156" xlink:href="#DejaVuSans-50"/>
      </g>
     </g>
    </g>
    <g id="xtick_3">
     <g id="line2d_3">
      <g>
       <use style="stroke:#000000;stroke-width:0.8;" x="177.70125" xlink:href="#ma6dd55d87d" y="228.439219"/>
      </g>
     </g>
     <g id="text_3">
      <!-- 0.4 -->
      <defs>
       <path d="M 37.796875 64.3125 
L 12.890625 25.390625 
L 37.796875 25.390625 
z
M 35.203125 72.90625 
L 47.609375 72.90625 
L 47.609375 25.390625 
L 58.015625 25.390625 
L 58.015625 17.1875 
L 47.609375 17.1875 
L 47.609375 0 
L 37.796875 0 
L 37.796875 17.1875 
L 4.890625 17.1875 
L 4.890625 26.703125 
z
" id="DejaVuSans-52"/>
      </defs>
      <g transform="translate(169.749688 243.037656)scale(0.1 -0.1)">
       <use xlink:href="#DejaVuSans-48"/>
       <use x="63.623047" xlink:href="#DejaVuSans-46"/>
       <use x="95.410156" xlink:href="#DejaVuSans-52"/>
      </g>
     </g>
    </g>
    <g id="xtick_4">
     <g id="line2d_4">
      <g>
       <use style="stroke:#000000;stroke-width:0.8;" x="244.66125" xlink:href="#ma6dd55d87d" y="228.439219"/>
      </g>
     </g>
     <g id="text_4">
      <!-- 0.6 -->
      <defs>
       <path d="M 33.015625 40.375 
Q 26.375 40.375 22.484375 35.828125 
Q 18.609375 31.296875 18.609375 23.390625 
Q 18.609375 15.53125 22.484375 10.953125 
Q 26.375 6.390625 33.015625 6.390625 
Q 39.65625 6.390625 43.53125 10.953125 
Q 47.40625 15.53125 47.40625 23.390625 
Q 47.40625 31.296875 43.53125 35.828125 
Q 39.65625 40.375 33.015625 40.375 
z
M 52.59375 71.296875 
L 52.59375 62.3125 
Q 48.875 64.0625 45.09375 64.984375 
Q 41.3125 65.921875 37.59375 65.921875 
Q 27.828125 65.921875 22.671875 59.328125 
Q 17.53125 52.734375 16.796875 39.40625 
Q 19.671875 43.65625 24.015625 45.921875 
Q 28.375 48.1875 33.59375 48.1875 
Q 44.578125 48.1875 50.953125 41.515625 
Q 57.328125 34.859375 57.328125 23.390625 
Q 57.328125 12.15625 50.6875 5.359375 
Q 44.046875 -1.421875 33.015625 -1.421875 
Q 20.359375 -1.421875 13.671875 8.265625 
Q 6.984375 17.96875 6.984375 36.375 
Q 6.984375 53.65625 15.1875 63.9375 
Q 23.390625 74.21875 37.203125 74.21875 
Q 40.921875 74.21875 44.703125 73.484375 
Q 48.484375 72.75 52.59375 71.296875 
z
" id="DejaVuSans-54"/>
      </defs>
      <g transform="translate(236.709688 243.037656)scale(0.1 -0.1)">
       <use xlink:href="#DejaVuSans-48"/>
       <use x="63.623047" xlink:href="#DejaVuSans-46"/>
       <use x="95.410156" xlink:href="#DejaVuSans-54"/>
      </g>
     </g>
    </g>
    <g id="xtick_5">
     <g id="line2d_5">
      <g>
       <use style="stroke:#000000;stroke-width:0.8;" x="311.62125" xlink:href="#ma6dd55d87d" y="228.439219"/>
      </g>
     </g>
     <g id="text_5">
      <!-- 0.8 -->
      <defs>
       <path d="M 31.78125 34.625 
Q 24.75 34.625 20.71875 30.859375 
Q 16.703125 27.09375 16.703125 20.515625 
Q 16.703125 13.921875 20.71875 10.15625 
Q 24.75 6.390625 31.78125 6.390625 
Q 38.8125 6.390625 42.859375 10.171875 
Q 46.921875 13.96875 46.921875 20.515625 
Q 46.921875 27.09375 42.890625 30.859375 
Q 38.875 34.625 31.78125 34.625 
z
M 21.921875 38.8125 
Q 15.578125 40.375 12.03125 44.71875 
Q 8.5 49.078125 8.5 55.328125 
Q 8.5 64.0625 14.71875 69.140625 
Q 20.953125 74.21875 31.78125 74.21875 
Q 42.671875 74.21875 48.875 69.140625 
Q 55.078125 64.0625 55.078125 55.328125 
Q 55.078125 49.078125 51.53125 44.71875 
Q 48 40.375 41.703125 38.8125 
Q 48.828125 37.15625 52.796875 32.3125 
Q 56.78125 27.484375 56.78125 20.515625 
Q 56.78125 9.90625 50.3125 4.234375 
Q 43.84375 -1.421875 31.78125 -1.421875 
Q 19.734375 -1.421875 13.25 4.234375 
Q 6.78125 9.90625 6.78125 20.515625 
Q 6.78125 27.484375 10.78125 32.3125 
Q 14.796875 37.15625 21.921875 38.8125 
z
M 18.3125 54.390625 
Q 18.3125 48.734375 21.84375 45.5625 
Q 25.390625 42.390625 31.78125 42.390625 
Q 38.140625 42.390625 41.71875 45.5625 
Q 45.3125 48.734375 45.3125 54.390625 
Q 45.3125 60.0625 41.71875 63.234375 
Q 38.140625 66.40625 31.78125 66.40625 
Q 25.390625 66.40625 21.84375 63.234375 
Q 18.3125 60.0625 18.3125 54.390625 
z
" id="DejaVuSans-56"/>
      </defs>
      <g transform="translate(303.669688 243.037656)scale(0.1 -0.1)">
       <use xlink:href="#DejaVuSans-48"/>
       <use x="63.623047" xlink:href="#DejaVuSans-46"/>
       <use x="95.410156" xlink:href="#DejaVuSans-56"/>
      </g>
     </g>
    </g>
    <g id="xtick_6">
     <g id="line2d_6">
      <g>
       <use style="stroke:#000000;stroke-width:0.8;" x="378.58125" xlink:href="#ma6dd55d87d" y="228.439219"/>
      </g>
     </g>
     <g id="text_6">
      <!-- 1.0 -->
      <defs>
       <path d="M 12.40625 8.296875 
L 28.515625 8.296875 
L 28.515625 63.921875 
L 10.984375 60.40625 
L 10.984375 69.390625 
L 28.421875 72.90625 
L 38.28125 72.90625 
L 38.28125 8.296875 
L 54.390625 8.296875 
L 54.390625 0 
L 12.40625 0 
z
" id="DejaVuSans-49"/>
      </defs>
      <g transform="translate(370.629687 243.037656)scale(0.1 -0.1)">
       <use xlink:href="#DejaVuSans-49"/>
       <use x="63.623047" xlink:href="#DejaVuSans-46"/>
       <use x="95.410156" xlink:href="#DejaVuSans-48"/>
      </g>
     </g>
    </g>
    <g id="text_7">
     <!-- False Positive Rate -->
     <defs>
      <path d="M 9.8125 72.90625 
L 51.703125 72.90625 
L 51.703125 64.59375 
L 19.671875 64.59375 
L 19.671875 43.109375 
L 48.578125 43.109375 
L 48.578125 34.8125 
L 19.671875 34.8125 
L 19.671875 0 
L 9.8125 0 
z
" id="DejaVuSans-70"/>
      <path d="M 34.28125 27.484375 
Q 23.390625 27.484375 19.1875 25 
Q 14.984375 22.515625 14.984375 16.5 
Q 14.984375 11.71875 18.140625 8.90625 
Q 21.296875 6.109375 26.703125 6.109375 
Q 34.1875 6.109375 38.703125 11.40625 
Q 43.21875 16.703125 43.21875 25.484375 
L 43.21875 27.484375 
z
M 52.203125 31.203125 
L 52.203125 0 
L 43.21875 0 
L 43.21875 8.296875 
Q 40.140625 3.328125 35.546875 0.953125 
Q 30.953125 -1.421875 24.3125 -1.421875 
Q 15.921875 -1.421875 10.953125 3.296875 
Q 6 8.015625 6 15.921875 
Q 6 25.140625 12.171875 29.828125 
Q 18.359375 34.515625 30.609375 34.515625 
L 43.21875 34.515625 
L 43.21875 35.40625 
Q 43.21875 41.609375 39.140625 45 
Q 35.0625 48.390625 27.6875 48.390625 
Q 23 48.390625 18.546875 47.265625 
Q 14.109375 46.140625 10.015625 43.890625 
L 10.015625 52.203125 
Q 14.9375 54.109375 19.578125 55.046875 
Q 24.21875 56 28.609375 56 
Q 40.484375 56 46.34375 49.84375 
Q 52.203125 43.703125 52.203125 31.203125 
z
" id="DejaVuSans-97"/>
      <path d="M 9.421875 75.984375 
L 18.40625 75.984375 
L 18.40625 0 
L 9.421875 0 
z
" id="DejaVuSans-108"/>
      <path d="M 44.28125 53.078125 
L 44.28125 44.578125 
Q 40.484375 46.53125 36.375 47.5 
Q 32.28125 48.484375 27.875 48.484375 
Q 21.1875 48.484375 17.84375 46.4375 
Q 14.5 44.390625 14.5 40.28125 
Q 14.5 37.15625 16.890625 35.375 
Q 19.28125 33.59375 26.515625 31.984375 
L 29.59375 31.296875 
Q 39.15625 29.25 43.1875 25.515625 
Q 47.21875 21.78125 47.21875 15.09375 
Q 47.21875 7.46875 41.1875 3.015625 
Q 35.15625 -1.421875 24.609375 -1.421875 
Q 20.21875 -1.421875 15.453125 -0.5625 
Q 10.6875 0.296875 5.421875 2 
L 5.421875 11.28125 
Q 10.40625 8.6875 15.234375 7.390625 
Q 20.0625 6.109375 24.8125 6.109375 
Q 31.15625 6.109375 34.5625 8.28125 
Q 37.984375 10.453125 37.984375 14.40625 
Q 37.984375 18.0625 35.515625 20.015625 
Q 33.0625 21.96875 24.703125 23.78125 
L 21.578125 24.515625 
Q 13.234375 26.265625 9.515625 29.90625 
Q 5.8125 33.546875 5.8125 39.890625 
Q 5.8125 47.609375 11.28125 51.796875 
Q 16.75 56 26.8125 56 
Q 31.78125 56 36.171875 55.265625 
Q 40.578125 54.546875 44.28125 53.078125 
z
" id="DejaVuSans-115"/>
      <path d="M 56.203125 29.59375 
L 56.203125 25.203125 
L 14.890625 25.203125 
Q 15.484375 15.921875 20.484375 11.0625 
Q 25.484375 6.203125 34.421875 6.203125 
Q 39.59375 6.203125 44.453125 7.46875 
Q 49.3125 8.734375 54.109375 11.28125 
L 54.109375 2.78125 
Q 49.265625 0.734375 44.1875 -0.34375 
Q 39.109375 -1.421875 33.890625 -1.421875 
Q 20.796875 -1.421875 13.15625 6.1875 
Q 5.515625 13.8125 5.515625 26.8125 
Q 5.515625 40.234375 12.765625 48.109375 
Q 20.015625 56 32.328125 56 
Q 43.359375 56 49.78125 48.890625 
Q 56.203125 41.796875 56.203125 29.59375 
z
M 47.21875 32.234375 
Q 47.125 39.59375 43.09375 43.984375 
Q 39.0625 48.390625 32.421875 48.390625 
Q 24.90625 48.390625 20.390625 44.140625 
Q 15.875 39.890625 15.1875 32.171875 
z
" id="DejaVuSans-101"/>
      <path id="DejaVuSans-32"/>
      <path d="M 19.671875 64.796875 
L 19.671875 37.40625 
L 32.078125 37.40625 
Q 38.96875 37.40625 42.71875 40.96875 
Q 46.484375 44.53125 46.484375 51.125 
Q 46.484375 57.671875 42.71875 61.234375 
Q 38.96875 64.796875 32.078125 64.796875 
z
M 9.8125 72.90625 
L 32.078125 72.90625 
Q 44.34375 72.90625 50.609375 67.359375 
Q 56.890625 61.8125 56.890625 51.125 
Q 56.890625 40.328125 50.609375 34.8125 
Q 44.34375 29.296875 32.078125 29.296875 
L 19.671875 29.296875 
L 19.671875 0 
L 9.8125 0 
z
" id="DejaVuSans-80"/>
      <path d="M 30.609375 48.390625 
Q 23.390625 48.390625 19.1875 42.75 
Q 14.984375 37.109375 14.984375 27.296875 
Q 14.984375 17.484375 19.15625 11.84375 
Q 23.34375 6.203125 30.609375 6.203125 
Q 37.796875 6.203125 41.984375 11.859375 
Q 46.1875 17.53125 46.1875 27.296875 
Q 46.1875 37.015625 41.984375 42.703125 
Q 37.796875 48.390625 30.609375 48.390625 
z
M 30.609375 56 
Q 42.328125 56 49.015625 48.375 
Q 55.71875 40.765625 55.71875 27.296875 
Q 55.71875 13.875 49.015625 6.21875 
Q 42.328125 -1.421875 30.609375 -1.421875 
Q 18.84375 -1.421875 12.171875 6.21875 
Q 5.515625 13.875 5.515625 27.296875 
Q 5.515625 40.765625 12.171875 48.375 
Q 18.84375 56 30.609375 56 
z
" id="DejaVuSans-111"/>
      <path d="M 9.421875 54.6875 
L 18.40625 54.6875 
L 18.40625 0 
L 9.421875 0 
z
M 9.421875 75.984375 
L 18.40625 75.984375 
L 18.40625 64.59375 
L 9.421875 64.59375 
z
" id="DejaVuSans-105"/>
      <path d="M 18.3125 70.21875 
L 18.3125 54.6875 
L 36.8125 54.6875 
L 36.8125 47.703125 
L 18.3125 47.703125 
L 18.3125 18.015625 
Q 18.3125 11.328125 20.140625 9.421875 
Q 21.96875 7.515625 27.59375 7.515625 
L 36.8125 7.515625 
L 36.8125 0 
L 27.59375 0 
Q 17.1875 0 13.234375 3.875 
Q 9.28125 7.765625 9.28125 18.015625 
L 9.28125 47.703125 
L 2.6875 47.703125 
L 2.6875 54.6875 
L 9.28125 54.6875 
L 9.28125 70.21875 
z
" id="DejaVuSans-116"/>
      <path d="M 2.984375 54.6875 
L 12.5 54.6875 
L 29.59375 8.796875 
L 46.6875 54.6875 
L 56.203125 54.6875 
L 35.6875 0 
L 23.484375 0 
z
" id="DejaVuSans-118"/>
      <path d="M 44.390625 34.1875 
Q 47.5625 33.109375 50.5625 29.59375 
Q 53.5625 26.078125 56.59375 19.921875 
L 66.609375 0 
L 56 0 
L 46.6875 18.703125 
Q 43.0625 26.03125 39.671875 28.421875 
Q 36.28125 30.8125 30.421875 30.8125 
L 19.671875 30.8125 
L 19.671875 0 
L 9.8125 0 
L 9.8125 72.90625 
L 32.078125 72.90625 
Q 44.578125 72.90625 50.734375 67.671875 
Q 56.890625 62.453125 56.890625 51.90625 
Q 56.890625 45.015625 53.6875 40.46875 
Q 50.484375 35.9375 44.390625 34.1875 
z
M 19.671875 64.796875 
L 19.671875 38.921875 
L 32.078125 38.921875 
Q 39.203125 38.921875 42.84375 42.21875 
Q 46.484375 45.515625 46.484375 51.90625 
Q 46.484375 58.296875 42.84375 61.546875 
Q 39.203125 64.796875 32.078125 64.796875 
z
" id="DejaVuSans-82"/>
     </defs>
     <g transform="translate(164.714844 256.715781)scale(0.1 -0.1)">
      <use xlink:href="#DejaVuSans-70"/>
      <use x="48.394531" xlink:href="#DejaVuSans-97"/>
      <use x="109.673828" xlink:href="#DejaVuSans-108"/>
      <use x="137.457031" xlink:href="#DejaVuSans-115"/>
      <use x="189.556641" xlink:href="#DejaVuSans-101"/>
      <use x="251.080078" xlink:href="#DejaVuSans-32"/>
      <use x="282.867188" xlink:href="#DejaVuSans-80"/>
      <use x="339.544922" xlink:href="#DejaVuSans-111"/>
      <use x="400.726562" xlink:href="#DejaVuSans-115"/>
      <use x="452.826172" xlink:href="#DejaVuSans-105"/>
      <use x="480.609375" xlink:href="#DejaVuSans-116"/>
      <use x="519.818359" xlink:href="#DejaVuSans-105"/>
      <use x="547.601562" xlink:href="#DejaVuSans-118"/>
      <use x="606.78125" xlink:href="#DejaVuSans-101"/>
      <use x="668.304688" xlink:href="#DejaVuSans-32"/>
      <use x="700.091797" xlink:href="#DejaVuSans-82"/>
      <use x="767.324219" xlink:href="#DejaVuSans-97"/>
      <use x="828.603516" xlink:href="#DejaVuSans-116"/>
      <use x="867.8125" xlink:href="#DejaVuSans-101"/>
     </g>
    </g>
   </g>
   <g id="matplotlib.axis_2">
    <g id="ytick_1">
     <g id="line2d_7">
      <defs>
       <path d="M 0 0 
L -3.5 0 
" id="m4f922f51f9" style="stroke:#000000;stroke-width:0.8;"/>
      </defs>
      <g>
       <use style="stroke:#000000;stroke-width:0.8;" x="43.78125" xlink:href="#m4f922f51f9" y="228.439219"/>
      </g>
     </g>
     <g id="text_8">
      <!-- 0.0 -->
      <g transform="translate(20.878125 232.238437)scale(0.1 -0.1)">
       <use xlink:href="#DejaVuSans-48"/>
       <use x="63.623047" xlink:href="#DejaVuSans-46"/>
       <use x="95.410156" xlink:href="#DejaVuSans-48"/>
      </g>
     </g>
    </g>
    <g id="ytick_2">
     <g id="line2d_8">
      <g>
       <use style="stroke:#000000;stroke-width:0.8;" x="43.78125" xlink:href="#m4f922f51f9" y="184.951219"/>
      </g>
     </g>
     <g id="text_9">
      <!-- 0.2 -->
      <g transform="translate(20.878125 188.750437)scale(0.1 -0.1)">
       <use xlink:href="#DejaVuSans-48"/>
       <use x="63.623047" xlink:href="#DejaVuSans-46"/>
       <use x="95.410156" xlink:href="#DejaVuSans-50"/>
      </g>
     </g>
    </g>
    <g id="ytick_3">
     <g id="line2d_9">
      <g>
       <use style="stroke:#000000;stroke-width:0.8;" x="43.78125" xlink:href="#m4f922f51f9" y="141.463219"/>
      </g>
     </g>
     <g id="text_10">
      <!-- 0.4 -->
      <g transform="translate(20.878125 145.262437)scale(0.1 -0.1)">
       <use xlink:href="#DejaVuSans-48"/>
       <use x="63.623047" xlink:href="#DejaVuSans-46"/>
       <use x="95.410156" xlink:href="#DejaVuSans-52"/>
      </g>
     </g>
    </g>
    <g id="ytick_4">
     <g id="line2d_10">
      <g>
       <use style="stroke:#000000;stroke-width:0.8;" x="43.78125" xlink:href="#m4f922f51f9" y="97.975219"/>
      </g>
     </g>
     <g id="text_11">
      <!-- 0.6 -->
      <g transform="translate(20.878125 101.774437)scale(0.1 -0.1)">
       <use xlink:href="#DejaVuSans-48"/>
       <use x="63.623047" xlink:href="#DejaVuSans-46"/>
       <use x="95.410156" xlink:href="#DejaVuSans-54"/>
      </g>
     </g>
    </g>
    <g id="ytick_5">
     <g id="line2d_11">
      <g>
       <use style="stroke:#000000;stroke-width:0.8;" x="43.78125" xlink:href="#m4f922f51f9" y="54.487219"/>
      </g>
     </g>
     <g id="text_12">
      <!-- 0.8 -->
      <g transform="translate(20.878125 58.286437)scale(0.1 -0.1)">
       <use xlink:href="#DejaVuSans-48"/>
       <use x="63.623047" xlink:href="#DejaVuSans-46"/>
       <use x="95.410156" xlink:href="#DejaVuSans-56"/>
      </g>
     </g>
    </g>
    <g id="ytick_6">
     <g id="line2d_12">
      <g>
       <use style="stroke:#000000;stroke-width:0.8;" x="43.78125" xlink:href="#m4f922f51f9" y="10.999219"/>
      </g>
     </g>
     <g id="text_13">
      <!-- 1.0 -->
      <g transform="translate(20.878125 14.798437)scale(0.1 -0.1)">
       <use xlink:href="#DejaVuSans-49"/>
       <use x="63.623047" xlink:href="#DejaVuSans-46"/>
       <use x="95.410156" xlink:href="#DejaVuSans-48"/>
      </g>
     </g>
    </g>
    <g id="text_14">
     <!-- True Positive Rate -->
     <defs>
      <path d="M -0.296875 72.90625 
L 61.375 72.90625 
L 61.375 64.59375 
L 35.5 64.59375 
L 35.5 0 
L 25.59375 0 
L 25.59375 64.59375 
L -0.296875 64.59375 
z
" id="DejaVuSans-84"/>
      <path d="M 41.109375 46.296875 
Q 39.59375 47.171875 37.8125 47.578125 
Q 36.03125 48 33.890625 48 
Q 26.265625 48 22.1875 43.046875 
Q 18.109375 38.09375 18.109375 28.8125 
L 18.109375 0 
L 9.078125 0 
L 9.078125 54.6875 
L 18.109375 54.6875 
L 18.109375 46.1875 
Q 20.953125 51.171875 25.484375 53.578125 
Q 30.03125 56 36.53125 56 
Q 37.453125 56 38.578125 55.875 
Q 39.703125 55.765625 41.0625 55.515625 
z
" id="DejaVuSans-114"/>
      <path d="M 8.5 21.578125 
L 8.5 54.6875 
L 17.484375 54.6875 
L 17.484375 21.921875 
Q 17.484375 14.15625 20.5 10.265625 
Q 23.53125 6.390625 29.59375 6.390625 
Q 36.859375 6.390625 41.078125 11.03125 
Q 45.3125 15.671875 45.3125 23.6875 
L 45.3125 54.6875 
L 54.296875 54.6875 
L 54.296875 0 
L 45.3125 0 
L 45.3125 8.40625 
Q 42.046875 3.421875 37.71875 1 
Q 33.40625 -1.421875 27.6875 -1.421875 
Q 18.265625 -1.421875 13.375 4.4375 
Q 8.5 10.296875 8.5 21.578125 
z
M 31.109375 56 
z
" id="DejaVuSans-117"/>
     </defs>
     <g transform="translate(14.798438 164.248906)rotate(-90)scale(0.1 -0.1)">
      <use xlink:href="#DejaVuSans-84"/>
      <use x="46.333984" xlink:href="#DejaVuSans-114"/>
      <use x="87.447266" xlink:href="#DejaVuSans-117"/>
      <use x="150.826172" xlink:href="#DejaVuSans-101"/>
      <use x="212.349609" xlink:href="#DejaVuSans-32"/>
      <use x="244.136719" xlink:href="#DejaVuSans-80"/>
      <use x="300.814453" xlink:href="#DejaVuSans-111"/>
      <use x="361.996094" xlink:href="#DejaVuSans-115"/>
      <use x="414.095703" xlink:href="#DejaVuSans-105"/>
      <use x="441.878906" xlink:href="#DejaVuSans-116"/>
      <use x="481.087891" xlink:href="#DejaVuSans-105"/>
      <use x="508.871094" xlink:href="#DejaVuSans-118"/>
      <use x="568.050781" xlink:href="#DejaVuSans-101"/>
      <use x="629.574219" xlink:href="#DejaVuSans-32"/>
      <use x="661.361328" xlink:href="#DejaVuSans-82"/>
      <use x="728.59375" xlink:href="#DejaVuSans-97"/>
      <use x="789.873047" xlink:href="#DejaVuSans-116"/>
      <use x="829.082031" xlink:href="#DejaVuSans-101"/>
     </g>
    </g>
   </g>
   <g id="line2d_13">
    <path clip-path="url(#p74e0573705)" d="M 43.78125 228.439219 
L 43.891666 200.080968 
L 43.8978 200.080968 
L 44.008216 177.85965 
L 44.014351 177.85965 
L 44.124767 171.201277 
L 44.130901 171.201277 
L 44.241317 160.812611 
L 44.247451 160.812611 
L 44.357867 153.993795 
L 44.370136 153.953685 
L 44.480552 147.054648 
L 44.486686 147.054648 
L 44.597102 142.682583 
L 44.603236 142.682583 
L 44.713653 138.069855 
L 44.719787 138.069855 
L 44.830203 134.339562 
L 44.836337 134.339562 
L 44.946753 130.890043 
L 44.952887 130.890043 
L 45.057169 127.199861 
L 45.069438 127.199861 
L 45.179854 124.913552 
L 45.185988 124.913552 
L 45.296404 122.667354 
L 45.302538 122.667354 
L 45.412955 119.298057 
L 45.431357 119.217835 
L 45.535639 117.13208 
L 45.547908 117.13208 
L 45.646055 114.284222 
L 45.664458 114.284222 
L 45.774874 112.880348 
L 45.793277 112.800126 
L 45.903693 111.476474 
L 45.922095 111.396253 
L 46.032511 109.591272 
L 46.038646 109.591272 
L 46.149062 107.024188 
L 46.167464 106.943967 
L 46.277881 105.37965 
L 46.284015 105.37965 
L 46.388297 104.136219 
L 46.418968 104.136219 
L 46.52325 102.692235 
L 46.547787 102.652124 
L 46.658203 101.047697 
L 46.664337 101.047697 
L 46.768619 99.884487 
L 46.780887 99.884487 
L 46.891303 98.641056 
L 46.903572 98.560835 
L 47.007854 97.437736 
L 47.026256 97.397625 
L 47.130538 96.314637 
L 47.155075 96.274526 
L 47.265491 95.592644 
L 47.283894 95.512423 
L 47.382042 94.830541 
L 47.431115 94.75032 
L 47.516995 93.988217 
L 47.5538 93.907996 
L 47.645813 93.065671 
L 47.688753 93.025561 
L 47.793035 92.343679 
L 47.805303 92.343679 
L 47.909585 91.742019 
L 47.927988 91.661798 
L 48.038404 90.739252 
L 48.050672 90.739252 
L 48.161088 89.495821 
L 48.173357 89.495821 
L 48.283773 88.813939 
L 48.296041 88.813939 
L 48.406457 88.412832 
L 48.455531 88.332611 
L 48.553679 87.811172 
L 48.58435 87.730951 
L 48.694766 86.968848 
L 48.725437 86.968848 
L 48.835853 86.126524 
L 48.848122 86.126524 
L 48.952404 85.364421 
L 49.013746 85.284199 
L 49.124162 84.883093 
L 49.148699 84.842982 
L 49.259115 84.080879 
L 49.289786 84.040768 
L 49.394068 83.158333 
L 49.437008 83.078112 
L 49.547424 82.877559 
L 49.584229 82.797337 
L 49.676243 82.235788 
L 49.737585 82.155566 
L 49.848001 81.473685 
L 49.927746 81.433574 
L 50.019759 80.912135 
L 50.056565 80.912135 
L 50.160847 80.470918 
L 50.246726 80.390696 
L 50.332605 79.909368 
L 50.406216 79.829147 
L 50.498229 79.347819 
L 50.535034 79.307708 
L 50.627048 78.665937 
L 50.700659 78.585716 
L 50.774269 78.425273 
L 50.872417 78.345052 
L 50.96443 77.943945 
L 50.995101 77.943945 
L 51.080981 77.502727 
L 51.130054 77.462617 
L 51.215934 77.141731 
L 51.271142 77.141731 
L 51.363155 76.860956 
L 51.436766 76.780735 
L 51.541048 76.45985 
L 51.565585 76.45985 
L 51.626927 75.8983 
L 51.71894 75.818079 
L 51.829356 75.457083 
L 51.835491 75.457083 
L 51.939773 74.775201 
L 51.970444 74.69498 
L 52.08086 74.13343 
L 52.099262 74.093319 
L 52.185142 73.652102 
L 52.246484 73.571881 
L 52.3569 73.250995 
L 52.381437 73.170774 
L 52.485719 72.93011 
L 52.540927 72.849888 
L 52.651343 72.529003 
L 52.694282 72.448782 
L 52.780162 72.047675 
L 52.853772 71.967453 
L 52.964188 71.646568 
L 52.982591 71.646568 
L 53.093007 71.245461 
L 53.15435 71.16524 
L 53.246363 70.804244 
L 53.301571 70.724022 
L 53.405853 70.042141 
L 53.510135 69.961919 
L 53.596014 69.480591 
L 53.651222 69.40037 
L 53.761638 69.159706 
L 53.810712 69.119595 
L 53.914994 68.919042 
L 54.013141 68.83882 
L 54.117423 68.598156 
L 54.166497 68.558046 
L 54.25851 67.916275 
L 54.313719 67.836053 
L 54.399598 67.475057 
L 54.479343 67.434946 
L 54.546819 66.953618 
L 54.602027 66.873397 
L 54.675638 66.592622 
L 54.810591 66.512401 
L 54.914873 66.231626 
L 54.93941 66.151405 
L 55.043692 65.87063 
L 55.141839 65.87063 
L 55.252255 65.429412 
L 55.270658 65.389302 
L 55.37494 65.068416 
L 55.411745 64.988195 
L 55.516027 64.787642 
L 55.644846 64.70742 
L 55.742994 64.386535 
L 55.804336 64.306313 
L 55.896349 64.185981 
L 55.96996 64.10576 
L 56.080376 63.784875 
L 56.172389 63.704653 
L 56.264403 63.54421 
L 56.393222 63.463989 
L 56.497504 63.183214 
L 56.528175 63.102993 
L 56.626322 62.701886 
L 56.656993 62.701886 
L 56.706067 62.34089 
L 56.847154 62.260669 
L 56.957571 61.859562 
L 57.098658 61.77934 
L 57.209074 61.538676 
L 57.239745 61.538676 
L 57.350161 61.257902 
L 57.423772 61.17768 
L 57.503517 60.977127 
L 57.59553 60.896906 
L 57.681409 60.736463 
L 57.822497 60.656241 
L 57.896107 60.455688 
L 57.988121 60.455688 
L 58.098537 60.014471 
L 58.196685 59.934249 
L 58.288698 59.773806 
L 58.386846 59.693585 
L 58.497262 59.573253 
L 58.595409 59.493032 
L 58.699691 59.252368 
L 58.779436 59.212257 
L 58.82851 58.931482 
L 58.932792 58.851261 
L 59.024805 58.610597 
L 59.092282 58.570486 
L 59.184295 58.249601 
L 59.337651 58.169379 
L 59.42353 58.008937 
L 59.62596 57.928715 
L 59.736376 57.60783 
L 59.797718 57.527608 
L 59.883597 57.367166 
L 60.06149 57.286944 
L 60.104429 57.086391 
L 60.398872 57.006169 
L 60.509288 56.605063 
L 60.539959 56.564952 
L 60.625839 56.003402 
L 60.834402 55.923181 
L 60.93255 55.722628 
L 60.981624 55.682517 
L 61.079771 55.401742 
L 61.20859 55.321521 
L 61.294469 55.161078 
L 61.404885 55.120968 
L 61.472362 54.960525 
L 61.662523 54.880303 
L 61.717731 54.67975 
L 61.858818 54.599529 
L 61.969234 54.519307 
L 62.024442 54.439086 
L 62.12259 54.238533 
L 62.214603 54.158311 
L 62.32502 53.997868 
L 62.551986 53.917647 
L 62.631731 53.797315 
L 62.71761 53.717094 
L 62.809624 53.436319 
L 62.883234 53.356098 
L 62.956845 53.155544 
L 63.073395 53.075323 
L 63.165409 52.754437 
L 63.251288 52.674216 
L 63.361704 52.433552 
L 63.478254 52.353331 
L 63.582536 52.273109 
L 63.625476 52.232998 
L 63.668415 52.112666 
L 63.883113 52.032445 
L 63.944456 51.791781 
L 64.048737 51.71156 
L 64.140751 51.511006 
L 64.220496 51.430785 
L 64.318644 51.230231 
L 64.379986 51.190121 
L 64.379986 51.109899 
L 64.539476 51.029678 
L 64.600818 50.829125 
L 64.692831 50.748903 
L 64.803247 50.588461 
L 64.889127 50.508239 
L 64.944335 50.267575 
L 65.09769 50.187354 
L 65.177435 49.94669 
L 65.263315 49.866468 
L 65.343059 49.746136 
L 65.502549 49.665915 
L 65.594563 49.505472 
L 65.913543 49.425251 
L 65.993288 49.144476 
L 66.177314 49.064255 
L 66.275462 48.863701 
L 66.453355 48.78348 
L 66.5331 48.663148 
L 66.643516 48.582927 
L 66.735529 48.462595 
L 66.815274 48.382373 
L 66.92569 48.101598 
L 67.029972 48.061488 
L 67.134254 47.860934 
L 67.164925 47.780713 
L 67.275341 47.540049 
L 67.428697 47.459827 
L 67.496173 47.259274 
L 67.704737 47.179053 
L 67.809019 46.898278 
L 67.858093 46.818057 
L 67.858093 46.777946 
L 68.066656 46.697725 
L 68.121865 46.537282 
L 68.324294 46.45706 
L 68.416307 46.336728 
L 68.624871 46.296618 
L 68.692348 46.096064 
L 68.943851 46.015843 
L 69.041999 45.935622 
L 69.213757 45.8554 
L 69.318039 45.534515 
L 69.410052 45.454293 
L 69.520468 45.333961 
L 69.649287 45.25374 
L 69.692227 45.173519 
L 69.845582 45.093297 
L 69.949864 44.892744 
L 70.10322 44.812523 
L 70.170696 44.692191 
L 70.26271 44.611969 
L 70.287247 44.531748 
L 70.661435 44.451526 
L 70.692106 44.331194 
L 70.998817 44.250973 
L 71.096965 44.05042 
L 71.238052 43.970198 
L 71.280992 43.849866 
L 71.465018 43.769645 
L 71.465018 43.729534 
L 71.618374 43.649313 
L 71.65518 43.528981 
L 72.023233 43.448759 
L 72.035502 43.368538 
L 72.329945 43.288317 
L 72.329945 43.248206 
L 72.538508 43.167985 
L 72.569179 43.047653 
L 72.716401 42.967431 
L 72.790012 42.766878 
L 72.924965 42.726767 
L 72.924965 42.646546 
L 73.188736 42.566324 
L 73.293018 42.365771 
L 73.55679 42.28555 
L 73.605864 42.125107 
L 73.679475 42.084996 
L 73.789891 41.884443 
L 73.888038 41.804222 
L 73.924844 41.683889 
L 74.090468 41.603668 
L 74.200884 41.523447 
L 74.35424 41.443225 
L 74.372642 41.363004 
L 74.703891 41.282783 
L 74.795904 41.162451 
L 74.936991 41.082229 
L 75.035139 40.961897 
L 75.139421 40.881676 
L 75.213031 40.761344 
L 75.390924 40.681122 
L 75.397058 40.600901 
L 75.771246 40.52068 
L 75.832588 40.400348 
L 75.924602 40.360237 
L 76.035018 40.239905 
L 76.25585 40.159684 
L 76.304924 40.039352 
L 76.709783 39.95913 
L 76.709783 39.91902 
L 76.955152 39.838798 
L 77.059434 39.758577 
L 77.139179 39.678355 
L 77.139179 39.638245 
L 77.310937 39.558023 
L 77.353877 39.477802 
L 77.476561 39.397581 
L 77.562441 39.237138 
L 77.856883 39.156917 
L 77.918226 39.036585 
L 78.114521 38.956363 
L 78.114521 38.916253 
L 78.274011 38.836031 
L 78.372159 38.675588 
L 78.525514 38.635478 
L 78.623662 38.515146 
L 78.973313 38.434924 
L 78.973313 38.394814 
L 79.206414 38.314592 
L 79.292293 38.19426 
L 79.605138 38.114039 
L 79.666481 37.993707 
L 79.967058 37.913485 
L 79.967058 37.873375 
L 80.126548 37.793153 
L 80.126548 37.753043 
L 80.359648 37.672821 
L 80.457796 37.552489 
L 80.605017 37.472268 
L 80.647957 37.392047 
L 81.065084 37.311825 
L 81.144829 37.191493 
L 81.476078 37.111272 
L 81.476078 37.071161 
L 81.966816 36.99094 
L 82.064964 36.750276 
L 82.316467 36.670054 
L 82.316467 36.629944 
L 82.653849 36.549722 
L 82.758131 36.469501 
L 82.948292 36.38928 
L 82.972829 36.268948 
L 83.506507 36.188726 
L 83.604655 36.028283 
L 83.831621 35.948062 
L 83.874561 35.867841 
L 84.034051 35.787619 
L 84.144467 35.587066 
L 84.408238 35.506845 
L 84.481849 35.386513 
L 84.819232 35.306291 
L 84.819232 35.266181 
L 85.021661 35.185959 
L 85.101406 34.985406 
L 85.401983 34.905184 
L 85.457191 34.824963 
L 85.892721 34.744742 
L 86.003138 34.584299 
L 86.156493 34.504078 
L 86.260775 34.423856 
L 86.487742 34.343635 
L 86.530681 34.183192 
L 86.634963 34.102971 
L 86.684037 34.022749 
L 86.81899 33.942528 
L 86.825124 33.862307 
L 87.13797 33.782085 
L 87.223849 33.701864 
L 87.794332 33.621643 
L 87.818869 33.541421 
L 88.229862 33.4612 
L 88.229862 33.421089 
L 88.781943 33.340868 
L 88.867822 33.180425 
L 89.278815 33.100204 
L 89.334023 33.019982 
L 89.493513 32.939761 
L 89.542587 32.739208 
L 89.67754 32.658986 
L 89.67754 32.618876 
L 90.174412 32.538654 
L 90.174412 32.498544 
L 90.370707 32.418322 
L 90.474989 32.29799 
L 90.628345 32.217769 
L 90.628345 32.177658 
L 91.395123 32.097437 
L 91.493271 31.977105 
L 91.799982 31.896883 
L 91.799982 31.816662 
L 92.296855 31.736441 
L 92.388868 31.575998 
L 92.707848 31.495777 
L 92.787593 31.375445 
L 93.413284 31.295223 
L 93.456224 31.215002 
L 93.689325 31.13478 
L 93.781338 30.934227 
L 94.155526 30.854006 
L 94.155526 30.813895 
L 94.357955 30.733674 
L 94.456103 30.613342 
L 94.738277 30.53312 
L 94.775083 30.452899 
L 95.781096 30.372678 
L 95.781096 30.332567 
L 96.241163 30.252345 
L 96.241163 30.212235 
L 96.633754 30.132013 
L 96.688962 30.051792 
L 97.670438 29.971571 
L 97.670438 29.93146 
L 98.044626 29.851239 
L 98.124371 29.771017 
L 98.762331 29.690796 
L 98.762331 29.650685 
L 99.075176 29.570464 
L 99.179458 29.289689 
L 99.608854 29.249578 
L 99.713136 29.089136 
L 99.9217 29.049025 
L 99.989176 28.928693 
L 100.510585 28.848472 
L 100.59033 28.72814 
L 101.694491 28.647918 
L 101.694491 28.607808 
L 102.25884 28.527586 
L 102.25884 28.487476 
L 102.8968 28.407254 
L 102.8968 28.367143 
L 103.393672 28.286922 
L 103.393672 28.246811 
L 104.332209 28.16659 
L 104.442625 28.086369 
L 105.620397 28.006147 
L 105.620397 27.966037 
L 106.46692 27.885815 
L 106.497591 27.805594 
L 106.620276 27.725373 
L 106.620276 27.685262 
L 106.98833 27.605041 
L 106.98833 27.56493 
L 108.110893 27.484709 
L 108.190638 27.364376 
L 108.33786 27.284155 
L 108.33786 27.244044 
L 109.043296 27.163823 
L 109.153712 27.083602 
L 109.497229 27.00338 
L 109.534034 26.923159 
L 110.055443 26.842938 
L 110.165859 26.762716 
L 110.472571 26.682495 
L 110.472571 26.642384 
L 110.76088 26.562163 
L 110.859027 26.481941 
L 111.19641 26.40172 
L 111.294557 26.321499 
L 112.214691 26.241277 
L 112.214691 26.201167 
L 112.852651 26.120945 
L 112.950799 26.040724 
L 113.453805 25.960503 
L 113.496745 25.840171 
L 113.594893 25.759949 
L 113.594893 25.719839 
L 114.613174 25.639617 
L 114.699054 25.519285 
L 115.287939 25.439064 
L 115.287939 25.398953 
L 116.796959 25.318732 
L 116.821496 25.23851 
L 117.569872 25.158289 
L 117.569872 25.118178 
L 118.232369 25.037957 
L 118.232369 24.997846 
L 118.53908 24.957736 
L 118.643362 24.757182 
L 119.489885 24.676961 
L 119.557362 24.59674 
L 119.876342 24.556629 
L 119.876342 24.476407 
L 121.330153 24.396186 
L 121.330153 24.356075 
L 123.010932 24.275854 
L 123.010932 24.235743 
L 123.691831 24.155522 
L 123.691831 24.115411 
L 123.98014 24.03519 
L 123.98014 23.995079 
L 124.900274 23.914858 
L 124.924811 23.794526 
L 125.452354 23.714305 
L 125.452354 23.674194 
L 125.771334 23.593972 
L 125.771334 23.553862 
L 126.673066 23.47364 
L 126.673066 23.43353 
L 127.728153 23.353308 
L 127.746555 23.273087 
L 127.991924 23.192866 
L 128.004193 23.112644 
L 129.513213 23.032423 
L 129.513213 22.992312 
L 130.605105 22.912091 
L 130.697119 22.791759 
L 131.604984 22.711538 
L 131.604984 22.671427 
L 132.224541 22.591205 
L 132.224541 22.551095 
L 132.844098 22.470873 
L 132.929978 22.390652 
L 133.837843 22.310431 
L 133.837843 22.27032 
L 134.856125 22.230209 
L 134.954273 22.109877 
L 135.598366 22.029656 
L 135.598366 21.989545 
L 137.113521 21.909324 
L 137.113521 21.869213 
L 137.653333 21.788992 
L 137.684004 21.70877 
L 139.2605 21.628549 
L 139.2605 21.588438 
L 139.726702 21.508217 
L 139.818715 21.427996 
L 140.965815 21.347774 
L 140.965815 21.307664 
L 142.885829 21.227442 
L 142.885829 21.187332 
L 144.400983 21.10711 
L 144.400983 21.067 
L 145.229104 20.986778 
L 145.229104 20.946668 
L 147.701197 20.866446 
L 147.7196 20.786225 
L 148.326888 20.706003 
L 148.326888 20.665893 
L 148.621331 20.585671 
L 148.621331 20.545561 
L 150.154888 20.465339 
L 150.167157 20.385118 
L 151.21611 20.304897 
L 151.21611 20.264786 
L 152.283465 20.184565 
L 152.283465 20.144454 
L 152.700593 20.064233 
L 152.700593 20.024122 
L 156.319787 19.943901 
L 156.319787 19.90379 
L 158.319545 19.823569 
L 158.380887 19.703236 
L 159.024981 19.623015 
L 159.024981 19.582904 
L 160.570806 19.542794 
L 160.570806 19.462572 
L 161.920336 19.382351 
L 161.920336 19.34224 
L 163.644054 19.262019 
L 163.644054 19.221908 
L 164.919974 19.141687 
L 164.919974 19.101576 
L 166.839987 19.021355 
L 166.839987 18.981244 
L 169.017638 18.901023 
L 169.017638 18.860912 
L 170.729087 18.780691 
L 170.729087 18.74058 
L 171.949798 18.660359 
L 171.949798 18.620248 
L 172.465073 18.540027 
L 172.465073 18.499916 
L 175.139597 18.419695 
L 175.139597 18.379584 
L 177.065744 18.299363 
L 177.065744 18.259252 
L 177.673033 18.179031 
L 177.673033 18.13892 
L 179.096173 18.058699 
L 179.096173 18.018588 
L 180.059247 17.938367 
L 180.089918 17.818034 
L 183.09569 17.737813 
L 183.09569 17.697702 
L 185.923568 17.617481 
L 185.923568 17.57737 
L 188.383394 17.497149 
L 188.383394 17.457038 
L 189.548897 17.376817 
L 189.604105 17.296596 
L 190.702132 17.216374 
L 190.702132 17.176264 
L 194.186373 17.096042 
L 194.186373 17.055932 
L 198.940399 16.97571 
L 198.940399 16.935599 
L 200.099768 16.855378 
L 200.099768 16.815267 
L 202.94605 16.735046 
L 203.031929 16.654825 
L 205.405875 16.574603 
L 205.405875 16.534493 
L 206.810613 16.454271 
L 206.810613 16.414161 
L 210.558626 16.333939 
L 210.570894 16.253718 
L 215.797256 16.173497 
L 215.797256 16.133386 
L 217.085444 16.053165 
L 217.085444 16.013054 
L 218.54539 15.932832 
L 218.557659 15.852611 
L 221.207645 15.77239 
L 221.207645 15.732279 
L 222.931363 15.652058 
L 222.931363 15.611947 
L 226.010745 15.531726 
L 226.010745 15.491615 
L 230.869053 15.411394 
L 230.869053 15.331172 
L 233.242999 15.250951 
L 233.242999 15.21084 
L 236.193562 15.130619 
L 236.193562 15.090508 
L 239.683938 15.010287 
L 239.683938 14.970176 
L 240.972126 14.889955 
L 240.972126 14.849844 
L 245.885642 14.769623 
L 245.910179 14.689401 
L 247.106353 14.60918 
L 247.106353 14.569069 
L 248.394541 14.488848 
L 248.394541 14.448737 
L 250.437239 14.368516 
L 250.437239 14.328405 
L 251.952393 14.248184 
L 251.952393 14.208073 
L 254.712795 14.127852 
L 254.712795 14.087741 
L 259.841009 14.00752 
L 259.841009 13.967409 
L 261.889841 13.887188 
L 261.889841 13.847077 
L 265.386351 13.766856 
L 265.386351 13.686634 
L 272.747424 13.606413 
L 272.747424 13.566302 
L 277.77749 13.486081 
L 277.77749 13.44597 
L 281.500966 13.365749 
L 281.500966 13.325638 
L 286.463556 13.245417 
L 286.463556 13.205306 
L 289.549073 13.125085 
L 289.549073 13.084974 
L 292.137717 13.004753 
L 292.137717 12.964642 
L 294.849045 12.884421 
L 294.849045 12.84431 
L 300.860588 12.764089 
L 300.860588 12.723978 
L 310.276627 12.643757 
L 310.276627 12.603646 
L 319.18966 12.523425 
L 319.18966 12.483314 
L 325.047847 12.403093 
L 325.047847 12.362982 
L 331.225014 12.282761 
L 331.225014 12.24265 
L 336.175336 12.162428 
L 336.175336 12.122318 
L 339.174973 12.042096 
L 339.174973 12.001986 
L 349.370059 11.921764 
L 349.370059 11.881654 
L 352.572126 11.801432 
L 352.572126 11.761322 
L 357.546984 11.6811 
L 357.546984 11.64099 
L 361.620111 11.560768 
L 361.620111 11.520658 
L 368.410701 11.440436 
L 368.410701 11.400326 
L 371.128164 11.320104 
L 371.128164 11.279994 
L 373.091116 11.199772 
L 373.091116 11.159661 
L 376.299317 11.07944 
L 376.299317 11.039329 
L 378.58125 10.999219 
L 378.58125 10.999219 
" style="fill:none;stroke:#0000ff;stroke-dasharray:1.5,2.475;stroke-dashoffset:0;stroke-width:1.5;"/>
   </g>
   <g id="line2d_14">
    <path clip-path="url(#p74e0573705)" d="M 43.78125 228.439219 
L 43.78125 223.465494 
L 43.78125 216.486236 
L 43.78125 208.383878 
L 43.78125 199.760082 
L 43.78125 182.833375 
L 43.78125 174.690907 
L 43.78125 167.551205 
L 43.78125 161.33405 
L 43.78125 155.277337 
L 43.78125 149.180514 
L 43.78125 143.123801 
L 43.78125 137.869302 
L 43.78125 132.895577 
L 43.78125 128.042185 
L 43.787384 123.469567 
L 43.787384 119.097503 
L 43.787384 114.925992 
L 43.787384 110.794592 
L 43.787384 107.264852 
L 43.787384 103.855445 
L 43.787384 100.085041 
L 43.793518 96.154194 
L 43.793518 89.094714 
L 43.793518 86.607852 
L 43.805787 83.920436 
L 43.805787 81.233021 
L 43.811921 78.746158 
L 43.811921 75.938411 
L 43.811921 73.291106 
L 43.811921 70.443248 
L 43.82419 68.317381 
L 43.854861 65.469523 
L 43.860995 63.263436 
L 43.860995 61.017238 
L 43.860995 59.533142 
L 43.873263 57.888604 
L 43.891666 55.682517 
L 43.916203 53.717094 
L 43.94074 52.032445 
L 43.965277 50.708793 
L 43.989814 48.582927 
L 44.002082 47.219163 
L 44.008216 45.895511 
L 44.026619 44.732301 
L 44.051156 43.408649 
L 44.069559 42.084996 
L 44.075693 40.56079 
L 44.10023 39.116806 
L 44.124767 37.833264 
L 44.130901 36.790386 
L 44.173841 35.948062 
L 44.186109 34.544188 
L 44.229049 33.741975 
L 44.253586 32.578765 
L 44.321062 31.455666 
L 44.37627 30.252345 
L 44.462149 29.369911 
L 44.560297 28.76825 
L 44.640042 27.56493 
L 44.658445 26.361609 
L 44.725921 25.398953 
L 44.830203 24.797293 
L 44.922216 24.075301 
L 45.026498 23.112644 
L 45.13078 22.27032 
L 45.296404 21.788992 
L 45.431357 21.187332 
L 45.590847 20.786225 
L 45.762605 20.264786 
L 45.952767 19.542794 
L 46.155196 18.981244 
L 46.376028 18.459805 
L 46.633666 17.978477 
L 46.964914 17.376817 
L 47.314565 16.97571 
L 47.71329 16.494382 
L 48.142686 16.093275 
L 48.639558 15.732279 
L 49.068954 15.090508 
L 49.639437 14.689401 
L 50.20992 14.408627 
L 50.976699 13.927298 
L 52.019517 13.526192 
L 53.191155 13.325638 
L 54.448672 13.125085 
L 56.190792 12.884421 
L 58.074 12.643757 
L 60.472483 12.443203 
L 63.232885 12.24265 
L 67.20173 12.082207 
L 71.833072 11.881654 
L 77.60538 11.841543 
L 84.917379 11.64099 
L 95.345566 11.320104 
L 110.276276 11.239883 
L 131.187857 11.119551 
L 164.447638 11.07944 
L 225.201027 10.999219 
L 378.58125 10.999219 
" style="fill:none;stroke:#1f77b4;stroke-linecap:square;stroke-width:2;"/>
   </g>
   <g id="line2d_15">
    <path clip-path="url(#p74e0573705)" d="M 43.78125 228.439219 
L 378.58125 10.999219 
" style="fill:none;stroke:#000000;stroke-dasharray:5.55,2.4;stroke-dashoffset:0;stroke-width:1.5;"/>
   </g>
   <g id="patch_3">
    <path d="M 43.78125 228.439219 
L 43.78125 10.999219 
" style="fill:none;stroke:#000000;stroke-linecap:square;stroke-linejoin:miter;stroke-width:0.8;"/>
   </g>
   <g id="patch_4">
    <path d="M 378.58125 228.439219 
L 378.58125 10.999219 
" style="fill:none;stroke:#000000;stroke-linecap:square;stroke-linejoin:miter;stroke-width:0.8;"/>
   </g>
   <g id="patch_5">
    <path d="M 43.78125 228.439219 
L 378.58125 228.439219 
" style="fill:none;stroke:#000000;stroke-linecap:square;stroke-linejoin:miter;stroke-width:0.8;"/>
   </g>
   <g id="patch_6">
    <path d="M 43.78125 10.999219 
L 378.58125 10.999219 
" style="fill:none;stroke:#000000;stroke-linecap:square;stroke-linejoin:miter;stroke-width:0.8;"/>
   </g>
   <g id="legend_1">
    <g id="patch_7">
     <path d="M 264.329688 223.439219 
L 371.58125 223.439219 
Q 373.58125 223.439219 373.58125 221.439219 
L 373.58125 193.082969 
Q 373.58125 191.082969 371.58125 191.082969 
L 264.329688 191.082969 
Q 262.329688 191.082969 262.329688 193.082969 
L 262.329688 221.439219 
Q 262.329688 223.439219 264.329688 223.439219 
z
" style="fill:#ffffff;opacity:0.8;stroke:#cccccc;stroke-linejoin:miter;"/>
    </g>
    <g id="line2d_16">
     <path d="M 266.329688 199.181406 
L 286.329688 199.181406 
" style="fill:none;stroke:#0000ff;stroke-dasharray:1.5,2.475;stroke-dashoffset:0;stroke-width:1.5;"/>
    </g>
    <g id="line2d_17"/>
    <g id="text_15">
     <!-- SGD -->
     <defs>
      <path d="M 53.515625 70.515625 
L 53.515625 60.890625 
Q 47.90625 63.578125 42.921875 64.890625 
Q 37.9375 66.21875 33.296875 66.21875 
Q 25.25 66.21875 20.875 63.09375 
Q 16.5 59.96875 16.5 54.203125 
Q 16.5 49.359375 19.40625 46.890625 
Q 22.3125 44.4375 30.421875 42.921875 
L 36.375 41.703125 
Q 47.40625 39.59375 52.65625 34.296875 
Q 57.90625 29 57.90625 20.125 
Q 57.90625 9.515625 50.796875 4.046875 
Q 43.703125 -1.421875 29.984375 -1.421875 
Q 24.8125 -1.421875 18.96875 -0.25 
Q 13.140625 0.921875 6.890625 3.21875 
L 6.890625 13.375 
Q 12.890625 10.015625 18.65625 8.296875 
Q 24.421875 6.59375 29.984375 6.59375 
Q 38.421875 6.59375 43.015625 9.90625 
Q 47.609375 13.234375 47.609375 19.390625 
Q 47.609375 24.75 44.3125 27.78125 
Q 41.015625 30.8125 33.5 32.328125 
L 27.484375 33.5 
Q 16.453125 35.6875 11.515625 40.375 
Q 6.59375 45.0625 6.59375 53.421875 
Q 6.59375 63.09375 13.40625 68.65625 
Q 20.21875 74.21875 32.171875 74.21875 
Q 37.3125 74.21875 42.625 73.28125 
Q 47.953125 72.359375 53.515625 70.515625 
z
" id="DejaVuSans-83"/>
      <path d="M 59.515625 10.40625 
L 59.515625 29.984375 
L 43.40625 29.984375 
L 43.40625 38.09375 
L 69.28125 38.09375 
L 69.28125 6.78125 
Q 63.578125 2.734375 56.6875 0.65625 
Q 49.8125 -1.421875 42 -1.421875 
Q 24.90625 -1.421875 15.25 8.5625 
Q 5.609375 18.5625 5.609375 36.375 
Q 5.609375 54.25 15.25 64.234375 
Q 24.90625 74.21875 42 74.21875 
Q 49.125 74.21875 55.546875 72.453125 
Q 61.96875 70.703125 67.390625 67.28125 
L 67.390625 56.78125 
Q 61.921875 61.421875 55.765625 63.765625 
Q 49.609375 66.109375 42.828125 66.109375 
Q 29.4375 66.109375 22.71875 58.640625 
Q 16.015625 51.171875 16.015625 36.375 
Q 16.015625 21.625 22.71875 14.15625 
Q 29.4375 6.6875 42.828125 6.6875 
Q 48.046875 6.6875 52.140625 7.59375 
Q 56.25 8.5 59.515625 10.40625 
z
" id="DejaVuSans-71"/>
      <path d="M 19.671875 64.796875 
L 19.671875 8.109375 
L 31.59375 8.109375 
Q 46.6875 8.109375 53.6875 14.9375 
Q 60.6875 21.78125 60.6875 36.53125 
Q 60.6875 51.171875 53.6875 57.984375 
Q 46.6875 64.796875 31.59375 64.796875 
z
M 9.8125 72.90625 
L 30.078125 72.90625 
Q 51.265625 72.90625 61.171875 64.09375 
Q 71.09375 55.28125 71.09375 36.53125 
Q 71.09375 17.671875 61.125 8.828125 
Q 51.171875 0 30.078125 0 
L 9.8125 0 
z
" id="DejaVuSans-68"/>
     </defs>
     <g transform="translate(294.329688 202.681406)scale(0.1 -0.1)">
      <use xlink:href="#DejaVuSans-83"/>
      <use x="63.476562" xlink:href="#DejaVuSans-71"/>
      <use x="140.966797" xlink:href="#DejaVuSans-68"/>
     </g>
    </g>
    <g id="line2d_18">
     <path d="M 266.329688 213.859531 
L 286.329688 213.859531 
" style="fill:none;stroke:#1f77b4;stroke-linecap:square;stroke-width:2;"/>
    </g>
    <g id="line2d_19"/>
    <g id="text_16">
     <!-- Random Forest -->
     <defs>
      <path d="M 54.890625 33.015625 
L 54.890625 0 
L 45.90625 0 
L 45.90625 32.71875 
Q 45.90625 40.484375 42.875 44.328125 
Q 39.84375 48.1875 33.796875 48.1875 
Q 26.515625 48.1875 22.3125 43.546875 
Q 18.109375 38.921875 18.109375 30.90625 
L 18.109375 0 
L 9.078125 0 
L 9.078125 54.6875 
L 18.109375 54.6875 
L 18.109375 46.1875 
Q 21.34375 51.125 25.703125 53.5625 
Q 30.078125 56 35.796875 56 
Q 45.21875 56 50.046875 50.171875 
Q 54.890625 44.34375 54.890625 33.015625 
z
" id="DejaVuSans-110"/>
      <path d="M 45.40625 46.390625 
L 45.40625 75.984375 
L 54.390625 75.984375 
L 54.390625 0 
L 45.40625 0 
L 45.40625 8.203125 
Q 42.578125 3.328125 38.25 0.953125 
Q 33.9375 -1.421875 27.875 -1.421875 
Q 17.96875 -1.421875 11.734375 6.484375 
Q 5.515625 14.40625 5.515625 27.296875 
Q 5.515625 40.1875 11.734375 48.09375 
Q 17.96875 56 27.875 56 
Q 33.9375 56 38.25 53.625 
Q 42.578125 51.265625 45.40625 46.390625 
z
M 14.796875 27.296875 
Q 14.796875 17.390625 18.875 11.75 
Q 22.953125 6.109375 30.078125 6.109375 
Q 37.203125 6.109375 41.296875 11.75 
Q 45.40625 17.390625 45.40625 27.296875 
Q 45.40625 37.203125 41.296875 42.84375 
Q 37.203125 48.484375 30.078125 48.484375 
Q 22.953125 48.484375 18.875 42.84375 
Q 14.796875 37.203125 14.796875 27.296875 
z
" id="DejaVuSans-100"/>
      <path d="M 52 44.1875 
Q 55.375 50.25 60.0625 53.125 
Q 64.75 56 71.09375 56 
Q 79.640625 56 84.28125 50.015625 
Q 88.921875 44.046875 88.921875 33.015625 
L 88.921875 0 
L 79.890625 0 
L 79.890625 32.71875 
Q 79.890625 40.578125 77.09375 44.375 
Q 74.3125 48.1875 68.609375 48.1875 
Q 61.625 48.1875 57.5625 43.546875 
Q 53.515625 38.921875 53.515625 30.90625 
L 53.515625 0 
L 44.484375 0 
L 44.484375 32.71875 
Q 44.484375 40.625 41.703125 44.40625 
Q 38.921875 48.1875 33.109375 48.1875 
Q 26.21875 48.1875 22.15625 43.53125 
Q 18.109375 38.875 18.109375 30.90625 
L 18.109375 0 
L 9.078125 0 
L 9.078125 54.6875 
L 18.109375 54.6875 
L 18.109375 46.1875 
Q 21.1875 51.21875 25.484375 53.609375 
Q 29.78125 56 35.6875 56 
Q 41.65625 56 45.828125 52.96875 
Q 50 49.953125 52 44.1875 
z
" id="DejaVuSans-109"/>
     </defs>
     <g transform="translate(294.329688 217.359531)scale(0.1 -0.1)">
      <use xlink:href="#DejaVuSans-82"/>
      <use x="67.232422" xlink:href="#DejaVuSans-97"/>
      <use x="128.511719" xlink:href="#DejaVuSans-110"/>
      <use x="191.890625" xlink:href="#DejaVuSans-100"/>
      <use x="255.367188" xlink:href="#DejaVuSans-111"/>
      <use x="316.548828" xlink:href="#DejaVuSans-109"/>
      <use x="413.960938" xlink:href="#DejaVuSans-32"/>
      <use x="445.748047" xlink:href="#DejaVuSans-70"/>
      <use x="499.642578" xlink:href="#DejaVuSans-111"/>
      <use x="560.824219" xlink:href="#DejaVuSans-114"/>
      <use x="599.6875" xlink:href="#DejaVuSans-101"/>
      <use x="661.210938" xlink:href="#DejaVuSans-115"/>
      <use x="713.310547" xlink:href="#DejaVuSans-116"/>
     </g>
    </g>
   </g>
  </g>
 </g>
 <defs>
  <clipPath id="p74e0573705">
   <rect height="217.44" width="334.8" x="43.78125" y="10.999219"/>
  </clipPath>
 </defs>
</svg>
